<svg width="113" height="120" viewBox="0 0 113 120" fill="none" xmlns="http://www.w3.org/2000/svg">
<path d="M35.0068 76.4672C35.0068 76.4672 22.0767 54.1409 22.0767 27.5573C22.0767 13.3324 26.9845 9.69217 32.0031 9.69217C36.9935 9.69217 37.3409 13.2576 37.3409 14.7166C37.3409 20.1456 31.7326 22.1284 31.7326 29.7244C31.7326 37.3098 38.0281 37.5696 38.0281 37.5696L31.1365 43.4284C31.1365 43.4284 30.0913 63.7889 35.0068 76.4672ZM80.9158 29.7244C80.9158 22.1284 75.3132 20.1456 75.3132 14.7166C75.3132 13.2576 75.6606 9.69287 80.6595 9.69287C85.6696 9.69287 90.5802 13.3324 90.5802 27.5573C90.5802 54.1409 77.6417 76.4672 77.6417 76.4672C82.5628 63.7896 81.5232 43.4284 81.5232 43.4284L74.6232 37.5696C74.6232 37.5696 80.9158 37.3105 80.9158 29.7244ZM67.9717 97.4341C67.9717 97.4341 94.2965 72.1606 94.2965 25.4976C94.2965 15.1493 89.8986 5.64746 81.0126 5.64746C73.4148 5.64746 71.6908 12.0336 71.6908 14.2783C71.6908 21.0943 76.6896 24.2955 76.6896 30.2404C76.6896 30.2404 73.4148 25.8371 56.327 25.8371C39.2358 25.8371 35.9701 30.2404 35.9701 30.2404C35.9701 24.2955 40.9633 21.0943 40.9633 14.2783C40.9633 12.0336 39.2365 5.64746 31.6443 5.64746C22.7554 5.64746 18.3633 15.1486 18.3633 25.4976C18.3633 72.1606 44.6711 97.4341 44.6711 97.4341C44.6711 102.262 48.6466 102.262 48.6466 102.262V107.611C48.6466 111.238 38.3777 113.471 37.4207 113.471C36.48 113.471 35.1784 114.158 35.1784 116.069C35.1784 117.955 48.8175 118.484 56.327 118.484C63.8366 118.484 77.4729 117.955 77.4729 116.069C77.4729 114.158 76.179 113.471 75.2249 113.471C74.2729 113.471 64.0096 111.238 64.0096 107.611V102.262C64.0096 102.262 67.9717 102.262 67.9717 97.4341Z" fill="#606F7F"/>
</svg>
