<svg width="113" height="120" viewBox="0 0 113 120" fill="none" xmlns="http://www.w3.org/2000/svg">
<path d="M77.7176 63.6234C75.5297 66.3311 75.0558 66.2845 74.5565 66.2125C74.2005 65.5476 73.6758 65.4544 72.9646 65.8102C72.2499 66.1652 72.49 67.2354 72.49 67.2354C72.49 67.2354 69.6367 67.685 68.2355 71.4375C67.8633 72.4356 67.7115 73.2714 67.6917 73.9659C66.6253 71.2222 66.0455 66.8739 68.5336 59.4106C68.5336 59.4106 69.7554 58.7542 69.8274 57.6756C70.456 57.1243 70.8183 56.5285 71.0111 55.9497C71.3204 56.0874 71.2618 56.4375 71.3727 56.8568C71.8 58.0426 72.49 58.3758 73.0274 58.3758C73.5656 58.3758 74.4484 57.9241 74.4484 57.0085C74.4484 55.4062 73.0274 55.5883 73.0274 55.5883C72.1863 54.3198 74.9343 49.9991 78.0955 52.1055C81.8118 54.5789 79.9028 60.9149 77.7176 63.6234ZM44.8551 73.9659C44.8354 73.2714 44.687 72.4356 44.3113 71.4375C42.9101 67.685 40.0576 67.2354 40.0576 67.2354C40.0576 67.2354 40.2977 66.1652 39.583 65.8095C38.8711 65.4544 38.347 65.5483 37.9911 66.2118C37.4918 66.2838 37.0172 66.3311 34.832 63.6234C32.6448 60.9156 30.7358 54.5789 34.4514 52.1055C37.6132 49.9991 40.3613 54.3198 39.5222 55.5883C39.5222 55.5883 38.0984 55.4062 38.0984 57.0085C38.0984 57.9241 38.9841 58.3758 39.5222 58.3758C40.0576 58.3758 40.7469 58.0426 41.1749 56.8568C41.285 56.4375 41.2271 56.0874 41.5393 55.9497C41.73 56.5285 42.0902 57.1243 42.7194 57.6756C42.7915 58.7535 44.0161 59.4099 44.0161 59.4099C46.5021 66.8739 45.923 71.2222 44.8551 73.9659ZM82.1126 54.9071C81.828 51.653 79.5468 50.5151 78.8102 50.0874C78.0736 49.6603 77.8582 48.9841 77.075 48.8662C76.2917 48.7476 77.0029 49.5163 77.0029 49.7316C77.0029 49.9434 76.4323 49.6603 75.2931 49.8968C72.228 50.705 71.538 52.4365 71.3007 53.1509C71.2039 53.4375 71.0747 53.429 70.9532 53.3217C70.9254 53.2402 70.8959 53.1592 70.8649 53.0789C70.8447 53.0326 70.841 52.9807 70.8545 52.932C70.868 52.8833 70.8979 52.8407 70.9391 52.8114C71.1933 52.6243 71.6813 52.1909 71.61 51.6537C71.5132 50.9281 69.8302 51.1681 69.2095 50.9062C68.1169 50.4431 68.0208 49.1605 67.5928 49.1965C67.571 48.7201 66.9064 48.4829 66.9064 48.4829C66.7376 46.4288 64.3512 47.0351 63.8624 46.8198C63.6039 46.7069 63.5729 46.4612 63.2339 46.3568C62.404 46.1026 61.1787 46.0179 60.834 45.8824C60.3453 45.6918 59.656 44.6824 59.656 44.6824C59.656 44.6824 60.0727 44.3161 60.0727 44.0542C60.0727 44.0542 60.9273 43.721 60.9273 43.2001C60.9273 43.2001 62.5912 42.6283 62.2712 41.1918C62.07 40.2904 60.274 39.8768 59.4653 39.7363C59.2106 39.6911 58.9692 39.5893 58.7591 39.4384C58.4695 39.2288 58.0422 38.9478 57.7604 38.8786C57.6721 38.8568 57.6997 38.5702 57.6997 38.5095C57.6997 38.2582 57.3028 38.1841 57.3028 38.0761V37.6984C57.3028 37.6984 57.5125 37.6765 57.5125 37.5579V37.3074C57.5125 37.241 57.2752 37.2297 57.2752 37.1718V37.0172C57.2752 37.0172 57.4518 36.9565 57.4518 36.7801C57.4518 36.5514 57.4518 36.3474 58.0782 36.185H58.0754C58.5578 36.0495 59.4187 35.6358 59.4187 34.3871C59.4187 33.1765 57.7548 33.1518 57.7548 31.1584V29.3986L58.0062 29.2942C58.2605 29.1841 58.1799 28.8064 57.9073 28.8064H56.8586V28.7866C56.8586 28.6404 56.8004 28.5002 56.697 28.3968C56.5936 28.2934 56.4533 28.2354 56.307 28.2354H56.2406C56.0943 28.2354 55.954 28.2934 55.8506 28.3968C55.7471 28.5002 55.689 28.6404 55.689 28.7866V28.8064H54.6438C54.3676 28.8064 54.2906 29.1841 54.5413 29.2942L54.7921 29.3986V31.1584C54.7921 33.1518 53.1288 33.1765 53.1288 34.3871C53.1288 35.6365 53.9891 36.0495 54.4721 36.185C55.0958 36.3474 55.0958 36.5521 55.0958 36.7801C55.0958 36.9565 55.2723 37.0172 55.2723 37.0172V37.1725C55.2723 37.2297 55.035 37.241 55.035 37.3066V37.5579C55.035 37.6765 55.2448 37.6991 55.2448 37.6991V38.0761C55.2448 38.1841 54.8471 38.2582 54.8471 38.5095C54.8471 38.5702 54.8754 38.8568 54.7864 38.8786C54.5053 38.9478 54.0773 39.2288 53.7878 39.4384C53.5776 39.5893 53.3363 39.6911 53.0815 39.7363C52.2736 39.8775 50.4776 40.2904 50.2763 41.1925C49.9564 42.629 51.6196 43.1994 51.6196 43.1994C51.6196 43.721 52.4742 44.0542 52.4742 44.0542C52.4742 44.3161 52.8908 44.6824 52.8908 44.6824C52.8908 44.6824 52.2015 45.6918 51.7135 45.8824C51.3689 46.0172 50.1464 46.1033 49.3158 46.3568C48.974 46.4612 48.9436 46.7069 48.6844 46.8198C48.1985 47.0351 45.81 46.4281 45.644 48.4829C45.644 48.4829 44.9766 48.7194 44.954 49.1965C44.5267 49.1612 44.43 50.4431 43.3374 50.9062C42.7194 51.1681 41.0343 50.9281 40.9376 51.6537C40.8683 52.1909 41.3542 52.6243 41.6085 52.8114C41.6495 52.841 41.6794 52.8835 41.6934 52.9322C41.7073 52.9808 41.7046 53.0327 41.6855 53.0796C41.6572 53.1431 41.6269 53.225 41.5937 53.3217C41.4729 53.429 41.3429 53.4375 41.2462 53.1509C41.0089 52.4365 40.3196 50.705 37.2545 49.8968C36.1153 49.6603 35.5439 49.9441 35.5439 49.7316C35.5439 49.5163 36.2587 48.7476 35.4726 48.8662C34.6887 48.9841 34.474 49.6603 33.7373 50.0874C33.0007 50.5151 30.7188 51.6537 30.4349 54.9071C30.1503 58.1612 30.7435 60.797 33.1187 64.2191C35.4973 67.6377 38.3004 67.9222 38.7743 67.9222C38.7743 67.9222 38.4904 69.2288 39.321 69.4906C40.1543 69.7525 40.107 68.9669 40.535 69.0883C40.9623 69.2069 41.7921 69.5626 42.5542 71.3436C43.3155 73.1252 43.2187 74.2172 42.8854 74.3824C42.5542 74.5476 41.3182 75.0248 41.7928 76.1888C42.0796 76.8862 42.8077 76.925 43.3466 76.8445C42.7696 77.7876 42.4299 78.4081 42.8635 79.0151C42.4744 79.0589 42.2731 79.3977 42.1735 79.6624C42.0854 79.8982 41.9657 80.121 41.8175 80.3245C41.0534 81.3777 39.0724 84.6509 41.3655 87.6728C43.9201 91.0342 48.284 92.2914 51.3738 92.3104C51.3738 92.3104 51.222 93.0001 51.8731 93.1546C51.2799 93.5182 51.5836 94.2819 51.5836 94.2819C51.5836 94.2819 47.2112 95.0048 46.7006 95.0874C46.1928 95.1699 46.5932 95.7601 46.5932 96.2591C45.8177 96.4469 45.7047 96.7525 45.7379 96.9735C45.7479 97.0391 45.7353 97.1062 45.7022 97.1637C45.6691 97.2213 45.6175 97.2659 45.5557 97.2904C44.9483 97.5361 44.7831 98.4869 44.7831 98.4869L44.336 98.8786C44.1927 99.0029 44.0189 99.0798 43.8346 99.1271C43.0118 99.3368 41.9885 100.26 43.2661 101.173L43.211 101.44C43.1693 101.906 43.5034 101.923 43.3268 103.597C43.1834 104.939 42.7667 106.351 42.7667 106.351C42.7667 106.351 41.2412 107.641 41.1749 108.606C39.7073 108.673 39.7977 110.269 39.7977 110.269C38.4078 110.994 38.6091 112.194 38.6091 112.194C37.1386 112.641 36.7001 113.92 36.5729 114.684C36.5319 114.917 36.5564 115.156 36.6437 115.376C36.731 115.595 36.8777 115.786 37.0673 115.927C38.3308 116.845 42.5076 118.417 56.2738 118.417C70.04 118.417 74.2168 116.845 75.4802 115.927C75.6703 115.786 75.8174 115.596 75.9051 115.376C75.9928 115.157 76.0176 114.917 75.9767 114.684C75.8475 113.92 75.4089 112.641 73.9385 112.194C73.9385 112.194 74.1398 110.994 72.7492 110.269C72.7492 110.269 72.8403 108.673 71.3727 108.606C71.3063 107.641 69.7808 106.351 69.7808 106.351C69.7808 106.351 69.3641 104.939 69.2208 103.597C69.0442 101.923 69.3804 101.906 69.3366 101.44L69.2815 101.173C70.5584 100.26 69.5357 99.3368 68.713 99.1271C68.5287 99.0844 68.357 98.9994 68.2115 98.8786L67.7638 98.4869C67.7638 98.4869 67.5985 97.5361 66.9918 97.2904C66.9301 97.2659 66.8785 97.2213 66.8454 97.1637C66.8123 97.1062 66.7997 97.0391 66.8096 96.9735C66.8449 96.7525 66.7298 96.4469 65.9543 96.2591C65.9543 95.7601 66.3569 95.1699 65.847 95.0874C65.3364 95.0048 60.9633 94.2819 60.9633 94.2819C60.9633 94.2819 61.2698 93.5182 60.6765 93.1546C61.3277 93.0001 61.173 92.3104 61.173 92.3104C64.2629 92.2914 68.6275 91.0342 71.182 87.6728C73.4745 84.6509 71.4942 81.3777 70.73 80.3245C70.5828 80.1204 70.4631 79.8978 70.3741 79.6624C70.2745 79.3977 70.0704 79.0589 69.6841 79.0151C70.117 78.4081 69.778 77.7876 69.2017 76.8445C69.7391 76.925 70.4701 76.8862 70.7547 76.1888C71.2293 75.0248 69.9934 74.5476 69.6622 74.3824C69.3281 74.2172 69.2342 73.1252 69.9934 71.3436C70.7547 69.5626 71.5853 69.2069 72.0126 69.0883C72.4398 68.9669 72.3932 69.7525 73.2266 69.4906C74.0572 69.2295 73.7725 67.9222 73.7725 67.9222C74.2471 67.9222 77.0502 67.6377 79.4282 64.2191C81.8033 60.797 82.3966 58.1605 82.1126 54.9071Z" fill="#606F7F"/>
</svg>
