<svg width="113" height="120" viewBox="0 0 113 120" fill="none" xmlns="http://www.w3.org/2000/svg">
<path d="M71.7856 115.117C71.6613 114.46 70.5165 112.439 69.8682 111.323C69.8434 111.276 69.8159 111.231 69.7884 111.185L69.7827 111.174C65.6808 104.126 63.1757 94.6129 63.1757 94.6129C56.6839 66.0797 69.9734 47.8369 69.9734 47.8369C69.9734 47.8369 69.1096 47.7712 68.1082 48.1185C68.3342 47.4239 68.4613 46.6715 68.5305 46.0976C68.5685 45.7928 68.5951 45.4867 68.6103 45.1799H68.6075C68.616 44.9668 68.6266 44.7515 68.6266 44.5369C68.6266 37.4943 62.8918 31.7646 55.8456 31.7646C48.7972 31.7646 43.0639 37.4943 43.0639 44.5369C43.0639 45.9952 43.323 47.3908 43.7758 48.6945H43.7729C43.4996 48.4383 42.9975 48.1898 42.5313 47.9999C42.5038 47.9858 42.4763 47.9717 42.4459 47.9611L42.4106 47.9505C41.9 47.7458 41.4642 47.6138 41.4642 47.6138C42.0652 48.6204 43.0554 50.2496 44.1783 52.4364C46.7053 57.499 50.2097 66.1736 51.0586 76.6821C51.4421 82.1082 51.1222 88.1251 49.6461 94.6129C49.6461 94.6129 48.1425 100.244 45.3874 106.624L45.3316 106.748C43.6373 110.79 42.0017 113.556 41.133 114.901C40.7798 115.451 40.9974 116.181 41.5934 116.449C43.4283 117.273 47.7894 118.649 56.4247 118.649C64.8199 118.649 69.176 117.347 71.0984 116.52C71.3609 116.406 71.5742 116.202 71.7 115.944C71.8259 115.687 71.8563 115.394 71.7856 115.117Z" fill="#606F7F"/>
</svg>
