<svg width="113" height="120" viewBox="0 0 113 120" fill="none" xmlns="http://www.w3.org/2000/svg">
<path d="M84.8276 79.8444C83.812 80.7211 81.2299 82.4582 79.9778 83.7267C78.3689 85.3622 79.1112 85.9051 78.5426 86.1535C77.8364 86.4592 77.1746 86.2277 76.5369 85.7808C76.2113 85.5521 76.5538 84.5131 76.2396 84.3225C75.991 84.1707 75.5354 84.2674 75.1082 84.4107C75.2381 82.8253 75.3398 81.4573 75.3398 81.1488C75.347 80.9246 75.2798 80.7042 75.1486 80.5221C75.0174 80.34 74.8296 80.2065 74.6145 80.1422V78.2286C74.6145 77.2912 74.6668 76.4116 74.755 75.5787C75.0615 75.5759 75.4224 75.3366 75.729 74.1811C76.1647 72.5349 76.8491 72.7855 77.3759 72.9013C77.8752 73.0093 78.4544 73.6954 78.9812 72.1982C79.0102 72.1194 79.0561 72.048 79.1158 71.9889C79.1755 71.9299 79.2475 71.8847 79.3266 71.8566C79.6628 71.7295 80.2504 71.4592 80.5484 71.0293C80.6339 70.9051 80.8048 70.8775 80.91 70.9827C81.2963 71.366 82.0605 72.0493 82.1763 71.5531C82.3804 70.6622 82.747 69.9098 82.9511 70.0008C83.158 70.0919 83.5005 71.0957 85.0119 70.166C85.4484 69.8244 87.4704 70.6156 87.7903 72.5102C88.1102 74.4069 88.2098 76.922 84.8276 79.8444ZM39.0061 80.1422C39.0061 80.1422 38.2786 80.3272 38.2786 81.1488C38.2786 81.4573 38.3832 82.8253 38.5103 84.4107C38.0823 84.2674 37.6275 84.1707 37.3789 84.3225C37.0674 84.5131 37.4092 85.5521 37.0837 85.7808C36.4466 86.2277 35.7813 86.4592 35.0779 86.1535C34.5073 85.9051 35.2516 85.3622 33.6407 83.7267C32.3906 82.4582 29.8057 80.7211 28.7937 79.8444C25.4108 76.922 25.5103 74.4069 25.8303 72.5102C26.1509 70.6156 28.1729 69.8244 28.6058 70.1667C30.1207 71.0956 30.4633 70.0919 30.6667 70.0008C30.8736 69.9098 31.2409 70.6622 31.445 71.5531C31.5608 72.0493 32.3249 71.366 32.7113 70.9827C32.8158 70.8775 32.9846 70.9051 33.07 71.0293C33.3702 71.4592 33.9557 71.7295 34.2947 71.8566C34.3733 71.8849 34.4447 71.9302 34.5038 71.9892C34.5629 72.0483 34.6082 72.1197 34.6365 72.1982C35.1634 73.6954 35.7453 73.0093 36.2453 72.9013C36.7722 72.7855 37.4558 72.5349 37.8923 74.1811C38.196 75.3366 38.5597 75.5759 38.8662 75.5787C38.9545 76.4116 39.0068 77.2912 39.0068 78.2286L39.0061 80.1422ZM93.1013 67.4646C92.7559 67.0058 90.9296 68.5368 90.4938 68.3328C90.0609 68.126 86.1737 64.0058 81.1473 66.5265C81.1473 66.5265 80.0957 66.5208 80.2779 65.7133C80.4601 64.9051 79.2715 65.7274 78.9509 66.0719C78.6451 66.3994 77.0115 68.054 78.3936 68.6717C78.5045 68.7189 78.5427 68.8566 78.4876 68.9611C78.085 69.6973 77.2601 69.8102 77.3872 70.2493C77.508 70.6792 76.9126 71.0484 75.9521 70.2818C75.9634 70.2542 75.9719 70.2239 75.9825 70.1971C75.9825 70.1971 76.5701 68.8954 75.7869 68.8954C75.9549 68.7076 75.9825 68.5396 75.9825 68.5396V68.054C76.907 67.9058 77.8915 66.5738 77.8915 66.5738H77.8865C78.013 66.4545 78.085 66.3338 78.085 66.2124C78.085 64.7286 68.5591 63.5293 56.8092 63.5293C45.0622 63.5293 35.5363 64.7293 35.5363 66.2117C35.5363 66.3338 35.6076 66.4545 35.7347 66.5738H35.7291C35.7291 66.5738 36.7143 67.9051 37.6381 68.054V68.5396C37.6381 68.5396 37.6635 68.7076 37.8316 68.8954C37.0505 68.8954 37.6381 70.1964 37.6381 70.1964C37.6465 70.2246 37.6578 70.2542 37.6663 70.2818C36.7086 71.0484 36.1097 70.6792 36.234 70.2486C36.3583 69.8109 35.5363 69.698 35.133 68.9611C35.0751 68.8566 35.1167 68.7189 35.2248 68.6717C36.6091 68.054 34.9762 66.3994 34.6669 66.0719C34.3498 65.7267 33.1604 64.9051 33.3427 65.7133C33.5249 66.5208 32.474 66.5265 32.474 66.5265C27.4476 64.0065 23.5604 68.126 23.1239 68.3328C22.691 68.5368 20.8618 67.0058 20.52 67.4646C20.1781 67.922 22.167 70.2267 22.167 70.2267C22.167 70.2267 20.8512 71.8651 21.8223 75.7086C23.1875 81.11 30.3001 83.5778 31.3539 84.9401C31.69 85.3757 30.7691 86.3159 31.2154 87.1926C31.6074 87.9648 32.7882 88.1992 33.4451 88.4279C34.9289 88.9495 34.8547 89.8594 35.4226 89.7408C35.8096 89.6611 35.4148 89.1288 35.8449 88.8994C36.537 88.5274 37.227 87.7446 37.5943 87.6366C38.5986 87.3387 38.576 88.2295 38.576 88.5966C38.576 88.9601 38.7144 89.8262 37.1585 89.9448C35.2516 90.0881 35.2764 91.2987 36.198 93.1651C36.5017 93.7749 35.3322 94.0559 35.2411 94.514C35.1937 94.7427 36.4021 95.0709 37.1585 94.574C37.9001 94.0862 38.1875 92.7768 38.1875 92.7768C38.5265 92.6357 38.8359 92.4592 39.1198 92.2552C39.7681 98.0321 43.1722 102.973 47.9917 105.733C48.2403 105.874 48.4366 106.089 48.5468 106.354L48.5517 106.365C48.676 106.674 48.5962 107.026 48.3448 107.245L45.2027 109.99C44.6956 110.432 44.4053 111.072 44.4053 111.83V112.384C44.4053 112.831 44.1327 113.22 43.7238 113.398C43.197 113.633 42.7527 114.082 42.4632 114.427C42.1129 114.849 42.1023 115.472 42.4526 115.894C43.3495 116.978 46.4005 118.544 56.8092 118.544C67.2208 118.544 70.2718 116.978 71.1687 115.894C71.519 115.472 71.5077 114.849 71.1546 114.427C70.8678 114.082 70.4208 113.633 69.8974 113.398C69.4885 113.22 69.2152 112.831 69.2152 112.384V111.83C69.2152 111.072 68.9256 110.432 68.4179 109.99L65.2757 107.245C65.1534 107.138 65.0676 106.996 65.0305 106.838C64.9933 106.68 65.0068 106.515 65.0688 106.365L65.0745 106.354C65.1818 106.089 65.381 105.874 65.626 105.733C70.4455 102.973 73.8532 98.0321 74.4987 92.2552C74.7826 92.4592 75.094 92.6357 75.4309 92.7768C75.4309 92.7768 75.7205 94.0862 76.4627 94.574C77.2184 95.0709 78.4268 94.7427 78.3802 94.514C78.2891 94.0559 77.1196 93.7749 77.4197 93.1651C78.3442 91.2987 78.3689 90.0881 76.4599 89.9448C74.9041 89.8262 75.0418 88.9601 75.0418 88.5966C75.0418 88.2295 75.0199 87.3387 76.027 87.6366C76.3935 87.7446 77.0835 88.5274 77.7757 88.8994C78.2065 89.1288 77.8117 89.6611 78.1952 89.7408C78.7665 89.8594 78.6917 88.9495 80.1762 88.4279C80.8323 88.1992 82.0103 87.9648 82.4051 87.1926C82.8522 86.3159 81.9277 85.3757 82.2674 84.9401C83.3211 83.5778 90.4302 81.11 91.799 75.7086C92.7701 71.8651 91.4543 70.2267 91.4543 70.2267C91.4543 70.2267 93.4431 67.9227 93.1013 67.4646Z" fill="#606F7F"/>
</svg>
