<svg width="118" height="120" viewBox="0 0 118 120" fill="none" xmlns="http://www.w3.org/2000/svg">
<g clip-path="url(#clip0_645_10323)">
<path d="M113.565 60.2759L113.681 60.4136L113.421 60.7766C111.686 59.2116 109.431 58.3466 107.094 58.3491H105.526V57.7048L106.47 56.6085C106.539 56.5284 106.589 56.4346 106.618 56.3334C106.647 56.2322 106.654 56.126 106.638 56.0219C106.623 55.9178 106.585 55.8182 106.528 55.7299C106.47 55.6416 106.395 55.5666 106.306 55.51C104.986 54.667 103.9 53.505 103.147 52.1314C102.395 50.7577 102 49.2166 102 47.6503V44.477C102.087 44.4034 102.196 44.3224 102.334 44.3106C103.008 44.8171 105.032 45.0248 105.929 42.9647C106.315 42.0819 106.214 41.3832 105.915 40.8656C106.286 41.3368 106.78 41.7543 107.416 42.0819C108.293 42.5273 108.642 43.2555 109.019 43.6148C109.05 43.6406 109.099 43.6178 109.093 43.5743C109.067 43.2953 109.038 42.6083 109.418 42.7114C109.993 42.8734 110.209 43.5515 109.89 43.874C109.683 44.0801 109.444 44.0117 109.303 43.9366C109.289 43.9286 109.273 43.9246 109.256 43.925C109.24 43.9254 109.224 43.9301 109.211 43.9387C109.197 43.9473 109.186 43.9594 109.178 43.9738C109.171 43.9882 109.167 44.0043 109.168 44.0205C109.188 44.8569 110.853 44.7362 110.534 43.2923C110.52 43.2239 110.603 43.1804 110.646 43.2327C111.193 43.8909 112.584 45.8494 110.727 46.8161C109.74 46.3096 108.587 46.6379 108.198 47.6901C107.969 48.3115 108.1 49.1832 108.452 49.7811C108.903 50.552 109.731 51.0121 109.867 51.1159C109.953 51.1822 110.289 53.9653 111.164 53.9653C111.716 53.9653 112.245 52.7637 112.59 52.4928C112.613 53.6436 113.761 54.0581 113.761 54.0581C113.761 57.0694 113.281 57.5377 113.281 58.073C113.281 58.6075 113.968 58.9094 113.968 58.9094L113.617 59.2458C113.48 59.379 113.398 59.5594 113.388 59.7506C113.379 59.9417 113.442 60.1295 113.565 60.2759ZM104.091 41.1071C104.126 41.1328 104.164 41.155 104.203 41.1733C104.652 41.3427 104.722 41.6217 104.633 42.1393C104.541 42.6547 105.377 42.4471 105.377 42.4471C105.066 43.5861 104.031 43.793 103.479 43.793C103.186 43.1546 102.717 43.042 102.429 43.0398L104.091 41.1071ZM105.607 37.8086C105.607 37.7783 105.613 37.7482 105.627 37.7213C105.641 37.6944 105.662 37.6715 105.687 37.6547C105.712 37.638 105.742 37.628 105.772 37.6257C105.802 37.6233 105.832 37.6288 105.86 37.6414C106.122 37.7651 106.545 37.9234 106.979 37.9256C106.999 37.9261 107.019 37.9307 107.038 37.9392C107.056 37.9477 107.073 37.96 107.086 37.9752C107.1 37.9904 107.11 38.0083 107.116 38.0276C107.123 38.047 107.125 38.0674 107.123 38.0876C107.077 38.6104 107.175 40.161 108.59 40.08C110.442 39.974 109.855 37.9205 108.728 38.081C108.728 38.081 108.659 37.3226 109.464 37.0686C110.146 36.8529 111.152 37.316 111.207 39.114C111.208 39.128 111.204 39.142 111.198 39.1543C111.191 39.1666 111.181 39.1767 111.168 39.1834C111.156 39.19 111.142 39.193 111.128 39.1919C111.114 39.1908 111.1 39.1858 111.089 39.1773C110.965 39.0882 110.772 38.9697 110.612 38.9991C110.612 38.9991 111.308 39.971 110.543 40.736C110.392 40.8872 110.224 41.0204 110.042 41.1328L110.033 40.937C110.032 40.899 110.021 40.862 110.001 40.8298C109.98 40.7976 109.952 40.7714 109.918 40.7539C109.885 40.7363 109.847 40.7281 109.809 40.73C109.771 40.7319 109.734 40.7439 109.703 40.7647C109.093 41.1616 108.242 41.3228 107.67 41.1844C106.686 40.9429 105.702 39.7273 105.607 37.8086ZM106.383 35.8501C106.66 34.5093 108.127 34.2362 108.59 34.1839C108.607 34.182 108.623 34.1841 108.639 34.19C108.655 34.1959 108.669 34.2054 108.68 34.2178C108.691 34.2302 108.699 34.245 108.704 34.2612C108.708 34.2773 108.708 34.2942 108.705 34.3106C108.627 34.6846 108.42 35.6454 109.142 36.1718C109.142 36.1718 107.796 36.258 107.327 37.397C107.313 37.4341 107.285 37.4643 107.249 37.4808C107.213 37.4973 107.172 37.499 107.134 37.4854C106.827 37.3675 106.148 36.9803 106.383 35.8501ZM112.13 41.3456C112.855 41.1387 112.936 42.0245 111.969 42.3094C111.003 42.5965 110.235 41.7601 110.235 41.7601C111.003 41.5069 111.659 40.4717 111.555 40.6668C111.451 40.8626 111.406 41.5525 112.13 41.3456ZM110.934 48.7945C111.923 48.1561 111.207 47.1379 111.207 47.1379C111.526 47.0002 112.038 46.4016 112.038 46.4016C112.038 46.4016 111.992 47.2763 111.992 47.8425C111.992 48.4094 112.429 48.6303 112.429 48.6303C112.406 48.9071 111.866 49.5536 111.564 49.5536C110.945 49.5536 110.934 48.7945 110.934 48.7945ZM111.207 50.2641C110.861 50.4025 110.428 50.3561 110.428 50.3561C109.487 50.3561 108.774 49.597 108.935 48.7717C109.041 48.2283 109.418 48.1561 109.418 48.1561C109.571 48.9071 110.476 48.9093 110.476 48.9093C110.137 49.8076 111.207 50.2641 111.207 50.2641ZM113.761 47.6724V50.9834C112.955 51.2485 112.78 51.8979 112.78 51.8979V48.6737C112.78 48.6737 113.125 48.4609 113.125 47.8425C113.125 47.8425 113.761 47.2409 113.761 47.6724ZM113.142 46.8102C113.142 46.8102 113.272 45.9473 112.78 45.605V45.0874C112.78 45.0874 113.298 45.8089 113.761 45.8089V46.5857L113.142 46.8102ZM113.761 44.1155V44.9548C113.761 44.9548 112.771 44.8628 111.316 43.0258C111.316 43.0258 113.384 43.4307 113.761 41.5069V42.3698C113.761 42.3698 113.315 42.8844 113.373 43.3564C113.413 43.6457 113.55 43.9136 113.761 44.1155ZM110.683 34.4482C112.153 34.4482 113.761 35.8957 113.761 38.539V41.0467C113.761 41.0467 113.361 39.7663 111.969 40.0233C111.969 40.0233 112.234 36.2808 109.789 36.1313C109.741 36.1294 109.696 36.1113 109.661 36.0799C109.625 36.0485 109.601 36.0058 109.594 35.9591C109.533 35.5357 109.499 34.4482 110.683 34.4482ZM97.638 13.6029C97.8221 13.3239 98.6357 13.2495 99.1275 12.8725C99.746 12.4035 100.387 11.4177 99.3749 10.3302C99.3749 10.3302 100.816 10.2868 101.27 10.2065C101.301 10.2012 101.332 10.2074 101.359 10.2238C101.385 10.2402 101.405 10.2658 101.414 10.2956C101.615 10.9685 101.279 11.3021 101.06 12.0273C100.985 12.2798 101.048 12.5331 100.956 12.6281C100.6 12.9815 99.1245 13.9335 97.7926 13.8731C97.6608 13.868 97.5659 13.7156 97.638 13.6029ZM96.8811 11.961C96.8465 12.5331 95.8916 13.7642 95.5956 13.491C95.1818 13.1111 94.4853 13.3673 94.3616 13.3187C94.2379 13.2694 93.4214 11.6533 93.5539 11.5097C94.2011 10.8073 94.4595 9.63737 95.0522 9.63737C95.6449 9.63737 96.0646 9.26629 96.0646 9.26629C96.0646 9.26629 96.8811 10.0084 97.6351 10.1056C96.7088 10.7013 96.8959 11.7137 96.8811 11.961ZM81.5056 47.6731C81.5056 47.2417 82.1447 47.8425 82.1447 47.8425C82.1447 48.4609 82.4892 48.6745 82.4892 48.6745V51.8979C82.4892 51.8979 82.314 51.2477 81.5056 50.9834V47.6731ZM81.5056 45.8096C81.9716 45.8096 82.4892 45.0874 82.4892 45.0874V45.605C81.9974 45.9473 82.127 46.8102 82.127 46.8102L81.5056 46.5857V45.8096ZM81.5056 44.1155C81.5056 44.1155 81.8398 43.8283 81.8973 43.3556C81.9547 42.8844 81.5056 42.369 81.5056 42.369V41.5069C81.8855 43.4307 83.9537 43.0251 83.9537 43.0251C82.4981 44.8628 81.5056 44.9548 81.5056 44.9548V44.1155ZM81.5056 38.5382C81.5056 35.895 83.1136 34.449 84.5861 34.449C85.7708 34.449 85.734 35.5357 85.6736 35.9583C85.6666 36.0051 85.6435 36.048 85.6083 36.0796C85.5731 36.1112 85.528 36.1295 85.4807 36.1313C83.0333 36.2808 83.2977 40.0225 83.2977 40.0225C81.9083 39.7663 81.5056 41.046 81.5056 41.046V38.5382ZM85.8054 37.0686C86.6079 37.3219 86.5417 38.081 86.5417 38.081C85.4144 37.9205 84.8247 39.9732 86.6771 40.08C88.0952 40.161 88.1894 38.6104 88.1467 38.0869C88.1444 38.0669 88.1462 38.0466 88.1522 38.0273C88.1581 38.0081 88.168 37.9903 88.1813 37.9751C88.1945 37.9599 88.2108 37.9476 88.2291 37.9391C88.2474 37.9306 88.2672 37.926 88.2874 37.9256C88.7218 37.9227 89.1444 37.7651 89.4065 37.6414C89.434 37.6286 89.4644 37.6231 89.4946 37.6253C89.5249 37.6275 89.5541 37.6374 89.5795 37.6541C89.6049 37.6707 89.6256 37.6936 89.6396 37.7205C89.6537 37.7474 89.6606 37.7775 89.6598 37.8078C89.5648 39.7266 88.5811 40.9429 87.5975 41.1844C87.0276 41.3228 86.1765 41.1616 85.5639 40.7647C85.4262 40.6727 85.2421 40.7706 85.2333 40.937L85.2245 41.1328C85.0433 41.0194 84.8754 40.886 84.7238 40.7353C83.9588 39.971 84.6553 38.9991 84.6553 38.9991C84.497 38.9697 84.3012 39.0875 84.1775 39.1773C84.1289 39.2141 84.0568 39.1744 84.0597 39.114C84.1171 37.316 85.1214 36.8536 85.8054 37.0686ZM86.5645 34.3106C86.561 34.2942 86.5614 34.2771 86.5658 34.261C86.5702 34.2448 86.5784 34.2298 86.5897 34.2175C86.601 34.2051 86.6151 34.1956 86.6308 34.1897C86.6465 34.1839 86.6634 34.1819 86.6801 34.1839C87.1403 34.2355 88.6069 34.5093 88.886 35.8494C89.1186 36.9795 88.4398 37.3683 88.132 37.4861C88.0947 37.4994 88.0536 37.4976 88.0177 37.4809C87.9817 37.4642 87.9538 37.4341 87.9398 37.397C87.4708 36.258 86.1249 36.1718 86.1249 36.1718C86.8494 35.6454 86.6425 34.6846 86.5645 34.3106ZM83.2977 42.3094C82.3339 42.0245 82.4149 41.1387 83.1364 41.3456C83.8616 41.5525 83.8153 40.8626 83.7114 40.6668C83.6084 40.4717 84.2636 41.5061 85.0345 41.7601C85.0345 41.7601 84.2636 42.5965 83.2977 42.3094ZM84.0597 47.1379C84.0597 47.1379 83.3433 48.1561 84.3329 48.7945C84.3329 48.7945 84.3218 49.5536 83.7033 49.5536C83.4015 49.5536 82.8633 48.9064 82.8404 48.6303C82.8404 48.6303 83.2748 48.4094 83.2748 47.8425C83.2748 47.2756 83.2284 46.4016 83.2284 46.4016C83.2284 46.4016 83.7409 47.0002 84.0597 47.1379ZM84.793 48.9093C84.793 48.9093 85.6964 48.9064 85.8518 48.1561C85.8518 48.1561 86.228 48.2283 86.3318 48.7717C86.4931 49.597 85.7826 50.3561 84.8394 50.3561C84.8394 50.3561 84.408 50.4025 84.0597 50.2641C84.0597 50.2641 85.1295 49.8076 84.793 48.9093ZM91.8855 43.793C91.3333 43.793 90.2981 43.5861 89.9874 42.4471C89.9874 42.4471 90.8246 42.654 90.7355 42.1393C90.6434 41.6217 90.7119 41.3427 91.161 41.1733C91.1839 41.1645 91.2067 41.1498 91.2273 41.1387L92.8692 43.0427C92.5761 43.0626 92.1557 43.2025 91.8855 43.793ZM116.556 67.8109C116.556 66.261 116.182 64.8025 115.521 63.5111C115.898 62.6423 116.341 61.2419 115.786 60.3561L115.8 60.3414C115.877 60.2661 115.937 60.1751 115.976 60.0746C116.015 59.9741 116.031 59.8664 116.025 59.7588C116.019 59.6512 115.99 59.5462 115.94 59.4509C115.889 59.3555 115.819 59.2721 115.734 59.2061L115.348 58.9094C115.348 58.9094 115.763 58.5965 115.763 58.073C115.763 57.5524 114.402 54.9725 115.256 53.6664C115.256 53.6664 115.716 53.1031 115.716 52.3323C115.716 51.3685 114.796 50.9083 114.796 50.9083L114.722 45.7463C114.722 45.7463 115.82 45.4614 115.82 43.8048C115.82 42.746 114.672 42.2085 114.672 42.2085L114.612 38.1959C114.612 38.1959 114.75 35.4128 112.453 34.2642C110.152 33.1141 111.233 31.6909 111.118 31.4604C111.006 31.2359 110.022 31.5613 109.887 33.2525C109.884 33.2875 109.868 33.3201 109.842 33.3432C109.815 33.3664 109.781 33.3782 109.746 33.3762C109.245 33.3357 107.402 33.307 106.085 34.932C104.934 36.35 104.532 38.7569 105.682 40.5431C105.147 39.9305 104.333 39.6831 104.046 39.7921C104.013 39.8044 103.982 39.821 103.954 39.8414L100.92 37.9198C100.92 32.746 107.448 34.6559 106.712 33.1377C106.493 32.6856 105.602 32.372 104.46 32.154C103.977 31.4575 103.177 30.7013 101.966 30.7013H100.931C100.931 30.7013 100.517 29.7582 98.794 29.7582H98.2506V27.6466C98.3883 26.6835 99.8954 26.3382 99.9676 24.7309C100.091 22.0502 98.992 19.3466 98.6872 18.6537C98.6526 18.5728 98.7078 18.4896 98.791 18.4778C100.007 18.3342 98.5635 15.6711 98.6585 15.2198C98.7564 14.7508 101.845 13.3673 102.067 12.8004C102.291 12.2313 102.168 9.98194 101.598 9.63737C101.031 9.29132 97.744 8.6191 97.0166 8.67359C96.51 7.88283 95.3975 8.87238 95.3975 8.87238C95.3975 8.87238 92.8228 10.0975 92.6564 11.4177C92.4576 13.1457 94.1142 14.4806 94.2379 14.8516C94.3616 15.2198 94.0487 16.16 93.9162 17.8394C93.8411 18.7855 94.4772 18.9637 94.7761 18.9954C94.7931 18.9963 94.8096 19.0011 94.8244 19.0093C94.8392 19.0176 94.8519 19.0291 94.8617 19.043C94.8714 19.0569 94.8778 19.0728 94.8805 19.0896C94.8831 19.1063 94.8819 19.1235 94.877 19.1397C94.7791 19.496 94.606 20.5923 95.1266 23.2002C95.4866 25.0011 96.3061 26.6025 97.0166 27.4544V29.7582H96.499C94.7761 29.7582 94.3616 30.7006 94.3616 30.7006H93.3264C92.116 30.7006 91.3164 31.4575 90.8356 32.154C89.6914 32.3727 88.7998 32.6856 88.5811 33.1369C87.8449 34.6559 94.3734 32.7467 94.3734 37.9205L91.3738 39.8215C91.3561 39.8127 91.3392 39.8009 91.3186 39.7921C90.7811 39.5859 88.417 40.6263 89.4382 42.9654C90.3327 45.024 92.3575 44.8171 93.0304 44.3106C93.1335 44.3194 93.2204 44.3658 93.2918 44.4203V47.6326C93.2918 50.8251 91.661 53.796 88.9662 55.5071L88.9633 55.51C88.874 55.5662 88.7979 55.641 88.7402 55.7293C88.6826 55.8176 88.6447 55.9174 88.6292 56.0217C88.6136 56.126 88.6209 56.2325 88.6503 56.3338C88.6798 56.4351 88.7308 56.5288 88.7998 56.6085L89.74 57.7048V58.3491H88.1725C85.7421 58.3491 83.5222 59.2694 81.8479 60.7766L81.5866 60.4136L81.7044 60.2759C81.8265 60.129 81.8887 59.9414 81.8786 59.7506C81.8685 59.5598 81.7868 59.3798 81.6499 59.2466L81.2987 58.9094C81.2987 58.9094 81.9893 58.6075 81.9893 58.073C81.9893 57.5377 81.5056 57.0687 81.5056 54.0581C81.5056 54.0581 82.6564 53.6436 82.6792 52.4935C83.0216 52.7637 83.5509 53.966 84.1031 53.966C84.9771 53.966 85.3136 51.1815 85.3997 51.1159C85.5352 51.0121 86.3635 50.552 86.8148 49.7811C87.166 49.1825 87.2986 48.3115 87.0681 47.6901C86.6801 46.6372 85.5293 46.3096 84.5397 46.8161C82.6821 45.8494 84.0744 43.8909 84.6207 43.2327C84.6664 43.1811 84.7474 43.2239 84.7326 43.2923C84.4138 44.7362 86.0815 44.8576 86.0992 44.0205C86.1001 44.0042 86.0967 43.9879 86.0892 43.9734C86.0816 43.9589 86.0703 43.9467 86.0565 43.9381C86.0426 43.9295 86.0266 43.9248 86.0103 43.9246C85.994 43.9243 85.9779 43.9284 85.9637 43.9366C85.8231 44.0117 85.5867 44.0809 85.3798 43.874C85.0581 43.5515 85.2738 42.8727 85.8518 42.7114C86.231 42.6083 86.1993 43.2953 86.1735 43.5743C86.1706 43.6178 86.2199 43.6406 86.2486 43.6148C86.6249 43.2555 86.9761 42.5273 87.8508 42.0819C90.9247 40.5026 90.7237 36.8301 89.1849 34.932C87.8677 33.307 86.0241 33.3357 85.5212 33.3762C85.4865 33.378 85.4524 33.3661 85.4265 33.3429C85.4006 33.3197 85.3849 33.2872 85.3828 33.2525C85.2444 31.5613 84.2614 31.2359 84.1488 31.4604C84.0339 31.6909 85.1155 33.1141 82.8147 34.2649C80.5168 35.412 80.6544 38.1966 80.6544 38.1966L80.597 42.2085C80.597 42.2085 79.447 42.746 79.447 43.8048C79.447 45.4614 80.5455 45.7456 80.5455 45.7456L80.4704 50.9083C80.4704 50.9083 79.553 51.3685 79.553 52.3323C79.553 53.1031 80.0102 53.6664 80.0102 53.6664C80.8672 54.9725 79.5044 57.5524 79.5044 58.073C79.5044 58.5957 79.9182 58.9094 79.9182 58.9094L79.5331 59.2061C79.4477 59.272 79.3775 59.3555 79.3271 59.4509C79.2767 59.5462 79.2474 59.6513 79.2411 59.759C79.2348 59.8667 79.2517 59.9745 79.2907 60.0751C79.3296 60.1757 79.3897 60.2668 79.4668 60.3422L79.4838 60.3569C78.9286 61.2419 79.3719 62.643 79.7459 63.5111C79.0654 64.8421 78.7113 66.316 78.7129 67.8109V69.9218C78.7129 72.4472 79.536 77.7594 81.7073 82.9192C81.348 83.4486 81.3186 84.2769 81.6926 85.0389C82.0666 85.8039 82.7366 86.2898 83.3779 86.3333C85.826 90.6559 89.3947 94.3571 94.4338 95.4704C94.0222 95.7119 93.7667 96.08 93.7667 96.08C92.4178 96.08 91.9083 97.0548 90.709 97.7793C90.4962 97.906 90.5595 98.2314 90.8069 98.2631C92.1763 98.4412 94.609 98.9441 94.609 100.264C94.609 101.608 93.7579 102.281 93.1482 102.592C93.1333 102.597 93.1203 102.607 93.1107 102.62C93.0708 102.65 93.0399 102.69 93.0215 102.735C93.0031 102.781 92.9979 102.832 93.0066 102.88C93.0152 102.929 93.0374 102.974 93.0705 103.011C93.1036 103.048 93.1463 103.075 93.1939 103.089C93.1998 103.089 93.1998 103.094 93.2057 103.094C93.8153 103.296 94.9226 103.604 94.9226 104.472C94.9226 105.122 94.0487 105.847 94.0487 105.847V106.123C91.9945 106.123 92.3862 110.754 91.4975 113.452C91.2612 114.17 90.7553 114.51 90.3408 114.734C89.5501 114.904 88.8396 115.108 88.2476 115.347C86.9562 115.864 86.5674 116.523 86.0616 116.886C85.6964 117.15 84.6119 117.271 84.1289 117.564C83.9458 117.676 83.7948 117.834 83.6904 118.021C83.586 118.208 83.5319 118.42 83.5333 118.634V119.175C83.5333 119.175 86.982 120 97.6351 120C108.284 120 111.736 119.175 111.736 119.175V118.634C111.737 118.42 111.682 118.209 111.578 118.022C111.474 117.834 111.323 117.677 111.14 117.564C110.655 117.271 109.573 117.15 109.205 116.886C108.699 116.523 108.314 115.864 107.023 115.347C106.427 115.108 105.716 114.904 104.929 114.734C104.511 114.51 104.008 114.17 103.77 113.452C102.881 110.754 103.275 106.123 101.221 106.123V105.847C101.221 105.847 100.344 105.122 100.344 104.472C100.344 103.604 101.454 103.296 102.064 103.094C102.067 103.094 102.07 103.089 102.076 103.089C102.13 103.072 102.178 103.038 102.212 102.992C102.246 102.946 102.265 102.89 102.265 102.833C102.265 102.792 102.255 102.751 102.237 102.714C102.218 102.677 102.192 102.645 102.159 102.62C102.148 102.607 102.134 102.597 102.118 102.592C101.512 102.281 100.657 101.608 100.657 100.264C100.657 98.9441 103.091 98.4412 104.463 98.2631C104.71 98.2314 104.773 97.906 104.557 97.7793C103.361 97.0548 102.849 96.08 101.503 96.08C101.503 96.08 101.247 95.7119 100.836 95.4704C105.875 94.3571 109.444 90.65 111.894 86.3274C112.516 86.2582 113.16 85.7811 113.522 85.0389C113.882 84.2997 113.865 83.503 113.539 82.9707C115.725 77.7969 116.556 72.456 116.556 69.9218V67.8109Z" fill="#606F7F"/>
<path d="M38.9807 98.3114L38.7215 98.0816C41.1748 93.0883 53.4065 66.8961 53.4065 40.704H61.543C58.6178 69.0762 47.7843 90.0916 38.9807 98.3114ZM38.6729 19.0444C41.2035 16.6883 42.3801 14.9257 42.3801 14.9257C42.9065 16.9968 43.0648 18.8088 43.1104 19.6629C42.2505 19.4243 40.9016 19.1917 38.6729 19.0444ZM44.488 27.9202C46.2168 27.4858 46.0725 26.988 46.0725 26.988H48.3188C48.2318 27.0106 48.1559 27.064 48.1055 27.1384C48.055 27.2128 48.0334 27.3031 48.0447 27.3923C48.056 27.4814 48.0994 27.5635 48.1668 27.623C48.2342 27.6825 48.321 27.7153 48.4109 27.7155C48.4477 27.7155 48.4801 27.7074 48.5139 27.6985C48.7098 27.9489 49.1044 28.426 49.1044 28.426C49.1044 28.426 48.9086 28.6991 49.0153 28.9355C49.1214 29.1711 48.1524 29.5937 48.0228 29.9589C47.8903 30.3211 47.2461 30.4051 47.2866 30.6841C47.3293 30.9632 47.905 31.5441 47.905 31.5441C47.905 31.5441 48.014 31.0721 48.2069 31.0316C48.402 30.9889 49.0868 31.0574 49.1074 31.3166C49.1273 31.5728 48.3306 32.2111 48.1149 32.0381C48.1149 32.0381 47.9419 32.4674 48.391 32.8554C48.391 32.8554 49.0779 32.4328 49.142 32.7317C49.2046 33.0336 48.5147 33.6925 47.827 33.8817C47.1371 34.0717 46.5157 34.2182 45.8943 33.937C45.2729 33.652 44.4394 33.4562 44.2178 34.4597L44.3444 34.5238C43.8674 34.5751 43.426 34.8 43.1041 35.1557C42.7822 35.5114 42.6023 35.9731 42.5987 36.4528C42.5987 36.6428 42.6245 36.8268 42.676 36.9999C41.7469 36.0044 41.2786 34.7248 41.3066 33.0424C41.3647 29.5304 42.7622 28.3546 44.488 27.9202ZM45.9002 35.0524C46.392 34.9781 47.3359 34.8941 48.0773 35.1702C48.3247 35.2659 49.3629 36.0243 49.4519 36.3497C49.5675 36.7665 49.5123 38.7485 48.7702 39.085C48.6679 39.1305 48.5775 39.1992 48.5063 39.2856C48.435 39.3719 48.3847 39.4736 48.3593 39.5827C47.6605 39.4717 46.9718 39.3043 46.3 39.082C45.7323 38.8991 45.1786 38.6751 44.6434 38.412C45.0253 38.3952 45.3939 38.2663 45.7032 38.0416C46.0125 37.8168 46.2489 37.506 46.3828 37.1479C46.5168 36.7898 46.5425 36.4001 46.4566 36.0275C46.3708 35.655 46.1773 35.3158 45.9002 35.0524ZM49.622 26.988C49.5595 27.0188 49.507 27.0666 49.4704 27.1258C49.4338 27.1851 49.4147 27.2535 49.4152 27.3232C49.4157 27.3928 49.4359 27.4609 49.4734 27.5197C49.5109 27.5784 49.5642 27.6253 49.6272 27.6551L49.4063 28.2279L48.6958 27.5837C48.7527 27.5183 48.7843 27.4347 48.7849 27.3481C48.7853 27.2664 48.7588 27.1868 48.7094 27.1217C48.66 27.0566 48.5905 27.0096 48.5117 26.988H49.622ZM50.2486 38.8258C50.2692 38.6358 50.5821 36.7009 51.0482 36.5942C51.3589 36.522 52.9956 36.8474 54.6868 35.9786C55.4945 35.5649 55.6123 36.1082 55.9922 36.6921C56.3633 37.2642 56.78 38.1617 56.7086 38.7316C56.6622 39.1107 55.4746 39.191 55.4113 39.6777C55.2361 39.6777 55.0579 39.6777 54.8738 39.6799C52.9205 39.6858 51.3905 39.8065 49.8893 39.7351C50.1823 39.551 50.2 39.2433 50.2486 38.8258ZM50.9907 26.988C50.9471 27.0223 50.9116 27.0658 50.8867 27.1155C50.8619 27.1651 50.8484 27.2197 50.8472 27.2752C50.8472 27.4254 50.9333 27.5491 51.057 27.6095L50.3693 28.2566L49.9585 27.6441C50.0175 27.6131 50.0671 27.5668 50.102 27.51C50.137 27.4533 50.1561 27.3882 50.1573 27.3216C50.1573 27.175 50.0704 27.0491 49.9467 26.988H50.9907ZM51.5893 27.2818C51.5889 27.2252 51.5756 27.1693 51.5507 27.1185C51.5257 27.0676 51.4896 27.023 51.445 26.988H51.9884C51.9194 27.0582 51.8794 27.1518 51.8765 27.2501C51.8765 27.3164 51.8964 27.379 51.9258 27.4313L51.445 27.94L51.3442 27.6264C51.4149 27.6002 51.4761 27.5534 51.5199 27.4919C51.5636 27.4304 51.5878 27.3572 51.5893 27.2818ZM52.2446 27.6234C52.343 27.624 52.4376 27.5856 52.5077 27.5166C52.5778 27.4476 52.6177 27.3537 52.6186 27.2553C52.6186 27.1522 52.5752 27.0565 52.5067 26.988H62.1327C62.1357 27.1 62.1357 27.2185 62.1386 27.3414C62.1386 27.3392 62.1386 27.3363 62.1357 27.3333C62.1357 27.3333 61.3243 28.0696 60.7346 28.2853L60.7581 27.848C60.7581 27.848 59.8805 27.8046 59.1648 28.2102C58.9491 28.331 57.6341 28.0034 56.6541 28.1734C55.1985 28.426 53.7061 28.7654 53.8696 30.5148C54.0338 32.2597 57.5141 31.0287 58.0774 30.9315C58.9749 30.7762 60.214 31.0979 59.7943 32.0757C59.3747 33.0564 58.6148 32.3091 58.2673 32.1994C57.9191 32.0875 57.1114 32.0389 56.0379 32.3805C54.9681 32.7229 53.9874 32.6507 53.7716 32.2804C53.553 31.9093 54.1228 31.9785 54.1228 31.9785L53.0589 30.9455L53.3667 30.5972L52.478 29.5223L52.6326 29.2204C52.6326 29.2204 52.0694 28.7566 51.6519 28.7345C51.6519 28.7345 51.4826 28.5408 51.7874 28.1992C51.9884 27.9717 52.1239 27.7449 52.1901 27.6175C52.2081 27.6209 52.2263 27.6229 52.2446 27.6234ZM58.3417 38.426C57.9765 36.7871 58.3387 36.025 58.3387 36.025C58.3387 36.025 59.0294 36.8069 59.4549 37.2215C60.4268 38.1705 60.7265 38.8317 60.683 39.0702C60.6396 39.3095 60.108 39.3147 60.0476 39.6777C59.3688 39.6747 58.4256 39.6718 57.1173 39.6747C57.2351 39.6431 57.347 39.5878 57.439 39.5054C57.7843 39.1969 58.3881 38.6277 58.3417 38.426ZM61.7506 38.3862C61.744 38.3745 61.7418 38.3597 61.7329 38.3516C61.5805 38.1499 60.401 36.8474 60.3031 34.9891C60.2862 34.6239 60.2229 33.9804 59.8319 33.4304C59.8319 33.4304 61.3449 32.2826 60.8038 31.3394C60.2633 30.3992 59.1531 30.0656 57.6893 30.3381C56.2249 30.6149 54.5771 31.0206 54.5256 30.2556C54.4652 29.3927 56.194 28.3457 58.8968 28.9723C58.8968 28.9723 59.3055 29.9795 60.2663 29.8757C61.2264 29.7726 60.8354 29.6401 60.577 29.3088C60.577 29.3088 61.9921 28.3428 62.1416 27.5896C62.1615 30.503 61.889 35.9035 61.7506 38.3862ZM32.9484 18.8832C31.5252 18.8832 30.2831 18.9067 29.1957 18.9435L32.9484 13.8412L36.699 18.9435C35.4492 18.902 34.1989 18.8818 32.9484 18.8832ZM22.7849 19.6629C22.8306 18.8088 22.9889 16.9968 23.5153 14.9257C23.5153 14.9257 24.6911 16.6891 27.2224 19.0444C24.993 19.1917 23.6449 19.4243 22.7849 19.6629ZM26.9147 98.3114C18.1118 90.0916 7.27759 69.0762 4.35239 40.704H12.4889C12.4889 66.8961 24.7206 93.0883 27.1739 98.0816L26.9147 98.3114ZM4.11972 38.3914C3.98425 35.9102 3.70815 30.4883 3.72876 27.5778C3.8635 28.331 5.2985 29.3095 5.2985 29.3095C5.03712 29.6401 4.64616 29.7719 5.60626 29.8757C6.56709 29.9788 6.97572 28.9723 6.97572 28.9723C9.67931 28.3457 11.4081 29.392 11.3499 30.2556C11.2954 31.0206 9.64765 30.6149 8.18394 30.3388C6.72244 30.0657 5.6092 30.3992 5.06878 31.3401C4.5313 32.2826 6.0436 33.4311 6.0436 33.4311C5.6497 33.9797 5.58711 34.6239 5.56944 34.9891C5.47152 36.8474 4.29201 38.1499 4.1396 38.3516C4.13151 38.3627 4.12488 38.3774 4.11972 38.3914ZM8.43427 39.5046C8.52852 39.5878 8.63822 39.6431 8.75602 39.674C7.44988 39.6718 6.50377 39.674 5.82787 39.6777C5.7675 39.3147 5.23297 39.3095 5.18953 39.0702C5.14609 38.8317 5.44575 38.1705 6.41763 37.2215C6.84319 36.8069 7.53381 36.025 7.53381 36.025C7.53381 36.025 7.899 36.7871 7.53087 38.426C7.48448 38.6277 8.08896 39.1969 8.43354 39.5046H8.43427ZM3.73981 26.988H13.3688C13.3324 27.0223 13.3037 27.0637 13.2844 27.1098C13.2651 27.1558 13.2557 27.2054 13.2569 27.2553C13.2569 27.3085 13.2685 27.3609 13.2909 27.4092C13.3132 27.4574 13.3456 27.5003 13.3861 27.5347C13.4265 27.5692 13.4739 27.5946 13.5251 27.609C13.5763 27.6234 13.6299 27.6266 13.6824 27.6183C13.7516 27.7449 13.8842 27.9717 14.0881 28.1992C14.39 28.5416 14.2206 28.7337 14.2206 28.7337C13.8061 28.7573 13.2399 29.2197 13.2399 29.2197L13.3945 29.5215L12.5066 30.598L12.8144 30.9455L11.7526 31.9777C11.7526 31.9777 12.3196 31.9093 12.1038 32.2796C11.8881 32.6514 10.9037 32.7229 9.83466 32.3805C8.76191 32.0381 7.95643 32.0875 7.60818 32.1994C7.25771 32.3091 6.49788 33.0564 6.07821 32.0757C5.65853 31.0979 6.89768 30.7762 7.79519 30.9315C8.35917 31.0287 11.8417 32.2597 12.0059 30.514C12.1701 28.7654 10.674 28.426 9.21914 28.1727C8.23843 28.0034 6.92418 28.331 6.70845 28.2102C5.99206 27.8053 5.11443 27.848 5.11443 27.848L5.13799 28.2853C4.54823 28.0696 3.73686 27.3333 3.73686 27.3333C3.73392 27.3422 3.73392 27.3503 3.73171 27.3591C3.73392 27.2295 3.73392 27.1058 3.73981 26.988ZM14.4305 26.988C14.378 27.0282 14.3373 27.0817 14.3127 27.1429C14.288 27.2042 14.2803 27.271 14.2903 27.3362C14.3003 27.4015 14.3277 27.4629 14.3696 27.5139C14.4115 27.565 14.4663 27.6038 14.5284 27.6264L14.4305 27.94L13.9475 27.4313C13.9876 27.3608 14.0032 27.2791 13.9917 27.1988C13.9802 27.1186 13.9424 27.0444 13.8842 26.988H14.4305ZM14.8244 36.5942C15.2904 36.7009 15.6041 38.6358 15.6269 38.8258C15.6755 39.2433 15.6902 39.551 15.9833 39.7351C14.482 39.8065 12.952 39.6858 10.9965 39.6799C10.8124 39.6769 10.6365 39.6769 10.4612 39.6769C10.3979 39.191 9.2103 39.1107 9.16392 38.7308C9.09545 38.1617 9.50997 37.2642 9.88031 36.6914C10.2602 36.1082 10.378 35.5649 11.1865 35.9786C12.8799 36.8474 14.5166 36.522 14.8244 36.5942ZM14.8818 26.988H15.9258C15.8631 27.0181 15.8103 27.0655 15.7737 27.1246C15.737 27.1837 15.718 27.252 15.7189 27.3216C15.7189 27.4629 15.7999 27.5837 15.9141 27.6441L15.5032 28.2566L14.8185 27.6087C14.8747 27.5814 14.9231 27.5402 14.9589 27.489C14.9947 27.4378 15.0169 27.3782 15.0232 27.316C15.0296 27.2538 15.0199 27.1911 14.9951 27.1337C14.9704 27.0762 14.9314 27.0261 14.8818 26.988ZM16.2513 26.988H17.3638C17.3036 27.0041 17.2485 27.0352 17.2036 27.0784C17.1587 27.1216 17.1255 27.1755 17.1071 27.235C17.0887 27.2945 17.0857 27.3577 17.0984 27.4187C17.1111 27.4797 17.1391 27.5364 17.1797 27.5837L16.4692 28.2279L16.2454 27.6551C16.3084 27.6254 16.3617 27.5785 16.3993 27.5198C16.4368 27.4612 16.4571 27.3931 16.4577 27.3234C16.4583 27.2538 16.4393 27.1853 16.4028 27.126C16.3662 27.0667 16.3137 27.0189 16.2513 26.988ZM21.2292 38.412C20.7285 38.6594 20.1763 38.8832 19.5696 39.082C18.8989 39.3046 18.2112 39.472 17.5132 39.5827C17.4879 39.4736 17.4376 39.3719 17.3663 39.2856C17.295 39.1992 17.2047 39.1305 17.1024 39.085C16.3602 38.7485 16.3087 36.7665 16.4206 36.3497C16.5097 36.025 17.5478 35.2652 17.7982 35.1702C18.5374 34.8941 19.4842 34.9781 19.9753 35.0524C19.7821 35.2356 19.6285 35.4565 19.5241 35.7014C19.4198 35.9463 19.3668 36.2101 19.3686 36.4764C19.3724 36.9757 19.5674 37.4547 19.9134 37.8147C20.2595 38.1747 20.7304 38.3885 21.2292 38.412ZM17.5537 26.988H19.7971C19.7971 26.988 19.6536 27.4858 21.3816 27.9202C23.1104 28.3546 24.5049 29.5304 24.5623 33.0424C24.5917 34.7218 24.1257 36.0022 23.1995 36.9962C23.2481 36.8217 23.2746 36.6406 23.2746 36.4535C23.2711 35.9736 23.0913 35.5116 22.7692 35.1558C22.4471 34.7999 22.0054 34.5749 21.5281 34.5238L21.6548 34.4605C21.4339 33.4562 20.5997 33.652 19.9783 33.937C19.3569 34.2182 18.7354 34.0717 18.0485 33.8817C17.3608 33.6925 16.6709 33.0336 16.7306 32.7317C16.7946 32.4328 17.4845 32.8554 17.4845 32.8554C17.9307 32.4674 17.7577 32.0381 17.7577 32.0381C17.5449 32.2111 16.7453 31.5728 16.7659 31.3166C16.7858 31.0574 17.4727 30.9889 17.6656 31.0316C17.8585 31.0721 17.9675 31.5441 17.9675 31.5441C17.9675 31.5441 18.5462 30.9624 18.586 30.6841C18.6265 30.4043 17.9822 30.3219 17.8527 29.9589C17.7201 29.5937 16.7541 29.1711 16.858 28.9355C16.964 28.6999 16.7718 28.426 16.7718 28.426C16.7718 28.426 17.162 27.9489 17.3608 27.6985C17.3925 27.7074 17.4271 27.7155 17.4617 27.7155C17.5516 27.7153 17.6384 27.6825 17.7058 27.623C17.7732 27.5635 17.8166 27.4814 17.8278 27.3923C17.8391 27.3031 17.8175 27.2128 17.7671 27.1384C17.7166 27.064 17.6408 27.0106 17.5537 26.988ZM41.2212 100.296C47.6893 92.8269 63.8954 69.6748 63.8954 25.1849H45.0115C44.7185 24.9522 44.3268 24.791 43.7981 24.791C43.7981 24.791 44.1633 24.3654 43.1045 23.9281H43.1075L43.9675 21.4918C44.6117 21.6125 45.1867 20.6723 44.4217 20.2004C44.396 20.1856 44.3673 20.1687 44.3407 20.1547C44.8105 19.2947 45.8773 17.1581 46.4178 14.5892H45.9664C45.9664 14.5892 48.4477 10.0796 49.0661 6.8385V6.83556H49.0698C49.4912 6.83497 49.895 6.66714 50.1927 6.36893C50.4903 6.07073 50.6574 5.66655 50.6572 5.24521C50.6576 4.95488 50.5784 4.66999 50.4283 4.42146C50.2782 4.17293 50.0629 3.97026 49.8058 3.83543C49.5487 3.7006 49.2595 3.63877 48.9697 3.65664C48.68 3.67452 48.4006 3.77141 48.162 3.93682C47.9234 4.10223 47.7346 4.32982 47.6162 4.59492C47.4978 4.86001 47.4543 5.15246 47.4903 5.44055C47.5263 5.72864 47.6406 6.00136 47.8207 6.22911C48.0007 6.45686 48.2397 6.63095 48.5117 6.73248L48.5029 6.75236C48.5029 6.75236 46.9818 10.8968 45.9664 12.4467C45.9664 12.4467 45.9259 7.24713 45.3016 4.41396C45.627 4.38989 45.9384 4.27135 46.1974 4.0729C46.4565 3.87444 46.652 3.6047 46.76 3.29674C46.8679 2.98879 46.8837 2.65602 46.8053 2.33925C46.7269 2.02247 46.5577 1.73547 46.3186 1.51343C46.0794 1.2914 45.7807 1.14399 45.4589 1.08928C45.1372 1.03457 44.8065 1.07495 44.5074 1.20545C44.2083 1.33596 43.9538 1.55092 43.7751 1.82397C43.5964 2.09702 43.5013 2.41629 43.5014 2.74263C43.5014 3.36699 43.8438 3.91035 44.3503 4.19824C43.5647 5.57874 41.819 8.24478 38.4425 11.7818L33.2429 3.46196C33.6458 3.38503 34.0093 3.17 34.2707 2.8539C34.5321 2.5378 34.6751 2.14043 34.675 1.73025C34.6655 1.26814 34.4753 0.828136 34.1452 0.504657C33.815 0.181178 33.3712 0 32.909 0C32.4468 0 32.003 0.181178 31.6729 0.504657C31.3427 0.828136 31.1525 1.26814 31.1431 1.73025C31.1431 2.61378 31.7962 3.34711 32.6473 3.47374L27.4529 11.7818C24.0793 8.24405 22.3336 5.57801 21.5458 4.1975C21.8034 4.05166 22.0176 3.84006 22.1666 3.58432C22.3156 3.32859 22.3941 3.03788 22.394 2.74189C22.3941 2.41556 22.299 2.09629 22.1203 1.82323C21.9416 1.55018 21.687 1.33522 21.3879 1.20472C21.0888 1.07421 20.7582 1.03384 20.4364 1.08854C20.1147 1.14325 19.816 1.29066 19.5768 1.5127C19.3377 1.73473 19.1685 2.02174 19.0901 2.33851C19.0117 2.65528 19.0274 2.98805 19.1354 3.29601C19.2434 3.60396 19.4389 3.87371 19.698 4.07216C19.957 4.27061 20.2683 4.38915 20.5938 4.41323C19.9694 7.2464 19.9297 12.4459 19.9297 12.4459C18.9136 10.8961 17.3925 6.75162 17.3925 6.75162L17.3844 6.73101C17.6875 6.61785 17.9488 6.41477 18.1333 6.14895C18.3178 5.88314 18.4167 5.5673 18.4166 5.24374C18.4231 5.03102 18.3868 4.81916 18.3099 4.62073C18.2329 4.4223 18.1169 4.24134 17.9688 4.08858C17.8206 3.93582 17.6432 3.81437 17.4472 3.73143C17.2512 3.64849 17.0406 3.60576 16.8278 3.60576C16.6149 3.60576 16.4043 3.64849 16.2083 3.73143C16.0123 3.81437 15.8349 3.93582 15.6868 4.08858C15.5386 4.24134 15.4226 4.4223 15.3457 4.62073C15.2687 4.81916 15.2324 5.03102 15.2389 5.24374C15.2389 6.12138 15.9487 6.83482 16.8263 6.83482H16.8292V6.83777C17.4477 10.0788 19.9289 14.5885 19.9289 14.5885H19.4776C20.0188 17.1573 21.0856 19.2933 21.5539 20.154L21.4766 20.1996C20.7087 20.6716 21.2837 21.6118 21.9279 21.491L22.7879 23.9274H22.7908C21.7328 24.3647 22.098 24.7903 22.098 24.7903C21.5716 24.7903 21.1777 24.9508 20.8839 25.1842H2C2 69.6741 18.2068 92.8261 24.6749 100.296L24.6838 100.321L13.4873 112.536C11.9249 113.919 13.7001 116.625 15.0806 118.297C15.4511 118.746 15.9166 119.109 16.4436 119.357C16.9706 119.606 17.5461 119.735 18.1288 119.735H47.7666C48.3493 119.735 48.9248 119.606 49.4518 119.357C49.9788 119.109 50.4442 118.746 50.8148 118.297C52.1931 116.625 53.9704 113.919 52.4088 112.536L41.2123 100.321L41.2204 100.296L41.2212 100.296Z" fill="#606F7F"/>
</g>
<defs>
<clipPath id="clip0_645_10323">
<rect width="118" height="120" fill="white"/>
</clipPath>
</defs>
</svg>
