<svg width="113" height="120" viewBox="0 0 113 120" fill="none" xmlns="http://www.w3.org/2000/svg">
<path d="M69.7449 74.1205C66.0371 83.5341 61.3688 86.4374 61.3688 86.4374C60.6766 86.8207 61.0573 86.1974 61.0573 86.1974C71.2676 72.3918 70.8205 61.98 70.8565 61.5967C70.8897 61.2191 71.2012 61.5635 71.2012 61.5635C71.2012 61.5635 72.5176 67.1026 69.7449 74.1205ZM56.6404 99.5845C56.1524 99.5962 55.6671 99.5103 55.2128 99.3317C54.7585 99.1532 54.3446 98.8857 53.9953 98.5449C53.646 98.2041 53.3685 97.7969 53.179 97.3473C52.9895 96.8977 52.8919 96.4148 52.8919 95.9269C52.8919 95.4391 52.9895 94.9562 53.179 94.5066C53.3685 94.057 53.646 93.6498 53.9953 93.309C54.3446 92.9682 54.7585 92.7007 55.2128 92.5221C55.6671 92.3436 56.1524 92.2577 56.6404 92.2694C57.1253 92.2627 57.6066 92.3523 58.0565 92.5331C58.5064 92.7139 58.9158 92.9822 59.2611 93.3225C59.6063 93.6628 59.8805 94.0683 60.0676 94.5154C60.2547 94.9625 60.351 95.4423 60.351 95.9269C60.351 96.4116 60.2547 96.8914 60.0676 97.3385C59.8805 97.7856 59.6063 98.1911 59.2611 98.5314C58.9158 98.8717 58.5064 99.14 58.0565 99.3208C57.6066 99.5016 57.1253 99.5912 56.6404 99.5845ZM51.6967 86.4374C51.6967 86.4374 47.0319 83.5341 43.3205 74.1205C40.5513 67.1026 41.8671 61.5628 41.8671 61.5628C41.8671 61.5628 42.1785 61.2191 42.2117 61.5967C42.2478 61.98 41.7979 72.3918 52.0053 86.1974C52.0053 86.1974 52.3888 86.8207 51.6967 86.4374ZM75.32 52.7428C75.32 52.7428 75.2515 52.3264 74.5227 51.5654C74.5227 51.5654 73.5184 47.8292 72.2387 46.6518C72.2387 46.6518 72.0649 46.2353 71.1652 46.3765C71.1652 46.3765 70.8565 41.9478 69.783 38.2828C69.783 38.2828 69.1601 36.0028 56.5437 36H56.5246C43.906 36.0028 43.2852 38.2828 43.2852 38.2828C42.2117 41.9478 41.9003 46.3758 41.9003 46.3758C41.0012 46.2353 40.8268 46.6511 40.8268 46.6511C39.5442 47.8292 38.5428 51.5654 38.5428 51.5654C37.8146 52.3264 37.7454 52.7428 37.7454 52.7428C37.2623 54.4384 37.3676 57.6205 37.8528 63.8464C38.3358 70.0751 39.8585 73.6736 41.3487 77.4127C43.026 81.6261 42.7386 80.9838 48.4416 90.6974C50.6924 96.5788 49.931 98.5475 49.2086 101.104C48.4769 103.668 46.2282 109.726 46.2282 109.726H44.3227C43.8072 110.173 43.3213 110.862 43.1475 111.554C42.971 112.247 43.4922 112.42 43.4922 112.42H44.2422V115.192H43.5642C43.0423 115.192 43.0642 115.721 43.0642 115.721C43.0642 118.141 45.6745 118.649 45.6745 118.649H67.3917C67.3917 118.649 70.0041 118.141 70.0041 115.721C70.0041 115.721 70.0232 115.192 69.5048 115.192H68.8261V112.42H69.5733C69.5733 112.42 70.0924 112.247 69.9215 111.554C69.7449 110.862 69.259 110.173 68.7434 109.726H66.8394C66.8394 109.726 64.5886 103.668 63.8604 101.104C63.1372 98.5475 62.3731 96.5788 64.6246 90.6974C64.6246 90.6974 70.2301 81.1461 71.7203 77.4127C73.2069 73.6736 74.7296 70.0751 75.2155 63.8464C75.7007 57.6205 75.8059 54.4384 75.32 52.7428Z" fill="#606F7F"/>
</svg>
