<svg width="113" height="120" viewBox="0 0 113 120" fill="none" xmlns="http://www.w3.org/2000/svg">
<path d="M78.6969 20.7912C78.6835 20.6982 78.6354 20.6136 78.5624 20.5544C78.4894 20.4951 78.3967 20.4655 78.3028 20.4715L66.8065 21.3602H46.5103L35.0175 20.4722C34.9231 20.4655 34.8296 20.4947 34.7559 20.554C34.6821 20.6133 34.6335 20.6983 34.6199 20.7919L34.6093 20.8802C34.6061 20.9133 34.607 20.9468 34.6121 20.9797L34.973 22.7331C34.9896 22.815 35.023 22.8925 35.071 22.9609C35.119 23.0293 35.1806 23.087 35.252 23.1305L35.6107 23.3507C35.6107 23.3507 38.1377 29.1002 39.9309 38.23C42.0002 48.7547 45.0568 66.4512 45.0568 66.4512C44.8548 66.6496 44.7779 66.9453 44.8605 67.2178L48.1544 78.4322C48.3232 79.0082 48.3423 79.6173 48.2124 80.2046L48.1467 80.4919C48.1 80.7137 47.9952 80.9191 47.843 81.087C47.6855 81.2585 47.4842 81.5366 47.4072 81.8924C47.3352 82.2178 47.451 82.6258 47.581 82.9427C47.7293 83.3126 47.7653 83.7178 47.6827 84.1096L46.9051 87.7322C46.7144 88.4749 46.5798 89.2309 46.5025 89.9938L46.0364 94.5545C46.0082 94.8439 45.9502 95.1277 45.8704 95.4065L44.9099 98.6599C44.8577 98.8336 44.7757 98.9987 44.6564 99.1399C44.441 99.3933 44.085 99.879 43.989 100.422C43.9452 100.642 43.9357 100.868 43.9607 101.092C44.0031 101.439 43.8265 101.776 43.5059 101.916L43.3986 101.963C42.996 102.14 42.698 102.496 42.5934 102.923L39.7621 114.694C39.6851 115.011 39.7706 115.35 39.9994 115.582C40.9542 116.544 44.4523 118.681 56.6598 118.681C68.8652 118.681 72.3633 116.544 73.3174 115.582C73.5491 115.35 73.6317 115.011 73.5547 114.694L70.7241 102.923C70.6725 102.712 70.573 102.516 70.4334 102.349C70.2938 102.183 70.1178 102.051 69.919 101.963L69.8109 101.916C69.6565 101.846 69.5288 101.728 69.4469 101.579C69.3649 101.431 69.3331 101.26 69.3561 101.092C69.3811 100.868 69.3727 100.643 69.3314 100.422C69.2318 99.879 68.8758 99.3933 68.6632 99.1399C68.5462 98.9989 68.459 98.8356 68.4069 98.6599L67.4499 95.4065C67.3662 95.1286 67.3097 94.8433 67.2811 94.5545L66.815 89.9938C66.7373 89.23 66.6031 88.474 66.4124 87.7322L65.6341 84.1096C65.5525 83.7188 65.5892 83.3126 65.7394 82.9427C65.8665 82.6258 65.9816 82.2178 65.9131 81.8924C65.8397 81.5903 65.6885 81.3126 65.4745 81.087C65.3223 80.9191 65.2175 80.7137 65.1708 80.4919L65.1073 80.2046C64.9749 79.6187 64.9939 79.0088 65.1624 78.4322L68.4563 67.2178C68.4966 67.0843 68.4997 66.9424 68.4652 66.8073C68.4307 66.6722 68.36 66.5491 68.2607 66.4512C68.2607 66.4512 71.3173 48.7547 73.3866 38.23C75.1826 29.1002 77.7068 23.3507 77.7068 23.3507L78.0655 23.1305C78.1368 23.0869 78.1982 23.0292 78.2461 22.9608C78.294 22.8924 78.3273 22.8149 78.3438 22.7331L78.7054 20.9797C78.7119 20.9471 78.7129 20.9137 78.7082 20.8809L78.6969 20.7912Z" fill="#606F7F"/>
</svg>
