<svg width="44" height="58" viewBox="0 0 44 58" fill="none" xmlns="http://www.w3.org/2000/svg">
<g clip-path="url(#clip0_845_3775)">
<path d="M29.0332 3.58927C28.6631 3.69642 24.6179 4.86839 24.5442 4.88836C24.4207 4.92211 24.1097 4.98398 23.9513 5.16877C23.7944 5.3558 23.7232 5.59655 23.683 5.90114C23.4552 7.63364 23.6996 15.2839 24.0346 18.9199C24.0405 18.984 24.1212 20.3076 24.3046 20.7233C24.5113 21.0993 24.7495 21.4222 25.0178 21.7544C25.5016 22.3984 25.8444 23.2458 25.8444 24.064C25.8444 26.3061 24.0883 28.0684 21.9086 28.0684C19.7292 28.0684 17.97 26.3044 17.97 24.129C17.97 23.2444 18.3035 22.4147 18.7997 21.7544C19.068 21.4222 19.3062 21.0993 19.5126 20.7233C19.7444 20.1979 19.7632 19.4751 19.7852 18.9199C19.9233 15.3793 20.1229 10.9411 20.2129 8.57527C20.2248 6.62114 19.9424 4.47099 20.2624 2.54583C20.47 0.574826 22.6055 -0.55383 24.3344 0.274736C25.9074 0.885894 27.2979 1.85986 28.7672 2.67127L28.975 2.78742C29.6658 3.19777 29.2506 3.50208 29.1072 3.56536L29.0332 3.58927Z" fill="#E31B23"/>
<path d="M21.9124 53.8183C21.9124 53.8183 20.2437 55.9685 19.4182 57.0513C19.4047 57.0724 19.3302 57.1472 19.2236 57.1472H12.9765C12.8263 57.1377 12.7236 57.0178 12.7236 56.8893V56.3178C12.7236 56.2298 12.7779 56.1358 12.8659 56.0872L19.4033 52.7699C19.4033 52.7699 19.4623 52.7391 19.4972 52.718C19.5245 52.7015 19.558 52.6787 19.5849 52.6569C19.828 52.4596 20.0387 52.1762 20.0387 51.8471C20.0387 51.8336 20.0311 51.7275 19.9984 51.5428C19.9984 51.5428 18.1729 41.7302 17.4109 37.7539C17.3603 37.4504 17.5578 37.2679 17.8067 37.3109C18.6965 37.6018 20.4307 37.9353 21.9199 37.9353C23.329 37.9353 25.1194 37.6018 26.018 37.3109C26.2672 37.2679 26.4647 37.4504 26.4138 37.7539C25.6519 41.7302 23.8263 51.5428 23.8263 51.5428C23.7939 51.7275 23.7863 51.8336 23.7863 51.8471C23.7863 52.1767 23.999 52.4583 24.2408 52.6577C24.2635 52.6764 24.3027 52.7019 24.327 52.7169C24.3514 52.7319 24.4191 52.7687 24.4191 52.7687L30.9588 56.0872C31.0468 56.1358 31.1011 56.2298 31.1011 56.3178V56.8893C31.1011 57.0178 30.9984 57.1377 30.8485 57.1472H24.6014C24.4948 57.1472 24.42 57.0724 24.4065 57.0513C23.581 55.9685 21.9124 53.8183 21.9124 53.8183Z" fill="#E31B23"/>
<path d="M21.9109 30.4884C18.4076 30.4874 15.5572 27.6366 15.5572 24.1333C15.5572 22.7947 16.0238 21.4362 16.8712 20.3082L16.9232 20.2415C17.0674 20.0392 17.2253 19.8271 17.3098 19.7153C17.3551 19.6555 17.442 19.5337 17.442 19.5337C17.442 19.5337 17.3669 19.3089 17.3548 19.272C17.3504 19.2587 17.3456 19.2455 17.341 19.2323C16.2713 16.1537 14.191 13.6608 11.6243 11.584C5.3922 14.3421 0 19.6822 0 27.0537C0 36.1006 8.04902 42.1647 16.1302 43.9471C15.7616 41.991 15.403 40.1045 15.0415 38.2175L15.0315 38.1608C14.8787 37.2475 15.1669 36.3253 15.8018 35.6937C16.4293 35.0696 17.333 34.788 18.2188 34.9413C18.3626 34.9659 18.4956 34.9986 18.6224 35.0407C19.2389 35.2456 20.7876 35.5304 21.9147 35.5304C23.046 35.5304 24.5928 35.2456 25.2089 35.0407C25.3352 34.9986 25.4681 34.9659 25.6144 34.9409C26.4982 34.788 27.4015 35.0696 28.0289 35.6937C28.6639 36.3253 28.9521 37.2475 28.7997 38.1608L28.7893 38.218C28.4273 40.1055 28.0691 41.992 27.7005 43.9485C35.7836 42.168 43.8374 36.103 43.8374 27.0537C43.8374 19.6822 38.4447 14.3421 32.2131 11.584C29.6432 13.6632 27.5612 16.1587 26.4925 19.242C26.4874 19.2566 26.3937 19.541 26.3937 19.541C26.3937 19.541 26.4667 19.6572 26.5351 19.7494C26.6366 19.8862 26.743 20.0322 26.8995 20.241L26.952 20.3087C27.7545 21.3771 28.2172 22.6622 28.2598 23.9369C28.2636 23.9913 28.2674 24.0576 28.2674 24.1333C28.2674 27.6376 25.4166 30.4884 21.9123 30.4884H21.9109Z" fill="#E31B23"/>
</g>
<defs>
<clipPath id="clip0_845_3775">
<rect width="43.8374" height="57.1483" fill="white"/>
</clipPath>
</defs>
</svg>
