<svg width="108" height="54" viewBox="0 0 108 54" fill="none" xmlns="http://www.w3.org/2000/svg">
<g clip-path="url(#clip0_845_3631)">
<path d="M53.2576 3.32617L59.5891 14.2612L65.9611 3.32617H53.2576Z" fill="#E31B23"/>
<path d="M87.7634 23.1509L80.2507 36.0502L79.1167 34.0927L92.9677 10.3259H95.2424L88.9042 21.2002H96.8962L107.257 3.32617H91.8337C89.0189 3.32617 87.3652 5.94517 87.3652 5.94517C87.3652 5.94517 72.6164 31.2712 72.6029 31.2712C71.8469 32.7967 71.8469 35.2807 72.6164 36.7117C72.6299 36.7387 80.2574 49.8944 80.2574 49.8944L95.7689 23.1374H87.7634V23.1509Z" fill="#E31B23"/>
<path d="M66.9599 19.2697H77.3212L81.4116 12.2429H71.0437L72.1844 10.2854H82.5524L86.6091 3.32617H71.3271C68.4111 3.32617 66.7034 5.95867 66.7034 5.95867L60.7229 16.2187L64.7189 23.1104L66.9599 19.2697Z" fill="#E31B23"/>
<path d="M18.3869 31.832H16.6589V34.0663H18.3937C18.5422 34.0663 18.6637 34.0123 18.7582 33.8975C18.8527 33.7828 18.8999 33.6478 18.8999 33.4723V32.4193C18.8999 32.2438 18.8527 32.1088 18.7582 31.994C18.6637 31.886 18.5354 31.832 18.3869 31.832Z" fill="#E31B23"/>
<path d="M30.7529 31.832H29.0857V33.8908H30.7529C30.9014 33.8908 31.0229 33.8368 31.1107 33.7288C31.2052 33.6208 31.2457 33.479 31.2457 33.3103V32.4193C31.2457 32.2505 31.2052 32.1088 31.1107 31.994C31.0162 31.886 30.8947 31.832 30.7529 31.832Z" fill="#E31B23"/>
<path d="M24.4823 31.832H23.2606C23.0986 31.832 22.9771 31.886 22.8826 32.0008C22.7881 32.1155 22.7476 32.2505 22.7476 32.426V36.1115C22.7476 36.2803 22.7948 36.4153 22.8826 36.53C22.9771 36.6448 23.0986 36.7055 23.2606 36.7055H24.4823C24.6308 36.7055 24.7523 36.6448 24.8468 36.53C24.9481 36.4153 24.9953 36.2803 24.9953 36.1115V32.4193C24.9953 32.2505 24.9481 32.1088 24.8468 31.994C24.7523 31.886 24.6308 31.832 24.4823 31.832Z" fill="#E31B23"/>
<path d="M26.622 0C11.9205 0 0 11.9205 0 26.622C0 41.3235 11.9205 53.244 26.622 53.244C41.3235 53.244 53.244 41.3235 53.244 26.622C53.244 11.9205 41.3235 0 26.622 0ZM16.6725 12.3188H30.3547L28.2555 15.6398L14.5732 15.6465L16.6725 12.3188ZM13.8982 36.3285C13.8982 36.7538 13.7497 37.1183 13.4595 37.4085C13.1625 37.7055 12.798 37.8608 12.3795 37.8608H10.5705C10.1452 37.8608 9.78075 37.719 9.49725 37.4288C9.207 37.1453 9.06525 36.7875 9.06525 36.3555V35.64H10.179L10.341 36.3015C10.4152 36.5715 10.6042 36.7133 10.908 36.7133H12.1297C12.2782 36.7133 12.4065 36.6593 12.501 36.5445C12.5887 36.4365 12.636 36.288 12.636 36.126V35.343C12.636 34.9582 12.4672 34.7625 12.1297 34.7625H10.5975C10.179 34.7625 9.8145 34.614 9.51075 34.317C9.21375 34.02 9.072 33.6555 9.072 33.2303V32.1908C9.072 31.7723 9.2205 31.4145 9.51075 31.1175C9.8145 30.8205 10.179 30.672 10.5975 30.672H12.3795C12.798 30.672 13.1557 30.8138 13.446 31.0973C13.7362 31.3875 13.878 31.7385 13.878 32.1705V32.8185H12.7777L12.609 32.2313C12.5212 31.9545 12.3322 31.8128 12.0487 31.8128H10.8472C10.692 31.8128 10.5637 31.8668 10.476 31.9815C10.3747 32.0963 10.3342 32.238 10.3342 32.4068V33.0143C10.3342 33.3923 10.503 33.5813 10.8472 33.5813H12.3795C12.7912 33.5813 13.1557 33.7298 13.4527 34.0335C13.7497 34.3373 13.8982 34.695 13.8982 35.1067V36.3285ZM20.1757 33.696C20.1757 34.1213 20.0272 34.479 19.7302 34.776C19.4265 35.073 19.062 35.2215 18.6435 35.2215H16.659V37.8608H15.39V30.672H18.6435C19.062 30.672 19.4265 30.8205 19.7302 31.1175C20.0272 31.4145 20.1757 31.7723 20.1757 32.184V33.696ZM26.2642 36.315C26.2642 36.7538 26.1225 37.1115 25.812 37.4085C25.5082 37.7055 25.1572 37.8608 24.732 37.8608H23.0175C22.5922 37.8608 22.2277 37.7123 21.9307 37.4085C21.6337 37.1115 21.4785 36.7538 21.4785 36.315V32.184C21.4785 31.7723 21.6337 31.4078 21.9307 31.1175C22.2277 30.8205 22.5922 30.672 23.0175 30.672H24.732C25.1572 30.672 25.515 30.8205 25.812 31.1175C26.1157 31.4078 26.2642 31.7723 26.2642 32.1908V36.315ZM26.5815 28.9575L9.2475 28.9643L13.4595 22.302H10.368L12.474 18.9743H25.3665L23.2605 22.302H17.4825L15.3495 25.6365H24.651L33.156 12.204L43.7467 28.9575H39.7507L37.6447 25.6298H31.3875L33.4935 22.2953H35.5455L33.156 18.5152L26.5815 28.9575ZM31.4617 37.8608L30.294 35.046H29.0857V37.8608H27.8167V30.672H30.996C31.4212 30.672 31.7857 30.8205 32.076 31.1175C32.373 31.4145 32.5215 31.7723 32.5215 32.184V33.4395C32.5215 33.7635 32.4337 34.0605 32.2515 34.3238C32.0625 34.5803 31.8262 34.7693 31.5495 34.8908L32.8117 37.8608H31.4617ZM38.2657 31.833H36.423V37.8608H35.154V31.833H33.3247V30.672H38.2725V31.833H38.2657ZM44.0302 36.3285C44.0302 36.7538 43.8817 37.1183 43.5847 37.4085C43.281 37.7055 42.9232 37.8608 42.498 37.8608H40.7025C40.2705 37.8608 39.9195 37.719 39.6292 37.4288C39.339 37.1385 39.1972 36.7875 39.1972 36.3555V35.64H40.3042L40.473 36.3015C40.554 36.5715 40.7362 36.7133 41.04 36.7133H42.2617C42.417 36.7133 42.5452 36.6593 42.6397 36.5445C42.7275 36.4365 42.7747 36.288 42.7747 36.126V35.343C42.7747 34.9582 42.606 34.7625 42.2617 34.7625H40.7295C40.3042 34.7625 39.9397 34.614 39.6495 34.317C39.3525 34.02 39.1972 33.6555 39.1972 33.2303V32.1908C39.1972 31.7723 39.3525 31.4145 39.6495 31.1175C39.9397 30.8205 40.3042 30.672 40.7295 30.672H42.5047C42.93 30.672 43.2877 30.8138 43.578 31.0973C43.8682 31.3875 44.01 31.7385 44.01 32.1705V32.8185H42.903L42.7342 32.2313C42.6465 31.9545 42.4575 31.8128 42.174 31.8128H40.9657C40.8105 31.8128 40.6822 31.8668 40.5945 31.9815C40.5 32.0963 40.4527 32.238 40.4527 32.4068V33.0143C40.4527 33.3923 40.6282 33.5813 40.9657 33.5813H42.498C42.9165 33.5813 43.2742 33.7298 43.5712 34.0335C43.8817 34.3373 44.0302 34.695 44.0302 35.1067V36.3285ZM44.8065 31.023H44.5365V31.5968H44.4015V31.023H44.1315V30.9015H44.8065V31.023ZM45.6165 31.6035V31.1715C45.6165 31.1513 45.6165 31.131 45.6232 31.0973C45.6097 31.1243 45.6097 31.1513 45.5895 31.1715L45.3667 31.5158H45.3465L45.117 31.1715C45.1035 31.1513 45.09 31.1243 45.0765 31.104C45.0765 31.131 45.09 31.158 45.09 31.1783V31.6103H44.9752V30.915H45.09L45.36 31.3335L45.6367 30.915H45.7447V31.6103H45.6165V31.6035Z" fill="#E31B23"/>
</g>
<defs>
<clipPath id="clip0_845_3631">
<rect width="107.257" height="53.244" fill="white"/>
</clipPath>
</defs>
</svg>
