<svg width="176" height="54" viewBox="0 0 176 54" fill="none" xmlns="http://www.w3.org/2000/svg">
<path d="M165.375 18.5625C165.375 18.1149 165.553 17.6857 165.869 17.3693C166.186 17.0528 166.615 16.875 167.062 16.875C167.51 16.875 167.939 17.0528 168.256 17.3693C168.572 17.6857 168.75 18.1149 168.75 18.5625C168.75 19.0101 168.572 19.4393 168.256 19.7557C167.939 20.0722 167.51 20.25 167.062 20.25C166.615 20.25 166.186 20.0722 165.869 19.7557C165.553 19.4393 165.375 19.0101 165.375 18.5625ZM168.598 18.5625C168.602 18.3595 168.565 18.1579 168.489 17.9695C168.413 17.7812 168.3 17.61 168.157 17.4662C168.014 17.3224 167.843 17.2089 167.655 17.1325C167.467 17.056 167.265 17.0182 167.062 17.0213C166.86 17.0205 166.66 17.0599 166.473 17.1372C166.286 17.2144 166.116 17.328 165.973 17.4713C165.83 17.6147 165.717 17.7849 165.641 17.9722C165.564 18.1595 165.525 18.3602 165.527 18.5625C165.523 18.7655 165.56 18.9671 165.636 19.1555C165.712 19.3438 165.825 19.515 165.968 19.6588C166.111 19.8026 166.282 19.9161 166.47 19.9925C166.658 20.069 166.86 20.1068 167.062 20.1038C167.265 20.1045 167.465 20.0651 167.652 19.9878C167.839 19.9106 168.009 19.797 168.152 19.6537C168.295 19.5103 168.408 19.3401 168.484 19.1528C168.561 18.9655 168.6 18.7648 168.598 18.5625ZM166.399 17.6512H167.175C167.363 17.6416 167.547 17.7063 167.687 17.8313C167.732 17.8747 167.768 17.9272 167.793 17.9853C167.817 18.0434 167.829 18.1058 167.827 18.1687C167.827 18.2941 167.781 18.4151 167.699 18.5092C167.616 18.6034 167.502 18.6643 167.377 18.6806L167.94 19.3725H167.625L167.13 18.72H166.686V19.3725H166.427L166.399 17.6512ZM167.153 18.495C167.394 18.495 167.563 18.3881 167.563 18.1913C167.563 18.0113 167.411 17.8931 167.164 17.8931H166.657V18.5063L167.153 18.495Z" fill="#E31B23"/>
<path d="M109.035 47.0865H108V40.0327H109.035V41.259C109.265 40.8314 109.609 40.4762 110.029 40.2329C110.45 39.9895 110.929 39.8677 111.414 39.8808C113.102 39.8808 114.075 41.0058 114.075 42.6933V47.0752H113.062V42.9633C113.062 41.6583 112.365 40.8371 111.139 40.8371C110.853 40.834 110.571 40.8902 110.308 41.0019C110.046 41.1136 109.809 41.2785 109.614 41.4863C109.418 41.694 109.268 41.94 109.172 42.2087C109.076 42.4775 109.037 42.7632 109.058 43.0477L109.035 47.0865Z" fill="#E31B23"/>
<path d="M121.129 43.1725C121.022 41.8843 120.302 40.765 118.913 40.765C117.709 40.765 116.792 41.7943 116.663 43.1725H121.129ZM119.104 46.3337C119.519 46.3367 119.93 46.2491 120.308 46.0772C120.686 45.9053 121.021 45.653 121.292 45.3381L121.939 45.9287C121.594 46.3528 121.157 46.6924 120.66 46.9216C120.164 47.1507 119.622 47.2632 119.076 47.2506C118.602 47.2499 118.133 47.1524 117.698 46.9642C117.263 46.776 116.871 46.5011 116.547 46.1562C116.222 45.8112 115.971 45.4036 115.809 44.9583C115.647 44.513 115.577 44.0393 115.605 43.5662C115.605 41.5187 117.017 39.8818 118.941 39.8818C120.994 39.8818 122.181 41.5693 122.181 43.6225C122.188 43.7311 122.188 43.8401 122.181 43.9487H116.674C116.69 44.5869 116.955 45.1935 117.412 45.639C117.869 46.0846 118.482 46.3339 119.121 46.3337" fill="#E31B23"/>
<path d="M124.942 45.0779C124.919 45.2372 124.933 45.3998 124.983 45.5528C125.034 45.7057 125.119 45.8448 125.233 45.959C125.346 46.0731 125.485 46.1592 125.638 46.2103C125.79 46.2615 125.953 46.2762 126.112 46.2535C126.462 46.2559 126.806 46.1708 127.114 46.006V46.906C126.732 47.1116 126.304 47.2162 125.871 47.2098C124.746 47.2098 123.907 46.6473 123.907 45.2185V40.9604H122.94V40.0323H123.907V37.9004H124.942V40.0323H127.125V40.9604H124.92L124.942 45.0779Z" fill="#E31B23"/>
<path d="M133.003 40.0059L131.136 45.6927L129.308 40.034H128.205L130.641 47.144H131.558L133.431 41.5752L135.304 47.144H136.198L138.651 40.034H137.571L135.743 45.6927L133.869 40.0059H133.003Z" fill="#E31B23"/>
<path d="M142.914 40.8102C142.565 40.814 142.22 40.8891 141.9 41.0306C141.58 41.1722 141.293 41.3774 141.055 41.6337C140.817 41.89 140.634 42.192 140.516 42.5214C140.399 42.8508 140.35 43.2006 140.372 43.5495C140.355 43.9006 140.409 44.2515 140.53 44.5816C140.651 44.9116 140.837 45.2142 141.076 45.4715C141.316 45.7288 141.604 45.9356 141.925 46.0798C142.245 46.2241 142.591 46.3028 142.943 46.3114C143.292 46.3082 143.638 46.2339 143.958 46.0931C144.279 45.9523 144.567 45.7478 144.806 45.4921C145.044 45.2365 145.229 44.9349 145.348 44.6058C145.466 44.2767 145.517 43.9269 145.496 43.5777C145.513 43.2254 145.459 42.8733 145.337 42.5422C145.216 42.2111 145.029 41.9077 144.789 41.6498C144.548 41.3919 144.258 41.1848 143.936 41.0406C143.615 40.8964 143.267 40.818 142.914 40.8102ZM142.914 47.2508C142.435 47.2524 141.96 47.158 141.518 46.9731C141.076 46.7881 140.675 46.5164 140.339 46.1741C140.004 45.8317 139.74 45.4255 139.564 44.9796C139.388 44.5336 139.303 44.057 139.314 43.5777C139.324 42.8625 139.546 42.1663 139.951 41.5768C140.356 40.9873 140.927 40.5309 141.591 40.2652C142.255 39.9994 142.983 39.9362 143.683 40.0835C144.382 40.2308 145.023 40.5819 145.524 41.0928C146.024 41.6036 146.363 42.2512 146.496 42.9539C146.629 43.6566 146.551 44.3831 146.272 45.0416C145.993 45.7002 145.525 46.2614 144.928 46.6546C144.33 47.0477 143.63 47.2552 142.914 47.2508Z" fill="#E31B23"/>
<path d="M149.175 47.0867H148.14V40.033H149.175V41.8723C149.384 41.2949 149.767 40.7963 150.27 40.4448C150.774 40.0933 151.374 39.9062 151.988 39.9092V41.0342H151.909C150.39 41.0342 149.153 42.1592 149.153 44.2686L149.175 47.0867Z" fill="#E31B23"/>
<path d="M153.225 37.125V47.0869H154.26V45.2419L155.666 43.7963L158.153 47.0869H159.396L156.381 43.0594L159.3 40.0331H158.006L154.26 44.0044V37.125H153.225Z" fill="#E31B23"/>
<path d="M162.9 47.2499C161.854 47.2323 160.843 46.8683 160.026 46.2149L160.549 45.4612C161.231 46.0164 162.077 46.3326 162.956 46.3612C163.789 46.3612 164.396 45.928 164.396 45.2362C164.396 44.5218 163.575 44.2518 162.664 43.993C161.573 43.678 160.363 43.2955 160.363 42.0018C160.363 40.7868 161.353 39.9824 162.731 39.9824C163.619 39.9987 164.483 40.268 165.223 40.7587L164.756 41.5518C164.151 41.1327 163.439 40.8964 162.703 40.8712C161.882 40.8712 161.353 41.3043 161.353 41.8949C161.353 42.5643 162.219 42.823 163.148 43.1155C164.222 43.4418 165.398 43.8637 165.398 45.1293C165.398 46.468 164.312 47.2443 162.923 47.2443" fill="#E31B23"/>
<path d="M54 13.5H68.625V15.5813H56.25V22.5H67.3031V24.5813H56.2837V31.6687H68.7825V33.75H54V13.5Z" fill="#E31B23"/>
<path d="M76.6743 26.1392L71.0493 18.793H73.5974L78.0243 24.5811L82.4455 18.793H84.9374L79.2674 26.1055L85.1511 33.7498H82.5749L77.9455 27.6467L73.288 33.7498H70.8018L76.6743 26.1392Z" fill="#E31B23"/>
<path d="M88.9482 29.8125V20.8125H86.8613V18.8438H88.9482V14.3438H91.1982V18.8438H95.9401V20.8125H91.1982V29.4975C91.1982 31.32 92.2107 31.9838 93.7126 31.9838C94.4675 31.9891 95.2125 31.8116 95.8838 31.4663V33.3731C95.0527 33.8062 94.1265 34.0246 93.1895 34.0088C90.7707 34.0088 88.9482 32.8219 88.9482 29.8125Z" fill="#E31B23"/>
<path d="M99 18.7936H101.25V22.6973C102.375 20.2111 104.518 18.4167 107.353 18.5348V20.9367H107.184C103.911 20.9367 101.25 23.2767 101.25 27.7936V33.7504H99V18.7936Z" fill="#E31B23"/>
<path d="M116.083 32.1575C116.974 32.1662 117.857 31.9822 118.671 31.6181C119.484 31.2541 120.209 30.7185 120.797 30.0482L122.186 31.2913C121.441 32.1975 120.499 32.9218 119.431 33.4091C118.364 33.8965 117.2 34.134 116.027 34.1038C111.938 34.0982 108.562 30.9369 108.562 26.285C108.562 21.9482 111.6 18.4775 115.734 18.4775C120.161 18.4775 122.709 22.0044 122.709 26.4032C122.712 26.6642 122.701 26.9252 122.676 27.185H110.812C111.133 30.335 113.451 32.1575 116.083 32.1575ZM120.448 25.4075C120.189 22.685 118.626 20.345 115.678 20.345C113.102 20.345 111.133 22.4825 110.818 25.4075H120.448Z" fill="#E31B23"/>
<path d="M125.769 18.7928H128.019V21.3128C129.004 19.8334 130.331 18.5003 132.851 18.5003C133.856 18.4637 134.849 18.7271 135.704 19.2571C136.558 19.787 137.236 20.5595 137.649 21.4759C138.176 20.5572 138.937 19.7952 139.856 19.2683C140.774 18.7414 141.816 18.4685 142.875 18.4778C146.318 18.4778 148.433 20.7896 148.433 24.4909V33.7496H146.183V25.014C146.183 22.1228 144.737 20.514 142.307 20.514C140.057 20.514 138.167 22.2015 138.167 25.1378V33.7496H135.968V24.9578C135.968 22.1453 134.494 20.5028 132.12 20.5028C129.746 20.5028 127.958 22.4659 127.958 25.2165V33.7496H125.708L125.769 18.7928Z" fill="#E31B23"/>
<path d="M158.749 32.1578C159.641 32.1672 160.525 31.9836 161.339 31.6195C162.154 31.2555 162.88 30.7195 163.468 30.0484L164.852 31.2915C164.106 32.1977 163.164 32.922 162.097 33.4093C161.03 33.8967 159.865 34.1343 158.692 34.104C154.586 34.104 151.228 30.9484 151.228 26.2909C151.228 21.954 154.266 18.4834 158.406 18.4834C162.827 18.4834 165.375 22.0103 165.375 26.409C165.375 26.6115 165.375 26.8421 165.347 27.1909H153.484C153.804 30.3353 156.116 32.1578 158.749 32.1578ZM163.119 25.4078C162.861 22.6853 161.297 20.3453 158.344 20.3453C155.773 20.3453 153.804 22.4828 153.484 25.4078H163.119Z" fill="#E31B23"/>
<path d="M38.25 7.3125V12.9375C38.25 13.0867 38.1907 13.2298 38.0852 13.3352C37.9798 13.4407 37.8367 13.5 37.6875 13.5H14.0625C13.9133 13.5 13.7702 13.5593 13.6648 13.6648C13.5593 13.7702 13.5 13.9133 13.5 14.0625V25.5994C13.5003 26.0434 13.4131 26.4831 13.2432 26.8933C13.0733 27.3036 12.8242 27.6762 12.51 27.99L6.75 33.75V7.3125C6.75 7.16332 6.80926 7.02024 6.91475 6.91475C7.02024 6.80926 7.16332 6.75 7.3125 6.75H37.6875C37.8367 6.75 37.9798 6.80926 38.0852 6.91475C38.1907 7.02024 38.25 7.16332 38.25 7.3125ZM20.8125 27H33.2719C33.4211 27 33.5641 26.9407 33.6696 26.8352C33.7751 26.7298 33.8344 26.5867 33.8344 26.4375V20.8125C33.8344 20.6633 33.7751 20.5202 33.6696 20.4148C33.5641 20.3093 33.4211 20.25 33.2719 20.25H20.8125C20.6633 20.25 20.5202 20.3093 20.4148 20.4148C20.3093 20.5202 20.25 20.6633 20.25 20.8125V26.4375C20.25 26.5867 20.3093 26.7298 20.4148 26.8352C20.5202 26.9407 20.6633 27 20.8125 27ZM6.75 33.75L12.51 39.51C12.8238 39.8242 13.1964 40.0733 13.6067 40.2432C14.0169 40.4131 14.4566 40.5003 14.9006 40.5H37.6875C37.8367 40.5 37.9798 40.4407 38.0852 40.3352C38.1907 40.2298 38.25 40.0867 38.25 39.9375V34.3125C38.25 34.1633 38.1907 34.0202 38.0852 33.9148C37.9798 33.8093 37.8367 33.75 37.6875 33.75H6.75Z" fill="#E31B23"/>
</svg>
