<svg width="103" height="32" viewBox="0 0 103 32" fill="none" xmlns="http://www.w3.org/2000/svg">
<g clip-path="url(#clip0_845_3684)">
<path d="M89.2388 21.3595C89.2857 20.9488 89.31 20.5326 89.31 20.1107C89.31 13.7338 84.0225 8.56445 77.5032 8.56445C70.9819 8.56445 65.6963 13.7338 65.6963 20.1107C65.6963 26.4876 70.9819 31.6551 77.5032 31.6551C82.4625 31.6551 86.7019 28.6701 88.4532 24.4307L83.3663 23.5382C82.2375 25.6026 80.1057 26.992 77.6663 26.992C74.43 26.992 71.7488 24.5582 71.2107 21.3613H89.2388V21.3595ZM77.6663 13.357C80.4282 13.357 82.7925 15.1363 83.7544 17.6545H71.5725C72.5325 15.1363 74.8969 13.357 77.6663 13.357Z" fill="#E31B23"/>
<path d="M62.522 9.04785H56.4939V31.2385H62.522V9.04785Z" fill="#E31B23"/>
<path d="M59.5107 0C57.6507 0 56.147 1.5075 56.147 3.36375C56.147 5.21625 57.6507 6.72187 59.5107 6.72187C61.3651 6.72187 62.8707 5.21625 62.8707 3.36375C62.8707 1.5075 61.3651 0 59.5107 0Z" fill="#E31B23"/>
<path d="M19.59 1.93262V13.8782H6.59063V1.93262H0V31.2182H6.59063V19.2726H19.59V31.2182H26.1844V1.93262H19.59Z" fill="#E31B23"/>
<path d="M46.8037 9.05805V10.2468C45.0506 9.18742 42.9975 8.57617 40.7962 8.57617C34.4043 8.57617 29.22 13.7418 29.22 20.1149C29.22 26.488 34.4043 31.6537 40.7962 31.6537C42.9412 31.6537 44.9437 31.0724 46.665 30.0618V31.2187H52.5487V9.05805H46.8037ZM41.0906 26.7899C37.3593 26.7899 34.3425 23.8049 34.3425 20.1187C34.3425 16.4305 37.3593 13.4418 41.0906 13.4418C44.82 13.4418 47.8406 16.4305 47.8406 20.1187C47.8406 23.8049 44.82 26.7899 41.0906 26.7899Z" fill="#E31B23"/>
<path d="M101.777 6.98535C96.225 7.9566 92.0043 12.7885 91.9387 18.6122V31.2385H97.7118L97.7156 18.376C97.7156 15.4304 99.9262 13.0022 102.776 12.6516L101.777 6.98535Z" fill="#E31B23"/>
</g>
<defs>
<clipPath id="clip0_845_3684">
<rect width="102.774" height="31.6538" fill="white"/>
</clipPath>
</defs>
</svg>
