<svg width="117" height="62" viewBox="0 0 117 62" fill="none" xmlns="http://www.w3.org/2000/svg">
<g clip-path="url(#clip0_845_3709)">
<mask id="mask0_845_3709" style="mask-type:luminance" maskUnits="userSpaceOnUse" x="0" y="0" width="117" height="62">
<path d="M116.67 0H0V61.5H116.67V0Z" fill="white"/>
</mask>
<g mask="url(#mask0_845_3709)">
<path d="M59.1675 36.5625H60.8962L60.8175 34.5L59.1675 36.5625Z" fill="#E31B23"/>
<path d="M69.0224 25.4363C64.4174 29.9288 57.5287 27.06 58.2337 21.5475C58.7774 17.2912 63.9787 13.0575 67.9162 10.755C67.9387 10.7438 67.9349 10.7212 67.9199 10.7062C67.4062 10.215 66.3337 9.10125 65.6437 8.265C63.7387 5.9625 60.3937 5.86875 58.4025 8.3925L47.0699 9.45C47.0249 9.45375 47.0249 9.5175 47.0699 9.52125L59.2199 10.2263C61.3724 10.35 62.0775 12.3038 59.9962 13.8825C52.2825 19.7363 50.9062 25.9388 52.6274 30.8475C52.6424 30.8775 52.5937 30.9037 52.5749 30.8775C51.8662 29.8725 51.3337 28.6425 51.0487 27.3488C47.3362 25.0163 44.3324 20.5725 44.3324 15.0938C44.3324 7.12125 50.8124 0.55875 58.8337 0.55875C66.8549 0.55875 73.3387 7.12125 73.3387 15.0938C73.3387 19.4025 71.4524 23.0663 69.0224 25.4363ZM71.8612 39.075H64.8862L67.3612 32.6212H70.4287L68.475 37.7063H72.3825L71.8612 39.075ZM60.9937 39.075L60.9412 37.8037H58.1662L57.1462 39.075H54.6112L59.7562 33.1012C60.0037 32.8162 60.3674 32.6212 60.7012 32.6212H63.4462L64.0612 39.075H60.9899H60.9937ZM50.475 39.2925C49.6462 39.2925 48.9299 39.2062 48.3412 39.075L48.8624 37.7063C50.2687 37.8713 51.4799 37.7475 51.9487 36.5175L53.4412 32.6212H56.5124L54.8662 36.915C54.0262 39.1088 51.9525 39.2925 50.475 39.2925ZM81.2849 24.5663C81.4312 23.1338 81.3937 21.0862 81.1725 19.5712C81.1725 19.5412 81.1387 19.5412 81.1312 19.5712C80.6737 21.7725 79.2524 24.75 76.1812 27.18C76.1549 27.2025 76.1212 27.165 76.1474 27.135C78.8437 24.255 80.445 20.7075 80.6962 17.055C80.19 15.0412 79.4024 13.0988 78.4087 11.3775C78.3974 11.355 78.3712 11.3625 78.3749 11.3925C78.9224 15.0862 78.0487 19.965 74.4712 23.9175C74.4487 23.9437 74.4112 23.9137 74.4337 23.8837C77.5125 19.4437 78.3149 14.0363 76.9687 9.16875C72.8587 3.6075 66.2662 0 58.8337 0C51.4012 0 44.8162 3.6075 40.7137 9.165C39.3712 14.0288 40.1699 19.4362 43.2487 23.88C43.2712 23.91 43.2299 23.9438 43.2074 23.9138C39.6299 19.9575 38.7637 15.0788 39.3112 11.3888C39.3112 11.3625 39.2849 11.3512 39.2737 11.3737C38.2837 13.0912 37.4962 15.0375 36.9899 17.0513C37.2374 20.7075 38.8424 24.2512 41.5312 27.1312C41.5574 27.1575 41.5237 27.1988 41.4974 27.1763C38.4262 24.7463 37.0049 21.7688 36.5437 19.5675C36.5362 19.5375 36.5062 19.5375 36.5062 19.5675C36.2849 21.0825 36.2474 23.13 36.3937 24.5625C37.1699 26.9925 38.8237 29.0325 40.5149 30.5025C40.5449 30.5287 40.5187 30.57 40.4849 30.5513C38.5949 29.37 37.5374 28.2187 36.8174 27.1987C36.8024 27.1762 36.7799 27.1837 36.7837 27.2137C38.8649 37.35 47.9287 45.1538 58.8337 45.1538C69.7387 45.1538 78.8137 37.35 80.8874 27.2137C80.8949 27.1875 80.8724 27.18 80.8574 27.1987C80.1374 28.2187 79.0762 29.37 77.1825 30.5513C77.1525 30.5738 77.1262 30.5287 77.1562 30.5025C78.8474 29.0325 80.5012 26.9925 81.2775 24.5625" fill="#E31B23"/>
<path d="M115.628 59.2642C114.983 60.9555 112.748 61.4767 110.333 61.4767C107.918 61.4767 106.365 60.9517 106.729 59.2642H109.796C109.718 59.718 109.988 60.003 110.895 60.003C111.803 60.003 112.388 59.7105 112.556 59.2642C112.98 58.1617 106.905 59.238 107.873 56.7142C108.413 55.3005 110.543 54.6367 112.946 54.6367C115.35 54.6367 116.719 55.158 116.426 56.7105H113.419C113.464 56.2942 113.34 55.9792 112.433 55.9792C111.525 55.9792 111.045 56.3017 110.888 56.7105C110.456 57.8355 116.591 56.7405 115.624 59.2605" fill="#E31B23"/>
<path d="M61.9087 61.2859H58.8337L61.305 54.8359H64.3725L61.905 61.2859H61.9087Z" fill="#E31B23"/>
<path d="M85.1287 61.2859H82.0537L84.525 54.8359H87.5925L85.125 61.2859H85.1287Z" fill="#E31B23"/>
<path d="M104.899 61.2859H97.4399L99.9112 54.8359H107.374L106.897 56.0734H102.506L102.011 57.3747H105.667L105.191 58.6122H101.539L101.04 59.9172H105.431L104.906 61.2859H104.899Z" fill="#E31B23"/>
<path d="M43.9012 61.2859H41.4187L39.3375 57.4759L37.8787 61.2859H35.3962L37.8675 54.8359H40.7512L42.5887 58.2259L43.8862 54.8359H46.3687L43.8975 61.2859H43.9012Z" fill="#E31B23"/>
<path d="M95.5348 61.2859H93.0524L90.9711 57.4759L89.5124 61.2859H87.0374L89.5048 54.8359H92.3886L94.2223 58.2259L95.5274 54.8359H98.0061L95.5386 61.2859H95.5348Z" fill="#E31B23"/>
<path d="M6.62614 59.1259C5.78614 61.3197 3.71614 61.5034 2.23864 61.5034C1.41364 61.5034 0.701143 61.4209 0.108643 61.2859L0.633643 59.9172C2.03614 60.0822 3.23989 59.9584 3.71239 58.7284L5.20114 54.8359H8.27239L6.62989 59.1297L6.62614 59.1259Z" fill="#E31B23"/>
<path d="M24.2437 56.8908C24.06 57.3633 23.4825 57.7045 22.92 57.7045H21.2175L21.8437 56.0695H23.55C24.1087 56.0695 24.4162 56.4183 24.24 56.8908H24.2437ZM24.0225 54.832H19.2525L16.7812 61.282H19.8525L20.7488 58.942H22.455C25.2937 58.942 26.8162 58.1808 27.315 56.8908C27.81 55.597 26.8687 54.832 24.03 54.832" fill="#E31B23"/>
<path d="M71.2723 56.8906C71.0923 57.3631 70.5148 57.7044 69.9561 57.7044H68.2536L68.8798 56.0694H70.5861C71.1448 56.0694 71.4561 56.4181 71.2723 56.8906ZM71.0548 54.8319H66.2848L63.8098 61.2819H66.8811L67.7773 58.9419H68.7073L69.3111 61.2819H72.6636L71.8461 58.7056C73.2036 58.3869 74.0173 57.7606 74.3436 56.8869C74.8423 55.5931 73.8973 54.8281 71.0586 54.8281" fill="#E31B23"/>
<path d="M77.7786 59.917L79.7286 54.832H76.6611L74.1936 61.282H81.1611L81.6861 59.9133H77.7786V59.917Z" fill="#E31B23"/>
<path d="M11.1074 58.7772L12.7612 56.7147L12.8362 58.7772H11.1037H11.1074ZM15.3862 54.8359H12.6449C12.3112 54.8359 11.9437 55.0309 11.6999 55.3159L6.55493 61.2897H9.08993L10.1137 60.0184H12.8812L12.9299 61.2897H16.0012L15.3824 54.8397L15.3862 54.8359Z" fill="#E31B23"/>
<path d="M29.7298 58.7772L31.3836 56.7147L31.4548 58.7772H29.7298ZM34.0086 54.8359H31.2598C30.9261 54.8359 30.5623 55.0309 30.3148 55.3159L25.1736 61.2897H27.7086L28.7323 60.0184H31.4998L31.5486 61.2897H34.6198L34.0048 54.8397L34.0086 54.8359Z" fill="#E31B23"/>
<path d="M53.1673 58.7772L54.8211 56.7147L54.8961 58.7772H53.1673ZM57.4461 54.8359H54.6973C54.3636 54.8359 53.9998 55.0309 53.7561 55.3159L48.6111 61.2897H51.1461L52.1661 60.0184H54.9373L54.9861 61.2897H58.0573L57.4423 54.8397L57.4461 54.8359Z" fill="#E31B23"/>
</g>
</g>
<defs>
<clipPath id="clip0_845_3709">
<rect width="116.67" height="61.5037" fill="white"/>
</clipPath>
</defs>
</svg>
