<svg width="188" height="49" viewBox="0 0 188 49" fill="none" xmlns="http://www.w3.org/2000/svg">
<g clip-path="url(#clip0_845_3729)">
<path d="M86.0791 16.1494C90.5866 16.1494 94.0853 19.6707 94.0853 24.2457C94.0853 28.8657 90.5866 32.3644 86.0791 32.3644C81.5707 32.3644 78.1394 28.8657 78.1394 24.2457C78.1403 19.6707 81.5716 16.1494 86.0791 16.1494ZM86.1466 29.9204C89.1747 29.9204 91.3722 27.4754 91.3722 24.2466C91.3722 21.0844 89.1738 18.6169 86.1466 18.6169C83.0519 18.6169 80.8535 21.0835 80.8535 24.2466C80.8535 27.4754 83.0519 29.9204 86.1466 29.9204Z" fill="#E31B23"/>
<path d="M96.3943 32.1183V16.4189H101.306C105.544 16.4189 109.806 18.2133 109.806 24.1561C109.806 30.1224 105.545 32.1183 101.306 32.1183H96.3943ZM99.0624 18.8414V29.6968H100.812C104.153 29.6968 107.07 28.598 107.07 24.1571C107.07 19.8736 104.154 18.8414 100.789 18.8414H99.0624Z" fill="#E31B23"/>
<path d="M137.91 32.1164L130.105 20.8692V32.1164H127.436V16.417H130.105L137.91 27.7092V16.417H140.601V32.1164H137.91Z" fill="#E31B23"/>
<path d="M148.286 25.2994C145.415 24.8279 143.688 23.2135 143.688 20.6569C143.688 17.8538 146.245 16.1494 149.228 16.1494C152.009 16.1494 153.781 17.3382 155.037 18.661L153.175 20.6344C152.3 19.5807 151.044 18.571 149.116 18.571C147.187 18.571 146.38 19.6472 146.38 20.5894C146.38 21.6432 147.053 22.3838 148.869 22.6979L150.439 22.9669C153.803 23.55 155.351 25.2769 155.351 27.7669C155.351 30.4135 153.131 32.3644 149.341 32.3644C146.425 32.3644 144.384 30.9966 143.083 29.3588L144.9 27.5194C145.864 28.7757 147.165 29.9419 149.677 29.9419C151.673 29.9419 152.66 28.9997 152.66 27.811C152.66 26.8022 152.032 25.9275 150.194 25.6135L148.286 25.2994Z" fill="#E31B23"/>
<path d="M167.978 32.1125V25.3165H160.599V32.1125H157.93V16.4131H160.599V22.8725H167.978V16.4131H170.67V32.1125H167.978Z" fill="#E31B23"/>
<path d="M77.4062 16.4169L74.5178 16.3672L68.9903 26.1931L67.0131 25.4159V16.4169H64.345V32.1162H67.0131V28.1694L77.6162 32.3647V32.3075V29.5822L71.4212 27.1391L77.4062 16.4169Z" fill="#E31B23"/>
<path d="M120.856 16.417H115.038L110.609 32.1154H113.463L114.3 28.957H121.594L122.431 32.1154H125.285L120.856 16.417ZM114.945 26.5317L116.963 18.8442H118.932L120.95 26.5317H114.945Z" fill="#E31B23"/>
<path d="M183.058 16.417H177.24L172.811 32.1154H175.665L176.502 28.957H183.796L184.633 32.1154H187.487L183.058 16.417ZM177.147 26.5317L179.165 18.8442H181.134L183.152 26.5317H177.147Z" fill="#E31B23"/>
<path d="M-0.0805664 0V48.4256H48.3451V0H-0.0805664ZM19.7288 27.57V2.66906H43.2582L28.5301 29.7769L19.7288 27.57ZM45.6769 3.80812V34.0753L31.2047 30.4472L45.6769 3.80812ZM17.0597 2.66906V26.9006L2.5885 23.2725V2.66906H17.0597ZM2.5885 26.025L17.0597 29.6531V45.7575H2.5885V26.025ZM19.7288 45.7566V30.3216L45.6769 36.8269V45.7566H19.7288Z" fill="#E31B23"/>
</g>
<defs>
<clipPath id="clip0_845_3729">
<rect width="187.5" height="48.4256" fill="white"/>
</clipPath>
</defs>
</svg>
