<svg width="177" height="53" viewBox="0 0 177 53" fill="none" xmlns="http://www.w3.org/2000/svg">
<g clip-path="url(#clip0_845_3642)">
<path d="M145.255 38.2413C142.918 38.2413 140.574 37.4186 138.798 35.7777C135.234 32.4872 135.234 27.1378 138.798 23.8473C140.523 22.2542 142.819 21.375 145.255 21.375C147.692 21.375 149.988 22.2542 151.713 23.8473L152.991 25.0269L142.913 34.4153C144.954 35.2989 147.466 34.9638 149.149 33.4099L150.431 32.226L153 34.5981L151.718 35.7821C149.937 37.4274 147.598 38.25 145.26 38.25L145.255 38.2413ZM145.255 24.7265C143.785 24.7265 142.404 25.2575 141.362 26.2151C139.651 27.795 139.302 30.1672 140.32 32.0694L147.66 25.2358C146.919 24.9049 146.104 24.7265 145.255 24.7265Z" fill="#E31B23"/>
<path d="M119.822 21.375C117.451 21.375 115.28 22.2457 113.606 23.6781V21.375H110.25V38.25H113.606V30.9358C113.606 27.5138 116.396 24.7274 119.822 24.7274H121.5V21.375H119.822Z" fill="#E31B23"/>
<path d="M162 24.7274V21.375H154.125V32.1548C154.125 35.5159 156.894 38.25 160.302 38.25H162V34.8976H160.302C158.768 34.8976 157.52 33.6655 157.52 32.1505V24.723H162V24.7274Z" fill="#E31B23"/>
<path d="M170.665 38.2456C168.878 38.2456 166.921 37.7103 165.178 36.6877L164.25 36.148L165.962 33.267L166.89 33.8067C168.896 34.9817 171.077 35.1079 172.194 34.6292C172.833 34.355 172.99 33.9546 173.052 33.6805C173.179 33.1147 173.029 32.8058 172.902 32.6186C172.487 31.9963 171.405 31.4914 169.938 31.226C167.893 30.9214 166.216 30.0205 165.266 28.7063C164.544 27.7096 164.264 26.5086 164.474 25.3205C164.745 23.7843 165.682 22.5787 167.119 21.9216C169.29 20.9251 172.456 21.3124 175.176 22.9095L176.625 23.7582L174.913 26.6391L173.464 25.7905C171.432 24.5981 169.479 24.5241 168.524 24.9592C168.095 25.1551 167.867 25.4467 167.788 25.8993C167.731 26.2039 167.802 26.4868 167.999 26.7566C168.41 27.3267 169.32 27.7532 170.49 27.9316C172.973 28.3755 174.764 29.3547 175.709 30.7735C176.419 31.8352 176.634 33.093 176.34 34.416C176.007 35.9 175.009 37.0706 173.533 37.706C172.68 38.0716 171.703 38.25 170.665 38.25V38.2456Z" fill="#E31B23"/>
<path d="M98.4375 21.375C93.7834 21.375 90 25.1584 90 29.8125C90 34.4666 93.7834 38.25 98.4375 38.25C100.349 38.25 102.108 37.6056 103.523 36.5303V38.25H106.875V29.8125C106.875 25.1584 103.092 21.375 98.4375 21.375ZM98.4375 34.8976C95.6337 34.8976 93.3524 32.6163 93.3524 29.8125C93.3524 27.0087 95.6337 24.7274 98.4375 24.7274C101.241 24.7274 103.523 27.0087 103.523 29.8125C103.523 32.6163 101.241 34.8976 98.4375 34.8976Z" fill="#E31B23"/>
<path d="M81.8498 21.375C80.1919 21.375 78.6942 22.0716 77.625 23.1818C76.5514 22.0716 75.0537 21.375 73.3958 21.375C72.4781 21.375 71.6123 21.5927 70.8331 21.9715V21.375H67.5V38.25H70.8331V27.3048C70.8331 25.8855 71.9803 24.7274 73.3958 24.7274C74.8113 24.7274 75.9584 25.8811 75.9584 27.3048V38.25H79.2916V27.3048C79.2916 25.8855 80.4387 24.7274 81.8542 24.7274C83.2697 24.7274 84.4169 25.8811 84.4169 27.3048V38.25H87.75V27.3048C87.75 24.0352 85.1051 21.375 81.8542 21.375H81.8498Z" fill="#E31B23"/>
<path d="M138.375 38.25L129.303 29.4512L138.375 21.375H133.32L127.237 26.7649V21.375H123.75V38.25H127.237V32.1635L133.443 38.25H138.375Z" fill="#E31B23"/>
<path d="M60.0931 13.8617C54.3921 1.01974 36.7128 -3.75606 20.613 3.18815C4.51316 10.1324 -3.91923 26.1714 1.78185 39.0133C7.48295 51.8553 25.1622 56.631 41.262 49.6869C57.3618 42.7427 65.7943 26.7036 60.0931 13.8617ZM29.2704 28.1492H17.7151V24.7214H29.2704V28.1492ZM29.2704 18.5044H17.4768C15.7669 18.5044 14.3765 19.6573 14.3765 21.0808V31.7898C14.3765 33.2088 15.7669 34.3662 17.4768 34.3662H29.2704V37.7939H17.4768C13.8455 37.7939 10.8937 35.1022 10.8937 31.7898V21.0808C10.8937 17.7684 13.8455 15.0767 17.4768 15.0767H29.2704V18.5044ZM50.9858 18.5044H39.1922C37.4823 18.5044 36.0919 19.6573 36.0919 21.0808V31.7898C36.0919 33.2088 37.4823 34.3662 39.1922 34.3662H50.9858V37.7939H39.1922C35.5609 37.7939 32.6091 35.1022 32.6091 31.7898V21.0808C32.6091 17.7684 35.5609 15.0767 39.1922 15.0767H50.9858V18.5044Z" fill="#E31B23"/>
<path d="M157.372 18.4916C158.87 17.8358 159.654 16.3209 159.123 15.1082C158.592 13.8954 156.948 13.444 155.449 14.0999C153.951 14.7557 153.166 16.2705 153.697 17.4833C154.228 18.696 155.873 19.1475 157.372 18.4916Z" fill="#E31B23"/>
</g>
<defs>
<clipPath id="clip0_845_3642">
<rect width="176.625" height="52.875" fill="white"/>
</clipPath>
</defs>
</svg>
