<svg width="120" height="44" viewBox="0 0 120 44" fill="none" xmlns="http://www.w3.org/2000/svg">
<g clip-path="url(#clip0_845_3625)">
<mask id="mask0_845_3625" style="mask-type:alpha" maskUnits="userSpaceOnUse" x="0" y="0" width="120" height="44">
<path d="M0 0H119.516V43.875H0V0Z" fill="black"/>
</mask>
<g mask="url(#mask0_845_3625)">
<path fill-rule="evenodd" clip-rule="evenodd" d="M107.416 20.5791C107.416 17.4599 109.092 15.7536 111.116 15.7536C112.224 15.7274 113.439 16.3132 114.142 17.4337V22.8177C113.413 24.5501 112.224 25.3236 110.819 25.3236C108.848 25.3236 107.416 23.325 107.416 20.5791ZM90.8462 1.7063C90.4946 2.31944 90.8189 2.93255 91.2516 3.17258C91.5212 3.3318 91.6555 3.62529 91.4677 3.94494C91.1434 4.47844 91.3322 5.09158 91.8456 5.38507C92.2495 5.6251 92.6832 5.5443 92.9269 5.41121C93.4926 5.14505 93.9784 4.69233 94.5464 5.01196C94.7354 5.11772 94.8696 5.33161 94.8696 5.5443C94.8696 6.21089 94.1947 6.39745 93.6814 6.7444C93.4664 6.87749 93.1692 7.22446 93.1692 7.67836C93.1692 8.26416 93.6279 8.71687 94.2494 8.71687C94.6272 8.71687 94.8162 8.9569 94.8162 9.30267C94.8162 9.78391 95.1953 10.3697 95.9236 10.3697C96.6259 10.3697 97.0037 9.78391 97.0037 9.30267C97.0037 8.9569 97.1926 8.71687 97.5718 8.71687C98.1919 8.71687 98.6518 8.26416 98.6518 7.67836C98.6518 7.22446 98.3548 6.87749 98.1384 6.7444C97.6263 6.39745 96.9502 6.21089 96.9502 5.5443C96.9502 5.33161 97.0858 5.11772 97.2746 5.01196C97.8414 4.69233 98.3548 5.14505 98.8954 5.41121C99.1378 5.5443 99.5691 5.6251 99.9742 5.38507C100.489 5.09158 100.678 4.47844 100.354 3.94494C100.164 3.62529 100.3 3.3318 100.568 3.17258C101.002 2.93255 101.325 2.31944 100.975 1.7063C100.597 1.09436 99.9208 1.06703 99.4894 1.30705C99.1924 1.46747 98.8681 1.44014 98.7064 1.1205C98.3809 0.586987 97.7606 0.427764 97.2472 0.721256C96.8433 0.932762 96.6804 1.35934 96.6804 1.62669C96.6259 2.23982 96.7886 2.90523 96.2206 3.22604C96.0317 3.3318 95.7892 3.3318 95.6004 3.22604C95.0324 2.90523 95.1953 2.23982 95.1406 1.62669C95.1406 1.35934 94.9789 0.932762 94.5726 0.721256C94.0604 0.427764 93.4391 0.586987 93.1419 1.1205C92.9531 1.44014 92.6299 1.46747 92.3316 1.30705C91.8991 1.06703 91.2242 1.09436 90.8462 1.7063ZM80.8117 20.2321C81.0278 16.9536 82.9457 15.7536 84.3229 15.7536C85.1879 15.7536 85.8902 16.2336 85.8902 17.0868C85.8902 18.9262 83.5672 20.1251 80.8117 20.2321ZM62.3644 5.7047H63.0131C63.6881 5.7047 63.9304 6.05166 63.9304 6.71708V22.9519C63.9304 25.7241 65.5525 27.4565 69.5758 27.4565C73.0061 27.4565 74.9513 25.7241 74.9513 22.7915V20.7655C75.5182 20.9522 76.1122 21.1386 76.7883 21.2718C76.8953 24.4443 79.2455 27.4565 83.5945 27.4565C86.8895 27.4565 89.1044 25.1905 90.2117 22.6049L89.5904 22.0715C88.1847 24.1508 86.565 25.244 84.6474 25.244C82.7307 25.244 81.1087 24.0177 80.8117 21.5926C87.1331 21.2979 89.671 16.1005 91.4274 16.1005C91.7779 16.1005 92.1296 16.261 92.1296 16.9536V27.2165H97.4778V26.0164H96.6662C96.1529 26.0164 95.9094 25.6967 95.9094 24.8174V19.992C95.9094 18.7124 96.9099 16.9536 97.6656 16.741C97.8284 17.3802 98.6114 18.2061 100.015 18.2061C102.636 18.2061 104.419 15.3009 104.419 13.1418C104.419 10.5563 103.123 9.67697 102.555 9.67697C101.879 9.67697 101.691 10.2093 101.691 10.5563C103.446 10.5563 103.257 13.995 101.879 13.995C100.988 13.995 100.854 12.8222 99.4491 12.8222C98.2324 12.8222 97.3151 13.5423 97.3151 15.1143C96.8006 15.4613 96.0994 16.2336 95.9379 16.4202H95.9094V16.261C95.9094 14.7139 94.8578 13.6754 93.2632 13.6754C90.9402 13.6754 89.5642 15.3805 87.7534 17.0606C87.7807 16.9001 87.8081 16.741 87.8081 16.5806C87.8081 14.8208 86.2134 13.6754 84.1067 13.6754C80.0833 13.6754 77.3552 16.3406 76.8692 19.9123C76.0575 19.7259 75.4635 19.5131 74.9513 19.2719V13.8881H70.5751V16.2336C70.5751 17.3267 71.4128 18.7669 73.1951 19.8862V22.4446C73.1951 24.6309 72.1411 25.4828 70.4123 25.4828C68.4956 25.4828 67.7126 24.4169 67.7126 22.7915V4.50578H62.3644V5.7047ZM43.7543 5.7047H44.4042C45.078 5.7047 45.3215 6.05166 45.3215 6.71708V24.3113C45.3215 25.8297 46.1865 27.2165 48.266 27.2165H57.7731C60.5548 27.2165 62.2301 25.7241 62.2301 23.2441C62.2301 20.9522 60.6354 20.0728 58.9886 19.1923C57.2336 18.2596 55.5571 17.7807 55.5571 16.8468C55.5571 16.3406 55.9634 15.9401 56.8546 15.9401C58.1783 15.9401 59.7169 16.741 60.6354 17.6737L62.7969 13.8881H55.6389C53.3967 13.8881 52.0196 15.2213 52.0196 17.0606C52.0196 19.3528 53.7747 20.2593 56.7464 21.7517C57.9072 22.3376 58.8531 22.8177 58.8531 23.8312C58.8531 24.6844 58.3671 25.2963 57.1242 25.2963C54.4234 25.2963 52.7492 21.4048 52.7492 21.4048H51.8854V25.8571H49.9664C49.2652 25.8571 49.1025 25.5101 49.1025 24.8435V4.50578H43.7543V5.7047ZM24.5239 39.4779C28.5746 39.2116 32.9246 40.3583 35.868 43.8755C37.8132 41.9838 44.5112 36.2256 57.8278 36.2256C70.4123 36.2256 83.0277 41.025 93.1016 41.025C101.582 41.025 105.553 36.9991 106.254 32.4933C107.227 33.7731 109.145 34.9198 111.305 34.8401C115.519 34.8401 117.924 31.4548 117.924 27.6691V16.2871C117.924 15.4339 118.113 15.0882 118.815 15.0882H119.517V13.8881H115.709C114.764 13.8881 114.358 14.2885 114.196 14.9551C113.385 14.2623 112.224 13.6754 110.522 13.6754C106.741 13.6754 103.23 15.9675 103.23 20.8464C103.23 24.7377 105.877 27.4565 109.794 27.4565C111.657 27.4565 113.17 26.5759 114.142 25.4045V27.9889C114.142 31.5606 112.684 32.9473 110.307 32.9473C107.902 32.9473 106.283 31.374 106.228 29.429H105.093C105.202 35.2132 102.176 38.4915 93.7231 38.4915C81.2715 38.4915 69.981 29.9089 51.2639 29.9089C34.6251 29.9089 24.5239 39.4779 24.5239 39.4779ZM17.1236 20.5791C17.1236 17.4599 18.7979 15.7536 20.8238 15.7536C21.8231 15.7274 22.9033 16.2075 23.6054 17.0868V23.325C22.8498 24.7104 21.7957 25.3236 20.5267 25.3236C18.5269 25.3236 17.1236 23.325 17.1236 20.5791ZM12.9363 20.8464C12.9363 24.7377 15.5837 27.4565 19.5013 27.4565C21.3098 27.4565 22.7951 26.6033 23.7944 25.4828C24.2269 26.6033 25.4151 27.4565 26.929 27.4565C29.6286 27.4565 31.493 25.4045 32.4103 22.7915V27.2165H37.7846V26.0164H37.0835C36.3813 26.0164 36.1923 25.6694 36.1923 24.8162V20.206C36.1923 17.7807 38.273 15.2474 40.5413 15.2474C41.19 15.2474 41.6213 15.6217 41.6213 16.1005C41.6213 16.5271 41.3243 16.8468 40.8645 16.8468C40.3523 16.8468 40.2703 16.3406 40.0553 16.3406C39.353 16.3406 38.488 16.9798 38.488 18.2061C38.488 19.3254 39.5135 20.2854 40.9192 20.2854C42.8358 20.2854 44.0787 18.7124 44.0787 16.8206C44.0787 15.0347 42.648 13.6754 40.8645 13.6754C38.9467 13.6754 37.0835 14.9004 36.1923 16.261V15.6217C36.1923 14.582 35.679 13.8881 34.6251 13.8881H30.6539V15.0882H31.5191C32.0596 15.0882 32.4103 15.4339 32.4103 16.2871V19.6724C31.6818 22.7381 30.1146 25.3236 28.4676 25.3236C27.9281 25.3236 27.3864 25.0575 27.3864 24.3646V16.2871C27.3864 15.4339 27.5491 15.0882 28.2515 15.0882H28.9536V13.8881H25.1728C24.4431 13.8881 23.9571 14.235 23.7409 14.8208C22.9292 14.1815 21.7957 13.6754 20.2036 13.6754C16.4214 13.6754 12.9363 15.9675 12.9363 20.8464ZM0 16.741C0 27.1095 7.85897 35.3999 19.2304 35.3999C26.4418 35.3999 30.5745 32.0146 32.3306 30.0421L31.7365 29.429C30.0076 30.9749 26.74 33.1601 21.6888 33.1601C12.9363 33.1601 8.37228 26.7638 8.37228 20.206C8.37228 11.7552 14.5036 7.78412 20.0954 7.78412C23.4176 7.78412 25.5233 8.63727 27.6311 10.3697C29.6025 6.90363 31.5998 3.46607 33.5723 0H9.26346C5.24011 2.07941 0 8.63727 0 16.741Z" fill="#E31B23"/>
</g>
</g>
<defs>
<clipPath id="clip0_845_3625">
<rect width="119.812" height="43.875" fill="white"/>
</clipPath>
</defs>
</svg>
