<svg width="113" height="67" viewBox="0 0 113 67" fill="none" xmlns="http://www.w3.org/2000/svg">
<g clip-path="url(#clip0_845_3671)">
<mask id="mask0_845_3671" style="mask-type:luminance" maskUnits="userSpaceOnUse" x="0" y="0" width="113" height="67">
<path d="M112.5 0H0V66.375H112.5V0Z" fill="white"/>
</mask>
<g mask="url(#mask0_845_3671)">
<path d="M14.4749 17.0254V13.1629H27.4874C27.6374 13.8379 27.7124 14.6629 27.7124 15.5254C27.7124 18.4504 26.9249 22.0504 24.3374 24.6004C21.8249 27.1879 18.6374 28.5754 14.3999 28.5754C6.5624 28.5754 -0.0375977 22.2004 -0.0375977 14.3629C-0.0375977 6.52539 6.5624 0.150391 14.3999 0.150391C18.7499 0.150391 21.8249 1.83789 24.1499 4.05039L21.4124 6.78789C19.7624 5.21289 17.4749 4.01289 14.3999 4.01289C8.6624 4.01289 4.1999 8.62539 4.1999 14.3629C4.1999 20.1004 8.6624 24.7129 14.3999 24.7129C18.1124 24.7129 20.2124 23.2129 21.5999 21.8629C22.7249 20.7754 23.4374 19.2004 23.6999 17.0254H14.4749Z" fill="#E31B23"/>
<path d="M47.5498 19.4625C47.5498 24.75 43.4248 28.6125 38.3623 28.6125C33.2998 28.6125 29.1748 24.7125 29.1748 19.4625C29.1748 14.2125 33.2998 10.3125 38.3623 10.3125C43.4248 10.3125 47.5498 14.1375 47.5498 19.4625ZM43.5373 19.4625C43.5373 16.1625 41.1373 13.9125 38.3623 13.9125C35.5873 13.9125 33.1873 16.1625 33.1873 19.4625C33.1873 22.7625 35.5873 25.0125 38.3623 25.0125C41.1373 25.0125 43.5373 22.725 43.5373 19.4625Z" fill="#E31B23"/>
<path d="M67.6123 19.4625C67.6123 24.75 63.4873 28.6125 58.4248 28.6125C53.3623 28.6125 49.2373 24.7125 49.2373 19.4625C49.2373 14.2125 53.3623 10.3125 58.4248 10.3125C63.4873 10.3125 67.6123 14.1375 67.6123 19.4625ZM63.5998 19.4625C63.5998 16.1625 61.1998 13.9125 58.4248 13.9125C55.6498 13.9125 53.2498 16.1625 53.2498 19.4625C53.2498 22.7625 55.6498 25.0125 58.4248 25.0125C61.1998 25.0125 63.5998 22.725 63.5998 19.4625Z" fill="#E31B23"/>
<path d="M86.8499 10.8379V27.2629C86.8499 34.0129 82.875 36.7879 78.15 36.7879C73.7249 36.7879 71.025 33.7879 70.0125 31.3879L73.4999 29.9254C74.1374 31.4254 75.6374 33.1879 78.1124 33.1879C81.1499 33.1879 83.025 31.3129 83.025 27.8254V26.5129H82.8749C81.9749 27.6379 80.2499 28.5754 78.0374 28.5754C73.4624 28.5754 69.2625 24.6004 69.2625 19.4629C69.2625 14.3254 73.4624 10.2754 78.0374 10.2754C80.2124 10.2754 81.9749 11.2504 82.8749 12.3379H83.025V10.8379H86.8499ZM83.2874 19.5004C83.2874 16.2754 81.1499 13.9129 78.3749 13.9129C75.5999 13.9129 73.275 16.2754 73.275 19.5004C73.275 22.7254 75.5999 25.0129 78.3749 25.0129C81.1499 25.0129 83.2874 22.6879 83.2874 19.5004Z" fill="#E31B23"/>
<path d="M93.6749 1.23828V28.0508H89.6624V1.23828H93.6749Z" fill="#E31B23"/>
<path d="M109.2 22.4629L112.312 24.5254C111.3 26.0254 108.862 28.5754 104.662 28.5754C99.4499 28.5754 95.5874 24.5629 95.5874 19.4254C95.5874 13.9879 99.5249 10.2754 104.212 10.2754C108.9 10.2754 111.3 14.0629 112.05 16.0879L112.462 17.1379L100.2 22.2004C101.137 24.0379 102.6 24.9754 104.625 24.9754C106.725 25.0129 108.15 24.0004 109.2 22.4629ZM99.5999 19.1629L107.775 15.7504C107.325 14.5879 105.975 13.8004 104.362 13.8004C102.337 13.8379 99.4874 15.6379 99.5999 19.1629Z" fill="#E31B23"/>
<path d="M22.3499 65.4383V39.3758H31.3124C32.8874 39.3758 34.3124 39.7133 35.5874 40.3883C36.8624 41.0258 37.8749 41.9633 38.6249 43.2008C39.4124 44.4008 39.7874 45.7883 39.7874 47.3633C39.7874 48.9383 39.4124 50.2883 38.6249 51.5258C37.8749 52.7258 36.8624 53.7008 35.5874 54.3758C34.3124 55.0133 32.8874 55.3508 31.3124 55.3508H26.3249V65.4758H22.3499V65.4383ZM26.3249 51.5258H31.3874C32.3249 51.5258 33.1499 51.3383 33.7874 50.9258C34.4249 50.5133 34.9499 49.9883 35.2874 49.3508C35.6624 48.7133 35.8499 48.0008 35.8499 47.3258C35.8499 46.6133 35.6624 45.9383 35.2874 45.3383C34.9499 44.7008 34.4624 44.1758 33.7874 43.7633C33.1124 43.3508 32.3249 43.1633 31.3874 43.1633H26.3249V51.5258ZM42.2624 65.4383V46.8758H46.1999V65.4383H42.2624ZM44.2124 44.1383C43.4999 44.1383 42.8624 43.8758 42.3374 43.3883C41.8124 42.8633 41.5874 42.2258 41.5874 41.5133C41.5874 40.7633 41.8499 40.1258 42.3374 39.6758C42.8624 39.1508 43.4999 38.9258 44.2124 38.9258C44.9624 38.9258 45.5999 39.1883 46.0874 39.6758C46.6124 40.1633 46.8374 40.7633 46.8374 41.5133C46.8374 42.2633 46.5749 42.8633 46.0874 43.3883C45.5999 43.8758 44.9999 44.1383 44.2124 44.1383ZM48.1499 65.4383L54.6748 56.0258L48.2624 46.9133H52.7998L57.0374 53.1008L61.0498 46.9133H65.7749L59.2498 56.0258L65.8123 65.4383H61.2373L56.9998 59.0633L52.7998 65.4383H48.1499ZM75.4123 66.0008C73.5748 66.0008 71.9623 65.5883 70.5373 64.7258C69.1123 63.8633 67.9873 62.7008 67.1623 61.2383C66.3749 59.7758 65.9624 58.0883 65.9624 56.1758C65.9624 54.4133 66.3373 52.7633 67.1248 51.2633C67.9123 49.7633 68.9623 48.5633 70.3498 47.6633C71.7748 46.7258 73.3873 46.2758 75.1873 46.2758C77.0998 46.2758 78.7123 46.6883 80.0623 47.5133C81.4123 48.3383 82.4624 49.4633 83.1374 50.8883C83.8499 52.3133 84.1873 53.9258 84.1873 55.7258C84.1873 55.9883 84.1873 56.2508 84.1498 56.4383C84.1498 56.6633 84.1498 56.8133 84.1123 56.9633H69.7873C69.8998 57.9758 70.1248 58.8758 70.5373 59.6258C71.0623 60.5633 71.7749 61.2758 72.6374 61.7633C73.4999 62.2508 74.4748 62.4758 75.4873 62.4758C76.7248 62.4758 77.7373 62.2133 78.5623 61.6508C79.4248 61.0508 80.0623 60.3383 80.5498 59.5133L83.7748 61.0883C82.9873 62.5508 81.8999 63.7133 80.5124 64.6508C79.1999 65.5508 77.4748 66.0008 75.4123 66.0008ZM70.0124 54.0383H80.3249C80.2874 53.5883 80.1749 53.1008 79.9499 52.5758C79.7249 52.0508 79.4249 51.5633 79.0124 51.1133C78.5999 50.6633 78.0748 50.3258 77.4373 50.0633C76.7998 49.7633 76.0498 49.6133 75.2248 49.6133C74.1748 49.6133 73.1998 49.8758 72.3748 50.4383C71.5498 50.9633 70.9124 51.7133 70.4624 52.6883C70.2749 53.1383 70.1249 53.5883 70.0124 54.0383ZM86.8123 65.4383V39.3758H90.7498V65.4383H86.8123Z" fill="#E31B23"/>
</g>
</g>
<defs>
<clipPath id="clip0_845_3671">
<rect width="112.875" height="66.375" fill="white"/>
</clipPath>
</defs>
</svg>
