<svg width="115" height="49" viewBox="0 0 115 49" fill="none" xmlns="http://www.w3.org/2000/svg">
<g clip-path="url(#clip0_845_3809)">
<path d="M1.09724 46.0865V40.9471H0.342773V40.1337H1.09724V37.8545H1.9671V40.1337H3.28076V40.9471H1.9671V46.0865H1.09724Z" fill="#E31B23"/>
<path d="M4.7373 46.0867V37.8457H5.60715V41.135C5.9267 40.4735 6.56578 40.0355 7.42675 40.0355C8.73154 40.0355 9.54814 40.9204 9.54814 42.279V46.0867H8.67828V42.4668C8.67828 41.4746 8.11909 40.8489 7.21373 40.8489C6.30837 40.8489 5.60715 41.5372 5.60715 42.5293V46.0867H4.7373Z" fill="#E31B23"/>
<path d="M11.0831 43.1278C11.0831 42.1805 11.3671 41.4296 11.9175 40.8487C12.4678 40.2676 13.1867 39.9727 14.0389 39.9727C14.8465 39.9727 15.4945 40.2587 16.0004 40.8218C16.5063 41.376 16.7637 42.0731 16.7637 42.9133C16.7637 43.0474 16.7639 43.1725 16.755 43.2887H11.9529C11.9973 44.6116 12.814 45.4607 14.0743 45.4607C15.1395 45.4607 15.8673 45.0674 16.2489 44.6116V45.6037C15.672 46.0506 14.9442 46.274 14.0743 46.274C13.2045 46.274 12.4589 45.988 11.8997 45.4339C11.3493 44.8708 11.0742 44.1111 11.0742 43.1725V43.1099L11.0831 43.1278ZM15.8407 42.529C15.8407 42.0553 15.6631 41.6531 15.317 41.3134C14.9619 40.9738 14.5448 40.795 14.0478 40.795C13.5063 40.795 13.0358 40.9648 12.6541 41.3044C12.2636 41.6442 12.0594 42.0464 12.024 42.529H15.8496H15.8407Z" fill="#E31B23"/>
<path d="M22.0254 44.4868C22.5669 45.1036 23.2503 45.4075 24.0669 45.4075C24.8302 45.4075 25.2652 45.0678 25.2652 44.5762C25.2652 44.2545 25.1853 44.0488 24.8923 43.8165C24.7504 43.7092 24.6262 43.6199 24.5019 43.5573L23.925 43.2533C23.3479 42.9674 23.0994 42.8244 22.771 42.5473C22.4425 42.2523 22.3095 41.9216 22.3095 41.4836C22.3095 41.0189 22.4781 40.6434 22.8065 40.3754C23.135 40.0893 23.5787 39.9463 24.1468 39.9463C24.7149 39.9463 25.1586 40.0804 25.496 40.3217V41.2155C25.1054 40.9117 24.6883 40.7508 24.2267 40.7508C23.5344 40.7508 23.1793 40.9831 23.1793 41.4747C23.1793 41.868 23.3746 42.0289 23.8983 42.3149L24.4398 42.601C24.6972 42.7349 24.8747 42.8333 24.9811 42.8958C25.0876 42.9585 25.2386 43.0657 25.4161 43.1908C25.6024 43.3249 25.7356 43.45 25.8155 43.5662C25.9664 43.7896 26.135 44.1561 26.135 44.5673C26.135 44.9426 25.9664 45.3092 25.6291 45.6756C25.3007 46.0331 24.7859 46.203 24.0669 46.203C23.206 46.203 22.5313 45.9706 22.0254 45.4789V44.46V44.4868Z" fill="#E31B23"/>
<path d="M27.4395 40.1261H28.3093V43.6923C28.3093 44.8186 28.9218 45.4085 29.9159 45.4085C30.9101 45.4085 31.5402 44.8097 31.5402 43.6834V40.1261H32.41V43.6923C32.41 45.3012 31.3893 46.2219 29.8893 46.2219C28.3892 46.2219 27.4483 45.337 27.4483 43.7728V40.1172L27.4395 40.1261Z" fill="#E31B23"/>
<path d="M34.128 46.0872V40.1345H34.9979V41.1355C35.3175 40.4741 36.0098 40.0361 36.8974 40.0361C38.2465 40.0361 39.0897 40.9209 39.0897 42.2796V46.0872H38.2199V42.4673C38.2199 41.4751 37.6252 40.8495 36.6666 40.8495C35.708 40.8495 34.989 41.5377 34.989 42.5298V46.0872H34.1191H34.128Z" fill="#E31B23"/>
<path d="M40.8253 46.0872V40.1345H41.6951V41.1355C42.0148 40.4741 42.7071 40.0361 43.5947 40.0361C44.9438 40.0361 45.7871 40.9209 45.7871 42.2796V46.0872H44.9173V42.4673C44.9173 41.4751 44.3225 40.8495 43.3639 40.8495C42.4052 40.8495 41.6864 41.5377 41.6864 42.5298V46.0872H40.8164H40.8253Z" fill="#E31B23"/>
<path d="M49.0398 46.1233L46.6787 40.1348H47.5574L49.4925 45.0775L51.5339 40.1348H52.4304L48.9599 48.3756H48.09L49.0398 46.1323V46.1233Z" fill="#E31B23"/>
<path d="M56.874 44.4868C57.4155 45.1036 58.0989 45.4075 58.9156 45.4075C59.6789 45.4075 60.1138 45.0678 60.1138 44.5762C60.1138 44.2545 60.0339 44.0488 59.741 43.8165C59.599 43.7092 59.4747 43.6199 59.3505 43.5573L58.7735 43.2533C58.1966 42.9674 57.9481 42.8244 57.6196 42.5473C57.2912 42.2523 57.1581 41.9216 57.1581 41.4836C57.1581 41.0189 57.3267 40.6434 57.6551 40.3754C57.9835 40.0893 58.4273 39.9463 58.9954 39.9463C59.5634 39.9463 60.0073 40.0804 60.3445 40.3217V41.2155C59.954 40.9117 59.5368 40.7508 59.0753 40.7508C58.383 40.7508 58.0279 40.9831 58.0279 41.4747C58.0279 41.868 58.2231 42.0289 58.7468 42.3149L59.2883 42.601C59.5457 42.7349 59.7232 42.8333 59.8297 42.8958C59.9363 42.9585 60.0871 43.0657 60.2647 43.1908C60.4511 43.3249 60.5843 43.45 60.6641 43.5662C60.815 43.7896 60.9836 44.1561 60.9836 44.5673C60.9836 44.9426 60.815 45.3092 60.4777 45.6756C60.1492 46.0331 59.6344 46.203 58.9156 46.203C58.0545 46.203 57.3799 45.9706 56.874 45.4789V44.46V44.4868Z" fill="#E31B23"/>
<path d="M62.3908 38.9725C62.1601 38.7401 62.1601 38.3558 62.3908 38.1323C62.6217 37.8999 62.9767 37.8999 63.2164 38.1323C63.4471 38.3558 63.4471 38.7312 63.2164 38.9725C62.9856 39.1959 62.6306 39.1959 62.3908 38.9725ZM62.3643 46.0872V40.1344H63.2341V46.0872H62.3643Z" fill="#E31B23"/>
<path d="M69.8791 41.0098V37.8457H70.7489V46.0867H69.8791V45.2017C69.5418 45.8006 68.8495 46.2654 67.7754 46.2654C66.9411 46.2654 66.231 45.9705 65.654 45.3626C65.0771 44.7638 64.7842 44.0041 64.7842 43.1014C64.7842 42.1986 65.0771 41.4567 65.654 40.8579C66.231 40.2591 66.9411 39.9462 67.7754 39.9462C68.8406 39.9462 69.5329 40.4109 69.8791 41.0098ZM69.3554 44.7817C69.7814 44.3348 69.9856 43.7806 69.9856 43.1014C69.9856 42.4221 69.7725 41.8679 69.3554 41.4388C68.9471 40.992 68.4146 40.7685 67.7843 40.7685C67.1541 40.7685 66.666 40.992 66.2577 41.4388C65.8582 41.8768 65.6629 42.431 65.6629 43.1014C65.6629 43.7716 65.8671 44.3258 66.2577 44.7817C66.666 45.2196 67.1719 45.4431 67.7843 45.4431C68.3968 45.4431 68.9471 45.2196 69.3554 44.7817Z" fill="#E31B23"/>
<path d="M72.2726 43.1278C72.2726 42.1805 72.5565 41.4296 73.1069 40.8487C73.6572 40.2676 74.3762 39.9727 75.2283 39.9727C76.036 39.9727 76.6839 40.2587 77.1898 40.8218C77.6958 41.376 77.9533 42.0731 77.9533 42.9133C77.9533 43.0474 77.9532 43.1725 77.9444 43.2887H73.1424C73.1867 44.6116 74.0034 45.4607 75.2637 45.4607C76.3289 45.4607 77.0567 45.0674 77.4384 44.6116V45.6037C76.8614 46.0506 76.1337 46.274 75.2637 46.274C74.3939 46.274 73.6483 45.988 73.0891 45.4339C72.5389 44.8708 72.2637 44.1111 72.2637 43.1725V43.1099L72.2726 43.1278ZM77.0301 42.529C77.0301 42.0553 76.8525 41.6531 76.5064 41.3134C76.1513 40.9738 75.7342 40.795 75.2372 40.795C74.6957 40.795 74.2252 40.9648 73.8436 41.3044C73.453 41.6442 73.2488 42.0464 73.2134 42.529H77.039H77.0301Z" fill="#E31B23"/>
<path d="M84.4102 43.1015C84.4102 42.1987 84.712 41.4568 85.3245 40.858C85.9369 40.2591 86.6737 39.9463 87.5524 39.9463C88.4311 39.9463 89.1678 40.2501 89.7802 40.858C90.3927 41.4568 90.6945 42.2077 90.6945 43.1015C90.6945 43.9953 90.3927 44.755 89.7802 45.3628C89.1678 45.9617 88.4311 46.2655 87.5524 46.2655C86.6737 46.2655 85.9369 45.9705 85.3245 45.3628C84.712 44.7639 84.4102 44.0042 84.4102 43.1015ZM85.2801 43.1015C85.2801 43.7719 85.4931 44.3259 85.928 44.7818C86.3629 45.2197 86.9044 45.4433 87.5613 45.4433C88.2181 45.4433 88.7595 45.2197 89.1944 44.7818C89.6294 44.3349 89.8423 43.7807 89.8423 43.1015C89.8423 42.4222 89.6294 41.868 89.1944 41.4389C88.7595 40.9921 88.2181 40.7686 87.5613 40.7686C86.9044 40.7686 86.3629 40.9921 85.928 41.4389C85.4931 41.8769 85.2801 42.4311 85.2801 43.1015Z" fill="#E31B23"/>
<path d="M92.7075 46.0875V40.9481H91.7578V40.1348H92.7075V39.6343C92.7075 38.8655 92.894 38.3383 93.2846 38.0164C93.542 37.793 93.9413 37.6768 94.4917 37.6768C94.6692 37.6768 94.8201 37.6858 94.9533 37.7215V38.5527C94.8023 38.517 94.6248 38.4901 94.4029 38.4901C93.8259 38.4901 93.5774 38.7762 93.5774 39.518V40.1348H94.6958V40.9481H93.5774V46.0875H92.7075Z" fill="#E31B23"/>
<path d="M100.081 46.0867V37.8457H100.951V46.0867H100.081Z" fill="#E31B23"/>
<path d="M102.794 38.9725C102.563 38.7401 102.563 38.3558 102.794 38.1323C103.025 37.8999 103.38 37.8999 103.62 38.1323C103.85 38.3558 103.85 38.7312 103.62 38.9725C103.389 39.1959 103.034 39.1959 102.794 38.9725ZM102.767 46.0872V40.1344H103.637V46.0872H102.767Z" fill="#E31B23"/>
<path d="M106.093 46.0875V40.9481H105.144V40.1348H106.093V39.6343C106.093 38.8655 106.28 38.3383 106.67 38.0164C106.928 37.793 107.327 37.6768 107.877 37.6768C108.055 37.6768 108.206 37.6858 108.339 37.7215V38.5527C108.188 38.517 108.011 38.4901 107.789 38.4901C107.212 38.4901 106.963 38.7762 106.963 39.518V40.1348H108.082V40.9481H106.963V46.0875H106.093Z" fill="#E31B23"/>
<path d="M108.958 43.1278C108.958 42.1805 109.242 41.4296 109.792 40.8487C110.343 40.2676 111.062 39.9727 111.914 39.9727C112.722 39.9727 113.37 40.2587 113.876 40.8218C114.381 41.376 114.639 42.0731 114.639 42.9133C114.639 43.0474 114.639 43.1725 114.63 43.2887H109.828C109.872 44.6116 110.689 45.4607 111.949 45.4607C113.014 45.4607 113.742 45.0674 114.124 44.6116V45.6037C113.547 46.0506 112.819 46.274 111.949 46.274C111.079 46.274 110.334 45.988 109.775 45.4339C109.224 44.8708 108.949 44.1111 108.949 43.1725V43.1099L108.958 43.1278ZM113.716 42.529C113.716 42.0553 113.538 41.6531 113.192 41.3134C112.837 40.9738 112.42 40.795 111.923 40.795C111.381 40.795 110.911 40.9648 110.529 41.3044C110.139 41.6442 109.934 42.0464 109.899 42.529H113.724H113.716Z" fill="#E31B23"/>
<path fill-rule="evenodd" clip-rule="evenodd" d="M5.47419 25.7973C5.90024 26.8788 8.07489 25.404 8.5542 24.7962C9.97437 23.0176 9.75247 19.8445 9.5927 17.762C9.54833 17.1899 9.56607 16.1799 9.06013 16.3766C8.81161 16.4749 8.62521 16.9039 8.39442 17.4223L6.92988 20.7831C6.45944 21.8645 5.08365 24.8231 5.47419 25.7973Z" fill="#E31B23"/>
<path fill-rule="evenodd" clip-rule="evenodd" d="M16.2114 3.16673C14.8977 3.37231 13.0782 3.72089 13.0958 5.41913C13.0958 6.45594 13.5485 10.1295 14.2675 10.4245C15.2793 10.8356 18.9629 2.74664 16.2114 3.17567" fill="#E31B23"/>
<path fill-rule="evenodd" clip-rule="evenodd" d="M80.6821 16.0555C81.3478 15.993 81.5874 15.2958 81.8094 14.6612C82.2621 13.4278 82.8745 11.944 82.2975 10.5765C82.0312 9.94186 81.6762 9.48602 80.7886 9.51284C78.5963 9.59328 78.7649 10.362 79.1821 12.3731C79.4128 13.4724 79.9987 15.5729 80.6733 16.0555" fill="#E31B23"/>
<path fill-rule="evenodd" clip-rule="evenodd" d="M34.7025 19.97C34.8356 20.5868 35.1641 20.8013 35.6878 21.0516C36.3268 21.3555 36.6464 21.418 37.5074 21.427C40.1347 21.4628 38.9364 20.3723 38.3772 18.8886C38.1908 18.3881 38.0843 15.072 35.9274 16.7524C35.6167 16.9937 35.4126 17.2172 35.2706 17.4138C34.5782 18.3702 34.3031 18.0573 34.7203 19.9611" fill="#E31B23"/>
<path fill-rule="evenodd" clip-rule="evenodd" d="M61.2576 20.8012C62.0652 19.4872 60.9379 17.3779 60.5208 16.4662C60.1392 15.6171 58.426 16.788 57.7337 18.4773C57.5295 18.9688 57.3787 19.4605 57.3255 19.8805C57.1568 21.1765 58.8078 21.3017 59.8285 21.3643C60.3877 21.4001 60.9468 21.2927 61.2487 20.8012" fill="#E31B23"/>
<path fill-rule="evenodd" clip-rule="evenodd" d="M41.8582 24.3241C40.9795 24.7978 39.0889 25.4146 38.3078 25.6022C36.9586 25.933 34.5533 26.0223 33.2307 25.6112C32.5384 25.3967 31.2069 24.5565 30.7365 24.0023C29.1211 22.0895 28.7571 20.6773 29.6713 18.2194C30.8874 14.957 34.8195 12.0431 38.228 11.632C39.3819 11.498 40.6244 11.4085 41.734 11.8286C42.8435 12.2398 43.4648 12.7403 43.8021 13.9112C44.0773 14.8766 44.0417 16.1726 44.0063 17.1736C43.9619 18.2908 43.8553 19.4438 43.882 20.5612C43.9086 20.5522 43.9264 20.5343 43.953 20.5254C44.379 20.3555 44.6542 20.6416 44.6364 21.0796C44.6276 21.3656 44.5476 21.884 44.4501 22.1432C44.379 22.3398 44.3169 22.4203 44.2281 22.5632C44.308 22.7868 44.4323 22.9833 44.5211 23.2069C44.6631 23.5644 44.8228 23.9129 45.0181 24.2437C45.1335 24.4492 45.2755 24.6548 45.3821 24.8604C45.524 25.1196 45.6572 25.4771 45.5773 25.781C45.4619 26.2547 44.9915 26.2905 44.5921 26.1832C44.0328 26.0313 43.4382 25.7095 42.9678 25.3698C42.6571 25.1464 42.2843 24.8693 42.0357 24.5654C41.9648 24.4761 41.9115 24.3955 41.8493 24.3151M40.6778 21.8482C40.3759 20.5254 40.2162 19.2025 40.1717 17.844C40.1541 17.3524 40.1541 16.8607 40.1541 16.3692C40.1541 16.0564 40.1541 15.7077 40.1096 15.4039C40.0209 14.7871 39.1866 14.5279 38.654 14.5637C37.8285 14.6263 37.8374 14.5547 37.0119 14.8318C35.1124 15.4664 32.7336 17.5669 32.6094 19.703C32.5295 21.0885 34.1538 22.5722 35.4409 22.7778C36.2485 22.9119 39.3463 22.5276 40.0475 22.1343H40.0564L40.6778 21.8482Z" fill="#E31B23"/>
<path fill-rule="evenodd" clip-rule="evenodd" d="M61.2505 11.783C61.2329 11.4792 61.1884 11.1574 61.1707 10.8892C61.0997 9.98647 61.0198 9.08372 60.9488 8.18098C60.8689 7.23354 60.7979 6.28609 60.7268 5.3476C60.6825 4.76662 60.6293 4.14096 60.6293 3.55998C60.6293 2.78237 60.6115 1.30759 60.9399 0.601477C61.3393 -0.256579 62.1382 -0.0510023 62.8128 0.324397C63.6916 0.815992 63.7181 3.01476 63.8158 3.92644C63.9933 5.48167 64.73 6.94752 64.6678 8.54744C64.7833 10.6479 64.8631 12.7484 65.014 14.8578C65.094 15.9929 65.1915 17.1369 65.3336 18.272C65.4224 18.9871 65.5289 19.7558 65.7064 20.462C65.7951 20.4083 65.8838 20.3546 65.9549 20.3188C66.2478 20.167 66.5939 20.015 66.9224 19.9792C67.2419 19.9524 67.5881 20.0508 67.739 20.3546C67.9609 20.8016 67.6059 21.3647 67.3485 21.7132C67.2064 21.9098 67.1087 22.1422 66.9934 22.3568C66.8426 22.6249 66.665 22.8394 66.4342 23.0272C66.5585 24.1086 67.668 26.0571 66.9401 26.8526L66.9224 26.8705H66.9047C66.1501 27.5319 65.369 26.6202 64.9697 26.0392C64.7477 25.7085 64.5436 25.36 64.3572 25.0113C64.304 24.913 64.224 24.7521 64.1441 24.6181C63.1057 25.0292 62.147 25.512 61.0553 25.8337C59.5819 26.2717 58.1173 26.361 56.635 25.8963C55.126 25.4315 54.5847 24.77 53.5816 23.626C53.0136 22.9735 52.7561 22.6518 52.5254 21.8205C51.7176 18.9335 53.2177 15.7426 55.4012 13.8835C56.7504 12.7394 58.7297 12.0422 60.4606 11.7741C60.8689 11.7115 61.0198 11.7294 61.224 11.8009M61.579 14.1695C59.9014 14.232 58.6676 14.7326 57.3806 15.8677C55.5166 17.5213 55.0373 20.2116 56.9191 22.0618C57.638 22.768 57.9487 22.9288 58.9783 23.0807C60.1144 23.2506 62.1559 22.5802 63.1679 21.8563C62.4754 19.3536 61.9517 16.7347 61.579 14.1606V14.1695Z" fill="#E31B23"/>
<path fill-rule="evenodd" clip-rule="evenodd" d="M88.8361 19.0317C88.8361 18.2093 88.9249 17.4943 89.0225 16.6809C89.1646 15.3939 89.7237 13.6688 90.4338 12.5873V12.5605C91.0463 11.765 91.8274 10.9606 92.6174 10.3528C93.5228 9.6556 94.5346 9.2087 95.6353 8.92268C97.4015 8.44896 98.7063 9.55729 99.8602 10.7282C100.464 11.3449 100.695 12.3817 100.925 13.1862C101.192 14.1247 100.908 14.7772 100.508 15.6262C99.6028 17.5658 97.3039 18.9065 95.3246 19.4874C94.6678 19.711 93.9842 19.8986 93.3097 20.0685C92.8481 20.1847 92.2979 20.3277 91.7918 20.4081C92.4221 22.0706 93.4694 22.7767 95.3778 22.9108C96.585 23.0001 97.8631 23.3398 99.0614 23.304C99.5763 23.2862 100.127 23.2236 100.641 23.2326C101.121 23.2505 101.635 23.4381 101.476 24.0281C101.183 25.1811 98.3069 25.7978 97.2773 25.9766C95.937 26.209 94.579 25.914 93.3008 25.4939C91.3392 24.8503 89.7149 22.9555 89.1113 20.9802C88.9693 20.998 88.8361 21.0159 88.6941 21.0516C88.2326 21.159 87.8864 21.3108 87.5225 20.8908L87.4248 20.7745L87.4426 20.6227C87.487 20.283 87.8775 19.8986 88.0817 19.6127C88.2947 19.3088 88.5609 19.2105 88.8183 19.0317M91.4901 18.2898C92.3244 18.1021 93.2565 17.8787 94.0109 17.5658C95.3068 17.0205 97.3394 16.3592 97.7921 14.8665C98.0762 13.9101 97.9963 12.6499 96.8424 12.3817C96.3453 12.2655 95.8216 12.5426 95.369 12.7392C94.6589 13.0431 93.7624 13.4543 93.1943 13.9817C92.6618 14.4643 92.289 15.072 92.0227 15.7424C91.7031 16.5647 91.4901 17.4228 91.499 18.2988L91.4901 18.2898Z" fill="#E31B23"/>
<path fill-rule="evenodd" clip-rule="evenodd" d="M23.2833 6.18747C23.7626 7.00978 24.1354 8.39519 24.3839 9.31581C24.8455 10.9962 25.236 12.6944 25.6266 14.3926C26.4876 18.1198 27.3042 21.9543 28.4226 25.61C28.6267 26.1641 28.8486 26.7898 28.9374 27.3707C28.9818 27.6478 29.0083 27.9874 28.893 28.2556C28.7332 28.6132 28.3782 28.7025 28.0232 28.5953C27.6326 28.4791 27.4107 28.2377 27.1621 27.9339C26.9225 27.6389 26.532 27.2367 26.3634 26.906C25.955 26.1105 25.5734 25.2792 25.3071 24.4212C23.9136 20.0326 22.2892 15.7244 20.8335 11.3536C20.7891 11.2286 20.5139 10.4778 20.3364 10.4867C20.1678 10.4867 19.866 11.1034 19.8127 11.2375C19.0138 13.0877 18.5257 15.0988 17.718 16.9489C17.5671 17.4137 17.3985 17.8606 17.2209 18.3165C16.9191 19.0851 16.7416 19.9253 16.2357 20.6135C15.499 21.6146 14.496 21.5252 13.493 20.9354C13.1291 20.7208 13.1024 20.6314 12.9071 20.2739C12.2415 19.0673 11.6911 17.7086 11.2207 16.4126C10.6704 14.8753 10.1999 13.2665 9.87153 11.6665C9.8094 11.3537 9.45435 9.5035 9.23246 8.93146C9.20583 8.96721 9.17032 9.01191 9.16145 9.02979C8.74426 9.63758 8.35372 11.3447 8.15844 12.0777C7.64363 14.0172 7.09332 15.9031 6.37435 17.7891C5.66426 19.6571 4.9808 21.704 3.9423 23.4112C3.55176 24.0547 3.19671 24.7876 2.74403 25.3864L2.72628 25.4043L2.70853 25.4222C2.41561 25.7172 1.74992 26.4322 1.42149 26.5931C0.34749 27.1384 -0.0253079 26.4769 0.00132044 25.4848C0.0279487 24.3496 0.649275 23.3754 0.968814 22.3118C1.82091 19.8449 2.6819 17.3869 3.40086 14.8932C4.17309 12.2028 4.75003 9.5035 5.1672 6.73269V6.70589C5.43349 5.52605 5.62876 4.25685 6.18796 3.1664C6.92467 1.72737 8.06969 1.35198 9.45435 2.28153C10.271 2.82676 10.8213 4.06021 11.1497 4.96296C11.922 7.06341 12.987 14.2228 14.2297 15.3758C14.2652 15.4026 14.3629 15.4921 14.4161 15.4742C14.5226 15.4295 14.6557 15.2239 14.7179 15.1345C15.0995 14.5088 15.4014 13.6598 15.712 12.9894C16.6528 10.9425 17.3718 8.77952 18.1618 6.67013C18.4902 5.78526 18.9962 4.73057 19.6707 4.06916C20.301 3.44349 21.0909 3.19322 21.8543 3.75632C22.4667 4.20322 22.9283 5.52605 23.2922 6.22323" fill="#E31B23"/>
<path fill-rule="evenodd" clip-rule="evenodd" d="M49.6627 5.8221C49.7248 6.34945 49.6892 6.8768 49.6627 7.40414C49.6094 8.36051 49.565 9.30795 49.5561 10.2733C49.5384 13.196 49.778 16.0384 50.0709 18.9432C50.204 20.2482 50.7722 21.4906 50.8965 22.8134C50.9497 23.3675 50.994 24.0379 50.8965 24.5921C50.7988 25.0926 50.5769 25.7987 50.1065 26.0579C49.5916 26.3439 48.9437 26.0222 48.4467 25.8255C47.7099 25.5305 47.843 25.03 47.5502 24.458C46.343 22.0536 46.2808 17.8795 46.3164 15.1892C46.3519 12.6508 46.4939 10.0588 46.7335 7.53822C46.8667 6.17962 47.3016 1.12961 48.6685 0.468188H48.6774L48.6863 0.45925C49.0591 0.31624 49.4318 0.360931 49.6182 0.754208C49.7869 1.10279 49.7426 1.68377 49.7159 2.05916C49.6627 2.72058 49.6981 3.29262 49.7426 3.9451C49.7869 4.60652 49.778 5.16962 49.6627 5.8221Z" fill="#E31B23"/>
<path fill-rule="evenodd" clip-rule="evenodd" d="M69.6242 13.6247C69.7306 11.9712 69.9348 10.3266 70.2632 8.69991C70.4318 7.88654 71.1597 7.44858 71.7988 8.08318C72.1893 8.46752 72.1094 9.57584 72.2071 10.1211C72.3314 10.8004 72.3314 11.417 72.3047 12.0964C72.1982 14.8046 72.7041 17.5219 73.1568 20.1764C73.2722 20.8378 73.3521 21.5261 73.2634 22.1965C73.2189 22.5808 73.1214 22.9294 73.1214 23.3226C73.1214 23.9304 72.935 24.5829 72.6154 25.0923C72.3668 25.4946 72.1628 26.2007 71.5947 26.147C70.6716 26.0666 70.2632 24.5293 70.1212 23.7963C69.7662 22.0624 69.633 20.2122 69.5709 18.4424C69.5177 16.8515 69.5266 15.2247 69.633 13.6337" fill="#E31B23"/>
<path fill-rule="evenodd" clip-rule="evenodd" d="M74.6479 11.3718C74.6036 10.9428 74.5059 10.1027 74.7012 9.71832C75.003 9.11946 75.5978 9.51274 75.9261 9.83451C76.1835 10.0937 76.3344 10.7373 76.4942 11.0858C77.0091 12.2389 77.3818 13.4902 77.7813 14.6879C78.154 15.7962 79.2725 19.0319 79.9913 19.8095C80.1866 20.024 80.373 20.4172 80.5062 20.6764C80.5772 20.8284 80.7636 21.2306 80.8701 21.3468C80.9588 21.4362 81.0122 21.5255 81.1098 21.4272C81.2873 21.2574 81.4736 20.8463 81.5802 20.6228C81.6956 20.3814 81.8731 20.1491 82.0062 19.9078C82.2193 19.5324 82.3613 19.148 82.4678 18.7279C82.9294 16.8419 83.6039 15.0008 84.2164 13.1595C84.678 11.8009 85.1307 10.4334 85.7076 9.11946C86.0094 8.44017 86.4266 6.6883 87.465 7.09053C87.7845 7.21566 87.829 7.5553 87.8201 7.85919C87.8112 8.25247 87.7402 8.6815 87.687 9.07478C87.5006 10.3619 87.1367 11.5864 86.817 12.8377C86.5774 13.812 86.4177 14.8488 86.2401 15.8409C86.0094 17.1459 85.7786 18.4598 85.4857 19.7558C85.2993 20.5871 84.8555 21.4183 84.4206 22.1513C84.2253 22.473 84.0211 22.7948 83.817 23.1165C83.6927 23.3132 83.5418 23.5366 83.4442 23.76C82.8495 24.9757 82.5654 26.4236 80.8257 26.1555C79.7428 25.9856 79.0683 25.2349 78.4647 24.3857C77.8611 23.5366 77.5682 22.5444 77.1688 21.5971C76.8759 20.9177 76.6717 20.167 76.4853 19.4519C76.2634 18.6117 76.0681 17.7626 75.8374 16.9135C75.5179 15.7247 75.0917 14.4108 74.9054 13.2041C74.7989 12.5964 74.7012 11.9886 74.6303 11.3718" fill="#E31B23"/>
<path fill-rule="evenodd" clip-rule="evenodd" d="M71.7683 6.56304C71.4043 6.8133 71.0315 6.72393 70.8008 6.35746C70.6853 6.1787 70.6587 5.99993 70.57 5.84799C70.2326 5.33851 70.2504 4.58772 70.2504 3.9978C70.2504 3.3632 70.1794 2.71966 70.4546 2.12081C70.8185 1.33425 71.4753 0.967793 72.3274 1.227C72.7091 1.3432 72.8423 1.43258 73.0109 1.79009C73.0819 1.94205 73.144 2.58559 73.1707 2.79116C73.3127 3.81011 72.6381 5.97312 71.7771 6.56304" fill="#E31B23"/>
<path fill-rule="evenodd" clip-rule="evenodd" d="M108.07 17.3233C107.183 16.8407 106.384 16.2507 105.754 15.4552C104.547 13.9179 104.298 11.5493 105.523 9.94042C106.304 8.91254 108.213 7.94722 109.482 7.78634C110.698 7.63439 111.781 8.06342 112.749 8.78741C113.139 9.08236 113.671 9.73484 113.893 10.1817C114.168 10.7359 114.684 11.6387 114.009 12.1124L113.947 12.1571H113.876C113.441 12.2554 113.237 12.0141 112.943 11.7459C112.642 11.4599 112.127 11.2096 111.887 10.9057C111.559 10.4856 110.938 10.3248 110.432 10.3158C109.659 10.289 108.967 10.4767 108.355 10.9772C107.6 11.6029 107.218 12.3448 107.662 13.3012C108.31 14.7134 110.716 15.3569 111.967 16.206C112.278 16.4206 112.535 16.6619 112.838 16.8853C114.887 18.4674 115.367 21.989 113.92 24.1341C113.432 24.8492 112.473 25.6447 111.648 25.9307C109.73 26.6099 107.245 26.02 105.576 24.9296C104.44 24.1877 103.899 23.2492 103.251 22.1052C103.011 21.6761 102.798 21.0236 102.736 20.532C102.647 19.817 102.869 19.1109 103.721 19.1467C104.591 19.1825 105.088 19.9422 105.585 20.5499C105.834 20.8539 106.251 21.3186 106.544 21.5599C107.183 22.0962 107.653 22.2482 108.443 22.4627C108.789 22.5609 109.065 22.7576 109.384 22.8559C109.855 22.999 110.476 22.8917 110.946 22.7934C111.497 22.6772 111.763 22.1945 111.843 21.6671C111.949 21.0147 111.79 20.2728 111.461 19.7097C111.097 19.0841 110.574 18.7355 110.05 18.2796C109.544 17.8685 108.674 17.6629 108.079 17.2965" fill="#E31B23"/>
<path fill-rule="evenodd" clip-rule="evenodd" d="M107.088 18.2445C106.715 18.2445 106.2 18.2267 106.049 18.5305C105.686 19.2635 107.008 20.6578 107.7 21.1225C108.109 21.3996 109.13 21.8645 109.653 21.5426C111.224 20.5773 108.615 18.2088 107.088 18.2445Z" fill="#E31B23"/>
<path fill-rule="evenodd" clip-rule="evenodd" d="M93.3343 15.6701C92.9082 16.3315 92.9615 16.8142 93.2455 16.7784C94.1154 16.6801 95.4379 16.0276 96.2101 15.5092C97.1066 14.9104 97.2308 14.3294 96.7249 13.9361C96.0326 13.3999 95.1538 13.4803 94.6746 13.9361C94.3195 14.2669 93.9378 14.7405 93.3343 15.6701Z" fill="#E31B23"/>
</g>
<defs>
<clipPath id="clip0_845_3809">
<rect width="114.75" height="48.375" fill="white"/>
</clipPath>
</defs>
</svg>
