<svg width="161" height="36" viewBox="0 0 161 36" fill="none" xmlns="http://www.w3.org/2000/svg">
<path d="M128.631 20.5687C128.631 21.2761 129.206 21.8485 129.91 21.8485C130.615 21.8485 131.209 21.2761 131.209 20.5687C131.209 19.8613 130.637 19.27 129.91 19.27C129.184 19.27 128.631 19.8424 128.631 20.5687ZM130.899 24.373H128.947V34.471H130.899V24.373ZM86.3973 3.01061C86.3973 3.71801 86.9697 4.29041 87.6771 4.29041C88.3845 4.29041 88.9758 3.71801 88.9758 3.01061C88.9758 2.30321 88.4034 1.71191 87.6771 1.71191C86.9508 1.71191 86.3973 2.28431 86.3973 3.01061ZM146.788 28.6363C146.788 27.1027 147.585 25.8661 149.14 25.8661C150.903 25.8661 151.492 27.0001 151.492 28.4068V34.4737H153.465V28.072C153.465 25.8256 152.269 24.0841 149.855 24.0841C148.681 24.0841 147.482 24.5674 146.748 25.8256V24.3784H144.817V34.4764H146.791V28.6417L146.788 28.6363ZM138.013 33.0238C136.334 33.0238 134.865 31.7629 134.865 29.4139C134.865 27.0649 136.334 25.8256 138.013 25.8256C139.693 25.8256 141.161 27.0838 141.161 29.4139C141.161 31.744 139.693 33.0238 138.013 33.0238ZM138.013 24.0598C134.989 24.0598 132.848 26.3467 132.848 29.4139C132.848 32.4811 134.989 34.7869 138.013 34.7869C141.037 34.7869 143.178 32.5 143.178 29.4139C143.178 26.3278 141.037 24.0598 138.013 24.0598ZM124.705 21.1843H122.899V22.8205C122.899 23.7034 122.437 24.373 121.346 24.373H120.801V26.1577H122.731V31.7008C122.731 33.526 123.822 34.5763 125.545 34.5763C126.217 34.5763 126.719 34.4494 126.889 34.3873V32.7079C126.722 32.7511 126.365 32.7916 126.112 32.7916C125.083 32.7916 124.705 32.3299 124.705 31.4065V26.1577H126.889V24.373H124.705V21.1816V21.1843ZM114.672 33.1291C113.665 33.1291 113.035 32.4163 113.035 31.6603C113.035 30.7585 113.665 30.2752 114.504 30.1483L117.59 29.6866V30.1483C117.59 32.3515 116.289 33.1291 114.672 33.1291ZM111.019 31.7656C111.019 33.3613 112.342 34.7896 114.399 34.7896C116.205 34.7896 117.212 33.823 117.652 33.1102C117.652 33.8446 117.715 34.2226 117.758 34.4737H119.688C119.648 34.2226 119.561 33.6961 119.561 32.8159V27.7561C119.561 25.7824 118.387 24.0625 115.363 24.0625C113.179 24.0625 111.437 25.4071 111.226 27.3376L113.116 27.7777C113.243 26.6032 114.018 25.7419 115.403 25.7419C116.937 25.7419 117.588 26.56 117.588 27.5482C117.588 27.9046 117.42 28.2205 116.81 28.3042L114.08 28.7038C112.339 28.9549 111.016 29.9647 111.016 31.7683M110.427 24.3784H108.308L105.411 32.1652L102.535 24.3784H100.31L104.404 34.4764H106.399L110.43 24.3784H110.427ZM94.9779 33.0265C93.2985 33.0265 91.8297 31.7656 91.8297 29.4166C91.8297 27.0676 93.2985 25.8283 94.9779 25.8283C96.6573 25.8283 98.1261 27.0865 98.1261 29.4166C98.1261 31.7467 96.6573 33.0265 94.9779 33.0265ZM94.9779 24.0625C91.9539 24.0625 89.8128 26.3494 89.8128 29.4166C89.8128 32.4838 91.9539 34.7896 94.9779 34.7896C98.0019 34.7896 100.143 32.5027 100.143 29.4166C100.143 26.3305 98.0019 24.0625 94.9779 24.0625ZM81.3969 28.639C81.3969 27.1054 82.1934 25.8688 83.7486 25.8688C85.5117 25.8688 86.1003 27.0028 86.1003 28.4095V34.4764H88.074V28.0747C88.074 25.8283 86.8779 24.0868 84.4641 24.0868C83.2896 24.0868 82.0935 24.5701 81.3564 25.8283V24.3811H79.4259V34.4791H81.3996V28.6444L81.3969 28.639ZM70.3755 28.639C70.3755 27.1054 71.172 25.8688 72.7272 25.8688C74.4903 25.8688 75.0789 27.0028 75.0789 28.4095V34.4764H77.0526V28.0747C77.0526 25.8283 75.8565 24.0868 73.4427 24.0868C72.2682 24.0868 71.0694 24.5701 70.335 25.8283V24.3811H68.4045V34.4791H70.3782V28.6444L70.3755 28.639ZM66.0312 19.5913H63.9333V34.4737H66.0312V19.5913ZM104.46 11.0782C104.46 9.54461 105.257 8.30801 106.812 8.30801C108.575 8.30801 109.164 9.44201 109.164 10.8487V16.9156H111.137V10.5139C111.137 8.26751 109.941 6.52601 107.527 6.52601C106.353 6.52601 105.157 7.00931 104.42 8.26751V6.82031H102.489V16.9183H104.463V11.0836L104.46 11.0782ZM95.7744 15.4657C94.095 15.4657 92.6262 14.2048 92.6262 11.8558C92.6262 9.50681 94.095 8.26481 95.7744 8.26481C97.4538 8.26481 98.9226 9.52571 98.9226 11.8558C98.9226 14.1859 97.4538 15.4657 95.7744 15.4657ZM95.7744 6.50171C92.7504 6.50171 90.6093 8.78861 90.6093 11.8558C90.6093 14.923 92.7504 17.2288 95.7744 17.2288C98.7984 17.2288 100.939 14.9392 100.939 11.8558C100.939 8.77241 98.7984 6.50171 95.7744 6.50171ZM88.6599 6.81761H86.7078V16.9156H88.6599V6.81221V6.81761ZM85.1769 6.71231C85.0716 6.69071 84.7989 6.65021 84.5262 6.65021C83.4975 6.65021 82.2393 7.02821 81.5022 8.58071V6.81761H79.5717V16.9156H81.5454V11.8558C81.5454 9.63101 82.6578 8.74811 84.3156 8.74811C84.5883 8.74811 84.8826 8.76971 85.1769 8.81021V6.71231ZM65.0889 9.46091C65.0889 5.57831 67.6917 3.60461 70.4619 3.60461C73.2321 3.60461 75.8349 5.57831 75.8349 9.46091C75.8349 13.3435 73.2321 15.3388 70.4619 15.3388C67.6917 15.3388 65.0889 13.3435 65.0889 9.46091ZM62.9883 9.46091C62.9883 14.437 66.7251 17.2288 70.4619 17.2288C74.1987 17.2288 77.9355 14.437 77.9355 9.46091C77.9355 4.48481 74.1987 1.71461 70.4619 1.71461C66.7251 1.71461 62.9883 4.48481 62.9883 9.46091Z" fill="#E31B23"/>
<path d="M55.8739 1.81738H46.6804L35.4214 34.4847H44.6338L55.8739 1.81738Z" fill="#E31B23"/>
<path d="M20.323 35.0895C10.9837 35.0895 3.41016 27.5187 3.41016 18.1767C3.41016 8.8347 10.9837 1.2666 20.323 1.2666C29.6623 1.2666 37.2358 8.8374 37.2358 18.1794C37.2358 27.5214 29.665 35.0922 20.323 35.0922M28.8415 18.1632C28.8415 13.4895 25.0534 9.7014 20.3797 9.7014C15.706 9.7014 11.9179 13.4895 11.9179 18.1632C11.9179 22.8369 15.706 26.625 20.3797 26.625C25.0534 26.625 28.8415 22.8369 28.8415 18.1632Z" fill="#E31B23"/>
<path d="M154.661 27.9226V27.0735H155.092C155.126 27.0735 155.164 27.0835 155.205 27.1034C155.245 27.1226 155.28 27.1525 155.308 27.1932C155.337 27.2331 155.352 27.2837 155.352 27.3451C155.352 27.4072 155.337 27.4601 155.307 27.5038C155.277 27.5468 155.241 27.5794 155.198 27.6016C155.155 27.6239 155.116 27.635 155.078 27.635H154.767V27.4969H155.02C155.046 27.4969 155.073 27.4843 155.102 27.459C155.132 27.4337 155.147 27.3957 155.147 27.3451C155.147 27.2929 155.132 27.2576 155.102 27.2392C155.073 27.2208 155.047 27.2116 155.025 27.2116H154.848V27.9226H154.661ZM155.175 27.5222L155.386 27.9226H155.181L154.974 27.5222H155.175ZM154.984 28.4289C154.856 28.4289 154.737 28.4051 154.626 28.3576C154.515 28.31 154.417 28.244 154.332 28.1597C154.248 28.0753 154.182 27.9775 154.134 27.8663C154.087 27.755 154.063 27.6358 154.063 27.5084C154.063 27.3811 154.087 27.2618 154.134 27.1506C154.182 27.0394 154.248 26.9416 154.332 26.8572C154.417 26.7728 154.515 26.7069 154.626 26.6593C154.737 26.6118 154.856 26.588 154.984 26.588C155.111 26.588 155.23 26.6118 155.341 26.6593C155.453 26.7069 155.55 26.7728 155.635 26.8572C155.719 26.9416 155.785 27.0394 155.833 27.1506C155.88 27.2618 155.904 27.3811 155.904 27.5084C155.904 27.6358 155.88 27.755 155.833 27.8663C155.785 27.9775 155.719 28.0753 155.635 28.1597C155.55 28.244 155.453 28.31 155.341 28.3576C155.23 28.4051 155.111 28.4289 154.984 28.4289ZM154.984 28.208C155.112 28.208 155.23 28.1765 155.336 28.1136C155.442 28.0507 155.526 27.9664 155.589 27.8605C155.652 27.7547 155.683 27.6373 155.683 27.5084C155.683 27.3796 155.652 27.2622 155.589 27.1564C155.526 27.0505 155.442 26.9661 155.336 26.9032C155.23 26.8403 155.112 26.8089 154.984 26.8089C154.855 26.8089 154.737 26.8403 154.632 26.9032C154.526 26.9661 154.441 27.0505 154.378 27.1564C154.316 27.2622 154.284 27.3796 154.284 27.5084C154.284 27.6373 154.316 27.7547 154.378 27.8605C154.441 27.9664 154.526 28.0507 154.632 28.1136C154.737 28.1765 154.855 28.208 154.984 28.208Z" fill="#E31B23"/>
</svg>
