<svg width="173" height="56" viewBox="0 0 173 56" fill="none" xmlns="http://www.w3.org/2000/svg">
<path d="M18.4299 18.6748H24.9032C28.6674 18.6748 31.7567 20.5446 31.7567 24.8533C31.7567 29.1621 28.6427 31.0611 24.9032 31.0611H22.2212V37.1068H18.4299V18.6748ZM24.7952 27.7266C26.6649 27.7266 27.8552 26.8873 27.8552 24.8533C27.8552 22.7946 26.6109 22.0093 24.7952 22.0093H22.2212V27.7243H24.7952V27.7266Z" fill="#E31B23"/>
<path d="M37.3254 18.6748H49.5114V22.0093H41.1167V26.2348H48.5124V29.4861H41.1167V33.7701H49.8939V37.1046H37.3277V18.6748H37.3254Z" fill="#E31B23"/>
<path d="M56.2727 18.6748H60.064V33.7723H68.407V37.1068H56.2727V18.6748Z" fill="#E31B23"/>
<path d="M72.6392 27.8877C72.6392 22.4405 76.8647 18.4287 82.1724 18.4287C87.4802 18.4287 91.7034 22.4405 91.7034 27.8877C91.7034 33.335 87.4802 37.3467 82.1724 37.3467C76.8647 37.349 72.6392 33.335 72.6392 27.8877ZM87.8064 27.8877C87.8064 24.4475 85.5317 21.8172 82.1747 21.8172C78.8154 21.8172 76.5407 24.4475 76.5407 27.8877C76.5407 31.3302 78.8154 33.9605 82.1747 33.9605C85.5317 33.9605 87.8064 31.3302 87.8064 27.8877Z" fill="#E31B23"/>
<path d="M101.045 22.0093H95.7917V18.6748H110.093V22.0093H104.839V37.1046H101.045V22.0093Z" fill="#E31B23"/>
<path d="M114.152 27.8877C114.152 22.4405 118.377 18.4287 123.687 18.4287C128.995 18.4287 133.22 22.4405 133.22 27.8877C133.22 33.335 128.995 37.3467 123.687 37.3467C118.377 37.349 114.152 33.335 114.152 27.8877ZM129.319 27.8877C129.319 24.4475 127.044 21.8172 123.685 21.8172C120.326 21.8172 118.051 24.4475 118.051 27.8877C118.051 31.3302 120.326 33.9605 123.685 33.9605C127.044 33.9605 129.319 31.3302 129.319 27.8877Z" fill="#E31B23"/>
<path d="M144.801 28.539C143.881 27.6727 142.607 26.019 142.607 26.019C142.607 26.019 142.88 28.0507 142.88 29.3805V37.107H139.331V18.5107H139.709L149 27.2407C149.893 28.08 151.166 29.7585 151.166 29.7585C151.166 29.7585 150.923 27.6727 150.923 26.3992V18.675H154.469V37.2667H154.094L144.801 28.539Z" fill="#E31B23"/>
</svg>
