<svg width="153" height="35" viewBox="0 0 153 35" fill="none" xmlns="http://www.w3.org/2000/svg">
<g clip-path="url(#clip0_845_3781)">
<path d="M39.8164 30.0133V8.68315H31.9446V3.88086H53.4793V8.68315H45.5731V30.0113H39.8164V30.0133Z" fill="#E31B23"/>
<path d="M48.7822 30.0138V11.2942H54.4681V14.3332H54.5044C55.5276 12.7439 57.3292 10.8027 60.8616 10.8027H61.0375V15.8517C60.8252 15.8173 59.8365 15.7465 59.4846 15.7465C57.224 15.7465 55.5295 16.9476 54.47 18.3246V30.0138H48.7841H48.7822Z" fill="#E31B23"/>
<path d="M62.8335 8.61222V4.05664H68.5538V8.61222H62.8335ZM62.8679 30.0131V11.1903H68.5174V30.0112H62.8679V30.0131Z" fill="#E31B23"/>
<path d="M70.7417 30.0138V11.191H76.4275V14.1573C77.5578 12.6751 79.6405 10.8027 82.6068 10.8027C85.749 10.8027 87.2331 12.109 87.7629 14.1573C88.8932 12.7095 91.0122 10.8027 93.9785 10.8027C97.7921 10.8027 99.4865 13.2048 99.4865 16.5594V30.0138H93.8007V18.0779C93.8007 16.3834 93.4124 15.4998 91.7524 15.4998C90.339 15.4998 89.2107 16.2763 87.9733 17.3722V30.0138H82.2874V18.0779C82.2874 16.3834 81.8992 15.4998 80.2391 15.4998C78.8258 15.4998 77.6974 16.2763 76.4256 17.3722V30.0138H70.7397H70.7417Z" fill="#E31B23"/>
<path d="M107.32 27.7871V30.0113H101.634V3.88086H107.32V14.086C108.556 12.3551 110.323 10.8022 113.111 10.8022C117.384 10.8022 120.35 14.086 120.35 20.5846C120.35 27.0833 117.349 30.2963 113.04 30.2963C110.499 30.2963 108.732 29.3783 107.32 27.789V27.7871ZM114.666 20.6191C114.666 17.4768 113.572 15.4993 111.028 15.4993C109.581 15.4993 108.274 16.3829 107.32 17.3353V24.2911C108.556 25.4558 109.581 26.0219 111.099 26.0219C113.465 26.0219 114.666 24.0443 114.666 20.6191Z" fill="#E31B23"/>
<path d="M122.109 30.0133V3.88086H127.759V30.0133H122.109Z" fill="#E31B23"/>
<path d="M129.522 20.6196C129.522 13.31 135.101 10.8027 138.985 10.8027C142.87 10.8027 147.637 12.7439 147.637 21.2909V22.1381H135.172C135.455 25.2459 137.184 26.447 139.551 26.447C141.776 26.447 143.86 25.353 145.132 24.1864L147.322 27.5773C145.132 29.4496 142.412 30.402 139.129 30.402C134.219 30.402 129.524 27.8947 129.524 20.6196H129.522ZM142.552 18.7836C142.269 16.1348 141.07 14.863 138.951 14.863C137.186 14.863 135.667 16.0277 135.243 18.7836H142.552Z" fill="#E31B23"/>
<path d="M148.71 27.8888C148.71 26.682 149.657 25.7354 150.864 25.7354C152.071 25.7354 153 26.6725 153 27.8793C153 29.0861 152.063 30.0423 150.856 30.0423C149.649 30.0423 148.71 29.1052 148.71 27.8888ZM152.629 27.8888C152.629 26.8771 151.858 26.0873 150.856 26.0873C149.854 26.0873 149.093 26.8676 149.093 27.8793C149.093 28.891 149.864 29.6904 150.866 29.6904C151.868 29.6904 152.629 28.9101 152.629 27.8888ZM150.03 26.6648H150.912C151.468 26.6648 151.793 26.9058 151.793 27.3897C151.793 27.7703 151.608 27.9653 151.329 28.0571L151.839 29.0229H151.348L150.873 28.1222H150.502V29.0229H150.03V26.6648ZM150.883 27.7607C151.17 27.7607 151.329 27.667 151.329 27.4164C151.329 27.185 151.172 27.0818 150.873 27.0818H150.502V27.7588H150.883V27.7607Z" fill="#E31B23"/>
<path d="M2.13257 26.2988V34.4193L9.19161 30.3438C6.48159 29.7605 4.01829 28.3471 2.13257 26.2988Z" fill="#E31B23"/>
<path d="M9.13997 4.0392L2.13257 0V8.07266C4.09862 5.9364 6.62886 4.59 9.14188 4.04111L9.13997 4.0392Z" fill="#E31B23"/>
<path d="M31.9409 17.2103C31.6062 17.0171 25.2931 13.3719 24.8819 13.1348C25.7119 15.7702 25.7157 18.6332 24.8608 21.2973L31.9409 17.2103Z" fill="#E31B23"/>
<path d="M6.78174 6.17054C7.79536 5.94487 9.8972 6.15907 11.0084 6.47463C11.8977 5.767 13.2403 5.35773 14.579 5.29079C11.5037 4.73808 8.65981 5.38259 6.78174 6.17245V6.17054Z" fill="#E31B23"/>
<path d="M20.2344 20.9399C20.0737 19.4692 19.7084 17.9258 19.1308 16.4226C16.7115 17.5147 13.7204 16.8109 11.7199 15.0781C10.2626 16.568 8.85115 18.4231 7.78589 20.0736C11.1768 22.8371 16.7536 23.5639 20.2344 20.938V20.9399Z" fill="#E31B23"/>
<path d="M5.93268 20.3376C2.94344 17.2776 1.90113 12.8119 2.85929 9.38086C-1.19712 14.1659 -0.910245 21.2766 3.565 25.7193C4.0546 23.8661 4.95922 21.9785 5.93459 20.3376H5.93268Z" fill="#E31B23"/>
<path d="M18.5725 15.1262C17.9413 13.8009 17.1343 12.5367 16.1512 11.4141C15.0611 12.1389 13.8964 13.0301 12.7432 14.0916C14.5447 15.5948 16.9143 15.8893 18.5725 15.1281V15.1262Z" fill="#E31B23"/>
<path d="M16.3405 9.53971C17.1169 8.97552 18.1918 8.37117 18.9625 8.0862C17.05 6.15075 13.9728 6.20239 12.634 7.04198C13.9862 7.64059 15.2216 8.46871 16.3405 9.53971Z" fill="#E31B23"/>
<path d="M7.02079 21.3232C5.53286 23.8956 4.99162 25.7832 4.79272 26.7873C9.20486 30.1227 15.344 30.0251 19.6548 26.5157C20.1004 25.4351 20.3299 24.0925 20.328 22.6161C16.2276 25.0564 10.5551 24.1193 7.02079 21.3232Z" fill="#E31B23"/>
<path d="M19.758 14.2689C21.0738 12.8861 20.8099 10.5357 19.8097 9.17969C19.1919 9.38815 17.9086 10.1359 17.354 10.6179C18.2567 11.6793 19.0925 12.9263 19.758 14.2689Z" fill="#E31B23"/>
<path d="M22.0359 11.3066C22.2386 13.0834 21.5654 14.6191 20.3701 15.6423C20.8941 16.9504 21.2805 18.3179 21.51 19.6891C23.3173 17.3425 23.2618 13.9918 22.0359 11.3086V11.3066Z" fill="#E31B23"/>
<path d="M11.7583 13.0453C12.8828 12.0068 14.0284 11.1098 15.1281 10.362C14.0131 9.35222 12.7451 8.58722 11.4044 8.0957C10.3009 9.59893 10.6452 11.542 11.7602 13.0453H11.7583Z" fill="#E31B23"/>
<path d="M21.7261 21.5792C21.7873 22.5871 21.6955 23.7289 21.5769 24.6354C23.6424 22.0038 24.3405 18.743 24.0976 16.2051C23.8509 18.3433 23.0667 20.1334 21.7261 21.5792Z" fill="#E31B23"/>
<path d="M10.0158 7.66934C8.49154 7.2964 6.71483 7.2811 5.23073 7.69994C2.86114 11.0602 3.96083 15.9868 6.72248 19.0736C7.77244 17.4766 9.29096 15.4857 10.7311 14.0399C9.32539 12.2976 8.76885 9.60096 10.0158 7.66934Z" fill="#E31B23"/>
</g>
<defs>
<clipPath id="clip0_845_3781">
<rect width="153" height="34.4212" fill="white"/>
</clipPath>
</defs>
</svg>
