<svg width="77" height="87" viewBox="0 0 77 87" fill="none" xmlns="http://www.w3.org/2000/svg">
<path d="M62.775 17.6242C59.475 17.3242 55.95 17.0992 52.425 17.0992C39.375 17.0992 25.275 19.9492 13.725 30.5242V48.7492C13.725 54.6742 15.9 59.6242 20.1 62.9992C23.775 65.9992 35.1 71.0992 38.25 72.5242C41.4 71.1742 52.65 66.0742 56.4 62.9992C60.6 59.5492 62.775 54.7492 62.775 48.7492V17.6242ZM16.125 46.8742V32.0992H20.85V47.0992C20.85 48.4492 21.15 50.3992 23.325 50.3992C24.3 50.3992 25.05 50.1742 25.575 49.7992V32.0992H30.3V52.4992C28.5 53.6992 26.1 54.3742 23.25 54.3742C18.45 54.3742 16.125 51.8242 16.125 46.8742ZM37.35 63.8992H32.625V33.2992C34.35 32.1742 36.375 31.6492 38.925 31.6492C44.55 31.6492 47.625 35.9242 47.625 42.7492C47.625 49.5742 44.625 54.2992 39.45 54.2992C38.475 54.2992 37.8 54.1492 37.35 53.9992V63.8992ZM37.35 50.1742C37.65 50.3242 38.25 50.4742 38.85 50.4742C41.55 50.4742 42.825 47.9992 42.825 42.8242C42.825 37.5742 41.7 35.3992 39 35.3992C38.4 35.3992 37.725 35.5492 37.35 35.7742V50.1742ZM48.675 37.7242C48.675 33.8992 51.9 31.7242 54.975 31.5742C57.525 31.4992 59.325 32.4742 60.15 33.0742V37.1242C59.175 36.1492 57.6 35.1742 55.95 35.1742C54.6 35.1742 53.25 35.7742 53.175 37.4242C53.1 39.1492 54.525 39.8242 56.25 40.7992C60.15 43.1242 60.9 45.1492 60.825 47.9242C60.75 50.9242 58.65 54.2242 54 54.2242C52.125 54.2242 50.325 53.6242 48.825 52.7992V48.4492C50.025 49.4992 51.825 50.3242 53.325 50.3242C55.05 50.3242 56.175 49.3492 56.175 47.6992C56.175 46.1992 55.275 45.4492 53.25 44.1742C49.425 42.1492 48.75 40.2742 48.675 37.7242ZM18.525 64.9492C13.725 61.0492 11.25 55.4242 11.25 48.7492V16.9492C18.75 12.9742 27.825 10.9492 38.25 10.9492C48.675 10.9492 57.75 12.9742 65.25 16.9492V48.7492C65.25 55.4242 62.775 61.0492 57.975 64.9492C53.625 68.4742 39.825 74.5492 38.25 75.2242C36.675 74.5492 22.875 68.4742 18.525 64.9492ZM55.5 71.6242V74.3992H56.025V73.2742H56.1C56.1 73.3492 56.85 74.3992 56.85 74.3992H57.45C57.45 74.3992 56.7 73.2742 56.625 73.1992C57 73.1242 57.225 72.8242 57.225 72.4492C57.225 72.0742 57 71.6242 56.325 71.6242H55.5ZM56.175 71.9992C56.625 71.9992 56.625 72.2242 56.625 72.3742C56.625 72.5992 56.55 72.8242 55.95 72.8242H55.875V71.9992H56.175ZM58.125 72.9742C58.125 74.0242 57.3 74.8492 56.25 74.8492C55.2 74.8492 54.375 74.0242 54.375 72.9742C54.375 71.9242 55.2 71.0992 56.25 71.0992C57.3 71.0992 58.125 71.9992 58.125 72.9742ZM56.25 70.7242C54.975 70.7242 54 71.7742 54 72.9742C54 74.2492 55.05 75.2242 56.25 75.2242C57.525 75.2242 58.5 74.1742 58.5 72.9742C58.575 71.7742 57.525 70.7242 56.25 70.7242Z" fill="#E31B23"/>
</svg>
