<svg width="115" height="75" viewBox="0 0 115 75" fill="none" xmlns="http://www.w3.org/2000/svg">
<path d="M46.8375 54.6193C46.8375 53.5693 45.9938 52.7256 44.9438 52.7256C44.175 52.7256 43.5188 53.1943 43.2188 53.8506C42 53.1381 40.575 52.7256 39.0563 52.7256C34.4813 52.7256 30.75 56.4568 30.75 61.0318C30.75 65.6068 34.4813 69.3381 39.0563 69.3381C40.575 69.3381 42 68.9256 43.2188 68.2131C43.5188 68.8693 44.175 69.3381 44.9438 69.3381C45.9938 69.3381 46.8375 68.4943 46.8375 67.4443V54.6193ZM39.0563 65.5506C36.5625 65.5506 34.5375 63.5256 34.5375 61.0318C34.5375 58.5381 36.5625 56.5131 39.0563 56.5131C40.8 56.5131 42.3 57.5068 43.05 58.9318V63.1131C42.3 64.5568 40.8 65.5506 39.0563 65.5506Z" fill="#E31B23"/>
<path d="M101.887 69.3381C100.837 69.3381 99.9937 68.4943 99.9937 67.4443V54.6193C99.9937 53.5693 100.837 52.7256 101.887 52.7256C102.937 52.7256 103.781 53.5693 103.781 54.6193V67.4443C103.762 68.4756 102.919 69.3381 101.887 69.3381Z" fill="#E31B23"/>
<path d="M78.7125 54.6193C78.7125 53.5693 77.8688 52.7256 76.8188 52.7256C76.05 52.7256 75.3938 53.1943 75.0938 53.8506C73.875 53.1381 72.45 52.7256 70.9312 52.7256C66.3562 52.7256 62.625 56.4568 62.625 61.0318C62.625 65.6068 66.3562 69.3381 70.9312 69.3381C72.45 69.3381 73.875 68.9256 75.0938 68.2131C75.3938 68.8693 76.05 69.3381 76.8188 69.3381C77.8688 69.3381 78.7125 68.4943 78.7125 67.4443V54.6193ZM70.9312 65.5506C68.4375 65.5506 66.4125 63.5256 66.4125 61.0318C66.4125 58.5381 68.4375 56.5131 70.9312 56.5131C72.675 56.5131 74.175 57.5068 74.925 58.9318V63.1131C74.175 64.5568 72.675 65.5506 70.9312 65.5506Z" fill="#E31B23"/>
<path d="M89.3438 52.7254C87.9 52.7254 86.5313 53.1004 85.35 53.7566V47.6066C85.35 46.5566 84.5063 45.7129 83.4563 45.7129C82.4063 45.7129 81.5625 46.5566 81.5625 47.6066V67.4441C81.5625 68.4941 82.4063 69.3379 83.4563 69.3379C84.225 69.3379 84.8812 68.8691 85.1812 68.2129C86.4 68.9254 87.825 69.3379 89.3438 69.3379C93.9187 69.3379 97.65 65.6066 97.65 61.0316C97.6312 56.4566 93.9187 52.7254 89.3438 52.7254ZM89.3438 65.5504C87.6 65.5504 86.1 64.5566 85.35 63.1316V58.9504C86.1 57.5066 87.6188 56.5316 89.3438 56.5316C91.8375 56.5316 93.8625 58.5566 93.8625 61.0504C93.8625 63.5441 91.8375 65.5504 89.3438 65.5504Z" fill="#E31B23"/>
<path d="M101.887 50.5127C103.337 50.5127 104.512 49.3374 104.512 47.8877C104.512 46.4379 103.337 45.2627 101.887 45.2627C100.438 45.2627 99.2625 46.4379 99.2625 47.8877C99.2625 49.3374 100.438 50.5127 101.887 50.5127Z" fill="#E31B23"/>
<path d="M29.1375 52.5753C28.2187 52.2003 27.1125 52.5753 26.625 53.4378C26.5312 53.6066 26.4562 53.7753 26.4187 53.9441C26.325 54.2816 26.2312 54.6003 26.1 54.9191L22.8562 62.5503L19.5 54.6566C19.2 53.9628 18.525 53.5128 17.775 53.5128C17.025 53.5128 16.3312 53.9628 16.0312 54.6566L12.6 62.5878L9.37499 54.9753C9.24374 54.6753 9.13124 54.3566 9.05624 54.0191C8.90624 53.2878 8.34374 52.6691 7.53749 52.4628C6.69374 52.2753 5.81249 52.6503 5.36249 53.4003C4.94999 54.1128 5.00624 54.9191 5.39999 55.5378C5.60624 55.8566 5.79374 56.1941 5.94374 56.5316L10.8375 68.1566C11.1187 68.8503 11.8125 69.3191 12.5625 69.3191H12.5812C13.3312 69.3191 14.025 68.8691 14.325 68.1753L17.775 60.1878L21.1687 68.1566C21.4687 68.8503 22.1437 69.3003 22.9125 69.3003H22.9312C23.7 69.3003 24.375 68.8316 24.675 68.1378L29.5687 56.5128C29.7187 56.1566 29.925 55.8003 30.1312 55.4628C30.1875 55.3878 30.225 55.2941 30.2625 55.2003C30.6562 54.2066 30.1687 53.0066 29.1375 52.5753Z" fill="#E31B23"/>
<path d="M55.5376 59.1373C55.1063 59.0998 53.0063 58.8936 53.0063 57.9373C53.0063 56.6436 54.4126 56.4936 55.0313 56.4936C56.3063 56.4936 56.8688 56.9811 56.9813 57.0748C57.3188 57.4686 57.8438 57.7311 58.4063 57.7311C59.4563 57.7311 60.3001 56.8873 60.3001 55.8373C60.3001 55.4061 60.1501 55.0123 59.9063 54.6748C59.7376 54.4686 58.2563 52.7061 55.0313 52.7061C51.6188 52.7061 49.2376 54.8623 49.2376 57.9373C49.2376 58.9873 49.6688 62.4561 55.2563 62.9061C56.0251 62.9623 57.3188 63.2248 57.3188 64.2561C57.3188 65.5123 55.1251 65.5311 55.0313 65.5311C53.2876 65.5311 52.2938 64.8561 52.1251 64.7436C51.7876 64.4436 51.3563 64.2561 50.8688 64.2561C49.8188 64.2561 48.9751 65.0998 48.9751 66.1498C48.9751 66.7498 49.2563 67.2748 49.6876 67.6311C49.8938 67.7998 51.7688 69.2998 55.0313 69.2998C55.8001 69.2998 57.3188 69.1873 58.7063 68.3623C60.2438 67.4623 61.1063 65.9998 61.1063 64.2373C61.0876 61.4248 58.9126 59.4186 55.5376 59.1373Z" fill="#E31B23"/>
<path d="M108.412 46.9504C108.412 47.7941 107.962 48.2066 107.194 48.2066C106.444 48.2066 105.994 47.8129 105.994 46.9504C105.994 46.1066 106.444 45.7129 107.194 45.7129C107.962 45.7129 108.412 46.1066 108.412 46.9504ZM108.131 46.9504C108.131 46.2379 107.794 45.9379 107.194 45.9379C106.594 45.9379 106.256 46.2379 106.256 46.9504C106.256 47.6441 106.575 47.9629 107.194 47.9629C107.794 47.9629 108.131 47.6629 108.131 46.9504ZM106.987 47.1191V47.4754C106.987 47.5316 106.931 47.6066 106.856 47.6066C106.8 47.6066 106.725 47.5504 106.725 47.4754V46.4254C106.725 46.3691 106.781 46.3129 106.837 46.3129H107.306C107.569 46.3129 107.719 46.5004 107.719 46.7066C107.719 46.9504 107.569 47.1004 107.4 47.1004L107.662 47.4004C107.681 47.4379 107.681 47.4566 107.681 47.4754C107.681 47.5316 107.625 47.5879 107.569 47.5879C107.531 47.5879 107.494 47.5691 107.475 47.5316L107.156 47.1004H106.987V47.1191ZM107.287 46.9129C107.419 46.9129 107.475 46.8566 107.475 46.7254C107.475 46.6129 107.419 46.5379 107.287 46.5379H106.987V46.9129H107.287Z" fill="#E31B23"/>
<path d="M70.6687 9.4877C66.9562 5.7752 62.0062 3.73145 56.7562 3.73145C51.5062 3.73145 46.5562 5.7752 42.8437 9.4877C39.1312 13.2002 37.0874 18.1502 37.0874 23.4002C37.0874 28.6502 39.1312 33.6002 42.8437 37.3127C46.5562 41.0252 51.5062 43.0689 56.7562 43.0689C62.0062 43.0689 66.9562 41.0252 70.6687 37.3127C74.3812 33.6002 76.4249 28.6502 76.4249 23.4002C76.4249 18.1502 74.3812 13.2002 70.6687 9.4877ZM72.7874 21.6002L64.3124 13.9127L55.6499 22.1064L51.0937 26.3814V20.0064L58.0124 13.4439L63.1687 8.56895C68.3624 10.8377 72.1499 15.7502 72.7874 21.6002ZM72.6374 26.2314C72.3374 27.9564 71.7562 29.5689 70.9499 31.0689L66.1124 26.6814V20.3064L72.6374 26.2314ZM59.2124 7.44395L55.5749 10.8752L51.0937 15.1314V8.26895C52.8562 7.6127 54.7686 7.2377 56.7749 7.2377C57.5811 7.25645 58.4061 7.3127 59.2124 7.44395ZM47.5687 26.5127L40.8749 20.5127C41.1937 18.7689 41.7937 17.1002 42.6374 15.6002L47.5687 20.0252V26.5127ZM47.5499 10.1439V15.2627L44.6812 12.6939C45.5249 11.7189 46.4812 10.8752 47.5499 10.1439ZM40.6874 25.0877L49.3499 32.8689L58.0687 24.6939L62.5687 20.4377V26.7189L50.3624 38.2502C45.1312 35.9627 41.3062 30.9939 40.6874 25.0877ZM54.3187 39.3564L62.5687 31.5564V38.4564C60.7687 39.1502 58.7999 39.5439 56.7374 39.5439C55.9312 39.5439 55.1062 39.4689 54.3187 39.3564ZM66.1124 36.5439V31.4439L68.9249 33.9939C68.0812 34.9502 67.1437 35.8127 66.1124 36.5439Z" fill="#E31B23"/>
</svg>
