<svg width="246" height="50" viewBox="0 0 246 50" fill="none" xmlns="http://www.w3.org/2000/svg">
<g clip-path="url(#clip0_845_3614)">
<path d="M100.32 26.8054L108.92 14.9278C109.177 14.5677 108.971 14.2002 108.56 14.2002H103.885C103.628 14.2002 103.312 14.3031 103.157 14.5603L97.4831 22.8291L91.6692 14.5603C91.5149 14.3031 91.1988 14.2002 90.9416 14.2002H85.9509C85.6937 14.2002 85.532 14.406 85.532 14.6191C85.532 14.722 85.532 14.8249 85.6349 14.9278L94.2638 26.8422L84.7529 39.9178C84.4956 40.278 84.7014 40.6455 85.0616 40.6455H89.7876C90.0449 40.6455 90.3609 40.5426 90.5153 40.278L97.0935 30.8038L103.767 40.278C103.922 40.5352 104.238 40.6455 104.495 40.6455H109.537C109.794 40.6455 109.956 40.4397 109.956 40.2265C109.956 40.1236 109.905 40.0207 109.853 39.9178L100.32 26.8054Z" fill="#E31B23"/>
<path d="M81.1219 4.27688C81.482 4.27688 81.7466 4.53413 81.7466 4.90163V8.43698C81.7466 8.79713 81.4894 9.06173 81.1219 9.06173H64.3345V19.5575H79.402C79.7695 19.5575 80.0267 19.8148 80.0267 20.1823V23.6662C80.0267 24.0263 79.7695 24.2909 79.402 24.2909H64.3345V35.7716H81.1219C81.482 35.7716 81.7466 36.0289 81.7466 36.3964V40.0346C81.7466 40.4021 81.4894 40.6594 81.1219 40.6594H61.4827C59.9759 40.6594 58.8293 39.5128 58.8293 38.006V6.92288C58.8293 5.41613 59.9759 4.26953 61.4827 4.26953H81.1219" fill="#E31B23"/>
<path d="M127.625 13.3701C122.532 13.3701 119.834 15.6045 118.269 17.6846V14.8254C118.269 14.4653 118.012 14.2007 117.644 14.2007H113.535C113.175 14.2007 112.911 14.4579 112.911 14.8254V49.0691C112.911 49.4292 113.168 49.6938 113.535 49.6938H117.696C118.056 49.6938 118.32 49.4366 118.32 49.0691V37.2723C119.827 39.3524 122.532 41.4324 127.618 41.4324C135.879 41.4324 140.716 35.1996 140.716 27.4013C140.716 19.6029 135.887 13.3701 127.618 13.3701H127.625ZM126.692 36.9563C121.598 36.9563 118.122 33.5238 118.122 27.4454C118.122 21.3669 121.606 17.8316 126.692 17.8316C131.778 17.8316 135.211 21.3669 135.211 27.4454C135.211 33.5238 131.778 36.9563 126.692 36.9563Z" fill="#E31B23"/>
<path d="M157.092 13.3687C149.867 13.3687 144.104 18.5651 144.104 27.194C144.104 35.8229 149.198 41.431 157.768 41.431C162.707 41.431 166.808 39.248 169.359 36.2345C169.513 36.0802 169.565 35.9258 169.565 35.7641C169.565 35.6024 169.513 35.4554 169.359 35.2937L166.97 32.9564C166.816 32.8021 166.661 32.7506 166.5 32.7506C166.338 32.7506 166.191 32.8535 166.029 33.0079C164.052 35.1394 161.509 36.9548 157.819 36.9548C152.439 36.9548 149.852 33.64 149.455 28.8478H169.403C169.77 28.8478 170.028 28.5905 170.028 28.223V27.1867C170.028 19.2854 165.25 13.3613 157.092 13.3613V13.3687ZM149.646 24.7979C150.264 20.4614 152.535 17.6243 157.055 17.6243C161.575 17.6243 164.118 20.2777 164.486 24.7979H149.646Z" fill="#E31B23"/>
<path d="M244.336 14.199H240.227C239.867 14.199 239.603 14.4563 239.603 14.8238V17.7344C238.044 15.6543 235.34 13.4199 230.143 13.4199C221.985 13.4199 217.156 19.6527 217.156 27.4511C217.156 35.2494 221.992 41.4822 230.143 41.4822C235.34 41.4822 238.044 39.2478 239.603 37.1678V40.0269C239.603 40.3871 239.86 40.6517 240.227 40.6517H244.336C244.696 40.6517 244.961 40.3944 244.961 40.0269V14.8238C244.961 14.4563 244.704 14.199 244.336 14.199ZM231.187 37.0134C226.093 37.0134 222.668 33.4781 222.668 27.3996C222.668 21.3212 226.101 17.8887 231.187 17.8887C236.273 17.8887 239.757 21.3212 239.757 27.3996C239.757 33.4781 236.273 37.0134 231.187 37.0134Z" fill="#E31B23"/>
<path d="M200.582 4.27688H196.422C196.061 4.27688 195.797 4.53413 195.797 4.90163V17.7347C194.239 15.6547 191.585 13.4203 186.389 13.4203C178.23 13.4203 173.401 19.6531 173.401 27.4514C173.401 35.2498 178.23 41.4826 186.389 41.4826C191.585 41.4826 194.29 39.2482 195.848 37.1681V40.0273C195.848 40.3874 196.106 40.652 196.473 40.652H200.582C200.942 40.652 201.206 40.3948 201.206 40.0273V4.89428C201.206 4.53413 200.949 4.26953 200.582 4.26953V4.27688ZM187.44 37.0138C182.346 37.0138 178.921 33.4784 178.921 27.4C178.921 21.3215 182.354 17.8891 187.44 17.8891C192.526 17.8891 196.01 21.3215 196.01 27.4C196.01 33.4784 192.526 37.0138 187.44 37.0138Z" fill="#E31B23"/>
<path d="M211.908 4.27734C212.268 4.27734 212.533 4.53459 212.533 4.90209V9.16509C212.533 9.52524 212.276 9.78984 211.908 9.78984H207.645C207.285 9.78984 207.02 9.53259 207.02 9.16509V4.90209C207.02 4.54194 207.278 4.27734 207.645 4.27734H211.908Z" fill="#E31B23"/>
<path d="M211.856 14.2002C212.217 14.2002 212.481 14.4574 212.481 14.8249V40.0281C212.481 40.3882 212.224 40.6528 211.856 40.6528H207.696C207.336 40.6528 207.072 40.3956 207.072 40.0281V14.8249C207.072 14.4648 207.329 14.2002 207.696 14.2002H211.856Z" fill="#E31B23"/>
<path d="M35.5078 0.506836H9.65788C4.67458 0.506836 0.63208 4.54934 0.63208 9.53264V35.3826C0.63208 40.3659 4.67458 44.4084 9.65788 44.4084H35.5078C40.4911 44.4084 44.5336 40.3659 44.5336 35.3826V9.53264C44.5336 4.54934 40.4911 0.506836 35.5078 0.506836ZM14.0532 35.8824C14.0532 36.2278 13.7739 36.5071 13.4284 36.5071H9.16543C8.81998 36.5071 8.54068 36.2278 8.54068 35.8824V31.6194C8.54068 31.2739 8.81998 30.9946 9.16543 30.9946H13.4284C13.7739 30.9946 14.0532 31.2739 14.0532 31.6194V35.8824ZM36.2134 33.1629L32.0019 37.3744C31.6932 37.6831 31.2228 37.4773 31.2228 37.0143V18.0219L19.4481 29.7966C19.2423 30.0024 19.0291 30.1053 18.669 30.1053H15.5746C15.2071 30.1053 14.9499 29.848 14.9499 29.4805V26.3788C14.9499 26.0113 15.0528 25.8055 15.2586 25.5997L27.0333 13.825H8.04823C7.57783 13.825 7.37203 13.362 7.68073 13.0459L11.8923 8.83439C12.1495 8.57714 12.4141 8.41544 12.8257 8.41544H33.8173C35.3755 8.41544 36.625 9.66494 36.625 11.2231V32.2221C36.625 32.641 36.4707 32.8983 36.2061 33.1555L36.2134 33.1629Z" fill="#E31B23"/>
</g>
<defs>
<clipPath id="clip0_845_3614">
<rect width="245.49" height="49.98" fill="white"/>
</clipPath>
</defs>
</svg>
