<svg width="270" height="98" viewBox="0 0 270 98" fill="none" xmlns="http://www.w3.org/2000/svg">
<path d="M46.5613 95.2752L6.53097 69.0953C6.53097 69.0953 1.50282 66.195 0.352966 60.7866C-1.26462 53.2031 4.05587 46.6973 4.05587 46.6973L55.9939 80.7156C60.0087 83.3414 61.1001 88.7106 58.5274 92.7671C55.8964 96.9018 50.4591 97.8228 46.5613 95.2752Z" fill="#E31B23"/>
<path d="M8.65269 41.0721C8.65269 41.0721 2.51367 37.349 2.51367 28.7463C2.51367 20.1635 8.63321 16.499 8.63321 16.499L30.5193 2.09605C34.5341 -0.529796 39.8936 0.626359 42.5051 4.64351C45.1166 8.68025 43.9667 14.0691 39.9714 16.695L21.5349 28.766L52.9511 49.3416C52.9511 49.3416 58.6029 52.5945 59.7138 58.101C61.2729 65.7825 56.0109 72.0924 56.0109 72.0924L8.65269 41.0721Z" fill="#E31B23"/>
<path d="M49.8372 20.1836C47.7909 20.1836 46.3291 20.8302 44.887 21.7709L34.207 28.7666L44.887 35.7623C46.3291 36.7028 47.8297 37.3494 49.8372 37.3494C54.5535 37.3494 58.3734 33.5087 58.3734 28.7666C58.3734 24.0243 54.534 20.1836 49.8372 20.1836Z" fill="#E31B23"/>
<path d="M8.53617 96.666C10.5825 96.666 12.0442 96.0193 13.4864 95.0787L24.1664 88.083L13.4864 81.0873C12.0442 80.1467 10.5435 79.5 8.53617 79.5C3.81984 79.5197 0 83.3604 0 88.1026C0 92.8447 3.81984 96.666 8.53617 96.666Z" fill="#E31B23"/>
<path d="M91.1534 76.9937C93.8624 76.9937 96.3959 76.249 98.3643 74.5442V78.385C96.162 79.9135 93.5505 80.5601 90.7831 80.5601C83.845 80.5601 79.0312 75.72 79.0312 68.7439C79.0312 61.8069 84.0009 56.9668 90.8805 56.9668C93.5895 56.9668 96.123 57.7505 98.1305 59.279V63.4726C96.3375 61.5325 93.8624 60.5135 91.0949 60.5135C86.2812 60.5135 82.8707 63.8841 82.8707 68.7439C82.89 73.584 86.3201 76.9937 91.1534 76.9937Z" fill="#E31B23"/>
<path d="M106.22 80.1262H102.498V50.1445L106.22 52.4568V61.2358C107.916 58.6099 110.625 56.9443 114.075 56.9443C119.765 56.9443 122.806 61.1379 122.806 66.7422V80.1457H119.044V67.3888C119.044 62.9602 117.115 60.6087 113.159 60.6087C108.988 60.6087 106.22 64.2144 106.22 68.7409V80.1262Z" fill="#E31B23"/>
<path d="M145.916 76.2462C144.026 78.9309 141.141 80.5377 137.595 80.5377C130.988 80.5377 126.252 75.5995 126.252 68.8587C126.252 61.9804 130.988 56.9443 137.595 56.9443C141.141 56.9443 144.026 58.6099 145.916 61.3338V57.3559H149.678V80.1262H145.916V76.2462ZM130.111 68.8194C130.111 73.5225 133.365 76.9909 137.965 76.9909C142.603 76.9909 145.916 73.5225 145.916 68.8194C145.916 64.0185 142.603 60.5107 137.965 60.5107C133.365 60.5107 130.111 64.0185 130.111 68.8194Z" fill="#E31B23"/>
<path d="M159.183 80.1273H155.461V57.3569H159.183V62.1971C160.977 58.8266 163.86 56.9258 167.446 56.9258V61.2173C162.945 60.5706 159.183 63.6276 159.183 69.2516V80.1273Z" fill="#E31B23"/>
<path d="M205.572 70.2108H187.701C188.246 74.3259 191.462 77.0497 195.963 77.0497C198.867 77.0497 201.654 76.2267 204.051 74.5023V78.1078C201.615 79.7734 198.867 80.5573 195.963 80.5573C188.85 80.5573 183.744 75.9327 183.744 68.9566C183.744 62.1177 188.07 56.9443 194.912 56.9443C201.44 56.9443 205.709 61.7845 205.709 68.31C205.728 68.9566 205.67 69.6033 205.572 70.2108ZM187.76 67.1538H201.771C201.401 63.2737 198.965 60.4128 194.97 60.4128C190.838 60.4128 188.363 63.313 187.76 67.1538Z" fill="#E31B23"/>
<path d="M213.53 80.1273H209.807V57.3569H213.53V62.1971C215.322 58.8266 218.207 56.9258 221.793 56.9258V61.2173C217.29 60.5706 213.53 63.6276 213.53 69.2516V80.1273Z" fill="#E31B23"/>
<path d="M243.887 70.2108H226.016C226.56 74.3259 229.776 77.0497 234.278 77.0497C237.182 77.0497 239.969 76.2267 242.366 74.5023V78.1078C239.93 79.7734 237.182 80.5573 234.278 80.5573C227.165 80.5573 222.059 75.9327 222.059 68.9566C222.059 62.1177 226.385 56.9443 233.226 56.9443C239.754 56.9443 244.023 61.7845 244.023 68.31C244.023 68.9566 243.984 69.6033 243.887 70.2108ZM226.074 67.1538H240.086C239.715 63.2737 237.279 60.4128 233.285 60.4128C229.152 60.4128 226.658 63.313 226.074 67.1538Z" fill="#E31B23"/>
<path d="M266.228 76.2246C264.395 78.9485 261.451 80.6141 257.905 80.6141C251.298 80.6141 246.562 75.6759 246.562 68.9349C246.562 62.0568 251.298 57.0207 257.905 57.0207C261.451 57.0207 264.375 58.7255 266.228 61.5081V50.1621L269.988 52.4745V80.1438H266.228V76.2246ZM250.441 68.8761C250.441 73.5792 253.695 77.0477 258.296 77.0477C262.934 77.0477 266.247 73.5792 266.247 68.8761C266.247 64.0752 262.934 60.5675 258.296 60.5675C253.695 60.5675 250.441 64.0752 250.441 68.8761Z" fill="#E31B23"/>
<path d="M173.967 72.5623C173.967 75.7564 175.896 76.9909 178.332 76.9909C180.164 76.9909 182.016 76.4814 183.614 75.3253V78.9702C182.055 80.1262 179.891 80.577 178.001 80.577C173.187 80.577 170.244 78.4018 170.244 72.2683V50.125L173.967 52.4374V72.5623Z" fill="#E31B23"/>
<path d="M179.966 57.0614C179.031 56.4342 177.803 56.4146 176.847 57.0417C175.074 58.1783 175.074 60.7845 176.847 61.9211L176.925 61.9799C177.861 62.5874 179.07 62.5874 180.024 61.9799L183.728 59.5892L179.966 57.0614Z" fill="#E31B23"/>
<path d="M86.7939 44.1458C89.4637 44.1458 91.3932 42.9897 91.3932 40.9125C91.3932 39.6584 90.7501 38.6982 89.0545 37.9928L83.6755 35.8176C80.9277 34.6223 79.4076 33.0546 79.4076 30.0956C79.4076 26.1177 82.5843 23.6289 87.1641 23.6289C89.8341 23.6289 92.3092 24.3737 94.0632 25.7061V29.6253C91.9974 27.7833 89.4637 26.7251 87.2226 26.7251C84.8254 26.7251 83.1298 27.8421 83.1298 29.6841C83.1298 31.0754 83.773 31.8984 85.566 32.5842L90.945 34.7594C93.8293 36.0135 95.1741 37.7576 95.1741 40.2071C95.1741 44.5574 91.6855 47.2224 86.7744 47.2224C83.7925 47.2224 81.0835 46.3994 79.0957 44.91V40.8537C81.4734 43.1465 84.1239 44.1458 86.7939 44.1458Z" fill="#E31B23"/>
<path d="M102.23 39.2086C102.23 42.4029 104.16 43.6374 106.596 43.6374C108.428 43.6374 110.279 43.1278 111.877 41.9718V45.6165C110.318 46.7727 108.155 47.2234 106.264 47.2234C101.451 47.2234 98.5078 45.0483 98.5078 38.9148V19.0837L102.23 16.7715V39.2086Z" fill="#E31B23"/>
<path d="M132.692 42.9504C130.801 45.635 127.917 47.2419 124.37 47.2419C117.763 47.2419 113.027 42.3038 113.027 35.5628C113.027 28.6847 117.763 23.6484 124.37 23.6484C127.917 23.6484 130.801 25.3142 132.692 28.0379V24.06H136.453V46.8303H132.692V42.9504ZM116.886 35.5236C116.886 40.2266 120.141 43.695 124.74 43.695C129.379 43.695 132.692 40.2266 132.692 35.5236C132.692 30.7226 129.379 27.215 124.74 27.215C120.141 27.1953 116.886 30.7029 116.886 35.5236Z" fill="#E31B23"/>
<path d="M145.959 46.8303H142.236V24.06H145.959V27.9399C147.654 25.3142 150.363 23.6484 153.813 23.6484C159.504 23.6484 162.545 27.842 162.545 33.4464V46.85H158.783V34.0931C158.783 29.6643 156.854 27.3129 152.897 27.3129C148.726 27.3129 145.959 30.9185 145.959 35.4452V46.8303Z" fill="#E31B23"/>
<path d="M185.655 42.8535C183.822 45.5773 180.88 47.2429 177.333 47.2429C170.725 47.2429 165.99 42.3048 165.99 35.5639C165.99 28.6857 170.725 23.6496 177.333 23.6496C180.88 23.6496 183.802 25.3545 185.655 28.137V19.0837L189.415 16.7715V46.8315H185.655V42.8535ZM169.849 35.5246C169.849 40.2277 173.103 43.6962 177.703 43.6962C182.341 43.6962 185.655 40.2277 185.655 35.5246C185.655 30.7237 182.341 27.216 177.703 27.216C173.103 27.1965 169.849 30.7041 169.849 35.5246Z" fill="#E31B23"/>
<path d="M254.555 42.8535C252.723 45.5773 249.78 47.2429 246.233 47.2429C239.627 47.2429 234.891 42.3048 234.891 35.5639C234.891 28.6857 239.627 23.6496 246.233 23.6496C249.78 23.6496 252.704 25.3545 254.555 28.137V19.0837L258.317 16.7715V46.8315H254.555V42.8535ZM238.749 35.5246C238.749 40.2277 242.004 43.6962 246.603 43.6962C251.243 43.6962 254.555 40.2277 254.555 35.5246C254.555 30.7237 251.243 27.216 246.603 27.216C242.024 27.1965 238.749 30.7041 238.749 35.5246Z" fill="#E31B23"/>
<path d="M213.117 42.9504C211.227 45.635 208.343 47.2419 204.795 47.2419C198.189 47.2419 193.454 42.3038 193.454 35.5628C193.454 28.6847 198.189 23.6484 204.795 23.6484C208.343 23.6484 211.227 25.3142 213.117 28.0379V24.06H216.879V46.8303H213.117V42.9504ZM197.312 35.5236C197.312 40.2266 200.567 43.695 205.166 43.695C209.805 43.695 213.117 40.2266 213.117 35.5236C213.117 30.7226 209.805 27.215 205.166 27.215C200.586 27.1953 197.312 30.7029 197.312 35.5236Z" fill="#E31B23"/>
<path d="M226.397 46.8305H222.674V24.06H226.397V28.9002C228.189 25.5297 231.074 23.6289 234.66 23.6289V27.9204C230.157 27.2738 226.397 30.3308 226.397 35.9547V46.8305Z" fill="#E31B23"/>
<path d="M107.472 28.9205C108.427 29.5475 109.636 29.5475 110.591 28.9402C112.364 27.8036 112.364 25.1974 110.591 24.0608L110.513 24.002C109.558 23.3945 108.349 23.3945 107.414 24.0215L103.711 26.4122L107.472 28.9205Z" fill="#E31B23"/>
</svg>
