<svg width="179" height="77" viewBox="0 0 179 77" fill="none" xmlns="http://www.w3.org/2000/svg">
<g clip-path="url(#clip0_845_3608)">
<mask id="mask0_845_3608" style="mask-type:luminance" maskUnits="userSpaceOnUse" x="0" y="0" width="179" height="76">
<path d="M178.5 0.682617H0V75.6826H178.5V0.682617Z" fill="white"/>
</mask>
<g mask="url(#mask0_845_3608)">
<path d="M164.871 38.275L155.663 6.28543C155.238 5.06502 154.886 0.682617 154.886 0.682617H140.185C139.39 2.77212 138.059 4.69519 137.134 6.39637C136.357 7.82019 127.463 19.747 120.566 28.7706V28.7521L110.58 41.9733C109.951 40.0503 109.452 38.5155 109.397 38.275C108.712 35.9268 107.326 31.1929 107.326 31.1929C107.326 31.1929 123.302 10.8712 124.93 8.81871C129.756 2.69815 132.511 0.682617 132.511 0.682617H117.441C117.441 0.682617 117.274 3.41931 115.924 5.28691C115.203 6.39637 102.814 21.966 102.814 21.966C102.814 21.966 98.912 7.87567 98.1908 5.60125C97.4511 3.32685 97.5806 0.682617 97.5806 0.682617H79.5141C80.1984 1.45925 82.2879 6.61827 82.2879 6.61827L91.2194 34.1701L84.1926 43.2307L83.3975 40.716C83.2865 40.5679 81.1415 33.5784 78.8484 26.1264C76.2782 17.787 73.5598 8.8372 73.3378 8.15304C73.153 7.56132 72.9681 6.22996 72.8016 4.84312C72.5798 2.80909 72.4134 0.682617 72.4134 0.682617H56.8248C56.8248 0.682617 53.8291 7.22848 51.7396 10.2425C50.926 11.4445 41.976 23.4267 32.0831 36.241C31.6023 36.8698 31.103 37.5169 30.6038 38.1456C28.1258 41.4556 25.5184 44.8764 23.059 48.0384C22.6153 48.5931 21.6537 49.8135 20.3962 51.4222C18.8614 53.3454 16.9014 55.8417 14.9043 58.3564C11.2244 62.9793 7.43364 67.7314 6.06526 69.3772C5.49202 70.0614 4.60443 71.0229 3.66135 71.9844C1.88615 73.8336 0 75.6826 0 75.6826H0.573241H4.29006H5.60298H14.5899H14.9783C14.9783 75.6826 15.459 74.5177 16.587 72.4282C16.6795 72.2803 16.7719 72.0769 16.8829 71.8735C18.3252 69.747 19.971 67.4541 20.3409 67.0843C21.0066 66.3816 38.1667 43.8594 38.1667 43.8594H68.2898C68.2898 43.8594 70.7676 50.9046 73.0976 57.5428C70.6751 60.7048 64.9427 68.1198 63.1305 70.2648C61.7436 71.892 57.768 75.6826 57.768 75.6826H70.7306L70.9155 75.1834C71.0079 74.9614 71.5257 73.7965 72.5613 71.8735C72.7276 71.5776 72.9311 71.2447 73.19 70.8379C73.412 70.4866 73.6893 70.0798 74.0037 69.6546C74.5214 68.9334 75.1316 68.1198 75.8528 67.1952L76.8144 65.9748L77.0733 65.6235L77.2027 66.0303L77.6835 67.5096C77.7759 67.7685 77.8499 68.0088 77.9054 68.1937C77.9793 68.3971 78.0163 68.545 78.0532 68.656C78.3861 69.8394 78.7189 71.3002 79.0333 72.9829C79.2738 74.2773 79.3846 75.4053 79.4217 75.5902L79.4401 75.6826H83.8412H96.8593L97.0443 75.1834C97.1367 74.9614 97.6545 73.7965 98.6899 71.8735C98.8564 71.5776 99.0599 71.2447 99.3188 70.8379C99.5406 70.4866 99.8179 70.0798 100.132 69.6546C100.65 68.9334 101.26 68.1198 101.982 67.1952L102.943 65.9748L103.202 65.6235L103.294 65.9008L103.331 66.0303L103.812 67.5096C103.905 67.7685 103.979 68.0088 104.034 68.1937C104.108 68.3971 104.145 68.545 104.182 68.656C104.515 69.8394 104.848 71.3002 105.162 72.9829C105.402 74.2773 105.513 75.4053 105.55 75.5902L105.569 75.6826H122.785C122.785 75.6826 120.066 70.9674 119.456 69.3957C119.179 68.7115 115.628 57.6352 114.094 52.8646L118.605 46.8364L120.769 43.9888H150.522C150.522 43.9888 158.492 66.0858 159.324 69.0073C160.139 71.9289 160.212 75.7011 160.212 75.7011H178.462C175.633 73.6486 168.386 48.0939 164.871 38.275ZM65.2016 35.0946H45.2305H45.1752C45.1752 35.0946 57.8789 19.636 60.0425 14.9947C60.2828 14.477 60.3198 14.8838 60.3198 15.1242C60.3198 15.457 60.1719 18.2307 60.7081 20.3757C61.3923 23.0754 65.2755 35.0946 65.2755 35.0946H65.2016ZM91.7926 66.8439C91.1083 64.9578 90.4057 62.8867 89.6845 60.7419L87.5211 53.8632L92.9391 46.8364L94.8252 44.3956L99.1893 57.0621C97.7284 59.0037 94.3629 63.5155 91.7926 66.8439ZM127.648 35.2056C127.648 35.2056 140.352 19.747 142.515 15.1057C142.756 14.5879 142.793 14.9947 142.793 15.2351C142.793 15.568 142.645 18.3417 143.181 20.4867C143.865 23.1864 147.767 35.2056 147.767 35.2056H127.648Z" fill="#E31B23"/>
</g>
</g>
<defs>
<clipPath id="clip0_845_3608">
<rect width="178.5" height="76.5" fill="white"/>
</clipPath>
</defs>
</svg>
