<svg width="155" height="60" viewBox="0 0 155 60" fill="none" xmlns="http://www.w3.org/2000/svg">
<g clip-path="url(#clip0_600_8879)">
<path d="M140 10H15C12.2386 10 10 12.2386 10 15V45C10 47.7614 12.2386 50 15 50H140C142.761 50 145 47.7614 145 45V15C145 12.2386 142.761 10 140 10Z" fill="black"/>
<path d="M140 10.8C142.316 10.8 144.2 12.684 144.2 15V45C144.2 47.316 142.316 49.2 140 49.2H15C12.684 49.2 10.8 47.316 10.8 45V15C10.8 12.684 12.684 10.8 15 10.8H140ZM140 10H15C12.25 10 10 12.25 10 15V45C10 47.75 12.25 50 15 50H140C142.75 50 145 47.75 145 45V15C145 12.25 142.75 10 140 10Z" fill="#A6A6A6"/>
<path d="M57.418 20.2432C57.418 21.0812 57.1701 21.7482 56.673 22.2462C56.109 22.8382 55.3731 23.1342 54.4691 23.1342C53.6031 23.1342 52.8671 22.8342 52.2611 22.2342C51.6551 21.6332 51.3521 20.8892 51.3521 20.0012C51.3521 19.1132 51.6551 18.3682 52.2611 17.7682C52.8661 17.1672 53.6031 16.8672 54.4691 16.8672C54.8991 16.8672 55.31 16.9512 55.701 17.1182C56.092 17.2862 56.405 17.5092 56.639 17.7882L56.112 18.3162C55.715 17.8412 55.1681 17.6042 54.4691 17.6042C53.8371 17.6042 53.2911 17.8262 52.8301 18.2702C52.3691 18.7142 52.139 19.2912 52.139 20.0002C52.139 20.7092 52.3691 21.2862 52.8301 21.7302C53.2911 22.1742 53.8371 22.3962 54.4691 22.3962C55.1391 22.3962 55.6981 22.1732 56.1451 21.7262C56.4351 21.4352 56.603 21.0302 56.648 20.5112H54.4691V19.7902H57.376C57.404 19.9472 57.418 20.0972 57.418 20.2432Z" fill="white" stroke="white" stroke-width="0.2" stroke-miterlimit="10"/>
<path d="M62.0281 17.737H59.2961V19.639H61.7601V20.36H59.2961V22.262H62.0281V22.999H58.5251V16.999H62.0281V17.737Z" fill="white" stroke="white" stroke-width="0.2" stroke-miterlimit="10"/>
<path d="M65.279 23H64.508V17.737H62.832V17H66.955V17.737H65.279V23Z" fill="white" stroke="white" stroke-width="0.2" stroke-miterlimit="10"/>
<path d="M69.938 23V17H70.708V23H69.938Z" fill="white" stroke="white" stroke-width="0.2" stroke-miterlimit="10"/>
<path d="M74.1282 23H73.3572V17.737H71.6812V17H75.8042V17.737H74.1282V23Z" fill="white" stroke="white" stroke-width="0.2" stroke-miterlimit="10"/>
<path d="M83.6089 22.2252C83.0189 22.8322 82.2859 23.1342 81.4089 23.1342C80.5319 23.1342 79.7989 22.8312 79.2099 22.2252C78.6199 21.6192 78.3259 20.8772 78.3259 20.0002C78.3259 19.1232 78.6199 18.3812 79.2099 17.7752C79.7989 17.1682 80.5319 16.8652 81.4089 16.8652C82.2809 16.8652 83.0119 17.1702 83.6049 17.7792C84.1969 18.3882 84.4929 19.1282 84.4929 20.0002C84.4929 20.8772 84.1979 21.6192 83.6089 22.2252ZM79.7789 21.7222C80.2229 22.1722 80.7659 22.3962 81.4089 22.3962C82.0519 22.3962 82.5949 22.1712 83.0389 21.7222C83.4829 21.2722 83.7059 20.6982 83.7059 20.0002C83.7059 19.3022 83.4829 18.7272 83.0389 18.2782C82.5959 17.8282 82.0519 17.6042 81.4089 17.6042C80.7659 17.6042 80.2229 17.8292 79.7789 18.2782C79.3359 18.7282 79.1129 19.3022 79.1129 20.0002C79.1129 20.6982 79.3359 21.2732 79.7789 21.7222Z" fill="white" stroke="white" stroke-width="0.2" stroke-miterlimit="10"/>
<path d="M85.575 23V17H86.514L89.43 21.667H89.463L89.43 20.511V17H90.201V23H89.396L86.345 18.106H86.312L86.345 19.262V22.999H85.574L85.575 23Z" fill="white" stroke="white" stroke-width="0.2" stroke-miterlimit="10"/>
<path d="M78.136 31.7519C75.784 31.7519 73.867 33.5399 73.867 36.0049C73.867 38.4539 75.784 40.2579 78.136 40.2579C80.488 40.2579 82.405 38.4539 82.405 36.0049C82.405 33.5399 80.488 31.7519 78.136 31.7519ZM78.136 38.5819C76.847 38.5819 75.736 37.5189 75.736 36.0039C75.736 34.4729 76.848 33.4258 78.136 33.4258C79.424 33.4258 80.536 34.4729 80.536 36.0039C80.536 37.5179 79.424 38.5819 78.136 38.5819ZM68.823 31.7519C66.471 31.7519 64.554 33.5399 64.554 36.0049C64.554 38.4539 66.471 40.2579 68.823 40.2579C71.175 40.2579 73.092 38.4539 73.092 36.0049C73.092 33.5399 71.175 31.7519 68.823 31.7519ZM68.823 38.5819C67.534 38.5819 66.422 37.5189 66.422 36.0039C66.422 34.4729 67.534 33.4258 68.823 33.4258C70.112 33.4258 71.223 34.4729 71.223 36.0039C71.223 37.5179 70.111 38.5819 68.823 38.5819ZM57.744 33.0569V34.8609H62.062C61.933 35.8759 61.595 36.6169 61.079 37.1329C60.451 37.7609 59.468 38.4538 57.744 38.4538C55.086 38.4538 53.008 36.3109 53.008 33.6529C53.008 30.9949 55.086 28.8519 57.744 28.8519C59.178 28.8519 60.225 29.4159 60.998 30.1409L62.271 28.8679C61.192 27.8369 59.758 27.0479 57.744 27.0479C54.103 27.0479 51.042 30.0119 51.042 33.6529C51.042 37.2939 54.103 40.2579 57.744 40.2579C59.71 40.2579 61.192 39.6138 62.352 38.4049C63.544 37.2128 63.915 35.5368 63.915 34.1838C63.915 33.7648 63.883 33.3789 63.818 33.0559L57.744 33.0569ZM103.052 34.4579C102.698 33.5079 101.618 31.7509 99.411 31.7509C97.22 31.7509 95.4 33.4749 95.4 36.0039C95.4 38.3879 97.204 40.2569 99.621 40.2569C101.57 40.2569 102.698 39.0649 103.165 38.3719L101.715 37.4049C101.232 38.1138 100.571 38.5809 99.621 38.5809C98.671 38.5809 97.994 38.1459 97.559 37.2919L103.246 34.9398L103.053 34.4569L103.052 34.4579ZM97.252 35.8759C97.204 34.2329 98.525 33.3949 99.475 33.3949C100.216 33.3949 100.844 33.7649 101.054 34.2969L97.252 35.8759ZM92.629 39.9999H94.498V27.4979H92.629V39.9999ZM89.567 32.7019H89.503C89.084 32.2029 88.279 31.7509 87.264 31.7509C85.137 31.7509 83.188 33.6199 83.188 36.0199C83.188 38.4039 85.137 40.2569 87.264 40.2569C88.279 40.2569 89.084 39.8059 89.503 39.2899H89.567V39.9019C89.567 41.5289 88.697 42.3988 87.295 42.3988C86.151 42.3988 85.442 41.5768 85.152 40.8848L83.525 41.5619C83.992 42.6899 85.233 44.0749 87.295 44.0749C89.486 44.0749 91.339 42.7859 91.339 39.6449V32.0089H89.567V32.7019ZM87.425 38.5819C86.136 38.5819 85.057 37.5029 85.057 36.0199C85.057 34.5219 86.136 33.4258 87.425 33.4258C88.698 33.4258 89.697 34.5219 89.697 36.0199C89.697 37.5019 88.698 38.5819 87.425 38.5819ZM111.806 27.4989H107.335V39.9999H109.201V35.2639H111.806C113.874 35.2639 115.907 33.7669 115.907 31.3809C115.907 28.9949 113.874 27.4989 111.806 27.4989ZM111.854 33.5238H109.2V29.2389H111.854C113.249 29.2389 114.041 30.3939 114.041 31.3819C114.041 32.3509 113.249 33.5249 111.854 33.5249V33.5238ZM123.386 31.7289C122.035 31.7289 120.636 32.3239 120.057 33.6429L121.714 34.3349C122.068 33.6429 122.727 33.4179 123.419 33.4179C124.384 33.4179 125.365 33.9969 125.381 35.0259V35.1549C125.043 34.9619 124.32 34.6719 123.435 34.6719C121.65 34.6719 119.832 35.6529 119.832 37.4869C119.832 39.1599 121.295 40.2369 122.936 40.2369C124.19 40.2369 124.882 39.6739 125.316 39.0149H125.38V39.9799H127.181V35.1869C127.181 32.9669 125.525 31.7289 123.386 31.7289ZM123.161 38.5799C122.55 38.5799 121.697 38.2749 121.697 37.5189C121.697 36.5539 122.758 36.1838 123.675 36.1838C124.495 36.1838 124.881 36.3609 125.38 36.6019C125.235 37.7599 124.238 38.5799 123.161 38.5799ZM133.743 32.0019L131.604 37.4219H131.54L129.321 32.0019H127.311L130.64 39.5769L128.742 43.7909H130.688L135.819 32.0019H133.744H133.743ZM116.936 39.9999H118.802V27.4989H116.936V39.9999Z" fill="white"/>
<path d="M30.7168 29.4243L20.0698 40.7243C20.0698 40.7243 20.0708 40.7293 20.0718 40.7313C20.3988 41.9583 21.5188 42.8613 22.8488 42.8613C23.3798 42.8613 23.8798 42.7173 24.3078 42.4653L24.3418 42.4453L36.3258 35.5303L30.7168 29.4243Z" fill="#EA4335"/>
<path d="M41.4879 27.5002L41.4779 27.4932L36.3039 24.4932L30.4749 29.6802L36.3239 35.5282L41.4699 32.5592C42.3719 32.0722 42.9849 31.1212 42.9849 30.0242C42.9849 28.9342 42.3809 27.9882 41.4869 27.4992L41.4879 27.5002Z" fill="#FBBC04"/>
<path d="M20.0699 19.2773C20.0059 19.5133 19.9719 19.7613 19.9719 20.0173V39.9853C19.9719 40.2413 20.0049 40.4893 20.0699 40.7243L31.0829 29.7133L20.0699 19.2773Z" fill="#4285F4"/>
<path d="M30.7958 30.0011L36.3058 24.4921L24.3358 17.5521C23.9008 17.2911 23.3928 17.1411 22.8498 17.1411C21.5198 17.1411 20.3978 18.0461 20.0708 19.2751V19.2781L30.7968 30.0021L30.7958 30.0011Z" fill="#34A853"/>
</g>
<defs>
<clipPath id="clip0_600_8879">
<rect width="155" height="60" fill="white"/>
</clipPath>
</defs>
</svg>
