<svg width="44" height="58" viewBox="0 0 44 58" fill="none" xmlns="http://www.w3.org/2000/svg">
<g clip-path="url(#clip0_600_8770)">
<path d="M29.0332 3.5878C28.6631 3.69495 24.6179 4.86693 24.5442 4.88689C24.4207 4.92064 24.1097 4.98252 23.9513 5.1673C23.7944 5.35434 23.7232 5.59508 23.683 5.89968C23.4552 7.63218 23.6996 15.2825 24.0346 18.9185C24.0405 18.9826 24.1212 20.3061 24.3046 20.7218C24.5113 21.0979 24.7495 21.4207 25.0178 21.7529C25.5016 22.397 25.8444 23.2444 25.8444 24.0625C25.8444 26.3046 24.0883 28.067 21.9086 28.067C19.7292 28.067 17.97 26.303 17.97 24.1275C17.97 23.243 18.3035 22.4133 18.7997 21.7529C19.068 21.4207 19.3062 21.0979 19.5126 20.7218C19.7444 20.1965 19.7632 19.4736 19.7852 18.9185C19.9233 15.3778 20.1229 10.9397 20.2129 8.5738C20.2248 6.61968 19.9424 4.46953 20.2624 2.54437C20.47 0.573361 22.6055 -0.555295 24.3344 0.273271C25.9074 0.884429 27.2979 1.85839 28.7672 2.6698L28.975 2.78596C29.6658 3.1963 29.2506 3.50062 29.1072 3.5639L29.0332 3.5878Z" fill="#606F7F"/>
<path d="M21.9124 53.8174C21.9124 53.8174 20.2437 55.9675 19.4182 57.0503C19.4047 57.0714 19.3302 57.1462 19.2236 57.1462H12.9765C12.8263 57.1367 12.7236 57.0169 12.7236 56.8883V56.3168C12.7236 56.2288 12.7779 56.1349 12.8659 56.0862L19.4033 52.7689C19.4033 52.7689 19.4623 52.7382 19.4972 52.717C19.5245 52.7005 19.558 52.6778 19.5849 52.6559C19.828 52.4586 20.0387 52.1753 20.0387 51.8461C20.0387 51.8326 20.0311 51.7266 19.9984 51.5418C19.9984 51.5418 18.1729 41.7292 17.4109 37.7529C17.3603 37.4495 17.5578 37.2669 17.8067 37.31C18.6965 37.6008 20.4307 37.9343 21.9199 37.9343C23.329 37.9343 25.1194 37.6008 26.018 37.31C26.2672 37.2669 26.4647 37.4495 26.4138 37.7529C25.6519 41.7292 23.8263 51.5418 23.8263 51.5418C23.7939 51.7266 23.7863 51.8326 23.7863 51.8461C23.7863 52.1757 23.999 52.4573 24.2408 52.6567C24.2635 52.6755 24.3027 52.701 24.327 52.7159C24.3514 52.7309 24.4191 52.7677 24.4191 52.7677L30.9588 56.0862C31.0468 56.1349 31.1011 56.2288 31.1011 56.3168V56.8883C31.1011 57.0169 30.9984 57.1367 30.8485 57.1462H24.6014C24.4948 57.1462 24.42 57.0714 24.4065 57.0503C23.581 55.9675 21.9124 53.8174 21.9124 53.8174Z" fill="#606F7F"/>
<path d="M21.9109 30.4869C18.4076 30.486 15.5572 27.6351 15.5572 24.1318C15.5572 22.7932 16.0238 21.4348 16.8712 20.3068L16.9232 20.24C17.0674 20.0378 17.2253 19.8256 17.3098 19.7139C17.3551 19.654 17.442 19.5322 17.442 19.5322C17.442 19.5322 17.3669 19.3074 17.3548 19.2705C17.3504 19.2572 17.3456 19.244 17.341 19.2308C16.2713 16.1522 14.191 13.6593 11.6243 11.5825C5.3922 14.3406 0 19.6808 0 27.0522C0 36.0991 8.04902 42.1632 16.1302 43.9456C15.7616 41.9896 15.403 40.1031 15.0415 38.2161L15.0315 38.1593C14.8787 37.2461 15.1669 36.3239 15.8018 35.6922C16.4293 35.0681 17.333 34.7866 18.2188 34.9399C18.3626 34.9645 18.4956 34.9971 18.6224 35.0392C19.2389 35.2441 20.7876 35.529 21.9147 35.529C23.046 35.529 24.5928 35.2441 25.2089 35.0392C25.3352 34.9971 25.4681 34.9645 25.6144 34.9394C26.4982 34.7866 27.4015 35.0681 28.0289 35.6922C28.6639 36.3239 28.9521 37.2461 28.7997 38.1593L28.7893 38.2165C28.4273 40.104 28.0691 41.9905 27.7005 43.947C35.7836 42.1665 43.8374 36.1015 43.8374 27.0522C43.8374 19.6808 38.4447 14.3406 32.2131 11.5825C29.6432 13.6617 27.5612 16.1572 26.4925 19.2406C26.4874 19.2551 26.3937 19.5396 26.3937 19.5396C26.3937 19.5396 26.4667 19.6557 26.5351 19.7479C26.6366 19.8847 26.743 20.0307 26.8995 20.2396L26.952 20.3072C27.7545 21.3756 28.2172 22.6607 28.2598 23.9355C28.2636 23.9899 28.2674 24.0561 28.2674 24.1318C28.2674 27.6361 25.4166 30.4869 21.9123 30.4869H21.9109Z" fill="#606F7F"/>
</g>
<defs>
<clipPath id="clip0_600_8770">
<rect width="43.8374" height="57.1483" fill="white"/>
</clipPath>
</defs>
</svg>
