<svg width="108" height="54" viewBox="0 0 108 54" fill="none" xmlns="http://www.w3.org/2000/svg">
<g clip-path="url(#clip0_600_8626)">
<path d="M53.2576 3.32617L59.5891 14.2612L65.9611 3.32617H53.2576Z" fill="#606F7F"/>
<path d="M87.7634 23.1509L80.2507 36.0502L79.1167 34.0927L92.9677 10.3259H95.2424L88.9042 21.2002H96.8962L107.257 3.32617H91.8337C89.0189 3.32617 87.3652 5.94517 87.3652 5.94517C87.3652 5.94517 72.6164 31.2712 72.6029 31.2712C71.8469 32.7967 71.8469 35.2807 72.6164 36.7117C72.6299 36.7387 80.2574 49.8944 80.2574 49.8944L95.7689 23.1374H87.7634V23.1509Z" fill="#606F7F"/>
<path d="M66.9599 19.2697H77.3212L81.4116 12.2429H71.0437L72.1844 10.2854H82.5524L86.6091 3.32617H71.3271C68.4111 3.32617 66.7034 5.95867 66.7034 5.95867L60.7229 16.2187L64.7189 23.1104L66.9599 19.2697Z" fill="#606F7F"/>
<path d="M18.3869 31.832H16.6589V34.0663H18.3937C18.5422 34.0663 18.6637 34.0123 18.7582 33.8975C18.8527 33.7828 18.8999 33.6478 18.8999 33.4723V32.4193C18.8999 32.2438 18.8527 32.1088 18.7582 31.994C18.6637 31.886 18.5354 31.832 18.3869 31.832Z" fill="#606F7F"/>
<path d="M30.7529 31.832H29.0857V33.8908H30.7529C30.9014 33.8908 31.0229 33.8368 31.1107 33.7288C31.2052 33.6208 31.2457 33.479 31.2457 33.3103V32.4193C31.2457 32.2505 31.2052 32.1088 31.1107 31.994C31.0162 31.886 30.8947 31.832 30.7529 31.832Z" fill="#606F7F"/>
<path d="M24.4823 31.832H23.2606C23.0986 31.832 22.9771 31.886 22.8826 32.0008C22.7881 32.1155 22.7476 32.2505 22.7476 32.426V36.1115C22.7476 36.2803 22.7948 36.4153 22.8826 36.53C22.9771 36.6448 23.0986 36.7055 23.2606 36.7055H24.4823C24.6308 36.7055 24.7523 36.6448 24.8468 36.53C24.9481 36.4153 24.9953 36.2803 24.9953 36.1115V32.4193C24.9953 32.2505 24.9481 32.1088 24.8468 31.994C24.7523 31.886 24.6308 31.832 24.4823 31.832Z" fill="#606F7F"/>
<path d="M26.622 -0.000976562C11.9205 -0.000976562 0 11.9195 0 26.621C0 41.3225 11.9205 53.243 26.622 53.243C41.3235 53.243 53.244 41.3225 53.244 26.621C53.244 11.9195 41.3235 -0.000976562 26.622 -0.000976562ZM16.6725 12.3178H30.3547L28.2555 15.6388L14.5732 15.6455L16.6725 12.3178ZM13.8982 36.3275C13.8982 36.7528 13.7497 37.1173 13.4595 37.4075C13.1625 37.7045 12.798 37.8598 12.3795 37.8598H10.5705C10.1452 37.8598 9.78075 37.718 9.49725 37.4278C9.207 37.1443 9.06525 36.7865 9.06525 36.3545V35.639H10.179L10.341 36.3005C10.4152 36.5705 10.6042 36.7123 10.908 36.7123H12.1297C12.2782 36.7123 12.4065 36.6583 12.501 36.5435C12.5887 36.4355 12.636 36.287 12.636 36.125V35.342C12.636 34.9573 12.4672 34.7615 12.1297 34.7615H10.5975C10.179 34.7615 9.8145 34.613 9.51075 34.316C9.21375 34.019 9.072 33.6545 9.072 33.2293V32.1898C9.072 31.7713 9.2205 31.4135 9.51075 31.1165C9.8145 30.8195 10.179 30.671 10.5975 30.671H12.3795C12.798 30.671 13.1557 30.8128 13.446 31.0963C13.7362 31.3865 13.878 31.7375 13.878 32.1695V32.8175H12.7777L12.609 32.2303C12.5212 31.9535 12.3322 31.8118 12.0487 31.8118H10.8472C10.692 31.8118 10.5637 31.8658 10.476 31.9805C10.3747 32.0953 10.3342 32.237 10.3342 32.4058V33.0133C10.3342 33.3913 10.503 33.5803 10.8472 33.5803H12.3795C12.7912 33.5803 13.1557 33.7288 13.4527 34.0325C13.7497 34.3363 13.8982 34.694 13.8982 35.1058V36.3275ZM20.1757 33.695C20.1757 34.1203 20.0272 34.478 19.7302 34.775C19.4265 35.072 19.062 35.2205 18.6435 35.2205H16.659V37.8598H15.39V30.671H18.6435C19.062 30.671 19.4265 30.8195 19.7302 31.1165C20.0272 31.4135 20.1757 31.7713 20.1757 32.183V33.695ZM26.2642 36.314C26.2642 36.7528 26.1225 37.1105 25.812 37.4075C25.5082 37.7045 25.1572 37.8598 24.732 37.8598H23.0175C22.5922 37.8598 22.2277 37.7113 21.9307 37.4075C21.6337 37.1105 21.4785 36.7528 21.4785 36.314V32.183C21.4785 31.7713 21.6337 31.4068 21.9307 31.1165C22.2277 30.8195 22.5922 30.671 23.0175 30.671H24.732C25.1572 30.671 25.515 30.8195 25.812 31.1165C26.1157 31.4068 26.2642 31.7713 26.2642 32.1898V36.314ZM26.5815 28.9565L9.2475 28.9633L13.4595 22.301H10.368L12.474 18.9733H25.3665L23.2605 22.301H17.4825L15.3495 25.6355H24.651L33.156 12.203L43.7467 28.9565H39.7507L37.6447 25.6288H31.3875L33.4935 22.2943H35.5455L33.156 18.5143L26.5815 28.9565ZM31.4617 37.8598L30.294 35.045H29.0857V37.8598H27.8167V30.671H30.996C31.4212 30.671 31.7857 30.8195 32.076 31.1165C32.373 31.4135 32.5215 31.7713 32.5215 32.183V33.4385C32.5215 33.7625 32.4337 34.0595 32.2515 34.3228C32.0625 34.5793 31.8262 34.7683 31.5495 34.8898L32.8117 37.8598H31.4617ZM38.2657 31.832H36.423V37.8598H35.154V31.832H33.3247V30.671H38.2725V31.832H38.2657ZM44.0302 36.3275C44.0302 36.7528 43.8817 37.1173 43.5847 37.4075C43.281 37.7045 42.9232 37.8598 42.498 37.8598H40.7025C40.2705 37.8598 39.9195 37.718 39.6292 37.4278C39.339 37.1375 39.1972 36.7865 39.1972 36.3545V35.639H40.3042L40.473 36.3005C40.554 36.5705 40.7362 36.7123 41.04 36.7123H42.2617C42.417 36.7123 42.5452 36.6583 42.6397 36.5435C42.7275 36.4355 42.7747 36.287 42.7747 36.125V35.342C42.7747 34.9573 42.606 34.7615 42.2617 34.7615H40.7295C40.3042 34.7615 39.9398 34.613 39.6495 34.316C39.3525 34.019 39.1972 33.6545 39.1972 33.2293V32.1898C39.1972 31.7713 39.3525 31.4135 39.6495 31.1165C39.9398 30.8195 40.3042 30.671 40.7295 30.671H42.5047C42.93 30.671 43.2877 30.8128 43.578 31.0963C43.8682 31.3865 44.01 31.7375 44.01 32.1695V32.8175H42.903L42.7342 32.2303C42.6465 31.9535 42.4575 31.8118 42.174 31.8118H40.9657C40.8105 31.8118 40.6822 31.8658 40.5945 31.9805C40.5 32.0953 40.4527 32.237 40.4527 32.4058V33.0133C40.4527 33.3913 40.6283 33.5803 40.9657 33.5803H42.498C42.9165 33.5803 43.2742 33.7288 43.5712 34.0325C43.8817 34.3363 44.0302 34.694 44.0302 35.1058V36.3275ZM44.8065 31.022H44.5365V31.5958H44.4015V31.022H44.1315V30.9005H44.8065V31.022ZM45.6165 31.6025V31.1705C45.6165 31.1503 45.6165 31.13 45.6232 31.0963C45.6097 31.1233 45.6097 31.1503 45.5895 31.1705L45.3667 31.5148H45.3465L45.117 31.1705C45.1035 31.1503 45.09 31.1233 45.0765 31.103C45.0765 31.13 45.09 31.157 45.09 31.1773V31.6093H44.9752V30.914H45.09L45.36 31.3325L45.6367 30.914H45.7447V31.6093H45.6165V31.6025Z" fill="#606F7F"/>
</g>
<defs>
<clipPath id="clip0_600_8626">
<rect width="107.257" height="53.244" fill="white"/>
</clipPath>
</defs>
</svg>
