<svg width="103" height="32" viewBox="0 0 103 32" fill="none" xmlns="http://www.w3.org/2000/svg">
<g clip-path="url(#clip0_600_8679)">
<path d="M89.2388 21.3585C89.2857 20.9479 89.31 20.5316 89.31 20.1097C89.31 13.7329 84.0225 8.56348 77.5032 8.56348C70.9819 8.56348 65.6963 13.7329 65.6963 20.1097C65.6963 26.4866 70.9819 31.6541 77.5032 31.6541C82.4625 31.6541 86.7019 28.6691 88.4532 24.4297L83.3663 23.5372C82.2375 25.6016 80.1057 26.991 77.6663 26.991C74.43 26.991 71.7488 24.5572 71.2107 21.3604H89.2388V21.3585ZM77.6663 13.356C80.4282 13.356 82.7925 15.1354 83.7544 17.6535H71.5725C72.5325 15.1354 74.8969 13.356 77.6663 13.356Z" fill="#606F7F"/>
<path d="M62.522 9.04688H56.4939V31.2375H62.522V9.04688Z" fill="#606F7F"/>
<path d="M59.5107 -0.00146484C57.6507 -0.00146484 56.147 1.50604 56.147 3.36229C56.147 5.21479 57.6507 6.72041 59.5107 6.72041C61.3651 6.72041 62.8707 5.21479 62.8707 3.36229C62.8707 1.50604 61.3651 -0.00146484 59.5107 -0.00146484Z" fill="#606F7F"/>
<path d="M19.59 1.93115V13.8768H6.59063V1.93115H0V31.2168H6.59063V19.2712H19.59V31.2168H26.1844V1.93115H19.59Z" fill="#606F7F"/>
<path d="M46.8037 9.05609V10.2448C45.0506 9.18547 42.9975 8.57422 40.7962 8.57422C34.4043 8.57422 29.22 13.7398 29.22 20.113C29.22 26.4861 34.4043 31.6517 40.7962 31.6517C42.9412 31.6517 44.9437 31.0705 46.665 30.0598V31.2167H52.5487V9.05609H46.8037ZM41.0906 26.788C37.3593 26.788 34.3425 23.803 34.3425 20.1167C34.3425 16.4286 37.3593 13.4398 41.0906 13.4398C44.82 13.4398 47.8406 16.4286 47.8406 20.1167C47.8406 23.803 44.82 26.788 41.0906 26.788Z" fill="#606F7F"/>
<path d="M101.777 6.98438C96.225 7.95562 92.0043 12.7875 91.9387 18.6112V31.2375H97.7118L97.7156 18.375C97.7156 15.4294 99.9262 13.0013 102.776 12.6506L101.777 6.98438Z" fill="#606F7F"/>
</g>
<defs>
<clipPath id="clip0_600_8679">
<rect width="102.774" height="31.6538" fill="white"/>
</clipPath>
</defs>
</svg>
