<svg width="77" height="60" viewBox="0 0 77 60" fill="none" xmlns="http://www.w3.org/2000/svg">
<g clip-path="url(#clip0_600_8689)">
<path d="M37.0876 36.9745C41.2501 36.9745 42.6001 36.9745 44.6626 36.412C45.3751 36.1495 46.6501 35.812 47.5876 34.387C49.3126 31.4995 49.3126 26.062 49.3126 23.4745C49.3126 20.887 49.3126 16.237 47.5876 13.387C46.6501 11.9245 45.3751 11.512 44.6626 11.3245C42.5626 10.762 41.1751 10.7995 37.0876 10.7995C32.9626 10.7995 31.6125 10.7995 29.5125 11.3245C28.7625 11.512 27.5251 11.9245 26.5876 13.387C24.8626 16.237 24.8626 20.8495 24.8626 23.4745C24.8626 26.0995 24.8626 31.4995 26.5876 34.387C27.5251 35.8495 28.8 36.187 29.5125 36.412C31.575 36.9745 32.9251 36.9745 37.0876 36.9745ZM37.125 -0.000488281C38.9625 -0.000488281 40.1251 0.299512 40.6501 0.412012C40.3876 2.69951 40.4626 4.53701 40.6501 5.06201C41.2501 6.82451 44.7001 7.64951 46.0876 6.82451C47.6251 5.92451 47.2876 3.14951 47.2876 1.31201C47.2876 1.31201 49.5376 1.83701 50.9251 2.36201C52.0501 2.77451 53.7001 3.59951 53.7001 3.59951C54.0376 5.92451 53.7001 9.33701 51.4126 10.4995C53.1751 12.2245 53.7376 14.2495 54.4876 18.037C55.0876 21.412 54.9375 23.7745 54.9 25.762C54.7125 28.4245 54.7126 29.887 54.0751 32.3245C53.1376 35.0995 52.6125 36.412 50.7001 38.362C46.875 42.2995 40.6501 42.0745 37.0876 42.0745C33.5251 42.0745 27.3 42.2995 23.475 38.362C21.6001 36.412 21.0376 35.137 20.1001 32.3245C19.4626 29.887 19.4626 28.462 19.2751 25.762C19.2751 23.7745 19.0876 21.4495 19.6876 18.037C20.4376 14.2495 21.0376 12.2245 22.7626 10.4995C20.4376 9.33701 20.1376 5.92451 20.4751 3.59951C20.4751 3.59951 22.1251 2.77451 23.2501 2.36201C24.6376 1.83701 26.8875 1.31201 26.8875 1.31201C26.8875 3.14951 26.5501 5.92451 28.0876 6.82451C29.4751 7.64951 32.9251 6.82451 33.5251 5.06201C33.7126 4.53701 33.7876 2.69951 33.5251 0.412012C34.0126 0.299512 35.2126 -0.000488281 37.0501 -0.000488281" fill="#606F7F"/>
<path d="M37.1252 25.3125C40.6877 25.3125 40.6127 25.3125 40.6127 26.4375V33.525H45.4877V13.875H40.6127V19.7625C40.6127 20.925 40.6877 20.925 37.1252 20.925C33.5627 20.925 33.6377 20.925 33.6377 19.7625V13.875H28.7627V33.525H33.6377V26.4375C33.6377 25.3125 33.5627 25.3125 37.1252 25.3125Z" fill="#606F7F"/>
<path d="M75.225 47.1371H75.4125C75.6 47.1371 75.825 47.1371 75.825 46.9121C75.825 46.6871 75.675 46.6871 75.45 46.6871H75.225V47.1371ZM75.975 46.8746C75.975 46.9871 75.9 47.0996 75.825 47.1746C75.75 47.1746 75.7125 47.2121 75.6 47.2496C75.7875 47.3246 75.825 47.3621 76.0125 47.8121H75.825C75.6 47.3621 75.5625 47.2871 75.2625 47.2871H75.1875V47.8121H75.0375V46.5746H75.5625C75.975 46.5746 75.975 46.8746 75.975 46.9121M75.525 46.1246C74.9625 46.1246 74.475 46.5746 74.475 47.1371C74.475 47.6996 74.925 48.1496 75.525 48.1496C76.125 48.1496 76.575 47.6996 76.575 47.1371C76.575 46.5746 76.125 46.1246 75.525 46.1246ZM75.525 48.2996C74.8874 48.2996 74.325 47.7746 74.325 47.1371C74.325 46.4996 74.85 45.9746 75.525 45.9746C76.1999 45.9746 76.725 46.4996 76.725 47.1371C76.725 47.7746 76.1999 48.2996 75.525 48.2996Z" fill="#606F7F"/>
<path d="M18.2625 48.2622H16.125V53.3247C16.125 54.7497 15.525 55.4997 14.325 55.4997C13.125 55.4997 13.5 55.3122 13.275 55.0872C12.975 54.7872 12.825 54.2622 12.825 53.5497V48.2622H10.6875V53.7372C10.6875 54.9372 10.95 55.7997 11.55 56.3622C12.1125 56.8872 12.75 57.1497 13.875 57.1497C15 57.1497 15.6 56.6247 16.125 55.9497V56.9247H18.225V48.2622H18.2625Z" fill="#606F7F"/>
<path d="M51.4499 50.5871C51.4499 49.9496 51.2249 49.3871 50.8124 48.9746C50.2124 48.3746 49.3124 48.0371 48.0749 48.0371C46.8374 48.0371 44.6999 48.2996 44.4374 50.6621H46.5749C46.5749 49.5746 47.9624 49.6496 47.9624 49.6496C48.4124 49.6496 48.8249 49.7996 49.1249 50.0246C49.3124 50.1746 49.4249 50.3996 49.4624 50.7746C49.4624 51.3746 49.1999 51.6371 47.2124 51.8246C45.6749 51.9746 43.8374 52.3871 43.8374 54.5621C43.8374 56.7371 44.0624 55.8746 44.5499 56.3246C45.1124 56.8871 45.9374 57.1496 46.9124 57.1496C47.8874 57.1496 48.9374 56.8496 49.5749 56.0996L49.6874 56.8871H51.7499V56.5496C51.4874 56.3621 51.5624 55.4996 51.5624 55.4996V50.5496L51.4499 50.5871ZM45.8999 54.4871C45.8624 53.8496 46.2374 53.3621 47.2499 53.2121C47.5124 53.1746 47.7749 53.1371 48.0374 53.0996C48.4499 53.0246 48.8999 52.9496 49.3124 52.6496V53.9621C49.3124 55.0496 48.2249 55.4246 47.4374 55.4246C46.6499 55.4246 45.9749 55.1246 45.8999 54.4871Z" fill="#606F7F"/>
<path d="M35.5875 59.2496V48.2621H33.5625V49.3496C33 48.5996 32.25 48.0371 31.125 48.0371C28.575 48.0371 27.1125 49.7996 27.1125 52.6496C27.1125 55.4996 27.5625 55.3871 28.3875 56.1746C29.025 56.8121 29.775 57.1496 30.7875 57.1496C31.8 57.1496 32.775 56.6246 33.4125 55.8371V59.2496H35.5875ZM31.3875 55.4246C30.7875 55.4246 30.4125 55.2371 30.0375 54.8621C29.5125 54.3746 29.25 53.5496 29.25 52.5746C29.25 51.5996 29.55 50.8121 30.075 50.2871C30.45 49.9121 30.825 49.7246 31.3875 49.7246C32.625 49.7246 33.3 50.5121 33.4875 51.9371C33.4875 52.1621 33.525 52.9496 33.4875 53.0996C33.3375 54.6371 32.7 55.4621 31.3875 55.4621" fill="#606F7F"/>
<path d="M0 56.9245H2.325V51.787H7.1625V56.9245H9.4875V45.3745H7.1625V49.762H2.325V45.3745H0V56.9245Z" fill="#606F7F"/>
<path d="M22.9874 55.4624C22.0874 55.4624 21.3749 55.0874 21.2249 54.2999H19.0874C19.1999 56.4749 21.4124 57.1499 22.9499 57.1124C24.4874 57.1124 25.1999 56.7374 25.8749 56.0249C26.3624 55.5374 26.5874 54.9374 26.5874 54.2249C26.5874 52.5374 25.2749 51.9749 23.8124 51.6374L23.3624 51.5249C22.1999 51.2999 21.2624 51.0749 21.3374 50.4374C21.3749 49.7624 22.1249 49.6499 22.6874 49.6124C23.2499 49.6124 23.7374 49.6874 24.0749 50.3624H26.2874C26.0624 48.6749 24.4874 47.9624 22.8374 47.9624C21.1874 47.9624 19.2749 48.6374 19.2749 50.4749C19.2749 52.3124 20.5124 52.7624 21.9749 53.0624C22.1624 53.0999 22.3874 53.1374 22.5749 53.1749C23.6999 53.3999 24.5249 53.6249 24.5249 54.3374C24.5249 55.0499 23.9249 55.3499 23.0249 55.3499" fill="#606F7F"/>
<path d="M44.3625 48.2622H42.15L40.275 54.8997L38.325 48.2622H36L39.0375 56.9247H41.325L44.3625 48.2622Z" fill="#606F7F"/>
<path d="M56.5125 47.9623C55.8375 48.0748 55.0125 48.8248 54.6375 49.7623V48.2623H52.6125V56.9248H54.75V52.7998C54.75 51.8623 54.825 51.1498 55.2375 50.5873C55.575 50.1748 56.175 49.7623 56.7375 49.7623C57.3375 49.7623 57.675 49.9123 57.675 49.9123V48.0373C57.675 48.0373 57.1125 47.8873 56.5125 47.9998" fill="#606F7F"/>
<path d="M66.0375 50.9996C66.0375 50.0996 65.775 49.3496 65.25 48.8621C64.6875 48.3371 63.9375 48.0371 62.925 48.0371C61.9125 48.0371 61.0875 48.5996 60.45 49.5746V48.2621H58.425V56.9246H60.5625V51.8246C60.5625 51.1871 60.7125 50.6246 61.0875 50.2496C61.425 49.9121 61.95 49.7246 62.55 49.7246C63.525 49.7246 63.8625 50.2871 63.9 51.5246V56.9246H66V50.9996H66.0375Z" fill="#606F7F"/>
<path d="M74.3625 50.5871C74.3625 49.9496 74.1375 49.3871 73.725 48.9746C73.125 48.3746 72.1125 48.0371 70.8375 48.0371C69.5625 48.0371 67.4625 48.2996 67.2 50.6621H69.3375C69.3375 49.5746 70.725 49.6496 70.725 49.6496C71.175 49.6496 71.7375 49.7996 72.0375 50.0246C72.225 50.1746 72.3375 50.3996 72.375 50.7746C72.375 51.3746 72.1125 51.6371 70.125 51.8246C68.5875 51.9746 66.75 52.3871 66.75 54.5621C66.75 56.7371 66.975 55.8746 67.4625 56.3246C68.025 56.8871 68.85 57.1871 69.825 57.1871C70.8 57.1871 71.8125 56.8871 72.4875 56.1371L72.6 56.9246H74.6625V56.5871C74.4 56.3996 74.475 55.5371 74.475 55.5371V50.5871H74.3625ZM68.8125 54.4871C68.775 53.8496 69.15 53.3621 70.1625 53.2121C70.425 53.1746 70.6875 53.1371 70.95 53.0996C71.3625 53.0246 71.8125 52.9496 72.225 52.6496V53.9621C72.225 55.0496 71.1375 55.4246 70.35 55.4246C69.5625 55.4246 68.8875 55.1246 68.8125 54.4871Z" fill="#606F7F"/>
</g>
<defs>
<clipPath id="clip0_600_8689">
<rect width="76.725" height="59.25" fill="white"/>
</clipPath>
</defs>
</svg>
