<svg width="113" height="67" viewBox="0 0 113 67" fill="none" xmlns="http://www.w3.org/2000/svg">
<g clip-path="url(#clip0_600_8666)">
<mask id="mask0_600_8666" style="mask-type:luminance" maskUnits="userSpaceOnUse" x="0" y="0" width="113" height="67">
<path d="M112.5 0H0V66.375H112.5V0Z" fill="white"/>
</mask>
<g mask="url(#mask0_600_8666)">
<path d="M14.4749 17.0244V13.1619H27.4874C27.6374 13.8369 27.7124 14.6619 27.7124 15.5244C27.7124 18.4494 26.9249 22.0494 24.3374 24.5994C21.8249 27.1869 18.6374 28.5744 14.3999 28.5744C6.5624 28.5744 -0.0375977 22.1994 -0.0375977 14.3619C-0.0375977 6.52442 6.5624 0.149414 14.3999 0.149414C18.7499 0.149414 21.8249 1.83691 24.1499 4.04941L21.4124 6.78691C19.7624 5.21191 17.4749 4.01191 14.3999 4.01191C8.6624 4.01191 4.1999 8.62441 4.1999 14.3619C4.1999 20.0994 8.6624 24.7119 14.3999 24.7119C18.1124 24.7119 20.2124 23.2119 21.5999 21.8619C22.7249 20.7744 23.4374 19.1994 23.6999 17.0244H14.4749Z" fill="#606F7F"/>
<path d="M47.5498 19.462C47.5498 24.7495 43.4248 28.612 38.3623 28.612C33.2998 28.612 29.1748 24.712 29.1748 19.462C29.1748 14.212 33.2998 10.312 38.3623 10.312C43.4248 10.312 47.5498 14.137 47.5498 19.462ZM43.5373 19.462C43.5373 16.162 41.1373 13.912 38.3623 13.912C35.5873 13.912 33.1873 16.162 33.1873 19.462C33.1873 22.762 35.5873 25.012 38.3623 25.012C41.1373 25.012 43.5373 22.7245 43.5373 19.462Z" fill="#606F7F"/>
<path d="M67.6123 19.462C67.6123 24.7495 63.4873 28.612 58.4248 28.612C53.3623 28.612 49.2373 24.712 49.2373 19.462C49.2373 14.212 53.3623 10.312 58.4248 10.312C63.4873 10.312 67.6123 14.137 67.6123 19.462ZM63.5998 19.462C63.5998 16.162 61.1998 13.912 58.4248 13.912C55.6498 13.912 53.2498 16.162 53.2498 19.462C53.2498 22.762 55.6498 25.012 58.4248 25.012C61.1998 25.012 63.5998 22.7245 63.5998 19.462Z" fill="#606F7F"/>
<path d="M86.8499 10.8374V27.2624C86.8499 34.0124 82.875 36.7874 78.15 36.7874C73.7249 36.7874 71.025 33.7874 70.0125 31.3874L73.4999 29.9249C74.1374 31.4249 75.6374 33.1874 78.1124 33.1874C81.1499 33.1874 83.025 31.3124 83.025 27.8249V26.5124H82.8749C81.9749 27.6374 80.2499 28.5749 78.0374 28.5749C73.4624 28.5749 69.2625 24.5999 69.2625 19.4624C69.2625 14.3249 73.4624 10.2749 78.0374 10.2749C80.2124 10.2749 81.9749 11.2499 82.8749 12.3374H83.025V10.8374H86.8499ZM83.2874 19.4999C83.2874 16.2749 81.1499 13.9124 78.3749 13.9124C75.5999 13.9124 73.275 16.2749 73.275 19.4999C73.275 22.7249 75.5999 25.0124 78.3749 25.0124C81.1499 25.0124 83.2874 22.6874 83.2874 19.4999Z" fill="#606F7F"/>
<path d="M93.6749 1.2373V28.0498H89.6624V1.2373H93.6749Z" fill="#606F7F"/>
<path d="M109.2 22.4624L112.312 24.5249C111.3 26.0249 108.862 28.5749 104.662 28.5749C99.4499 28.5749 95.5874 24.5624 95.5874 19.4249C95.5874 13.9874 99.5249 10.2749 104.212 10.2749C108.9 10.2749 111.3 14.0624 112.05 16.0874L112.462 17.1374L100.2 22.1999C101.137 24.0374 102.6 24.9749 104.625 24.9749C106.725 25.0124 108.15 23.9999 109.2 22.4624ZM99.5999 19.1624L107.775 15.7499C107.325 14.5874 105.975 13.7999 104.362 13.7999C102.337 13.8374 99.4874 15.6374 99.5999 19.1624Z" fill="#606F7F"/>
<path d="M22.3499 65.4373V39.3748H31.3124C32.8874 39.3748 34.3124 39.7123 35.5874 40.3873C36.8624 41.0248 37.8749 41.9623 38.6249 43.1998C39.4124 44.3998 39.7874 45.7873 39.7874 47.3623C39.7874 48.9373 39.4124 50.2873 38.6249 51.5248C37.8749 52.7248 36.8624 53.6998 35.5874 54.3748C34.3124 55.0123 32.8874 55.3498 31.3124 55.3498H26.3249V65.4748H22.3499V65.4373ZM26.3249 51.5248H31.3874C32.3249 51.5248 33.1499 51.3373 33.7874 50.9248C34.4249 50.5123 34.9499 49.9873 35.2874 49.3498C35.6624 48.7123 35.8499 47.9998 35.8499 47.3248C35.8499 46.6123 35.6624 45.9373 35.2874 45.3373C34.9499 44.6998 34.4624 44.1748 33.7874 43.7623C33.1124 43.3498 32.3249 43.1623 31.3874 43.1623H26.3249V51.5248ZM42.2624 65.4373V46.8748H46.1999V65.4373H42.2624ZM44.2124 44.1373C43.4999 44.1373 42.8624 43.8748 42.3374 43.3873C41.8124 42.8623 41.5874 42.2248 41.5874 41.5123C41.5874 40.7623 41.8499 40.1248 42.3374 39.6748C42.8624 39.1498 43.4999 38.9248 44.2124 38.9248C44.9624 38.9248 45.5999 39.1873 46.0874 39.6748C46.6124 40.1623 46.8374 40.7623 46.8374 41.5123C46.8374 42.2623 46.5749 42.8623 46.0874 43.3873C45.5999 43.8748 44.9999 44.1373 44.2124 44.1373ZM48.1499 65.4373L54.6749 56.0248L48.2624 46.9123H52.7999L57.0373 53.0998L61.0499 46.9123H65.7749L59.2498 56.0248L65.8123 65.4373H61.2374L56.9998 59.0623L52.7999 65.4373H48.1499ZM75.4123 65.9998C73.5748 65.9998 71.9623 65.5873 70.5373 64.7248C69.1124 63.8623 67.9874 62.6998 67.1623 61.2373C66.3749 59.7748 65.9624 58.0873 65.9624 56.1748C65.9624 54.4123 66.3373 52.7623 67.1248 51.2623C67.9123 49.7623 68.9623 48.5623 70.3498 47.6623C71.7748 46.7248 73.3873 46.2748 75.1873 46.2748C77.0998 46.2748 78.7123 46.6873 80.0623 47.5123C81.4123 48.3373 82.4624 49.4623 83.1374 50.8873C83.8498 52.3123 84.1873 53.9248 84.1873 55.7248C84.1873 55.9873 84.1874 56.2498 84.1498 56.4373C84.1498 56.6623 84.1498 56.8123 84.1123 56.9623H69.7873C69.8998 57.9748 70.1249 58.8748 70.5373 59.6248C71.0624 60.5623 71.7749 61.2748 72.6374 61.7623C73.4999 62.2498 74.4748 62.4748 75.4873 62.4748C76.7248 62.4748 77.7373 62.2123 78.5623 61.6498C79.4248 61.0498 80.0623 60.3373 80.5498 59.5123L83.7748 61.0873C82.9874 62.5498 81.8999 63.7123 80.5124 64.6498C79.1999 65.5498 77.4748 65.9998 75.4123 65.9998ZM70.0124 54.0373H80.3249C80.2873 53.5873 80.1749 53.0998 79.9499 52.5748C79.7248 52.0498 79.4249 51.5623 79.0124 51.1123C78.5998 50.6623 78.0748 50.3248 77.4373 50.0623C76.7998 49.7623 76.0499 49.6123 75.2248 49.6123C74.1749 49.6123 73.1998 49.8748 72.3748 50.4373C71.5498 50.9623 70.9123 51.7123 70.4623 52.6873C70.2749 53.1373 70.1249 53.5873 70.0124 54.0373ZM86.8123 65.4373V39.3748H90.7498V65.4373H86.8123Z" fill="#606F7F"/>
</g>
</g>
<defs>
<clipPath id="clip0_600_8666">
<rect width="112.875" height="66.375" fill="white"/>
</clipPath>
</defs>
</svg>
