<svg width="120" height="44" viewBox="0 0 120 44" fill="none" xmlns="http://www.w3.org/2000/svg">
<g clip-path="url(#clip0_600_8620)">
<mask id="mask0_600_8620" style="mask-type:alpha" maskUnits="userSpaceOnUse" x="0" y="-1" width="120" height="45">
<path d="M0 -0.00146484H119.516V43.8735H0V-0.00146484Z" fill="black"/>
</mask>
<g mask="url(#mask0_600_8620)">
<path fill-rule="evenodd" clip-rule="evenodd" d="M107.416 20.5776C107.416 17.4584 109.092 15.7521 111.116 15.7521C112.224 15.726 113.439 16.3118 114.142 17.4323V22.8162C113.413 24.5486 112.224 25.3222 110.819 25.3222C108.848 25.3222 107.416 23.3235 107.416 20.5776ZM90.8462 1.70483C90.4946 2.31797 90.8189 2.93109 91.2516 3.17112C91.5212 3.33034 91.6555 3.62383 91.4677 3.94347C91.1434 4.47697 91.3322 5.09011 91.8456 5.3836C92.2495 5.62363 92.6832 5.54283 92.9269 5.40974C93.4926 5.14359 93.9784 4.69087 94.5464 5.0105C94.7354 5.11625 94.8696 5.33014 94.8696 5.54283C94.8696 6.20943 94.1947 6.39598 93.6814 6.74293C93.4664 6.87603 93.1692 7.22299 93.1692 7.6769C93.1692 8.2627 93.6279 8.7154 94.2494 8.7154C94.6272 8.7154 94.8162 8.95543 94.8162 9.3012C94.8162 9.78244 95.1953 10.3682 95.9236 10.3682C96.6259 10.3682 97.0037 9.78244 97.0037 9.3012C97.0037 8.95543 97.1926 8.7154 97.5718 8.7154C98.1919 8.7154 98.6518 8.2627 98.6518 7.6769C98.6518 7.22299 98.3548 6.87603 98.1384 6.74293C97.6263 6.39598 96.9502 6.20943 96.9502 5.54283C96.9502 5.33014 97.0858 5.11625 97.2746 5.0105C97.8414 4.69087 98.3548 5.14359 98.8954 5.40974C99.1378 5.54283 99.5691 5.62363 99.9743 5.3836C100.489 5.09011 100.678 4.47697 100.354 3.94347C100.164 3.62383 100.3 3.33034 100.568 3.17112C101.002 2.93109 101.325 2.31797 100.975 1.70483C100.597 1.0929 99.9208 1.06557 99.4894 1.30559C99.1924 1.466 98.8681 1.43867 98.7064 1.11904C98.3809 0.585522 97.7606 0.4263 97.2472 0.719791C96.8433 0.931297 96.6804 1.35787 96.6804 1.62522C96.6259 2.23835 96.7886 2.90377 96.2206 3.22458C96.0317 3.33034 95.7892 3.33034 95.6004 3.22458C95.0324 2.90377 95.1953 2.23835 95.1406 1.62522C95.1406 1.35787 94.9789 0.931297 94.5726 0.719791C94.0604 0.4263 93.4391 0.585522 93.1419 1.11904C92.9531 1.43867 92.6299 1.466 92.3316 1.30559C91.8991 1.06557 91.2242 1.0929 90.8462 1.70483ZM80.8117 20.2306C81.0278 16.9522 82.9457 15.7521 84.3229 15.7521C85.1879 15.7521 85.8902 16.2322 85.8902 17.0853C85.8902 18.9247 83.5672 20.1237 80.8117 20.2306ZM62.3644 5.70323H63.0131C63.6881 5.70323 63.9304 6.0502 63.9304 6.71561V22.9504C63.9304 25.7226 65.5525 27.455 69.5758 27.455C73.0061 27.455 74.9513 25.7226 74.9513 22.7901V20.7641C75.5182 20.9507 76.1122 21.1372 76.7883 21.2703C76.8953 24.4428 79.2455 27.455 83.5945 27.455C86.8895 27.455 89.1044 25.189 90.2117 22.6034L89.5904 22.07C88.1847 24.1494 86.565 25.2425 84.6474 25.2425C82.7307 25.2425 81.1087 24.0162 80.8117 21.5911C87.133 21.2965 89.6711 16.0991 91.4274 16.0991C91.7779 16.0991 92.1296 16.2595 92.1296 16.9522V27.215H97.4778V26.0149H96.6662C96.1529 26.0149 95.9094 25.6953 95.9094 24.8159V19.9905C95.9094 18.7109 96.9099 16.9522 97.6656 16.7395C97.8284 17.3788 98.6114 18.2046 100.015 18.2046C102.636 18.2046 104.419 15.2994 104.419 13.1404C104.419 10.5548 103.123 9.6755 102.555 9.6755C101.879 9.6755 101.691 10.2078 101.691 10.5548C103.446 10.5548 103.257 13.9935 101.879 13.9935C100.988 13.9935 100.854 12.8208 99.4491 12.8208C98.2324 12.8208 97.3151 13.5408 97.3151 15.1128C96.8006 15.4598 96.0994 16.2322 95.9379 16.4187H95.9094V16.2595C95.9094 14.7124 94.8577 13.6739 93.2632 13.6739C90.9402 13.6739 89.5642 15.379 87.7534 17.0592C87.7807 16.8987 87.8081 16.7395 87.8081 16.5791C87.8081 14.8194 86.2134 13.6739 84.1067 13.6739C80.0834 13.6739 77.3552 16.3391 76.8692 19.9109C76.0575 19.7244 75.4635 19.5116 74.9513 19.2705V13.8866H70.5751V16.2322C70.5751 17.3253 71.4128 18.7654 73.1951 19.8847V22.4431C73.1951 24.6295 72.1411 25.4813 70.4123 25.4813C68.4956 25.4813 67.7126 24.4155 67.7126 22.7901V4.50431H62.3644V5.70323ZM43.7543 5.70323H44.4042C45.078 5.70323 45.3215 6.0502 45.3215 6.71561V24.3098C45.3215 25.8283 46.1865 27.215 48.266 27.215H57.7731C60.5548 27.215 62.2301 25.7226 62.2301 23.2427C62.2301 20.9507 60.6354 20.0714 58.9886 19.1908C57.2336 18.2581 55.5571 17.7792 55.5571 16.8453C55.5571 16.3391 55.9634 15.9387 56.8546 15.9387C58.1783 15.9387 59.7169 16.7395 60.6354 17.6722L62.7969 13.8866H55.6389C53.3967 13.8866 52.0196 15.2198 52.0196 17.0592C52.0196 19.3513 53.7747 20.2578 56.7464 21.7502C57.9072 22.3361 58.8531 22.8162 58.8531 23.8298C58.8531 24.6829 58.3671 25.2948 57.1242 25.2948C54.4234 25.2948 52.7492 21.4033 52.7492 21.4033H51.8854V25.8556H49.9664C49.2652 25.8556 49.1025 25.5086 49.1025 24.8421V4.50431H43.7543V5.70323ZM24.5239 39.4764C28.5746 39.2101 32.9246 40.3568 35.868 43.874C37.8132 41.9824 44.5112 36.2241 57.8278 36.2241C70.4123 36.2241 83.0277 41.0235 93.1016 41.0235C101.582 41.0235 105.553 36.9977 106.254 32.4919C107.227 33.7717 109.145 34.9183 111.305 34.8387C115.519 34.8387 117.924 31.4534 117.924 27.6676V16.2856C117.924 15.4325 118.113 15.0867 118.815 15.0867H119.517V13.8866H115.709C114.764 13.8866 114.358 14.287 114.196 14.9536C113.385 14.2609 112.224 13.6739 110.522 13.6739C106.741 13.6739 103.23 15.966 103.23 20.8449C103.23 24.7363 105.877 27.455 109.794 27.455C111.657 27.455 113.17 26.5745 114.142 25.403V27.9874C114.142 31.5592 112.684 32.9458 110.307 32.9458C107.902 32.9458 106.283 31.3725 106.228 29.4275H105.093C105.202 35.2118 102.176 38.4901 93.7231 38.4901C81.2715 38.4901 69.981 29.9075 51.2639 29.9075C34.6251 29.9075 24.5239 39.4764 24.5239 39.4764ZM17.1236 20.5776C17.1236 17.4584 18.7979 15.7521 20.8237 15.7521C21.8231 15.726 22.9033 16.206 23.6054 17.0853V23.3235C22.8498 24.7089 21.7957 25.3222 20.5267 25.3222C18.5269 25.3222 17.1236 23.3235 17.1236 20.5776ZM12.9363 20.8449C12.9363 24.7363 15.5837 27.455 19.5013 27.455C21.3097 27.455 22.7951 26.6018 23.7944 25.4813C24.2269 26.6018 25.4151 27.455 26.929 27.455C29.6286 27.455 31.493 25.403 32.4103 22.7901V27.215H37.7846V26.0149H37.0835C36.3813 26.0149 36.1923 25.6679 36.1923 24.8147V20.2045C36.1923 17.7792 38.273 15.2459 40.5413 15.2459C41.19 15.2459 41.6213 15.6202 41.6213 16.0991C41.6213 16.5257 41.3243 16.8453 40.8645 16.8453C40.3523 16.8453 40.2703 16.3391 40.0553 16.3391C39.353 16.3391 38.488 16.9783 38.488 18.2046C38.488 19.324 39.5135 20.284 40.9192 20.284C42.8358 20.284 44.0787 18.7109 44.0787 16.8191C44.0787 15.0332 42.648 13.6739 40.8645 13.6739C38.9467 13.6739 37.0835 14.899 36.1923 16.2595V15.6202C36.1923 14.5805 35.679 13.8866 34.6251 13.8866H30.6539V15.0867H31.5191C32.0596 15.0867 32.4103 15.4325 32.4103 16.2856V19.6709C31.6818 22.7366 30.1146 25.3222 28.4676 25.3222C27.9281 25.3222 27.3864 25.0561 27.3864 24.3632V16.2856C27.3864 15.4325 27.5491 15.0867 28.2514 15.0867H28.9536V13.8866H25.1728C24.4431 13.8866 23.9571 14.2336 23.7409 14.8194C22.9292 14.1801 21.7957 13.6739 20.2036 13.6739C16.4214 13.6739 12.9363 15.966 12.9363 20.8449ZM0 16.7395C0 27.1081 7.85897 35.3984 19.2304 35.3984C26.4418 35.3984 30.5745 32.0131 32.3306 30.0406L31.7365 29.4275C30.0076 30.9734 26.74 33.1586 21.6888 33.1586C12.9363 33.1586 8.37228 26.7623 8.37228 20.2045C8.37228 11.7537 14.5036 7.78265 20.0954 7.78265C23.4176 7.78265 25.5233 8.6358 27.6311 10.3682C29.6025 6.90217 31.5998 3.46461 33.5723 -0.00146484H9.26346C5.24011 2.07794 0 8.6358 0 16.7395Z" fill="#606F7F"/>
</g>
</g>
<defs>
<clipPath id="clip0_600_8620">
<rect width="119.812" height="43.875" fill="white"/>
</clipPath>
</defs>
</svg>
