<svg width="84" height="70" viewBox="0 0 84 70" fill="none" xmlns="http://www.w3.org/2000/svg">
<g clip-path="url(#clip0_600_8735)">
<path d="M13.8299 51.5775C13.8956 51.5775 13.9537 51.5419 13.9799 51.4837C17.7599 43.4044 23.2313 34.2206 30.405 26.8106C40.1775 16.7138 48.7781 14.1169 54.2925 14.01C49.8244 6.07125 45.2306 0.133125 41.8144 0.009375H41.5669C41.6494 0.005625 41.7319 0.005625 41.8144 0.009375H41.8463C41.7731 0.005625 41.7 0 41.625 0C37.7944 0 34.065 5.66625 29.5594 13.965C23.9475 24.3 18.1481 38.7169 13.6574 51.3525C13.6181 51.4613 13.7062 51.5775 13.8281 51.5775H13.8299Z" fill="#606F7F"/>
<path d="M56.2227 17.5759C51.7377 17.1409 47.3089 18.8154 43.9658 20.6416C53.8189 25.1847 61.7277 34.1604 68.2602 46.6535C68.2902 46.7116 68.3521 46.7491 68.4196 46.7491C68.5377 46.7491 68.6146 46.6366 68.5733 46.5279C64.4296 35.6885 61.8102 28.316 56.2227 17.5759Z" fill="#606F7F"/>
<path d="M23.9347 67.215C23.8729 67.1325 23.8729 66.9881 23.9329 66.7837L26.2072 59.085C26.3647 58.545 26.5972 58.4493 27.171 58.4493H29.751C30.0941 58.4493 30.396 58.2243 30.4954 57.8943L31.0072 56.1787H25.6447C24.1391 56.1787 23.1379 56.8781 22.746 58.2L20.4435 65.9775C20.0404 67.3368 20.0591 68.2856 20.5016 68.8781C20.8766 69.3806 21.5404 69.6243 22.5322 69.6243H27.3491L28.026 67.3556H24.516C24.2947 67.3556 24.0285 67.3387 23.9366 67.215H23.9347Z" fill="#606F7F"/>
<path d="M40.6255 56.925C40.2505 56.4243 39.5867 56.1787 38.5967 56.1787H34.6067C33.1011 56.1787 32.0998 56.8781 31.708 58.2L29.4055 65.9775C29.0042 67.3387 29.023 68.2875 29.4636 68.8781C29.8386 69.3806 30.5023 69.6243 31.4942 69.6243H35.4842C36.988 69.6243 37.9911 68.925 38.383 67.6031L40.6836 59.8256C41.0867 58.4662 41.068 57.5175 40.6255 56.925ZM37.2223 59.0193L34.9461 66.7181C34.7867 67.2618 34.5073 67.3537 33.9392 67.3537H33.4517C33.2305 67.3556 32.9642 67.3387 32.8705 67.215C32.8105 67.1325 32.8086 66.9881 32.8686 66.7837L35.143 59.085C35.3023 58.5412 35.5836 58.4493 36.1517 58.4493H36.6392C36.8605 58.4475 37.1267 58.4643 37.2186 58.5881C37.2805 58.6706 37.2805 58.815 37.2223 59.0193Z" fill="#606F7F"/>
<path d="M60.8522 56.9264C60.4772 56.4239 59.8115 56.1802 58.8215 56.1802H53.1872C52.844 56.1802 52.5403 56.4071 52.4428 56.7371L51.9365 58.4508H56.8378C57.059 58.4489 57.3253 58.4658 57.419 58.5896C57.479 58.6721 57.4809 58.8164 57.4209 59.0208L56.7009 61.4508H53.2584C51.7547 61.4508 50.7515 62.1502 50.3615 63.472L49.6209 65.9771C49.1615 67.5239 48.8709 69.6239 51.7078 69.6239H58.0097L60.9103 59.827C61.3115 58.4677 61.2928 57.5189 60.8522 56.9264ZM54.9778 67.3552H53.6653C53.1759 67.3552 52.9322 67.2989 53.0822 66.7852L54.0365 63.5845C54.1959 63.0408 54.4753 62.9489 55.0434 62.9489H56.2828L54.9778 67.3552Z" fill="#606F7F"/>
<path d="M70.5609 51.3652L69.1415 56.1784H65.7046C64.199 56.1784 63.1977 56.8777 62.8059 58.1996L60.5034 65.9771C60.1002 67.3384 60.1209 68.2871 60.5615 68.8777C60.9365 69.3802 61.6002 69.624 62.5921 69.624H68.8809L73.5627 53.8271C74.1177 51.9521 72.734 51.3652 70.5609 51.3652ZM65.8565 67.3534H64.5496C64.3284 67.3534 64.0621 67.3384 63.9684 67.2146C63.9084 67.1321 63.9065 66.9877 63.9684 66.7834L66.2427 59.0846C66.4021 58.5409 66.6834 58.449 67.2496 58.449H68.4909L65.8584 67.3534H65.8565Z" fill="#606F7F"/>
<path d="M50.6417 58.9426C51.6261 57.752 51.3073 56.1826 49.6705 56.1826H43.3198C42.9767 56.1826 42.6748 56.4076 42.5755 56.7376L42.0636 58.4532H46.7042C44.8948 60.6414 41.0248 65.3251 39.7517 66.8626C38.7673 68.0532 39.0861 69.6245 40.723 69.6245H47.9042L48.583 67.3539H43.693C45.4255 65.2576 49.3386 60.5214 50.6436 58.9426H50.6417Z" fill="#606F7F"/>
<path d="M18.0868 56.1786L15.2612 65.7243C15.1693 66.7255 16.1199 67.153 16.5662 67.228L16.5212 67.3536H16.2699H16.0506H14.7774H13.5756H13.5231C13.3018 67.3536 13.0356 67.3368 12.9437 67.213C12.8818 67.1305 12.8818 66.9861 12.9418 66.7818L16.0806 56.1768H12.3531L9.45244 65.9755C8.76806 68.2874 9.25744 69.6224 11.5412 69.6224H17.8299L21.8087 56.1786H18.0849H18.0868Z" fill="#606F7F"/>
<path d="M4.02772 67.2389C3.96772 67.1583 3.96585 67.0177 4.02022 66.8208L7.77585 54.1064C8.2971 52.3402 7.26022 51.4927 4.58647 51.4927L0.287096 66.0033C-0.114155 67.3608 -0.0954049 68.3096 0.347096 68.9021C0.722096 69.4046 1.38584 69.6483 2.37585 69.6483H7.71397L8.39085 67.3795H4.6071C4.38585 67.3795 4.12147 67.3627 4.02772 67.2389Z" fill="#606F7F"/>
<path d="M80.5461 56.1802H76.5318C75.1461 56.1802 74.0718 56.8589 73.7043 58.0983L71.3718 65.9771C70.9705 67.3364 70.9893 68.2852 71.4299 68.8758C71.8049 69.3783 72.4686 69.6221 73.4605 69.6221H80.0605L80.7318 67.3514H75.4424C75.2211 67.3533 74.9568 67.3383 74.863 67.2127C74.8011 67.1321 74.8011 66.9858 74.8611 66.7833L75.583 64.3458H78.9993C80.503 64.3458 81.5061 63.6464 81.898 62.3245L82.6349 59.827C83.0924 58.2802 83.383 56.1802 80.5461 56.1802ZM79.198 59.0189L78.2455 62.212C78.0861 62.7558 77.8068 62.8477 77.2386 62.8477H75.058L75.0843 62.7614C75.4743 62.7033 76.1005 62.5027 76.2993 61.8352L77.1393 59.0039C77.2518 58.6233 77.4918 58.4489 78.0599 58.4489H78.6149C79.1061 58.4489 79.348 58.5052 79.198 59.0189Z" fill="#606F7F"/>
<path d="M13.8299 51.5775C13.8956 51.5775 13.9537 51.5419 13.9799 51.4837C17.7599 43.4044 23.2313 34.2206 30.405 26.8106C40.1775 16.7138 48.7781 14.1169 54.2925 14.01C49.8244 6.07125 45.2306 0.133125 41.8144 0.009375H41.5669C41.6494 0.005625 41.7319 0.005625 41.8144 0.009375H41.8463C41.7731 0.005625 41.7 0 41.625 0C37.7944 0 34.065 5.66625 29.5594 13.965C23.9475 24.3 18.1481 38.7169 13.6574 51.3525C13.6181 51.4613 13.7062 51.5775 13.8281 51.5775H13.8299Z" fill="#606F7F"/>
<path d="M56.2227 17.5759C51.7377 17.1409 47.3089 18.8154 43.9658 20.6416C53.8189 25.1847 61.7277 34.1604 68.2602 46.6535C68.2902 46.7116 68.3521 46.7491 68.4196 46.7491C68.5377 46.7491 68.6146 46.6366 68.5733 46.5279C64.4296 35.6885 61.8102 28.316 56.2227 17.5759Z" fill="#606F7F"/>
<path d="M23.9347 67.215C23.8729 67.1325 23.8729 66.9881 23.9329 66.7837L26.2072 59.085C26.3647 58.545 26.5972 58.4493 27.171 58.4493H29.751C30.0941 58.4493 30.396 58.2243 30.4954 57.8943L31.0072 56.1787H25.6447C24.1391 56.1787 23.1379 56.8781 22.746 58.2L20.4435 65.9775C20.0404 67.3368 20.0591 68.2856 20.5016 68.8781C20.8766 69.3806 21.5404 69.6243 22.5322 69.6243H27.3491L28.026 67.3556H24.516C24.2947 67.3556 24.0285 67.3387 23.9366 67.215H23.9347Z" fill="#606F7F"/>
<path d="M40.6255 56.925C40.2505 56.4243 39.5867 56.1787 38.5967 56.1787H34.6067C33.1011 56.1787 32.0998 56.8781 31.708 58.2L29.4055 65.9775C29.0042 67.3387 29.023 68.2875 29.4636 68.8781C29.8386 69.3806 30.5023 69.6243 31.4942 69.6243H35.4842C36.988 69.6243 37.9911 68.925 38.383 67.6031L40.6836 59.8256C41.0867 58.4662 41.068 57.5175 40.6255 56.925ZM37.2223 59.0193L34.9461 66.7181C34.7867 67.2618 34.5073 67.3537 33.9392 67.3537H33.4517C33.2305 67.3556 32.9642 67.3387 32.8705 67.215C32.8105 67.1325 32.8086 66.9881 32.8686 66.7837L35.143 59.085C35.3023 58.5412 35.5836 58.4493 36.1517 58.4493H36.6392C36.8605 58.4475 37.1267 58.4643 37.2186 58.5881C37.2805 58.6706 37.2805 58.815 37.2223 59.0193Z" fill="#606F7F"/>
<path d="M60.8522 56.9264C60.4772 56.4239 59.8115 56.1802 58.8215 56.1802H53.1872C52.844 56.1802 52.5403 56.4071 52.4428 56.7371L51.9365 58.4508H56.8378C57.059 58.4489 57.3253 58.4658 57.419 58.5896C57.479 58.6721 57.4809 58.8164 57.4209 59.0208L56.7009 61.4508H53.2584C51.7547 61.4508 50.7515 62.1502 50.3615 63.472L49.6209 65.9771C49.1615 67.5239 48.8709 69.6239 51.7078 69.6239H58.0097L60.9103 59.827C61.3115 58.4677 61.2928 57.5189 60.8522 56.9264ZM54.9778 67.3552H53.6653C53.1759 67.3552 52.9322 67.2989 53.0822 66.7852L54.0365 63.5845C54.1959 63.0408 54.4753 62.9489 55.0434 62.9489H56.2828L54.9778 67.3552Z" fill="#606F7F"/>
<path d="M70.5609 51.3652L69.1415 56.1784H65.7046C64.199 56.1784 63.1977 56.8777 62.8059 58.1996L60.5034 65.9771C60.1002 67.3384 60.1209 68.2871 60.5615 68.8777C60.9365 69.3802 61.6002 69.624 62.5921 69.624H68.8809L73.5627 53.8271C74.1177 51.9521 72.734 51.3652 70.5609 51.3652ZM65.8565 67.3534H64.5496C64.3284 67.3534 64.0621 67.3384 63.9684 67.2146C63.9084 67.1321 63.9065 66.9877 63.9684 66.7834L66.2427 59.0846C66.4021 58.5409 66.6834 58.449 67.2496 58.449H68.4909L65.8584 67.3534H65.8565Z" fill="#606F7F"/>
<path d="M50.6417 58.9426C51.6261 57.752 51.3073 56.1826 49.6705 56.1826H43.3198C42.9767 56.1826 42.6748 56.4076 42.5755 56.7376L42.0636 58.4532H46.7042C44.8948 60.6414 41.0248 65.3251 39.7517 66.8626C38.7673 68.0532 39.0861 69.6245 40.723 69.6245H47.9042L48.583 67.3539H43.693C45.4255 65.2576 49.3386 60.5214 50.6436 58.9426H50.6417Z" fill="#606F7F"/>
<path d="M18.0868 56.1786L15.2612 65.7243C15.1693 66.7255 16.1199 67.153 16.5662 67.228L16.5212 67.3536H16.2699H16.0506H14.7774H13.5756H13.5231C13.3018 67.3536 13.0356 67.3368 12.9437 67.213C12.8818 67.1305 12.8818 66.9861 12.9418 66.7818L16.0806 56.1768H12.3531L9.45244 65.9755C8.76806 68.2874 9.25744 69.6224 11.5412 69.6224H17.8299L21.8087 56.1786H18.0849H18.0868Z" fill="#606F7F"/>
<path d="M4.02772 67.2389C3.96772 67.1583 3.96585 67.0177 4.02022 66.8208L7.77585 54.1064C8.2971 52.3402 7.26022 51.4927 4.58647 51.4927L0.287096 66.0033C-0.114155 67.3608 -0.0954049 68.3096 0.347096 68.9021C0.722096 69.4046 1.38584 69.6483 2.37585 69.6483H7.71397L8.39085 67.3795H4.6071C4.38585 67.3795 4.12147 67.3627 4.02772 67.2389Z" fill="#606F7F"/>
<path d="M80.5461 56.1802H76.5318C75.1461 56.1802 74.0718 56.8589 73.7043 58.0983L71.3718 65.9771C70.9705 67.3364 70.9893 68.2852 71.4299 68.8758C71.8049 69.3783 72.4686 69.6221 73.4605 69.6221H80.0605L80.7318 67.3514H75.4424C75.2211 67.3533 74.9568 67.3383 74.863 67.2127C74.8011 67.1321 74.8011 66.9858 74.8611 66.7833L75.583 64.3458H78.9993C80.503 64.3458 81.5061 63.6464 81.898 62.3245L82.6349 59.827C83.0924 58.2802 83.383 56.1802 80.5461 56.1802ZM79.198 59.0189L78.2455 62.212C78.0861 62.7558 77.8068 62.8477 77.2386 62.8477H75.058L75.0843 62.7614C75.4743 62.7033 76.1005 62.5027 76.2993 61.8352L77.1393 59.0039C77.2518 58.6233 77.4918 58.4489 78.0599 58.4489H78.6149C79.1061 58.4489 79.348 58.5052 79.198 59.0189Z" fill="#606F7F"/>
</g>
<defs>
<clipPath id="clip0_600_8735">
<rect width="83.0625" height="69.75" fill="white"/>
</clipPath>
</defs>
</svg>
