<svg width="161" height="36" viewBox="0 0 161 36" fill="none" xmlns="http://www.w3.org/2000/svg">
<path d="M128.631 20.5692C128.631 21.2766 129.206 21.849 129.91 21.849C130.615 21.849 131.209 21.2766 131.209 20.5692C131.209 19.8618 130.637 19.2705 129.91 19.2705C129.184 19.2705 128.631 19.8429 128.631 20.5692ZM130.899 24.3735H128.947V34.4715H130.899V24.3735ZM86.3973 3.0111C86.3973 3.7185 86.9697 4.2909 87.6771 4.2909C88.3845 4.2909 88.9758 3.7185 88.9758 3.0111C88.9758 2.3037 88.4034 1.7124 87.6771 1.7124C86.9508 1.7124 86.3973 2.2848 86.3973 3.0111ZM146.788 28.6368C146.788 27.1032 147.585 25.8666 149.14 25.8666C150.903 25.8666 151.492 27.0006 151.492 28.4073V34.4742H153.465V28.0725C153.465 25.8261 152.269 24.0846 149.855 24.0846C148.681 24.0846 147.482 24.5679 146.748 25.8261V24.3789H144.817V34.4769H146.791V28.6422L146.788 28.6368ZM138.013 33.0243C136.334 33.0243 134.865 31.7634 134.865 29.4144C134.865 27.0654 136.334 25.8261 138.013 25.8261C139.693 25.8261 141.161 27.0843 141.161 29.4144C141.161 31.7445 139.693 33.0243 138.013 33.0243ZM138.013 24.0603C134.989 24.0603 132.848 26.3472 132.848 29.4144C132.848 32.4816 134.989 34.7874 138.013 34.7874C141.037 34.7874 143.178 32.5005 143.178 29.4144C143.178 26.3283 141.037 24.0603 138.013 24.0603ZM124.705 21.1848H122.899V22.821C122.899 23.7039 122.437 24.3735 121.346 24.3735H120.801V26.1582H122.731V31.7013C122.731 33.5265 123.822 34.5768 125.545 34.5768C126.217 34.5768 126.719 34.4499 126.889 34.3878V32.7084C126.722 32.7516 126.365 32.7921 126.112 32.7921C125.083 32.7921 124.705 32.3304 124.705 31.407V26.1582H126.889V24.3735H124.705V21.1821V21.1848ZM114.672 33.1296C113.665 33.1296 113.035 32.4168 113.035 31.6608C113.035 30.759 113.665 30.2757 114.504 30.1488L117.59 29.6871V30.1488C117.59 32.352 116.289 33.1296 114.672 33.1296ZM111.019 31.7661C111.019 33.3618 112.342 34.7901 114.399 34.7901C116.205 34.7901 117.212 33.8235 117.652 33.1107C117.652 33.8451 117.715 34.2231 117.758 34.4742H119.688C119.648 34.2231 119.561 33.6966 119.561 32.8164V27.7566C119.561 25.7829 118.387 24.063 115.363 24.063C113.179 24.063 111.437 25.4076 111.226 27.3381L113.116 27.7782C113.243 26.6037 114.018 25.7424 115.403 25.7424C116.937 25.7424 117.588 26.5605 117.588 27.5487C117.588 27.9051 117.42 28.221 116.81 28.3047L114.08 28.7043C112.339 28.9554 111.016 29.9652 111.016 31.7688M110.427 24.3789H108.308L105.411 32.1657L102.535 24.3789H100.31L104.404 34.4769H106.399L110.43 24.3789H110.427ZM94.9779 33.027C93.2985 33.027 91.8297 31.7661 91.8297 29.4171C91.8297 27.0681 93.2985 25.8288 94.9779 25.8288C96.6573 25.8288 98.1261 27.087 98.1261 29.4171C98.1261 31.7472 96.6573 33.027 94.9779 33.027ZM94.9779 24.063C91.9539 24.063 89.8128 26.3499 89.8128 29.4171C89.8128 32.4843 91.9539 34.7901 94.9779 34.7901C98.0019 34.7901 100.143 32.5032 100.143 29.4171C100.143 26.331 98.0019 24.063 94.9779 24.063ZM81.3969 28.6395C81.3969 27.1059 82.1934 25.8693 83.7486 25.8693C85.5117 25.8693 86.1003 27.0033 86.1003 28.41V34.4769H88.074V28.0752C88.074 25.8288 86.8779 24.0873 84.4641 24.0873C83.2896 24.0873 82.0935 24.5706 81.3564 25.8288V24.3816H79.4259V34.4796H81.3996V28.6449L81.3969 28.6395ZM70.3755 28.6395C70.3755 27.1059 71.172 25.8693 72.7272 25.8693C74.4903 25.8693 75.0789 27.0033 75.0789 28.41V34.4769H77.0526V28.0752C77.0526 25.8288 75.8565 24.0873 73.4427 24.0873C72.2682 24.0873 71.0694 24.5706 70.335 25.8288V24.3816H68.4045V34.4796H70.3782V28.6449L70.3755 28.6395ZM66.0312 19.5918H63.9333V34.4742H66.0312V19.5918ZM104.46 11.0787C104.46 9.5451 105.257 8.3085 106.812 8.3085C108.575 8.3085 109.164 9.4425 109.164 10.8492V16.9161H111.137V10.5144C111.137 8.268 109.941 6.5265 107.527 6.5265C106.353 6.5265 105.157 7.0098 104.42 8.268V6.8208H102.489V16.9188H104.463V11.0841L104.46 11.0787ZM95.7744 15.4662C94.095 15.4662 92.6262 14.2053 92.6262 11.8563C92.6262 9.5073 94.095 8.2653 95.7744 8.2653C97.4538 8.2653 98.9226 9.5262 98.9226 11.8563C98.9226 14.1864 97.4538 15.4662 95.7744 15.4662ZM95.7744 6.5022C92.7504 6.5022 90.6093 8.7891 90.6093 11.8563C90.6093 14.9235 92.7504 17.2293 95.7744 17.2293C98.7984 17.2293 100.939 14.9397 100.939 11.8563C100.939 8.7729 98.7984 6.5022 95.7744 6.5022ZM88.6599 6.8181H86.7078V16.9161H88.6599V6.8127V6.8181ZM85.1769 6.7128C85.0716 6.6912 84.7989 6.6507 84.5262 6.6507C83.4975 6.6507 82.2393 7.0287 81.5022 8.5812V6.8181H79.5717V16.9161H81.5454V11.8563C81.5454 9.6315 82.6578 8.7486 84.3156 8.7486C84.5883 8.7486 84.8826 8.7702 85.1769 8.8107V6.7128ZM65.0889 9.4614C65.0889 5.5788 67.6917 3.6051 70.4619 3.6051C73.2321 3.6051 75.8349 5.5788 75.8349 9.4614C75.8349 13.344 73.2321 15.3393 70.4619 15.3393C67.6917 15.3393 65.0889 13.344 65.0889 9.4614ZM62.9883 9.4614C62.9883 14.4375 66.7251 17.2293 70.4619 17.2293C74.1987 17.2293 77.9355 14.4375 77.9355 9.4614C77.9355 4.4853 74.1987 1.7151 70.4619 1.7151C66.7251 1.7151 62.9883 4.4853 62.9883 9.4614Z" fill="#606F7F"/>
<path d="M55.8739 1.81787H46.6804L35.4214 34.4852H44.6338L55.8739 1.81787Z" fill="#606F7F"/>
<path d="M20.323 35.089C10.9837 35.089 3.41016 27.5182 3.41016 18.1762C3.41016 8.83421 10.9837 1.26611 20.323 1.26611C29.6623 1.26611 37.2358 8.83692 37.2358 18.1789C37.2358 27.5209 29.665 35.0917 20.323 35.0917M28.8415 18.1627C28.8415 13.489 25.0534 9.70091 20.3797 9.70091C15.706 9.70091 11.9179 13.489 11.9179 18.1627C11.9179 22.8364 15.706 26.6245 20.3797 26.6245C25.0534 26.6245 28.8415 22.8364 28.8415 18.1627Z" fill="#606F7F"/>
<path d="M154.661 27.9226V27.0735H155.092C155.126 27.0735 155.164 27.0835 155.205 27.1034C155.245 27.1226 155.28 27.1525 155.308 27.1932C155.337 27.2331 155.352 27.2837 155.352 27.3451C155.352 27.4072 155.337 27.4601 155.307 27.5038C155.277 27.5468 155.241 27.5794 155.198 27.6016C155.155 27.6239 155.116 27.635 155.078 27.635H154.767V27.4969H155.02C155.046 27.4969 155.073 27.4843 155.102 27.459C155.132 27.4337 155.147 27.3957 155.147 27.3451C155.147 27.2929 155.132 27.2576 155.102 27.2392C155.073 27.2208 155.047 27.2116 155.025 27.2116H154.848V27.9226H154.661ZM155.175 27.5222L155.386 27.9226H155.181L154.974 27.5222H155.175ZM154.984 28.4289C154.856 28.4289 154.737 28.4051 154.626 28.3576C154.515 28.31 154.417 28.244 154.332 28.1597C154.248 28.0753 154.182 27.9775 154.134 27.8663C154.087 27.755 154.063 27.6358 154.063 27.5084C154.063 27.3811 154.087 27.2618 154.134 27.1506C154.182 27.0394 154.248 26.9416 154.332 26.8572C154.417 26.7728 154.515 26.7069 154.626 26.6593C154.737 26.6118 154.856 26.588 154.984 26.588C155.111 26.588 155.23 26.6118 155.341 26.6593C155.453 26.7069 155.55 26.7728 155.635 26.8572C155.719 26.9416 155.785 27.0394 155.833 27.1506C155.88 27.2618 155.904 27.3811 155.904 27.5084C155.904 27.6358 155.88 27.755 155.833 27.8663C155.785 27.9775 155.719 28.0753 155.635 28.1597C155.55 28.244 155.453 28.31 155.341 28.3576C155.23 28.4051 155.111 28.4289 154.984 28.4289ZM154.984 28.208C155.112 28.208 155.23 28.1765 155.336 28.1136C155.442 28.0507 155.526 27.9664 155.589 27.8605C155.652 27.7547 155.683 27.6373 155.683 27.5084C155.683 27.3796 155.652 27.2622 155.589 27.1564C155.526 27.0505 155.442 26.9661 155.336 26.9032C155.23 26.8403 155.112 26.8089 154.984 26.8089C154.855 26.8089 154.737 26.8403 154.632 26.9032C154.526 26.9661 154.441 27.0505 154.378 27.1564C154.316 27.2622 154.284 27.3796 154.284 27.5084C154.284 27.6373 154.316 27.7547 154.378 27.8605C154.441 27.9664 154.526 28.0507 154.632 28.1136C154.737 28.1765 154.855 28.208 154.984 28.208Z" fill="#606F7F"/>
</svg>
