<svg width="173" height="56" viewBox="0 0 173 56" fill="none" xmlns="http://www.w3.org/2000/svg">
<path d="M18.4299 18.6748H24.9032C28.6674 18.6748 31.7567 20.5446 31.7567 24.8533C31.7567 29.1621 28.6427 31.0611 24.9032 31.0611H22.2212V37.1068H18.4299V18.6748ZM24.7952 27.7266C26.6649 27.7266 27.8552 26.8873 27.8552 24.8533C27.8552 22.7946 26.6109 22.0093 24.7952 22.0093H22.2212V27.7243H24.7952V27.7266Z" fill="#606F7F"/>
<path d="M37.3254 18.6748H49.5114V22.0093H41.1167V26.2348H48.5124V29.4861H41.1167V33.7701H49.8939V37.1046H37.3277V18.6748H37.3254Z" fill="#606F7F"/>
<path d="M56.2727 18.6748H60.064V33.7723H68.407V37.1068H56.2727V18.6748Z" fill="#606F7F"/>
<path d="M72.6392 27.8887C72.6392 22.4414 76.8647 18.4297 82.1724 18.4297C87.4802 18.4297 91.7034 22.4414 91.7034 27.8887C91.7034 33.3359 87.4802 37.3477 82.1724 37.3477C76.8647 37.3499 72.6392 33.3359 72.6392 27.8887ZM87.8064 27.8887C87.8064 24.4484 85.5317 21.8182 82.1747 21.8182C78.8154 21.8182 76.5407 24.4484 76.5407 27.8887C76.5407 31.3312 78.8154 33.9614 82.1747 33.9614C85.5317 33.9614 87.8064 31.3312 87.8064 27.8887Z" fill="#606F7F"/>
<path d="M101.045 22.0093H95.7917V18.6748H110.093V22.0093H104.839V37.1046H101.045V22.0093Z" fill="#606F7F"/>
<path d="M114.152 27.8887C114.152 22.4414 118.377 18.4297 123.687 18.4297C128.995 18.4297 133.22 22.4414 133.22 27.8887C133.22 33.3359 128.995 37.3477 123.687 37.3477C118.377 37.3499 114.152 33.3359 114.152 27.8887ZM129.319 27.8887C129.319 24.4484 127.044 21.8182 123.685 21.8182C120.326 21.8182 118.051 24.4484 118.051 27.8887C118.051 31.3312 120.326 33.9614 123.685 33.9614C127.044 33.9614 129.319 31.3312 129.319 27.8887Z" fill="#606F7F"/>
<path d="M144.801 28.539C143.881 27.6727 142.607 26.019 142.607 26.019C142.607 26.019 142.88 28.0507 142.88 29.3805V37.107H139.331V18.5107H139.709L149 27.2407C149.893 28.08 151.166 29.7585 151.166 29.7585C151.166 29.7585 150.923 27.6727 150.923 26.3992V18.675H154.469V37.2667H154.094L144.801 28.539Z" fill="#606F7F"/>
</svg>
