<svg width="153" height="35" viewBox="0 0 153 35" fill="none" xmlns="http://www.w3.org/2000/svg">
<g clip-path="url(#clip0_600_8776)">
<path d="M39.8164 30.0133V8.68315H31.9446V3.88086H53.4793V8.68315H45.5731V30.0113H39.8164V30.0133Z" fill="#606F7F"/>
<path d="M48.7822 30.0133V11.2938H54.4681V14.3327H54.5044C55.5276 12.7434 57.3292 10.8022 60.8616 10.8022H61.0375V15.8512C60.8252 15.8168 59.8365 15.7461 59.4846 15.7461C57.224 15.7461 55.5295 16.9471 54.47 18.3241V30.0133H48.7841H48.7822Z" fill="#606F7F"/>
<path d="M62.8335 8.61222V4.05664H68.5538V8.61222H62.8335ZM62.8679 30.0131V11.1903H68.5174V30.0112H62.8679V30.0131Z" fill="#606F7F"/>
<path d="M70.7417 30.0133V11.1905H76.4275V14.1568C77.5578 12.6746 79.6405 10.8022 82.6068 10.8022C85.749 10.8022 87.2331 12.1085 87.7629 14.1568C88.8932 12.709 91.0122 10.8022 93.9785 10.8022C97.7921 10.8022 99.4865 13.2043 99.4865 16.5589V30.0133H93.8007V18.0774C93.8007 16.3829 93.4124 15.4993 91.7524 15.4993C90.339 15.4993 89.2107 16.2758 87.9733 17.3717V30.0133H82.2874V18.0774C82.2874 16.3829 81.8992 15.4993 80.2391 15.4993C78.8258 15.4993 77.6974 16.2758 76.4256 17.3717V30.0133H70.7397H70.7417Z" fill="#606F7F"/>
<path d="M107.32 27.7871V30.0113H101.634V3.88086H107.32V14.086C108.556 12.3551 110.323 10.8022 113.111 10.8022C117.384 10.8022 120.35 14.086 120.35 20.5846C120.35 27.0833 117.349 30.2963 113.04 30.2963C110.499 30.2963 108.732 29.3783 107.32 27.789V27.7871ZM114.666 20.6191C114.666 17.4768 113.572 15.4993 111.028 15.4993C109.581 15.4993 108.274 16.3829 107.32 17.3353V24.2911C108.556 25.4558 109.581 26.0219 111.099 26.0219C113.465 26.0219 114.666 24.0443 114.666 20.6191Z" fill="#606F7F"/>
<path d="M122.109 30.0133V3.88086H127.759V30.0133H122.109Z" fill="#606F7F"/>
<path d="M129.522 20.6191C129.522 13.3095 135.101 10.8022 138.985 10.8022C142.87 10.8022 147.637 12.7434 147.637 21.2904V22.1376H135.172C135.455 25.2454 137.184 26.4465 139.551 26.4465C141.776 26.4465 143.86 25.3525 145.132 24.1859L147.322 27.5768C145.132 29.4491 142.412 30.4015 139.129 30.4015C134.219 30.4015 129.524 27.8943 129.524 20.6191H129.522ZM142.552 18.7831C142.269 16.1343 141.07 14.8625 138.951 14.8625C137.186 14.8625 135.667 16.0272 135.243 18.7831H142.552Z" fill="#606F7F"/>
<path d="M148.71 27.8883C148.71 26.6816 149.657 25.7349 150.864 25.7349C152.071 25.7349 153 26.672 153 27.8788C153 29.0856 152.063 30.0418 150.856 30.0418C149.649 30.0418 148.71 29.1047 148.71 27.8883ZM152.629 27.8883C152.629 26.8766 151.858 26.0868 150.856 26.0868C149.854 26.0868 149.093 26.8671 149.093 27.8788C149.093 28.8905 149.864 29.6899 150.866 29.6899C151.868 29.6899 152.629 28.9096 152.629 27.8883ZM150.03 26.6643H150.912C151.468 26.6643 151.793 26.9053 151.793 27.3892C151.793 27.7698 151.608 27.9648 151.329 28.0566L151.839 29.0225H151.348L150.873 28.1217H150.502V29.0225H150.03V26.6643ZM150.883 27.7602C151.17 27.7602 151.329 27.6665 151.329 27.416C151.329 27.1845 151.172 27.0813 150.873 27.0813H150.502V27.7583H150.883V27.7602Z" fill="#606F7F"/>
<path d="M2.13257 26.2988V34.4193L9.19161 30.3438C6.48159 29.7605 4.01829 28.3471 2.13257 26.2988Z" fill="#606F7F"/>
<path d="M9.13997 4.0392L2.13257 0V8.07266C4.09862 5.9364 6.62886 4.59 9.14188 4.04111L9.13997 4.0392Z" fill="#606F7F"/>
<path d="M31.9409 17.2108C31.6062 17.0176 25.2931 13.3724 24.8819 13.1353C25.7119 15.7707 25.7157 18.6337 24.8608 21.2978L31.9409 17.2108Z" fill="#606F7F"/>
<path d="M6.78174 6.17005C7.79536 5.94438 9.8972 6.15858 11.0084 6.47414C11.8977 5.76652 13.2403 5.35724 14.579 5.2903C11.5037 4.73759 8.65981 5.3821 6.78174 6.17197V6.17005Z" fill="#606F7F"/>
<path d="M20.2344 20.9399C20.0737 19.4692 19.7084 17.9258 19.1308 16.4226C16.7115 17.5147 13.7204 16.8109 11.7199 15.0781C10.2626 16.568 8.85115 18.4231 7.78589 20.0736C11.1768 22.8371 16.7536 23.5639 20.2344 20.938V20.9399Z" fill="#606F7F"/>
<path d="M5.93268 20.3376C2.94344 17.2776 1.90113 12.8119 2.85929 9.38086C-1.19712 14.1659 -0.910245 21.2766 3.56501 25.7193C4.05461 23.8661 4.95922 21.9785 5.93459 20.3376H5.93268Z" fill="#606F7F"/>
<path d="M18.5725 15.1262C17.9413 13.8009 17.1343 12.5367 16.1512 11.4141C15.0611 12.1389 13.8964 13.0301 12.7432 14.0916C14.5447 15.5948 16.9143 15.8893 18.5725 15.1281V15.1262Z" fill="#606F7F"/>
<path d="M16.3405 9.53971C17.1169 8.97552 18.1918 8.37117 18.9625 8.0862C17.05 6.15075 13.9728 6.20239 12.634 7.04198C13.9862 7.64059 15.2216 8.46871 16.3405 9.53971Z" fill="#606F7F"/>
<path d="M7.02079 21.3228C5.53286 23.8951 4.99162 25.7827 4.79272 26.7868C9.20486 30.1222 15.344 30.0246 19.6548 26.5152C20.1004 25.4346 20.3299 24.0921 20.328 22.6156C16.2276 25.056 10.5551 24.1188 7.02079 21.3228Z" fill="#606F7F"/>
<path d="M19.758 14.2693C21.0738 12.8866 20.8099 10.5361 19.8097 9.18018C19.1919 9.38864 17.9086 10.1364 17.354 10.6184C18.2567 11.6798 19.0925 12.9268 19.758 14.2693Z" fill="#606F7F"/>
<path d="M22.0359 11.3071C22.2386 13.0838 21.5654 14.6196 20.3701 15.6428C20.8941 16.9509 21.2805 18.3184 21.51 19.6896C23.3173 17.343 23.2618 13.9923 22.0359 11.309V11.3071Z" fill="#606F7F"/>
<path d="M11.7583 13.0457C12.8828 12.0073 14.0284 11.1103 15.1281 10.3625C14.0131 9.3527 12.7451 8.5877 11.4044 8.09619C10.3009 9.59942 10.6452 11.5425 11.7602 13.0457H11.7583Z" fill="#606F7F"/>
<path d="M21.7261 21.5787C21.7873 22.5866 21.6955 23.7284 21.5769 24.6349C23.6424 22.0033 24.3405 18.7425 24.0976 16.2046C23.8509 18.3428 23.0667 20.1329 21.7261 21.5787Z" fill="#606F7F"/>
<path d="M10.0158 7.66934C8.49154 7.2964 6.71483 7.2811 5.23073 7.69994C2.86114 11.0602 3.96083 15.9868 6.72248 19.0736C7.77244 17.4766 9.29096 15.4857 10.7311 14.0399C9.32539 12.2976 8.76885 9.60096 10.0158 7.66934Z" fill="#606F7F"/>
</g>
<defs>
<clipPath id="clip0_600_8776">
<rect width="153" height="34.4212" fill="white"/>
</clipPath>
</defs>
</svg>
