<svg width="77" height="87" viewBox="0 0 77 87" fill="none" xmlns="http://www.w3.org/2000/svg">
<path d="M62.775 17.6247C59.475 17.3247 55.95 17.0997 52.425 17.0997C39.375 17.0997 25.275 19.9497 13.725 30.5247V48.7497C13.725 54.6747 15.9 59.6247 20.1 62.9997C23.775 65.9997 35.1 71.0997 38.25 72.5247C41.4 71.1747 52.65 66.0747 56.4 62.9997C60.6 59.5497 62.775 54.7497 62.775 48.7497V17.6247ZM16.125 46.8747V32.0997H20.85V47.0997C20.85 48.4497 21.15 50.3997 23.325 50.3997C24.3 50.3997 25.05 50.1747 25.575 49.7997V32.0997H30.3V52.4997C28.5 53.6997 26.1 54.3747 23.25 54.3747C18.45 54.3747 16.125 51.8247 16.125 46.8747ZM37.35 63.8997H32.625V33.2997C34.35 32.1747 36.375 31.6497 38.925 31.6497C44.55 31.6497 47.625 35.9247 47.625 42.7497C47.625 49.5747 44.625 54.2997 39.45 54.2997C38.475 54.2997 37.8 54.1497 37.35 53.9997V63.8997ZM37.35 50.1747C37.65 50.3247 38.25 50.4747 38.85 50.4747C41.55 50.4747 42.825 47.9997 42.825 42.8247C42.825 37.5747 41.7 35.3997 39 35.3997C38.4 35.3997 37.725 35.5497 37.35 35.7747V50.1747ZM48.675 37.7247C48.675 33.8997 51.9 31.7247 54.975 31.5747C57.525 31.4997 59.325 32.4747 60.15 33.0747V37.1247C59.175 36.1497 57.6 35.1747 55.95 35.1747C54.6 35.1747 53.25 35.7747 53.175 37.4247C53.1 39.1497 54.525 39.8247 56.25 40.7997C60.15 43.1247 60.9 45.1497 60.825 47.9247C60.75 50.9247 58.65 54.2247 54 54.2247C52.125 54.2247 50.325 53.6247 48.825 52.7997V48.4497C50.025 49.4997 51.825 50.3247 53.325 50.3247C55.05 50.3247 56.175 49.3497 56.175 47.6997C56.175 46.1997 55.275 45.4497 53.25 44.1747C49.425 42.1497 48.75 40.2747 48.675 37.7247ZM18.525 64.9497C13.725 61.0497 11.25 55.4247 11.25 48.7497V16.9497C18.75 12.9747 27.825 10.9497 38.25 10.9497C48.675 10.9497 57.75 12.9747 65.25 16.9497V48.7497C65.25 55.4247 62.775 61.0497 57.975 64.9497C53.625 68.4747 39.825 74.5497 38.25 75.2247C36.675 74.5497 22.875 68.4747 18.525 64.9497ZM55.5 71.6247V74.3997H56.025V73.2747H56.1C56.1 73.3497 56.85 74.3997 56.85 74.3997H57.45C57.45 74.3997 56.7 73.2747 56.625 73.1997C57 73.1247 57.225 72.8247 57.225 72.4497C57.225 72.0747 57 71.6247 56.325 71.6247H55.5ZM56.175 71.9997C56.625 71.9997 56.625 72.2247 56.625 72.3747C56.625 72.5997 56.55 72.8247 55.95 72.8247H55.875V71.9997H56.175ZM58.125 72.9747C58.125 74.0247 57.3 74.8497 56.25 74.8497C55.2 74.8497 54.375 74.0247 54.375 72.9747C54.375 71.9247 55.2 71.0997 56.25 71.0997C57.3 71.0997 58.125 71.9997 58.125 72.9747ZM56.25 70.7247C54.975 70.7247 54 71.7747 54 72.9747C54 74.2497 55.05 75.2247 56.25 75.2247C57.525 75.2247 58.5 74.1747 58.5 72.9747C58.575 71.7747 57.525 70.7247 56.25 70.7247Z" fill="#606F7F"/>
</svg>
