<svg width="246" height="50" viewBox="0 0 246 50" fill="none" xmlns="http://www.w3.org/2000/svg">
<g clip-path="url(#clip0_600_8609)">
<path d="M100.32 26.8054L108.92 14.9278C109.177 14.5677 108.971 14.2002 108.56 14.2002H103.885C103.628 14.2002 103.312 14.3031 103.157 14.5603L97.4831 22.8291L91.6692 14.5603C91.5149 14.3031 91.1988 14.2002 90.9416 14.2002H85.9509C85.6937 14.2002 85.532 14.406 85.532 14.6191C85.532 14.722 85.532 14.8249 85.6349 14.9278L94.2638 26.8422L84.7529 39.9178C84.4956 40.278 84.7014 40.6455 85.0616 40.6455H89.7876C90.0449 40.6455 90.3609 40.5426 90.5153 40.278L97.0935 30.8038L103.767 40.278C103.922 40.5352 104.238 40.6455 104.495 40.6455H109.537C109.794 40.6455 109.956 40.4397 109.956 40.2265C109.956 40.1236 109.905 40.0207 109.853 39.9178L100.32 26.8054Z" fill="#606F7F"/>
<path d="M81.1219 4.27639C81.482 4.27639 81.7466 4.53364 81.7466 4.90114V8.43649C81.7466 8.79664 81.4894 9.06124 81.1219 9.06124H64.3345V19.557H79.402C79.7695 19.557 80.0267 19.8143 80.0267 20.1818V23.6657C80.0267 24.0258 79.7695 24.2904 79.402 24.2904H64.3345V35.7711H81.1219C81.482 35.7711 81.7466 36.0284 81.7466 36.3959V40.0341C81.7466 40.4016 81.4894 40.6589 81.1219 40.6589H61.4827C59.9759 40.6589 58.8293 39.5123 58.8293 38.0055V6.92239C58.8293 5.41564 59.9759 4.26904 61.4827 4.26904H81.1219" fill="#606F7F"/>
<path d="M127.625 13.3696C122.532 13.3696 119.834 15.604 118.269 17.6841V14.8249C118.269 14.4648 118.012 14.2002 117.644 14.2002H113.535C113.175 14.2002 112.911 14.4574 112.911 14.8249V49.0686C112.911 49.4287 113.168 49.6933 113.535 49.6933H117.696C118.056 49.6933 118.32 49.4361 118.32 49.0686V37.2718C119.827 39.3519 122.532 41.4319 127.618 41.4319C135.879 41.4319 140.716 35.1991 140.716 27.4008C140.716 19.6024 135.887 13.3696 127.618 13.3696H127.625ZM126.692 36.9558C121.598 36.9558 118.122 33.5233 118.122 27.4449C118.122 21.3664 121.606 17.8311 126.692 17.8311C131.778 17.8311 135.211 21.3664 135.211 27.4449C135.211 33.5233 131.778 36.9558 126.692 36.9558Z" fill="#606F7F"/>
<path d="M157.092 13.3687C149.867 13.3687 144.104 18.5651 144.104 27.194C144.104 35.8229 149.198 41.431 157.768 41.431C162.707 41.431 166.808 39.248 169.359 36.2345C169.513 36.0802 169.565 35.9258 169.565 35.7641C169.565 35.6024 169.513 35.4554 169.359 35.2937L166.97 32.9564C166.816 32.8021 166.661 32.7506 166.5 32.7506C166.338 32.7506 166.191 32.8535 166.029 33.0079C164.052 35.1394 161.509 36.9548 157.819 36.9548C152.439 36.9548 149.852 33.64 149.455 28.8478H169.403C169.77 28.8478 170.028 28.5905 170.028 28.223V27.1867C170.028 19.2854 165.25 13.3613 157.092 13.3613V13.3687ZM149.646 24.7979C150.264 20.4614 152.535 17.6243 157.055 17.6243C161.575 17.6243 164.118 20.2777 164.486 24.7979H149.646Z" fill="#606F7F"/>
<path d="M244.336 14.1985H240.227C239.867 14.1985 239.603 14.4558 239.603 14.8233V17.7339C238.044 15.6538 235.34 13.4194 230.143 13.4194C221.985 13.4194 217.156 19.6522 217.156 27.4506C217.156 35.2489 221.992 41.4817 230.143 41.4817C235.34 41.4817 238.044 39.2473 239.603 37.1673V40.0264C239.603 40.3866 239.86 40.6512 240.227 40.6512H244.336C244.696 40.6512 244.961 40.3939 244.961 40.0264V14.8233C244.961 14.4558 244.704 14.1985 244.336 14.1985ZM231.187 37.0129C226.093 37.0129 222.668 33.4776 222.668 27.3991C222.668 21.3207 226.101 17.8882 231.187 17.8882C236.273 17.8882 239.757 21.3207 239.757 27.3991C239.757 33.4776 236.273 37.0129 231.187 37.0129Z" fill="#606F7F"/>
<path d="M200.582 4.27639H196.422C196.061 4.27639 195.797 4.53364 195.797 4.90114V17.7342C194.239 15.6542 191.585 13.4198 186.389 13.4198C178.23 13.4198 173.401 19.6526 173.401 27.4509C173.401 35.2493 178.23 41.4821 186.389 41.4821C191.585 41.4821 194.29 39.2477 195.848 37.1676V40.0268C195.848 40.3869 196.106 40.6515 196.473 40.6515H200.582C200.942 40.6515 201.206 40.3943 201.206 40.0268V4.89379C201.206 4.53364 200.949 4.26904 200.582 4.26904V4.27639ZM187.44 37.0133C182.346 37.0133 178.921 33.4779 178.921 27.3995C178.921 21.321 182.354 17.8886 187.44 17.8886C192.526 17.8886 196.01 21.321 196.01 27.3995C196.01 33.4779 192.526 37.0133 187.44 37.0133Z" fill="#606F7F"/>
<path d="M211.908 4.27734C212.268 4.27734 212.533 4.53459 212.533 4.90209V9.16509C212.533 9.52524 212.276 9.78984 211.908 9.78984H207.645C207.285 9.78984 207.02 9.53259 207.02 9.16509V4.90209C207.02 4.54194 207.278 4.27734 207.645 4.27734H211.908Z" fill="#606F7F"/>
<path d="M211.856 14.2002C212.217 14.2002 212.481 14.4574 212.481 14.8249V40.0281C212.481 40.3882 212.224 40.6528 211.856 40.6528H207.696C207.336 40.6528 207.072 40.3956 207.072 40.0281V14.8249C207.072 14.4648 207.329 14.2002 207.696 14.2002H211.856Z" fill="#606F7F"/>
<path d="M35.5078 0.507324H9.65788C4.67458 0.507324 0.63208 4.54982 0.63208 9.53312V35.3831C0.63208 40.3664 4.67458 44.4089 9.65788 44.4089H35.5078C40.4911 44.4089 44.5336 40.3664 44.5336 35.3831V9.53312C44.5336 4.54982 40.4911 0.507324 35.5078 0.507324ZM14.0532 35.8829C14.0532 36.2283 13.7739 36.5076 13.4284 36.5076H9.16543C8.81998 36.5076 8.54068 36.2283 8.54068 35.8829V31.6199C8.54068 31.2744 8.81998 30.9951 9.16543 30.9951H13.4284C13.7739 30.9951 14.0532 31.2744 14.0532 31.6199V35.8829ZM36.2134 33.1634L32.0019 37.3749C31.6932 37.6836 31.2228 37.4778 31.2228 37.0148V18.0224L19.4481 29.7971C19.2423 30.0029 19.0291 30.1058 18.669 30.1058H15.5746C15.2071 30.1058 14.9499 29.8485 14.9499 29.481V26.3793C14.9499 26.0118 15.0528 25.806 15.2586 25.6002L27.0333 13.8255H8.04823C7.57783 13.8255 7.37203 13.3625 7.68073 13.0464L11.8923 8.83487C12.1495 8.57762 12.4141 8.41592 12.8257 8.41592H33.8173C35.3755 8.41592 36.625 9.66542 36.625 11.2236V32.2226C36.625 32.6415 36.4707 32.8988 36.2061 33.156L36.2134 33.1634Z" fill="#606F7F"/>
</g>
<defs>
<clipPath id="clip0_600_8609">
<rect width="245.49" height="49.98" fill="white"/>
</clipPath>
</defs>
</svg>
