<svg width="36" height="36" viewBox="0 0 36 36" fill="none" xmlns="http://www.w3.org/2000/svg">
<g clip-path="url(#clip0_600_8860)">
<path fill-rule="evenodd" clip-rule="evenodd" d="M18 36C27.9416 36 36 27.9416 36 18C36 8.05838 27.9416 0 18 0C8.05838 0 0 8.05838 0 18C0 27.9416 8.05838 36 18 36ZM23.3246 15.3787L22.7284 19.2577H19.6009V28.6369C18.2118 28.8549 16.7971 28.8549 15.408 28.6369V19.2577H11.9993V15.3787H15.408V12.4222C15.408 9.0585 17.4105 7.2 20.4772 7.2C21.9454 7.2 23.481 7.46212 23.481 7.46212V10.7651H21.789C20.1217 10.7651 19.602 11.8001 19.602 12.861V15.3787H23.3246Z" fill="#606F7F"/>
</g>
<defs>
<clipPath id="clip0_600_8860">
<rect width="36" height="36" fill="white"/>
</clipPath>
</defs>
</svg>
