<svg width="36" height="36" viewBox="0 0 36 36" fill="none" xmlns="http://www.w3.org/2000/svg">
<g clip-path="url(#clip0_600_8866)">
<path fill-rule="evenodd" clip-rule="evenodd" d="M18 36C27.9416 36 36 27.9416 36 18C36 8.05838 27.9416 0 18 0C8.05838 0 0 8.05838 0 18C0 27.9416 8.05838 36 18 36ZM22.365 9.20925C21.2242 9.1575 20.8834 9.14625 18 9.14625C15.1166 9.14625 14.7746 9.1575 13.635 9.20925C12.5831 9.2565 12.0105 9.43312 11.6302 9.5805C11.161 9.75338 10.7366 10.0294 10.3883 10.3883C10.0297 10.7368 9.75369 11.1612 9.5805 11.6302C9.43312 12.0105 9.2565 12.5831 9.20925 13.6361C9.1575 14.7746 9.14625 15.1166 9.14625 18C9.14625 20.8845 9.1575 21.2254 9.20925 22.365C9.2565 23.4169 9.43312 23.9895 9.5805 24.3698C9.77625 24.8738 10.0103 25.2338 10.3883 25.6118C10.7663 25.9897 11.1263 26.2237 11.6302 26.4195C12.0105 26.5669 12.5831 26.7435 13.6361 26.7907C14.7746 26.8425 15.1166 26.8538 18 26.8538C20.8845 26.8538 21.2254 26.8425 22.365 26.7907C23.4169 26.7435 23.9895 26.5669 24.3698 26.4195C24.839 26.2466 25.2634 25.9706 25.6118 25.6118C25.9897 25.2338 26.2237 24.8738 26.4195 24.3698C26.5669 23.9895 26.7435 23.4169 26.7907 22.3639C26.8425 21.2254 26.8538 20.8834 26.8538 18C26.8538 15.1166 26.8425 14.7746 26.7907 13.635C26.7435 12.5831 26.5669 12.0105 26.4195 11.6302C26.2466 11.161 25.9706 10.7366 25.6118 10.3883C25.2632 10.0297 24.8388 9.75369 24.3698 9.5805C23.9895 9.43312 23.418 9.2565 22.365 9.20925ZM13.5472 7.26525C14.6993 7.21125 15.066 7.2 18 7.2C20.9329 7.2 21.3008 7.21238 22.4528 7.26525C23.6025 7.317 24.3878 7.50037 25.074 7.767C25.7952 8.0375 26.4486 8.46213 26.9888 9.01125C27.5385 9.5504 27.9639 10.2031 28.2352 10.9237C28.5019 11.6111 28.6853 12.3975 28.737 13.545C28.7899 14.6981 28.8022 15.066 28.8022 17.9989C28.8022 20.9317 28.7899 21.2996 28.737 22.4516C28.6841 23.6014 28.5019 24.3866 28.2352 25.0729C27.9638 25.7935 27.5384 26.4461 26.9888 26.9854C26.4496 27.5352 25.7969 27.9606 25.0763 28.2319C24.39 28.4996 23.6036 28.6819 22.455 28.7336C21.303 28.7865 20.9351 28.7989 18.0011 28.7989C15.0682 28.7989 14.7004 28.7876 13.5484 28.7336C12.3997 28.6819 11.6134 28.4996 10.9271 28.2319C10.2066 27.9608 9.55396 27.5358 9.01462 26.9865C8.46488 26.4473 8.03947 25.7946 7.76813 25.074C7.5015 24.3866 7.31813 23.6003 7.26638 22.4528C7.21125 21.2996 7.2 20.9317 7.2 18C7.2 15.0682 7.21238 14.6993 7.26525 13.5472C7.317 12.3975 7.50037 11.6123 7.767 10.926C8.03802 10.2055 8.46303 9.55279 9.01237 9.0135C9.55155 8.46375 10.2042 8.03835 10.9249 7.767C11.6123 7.50037 12.3997 7.317 13.5472 7.26525ZM17.9989 12.4537C16.5279 12.4537 15.1172 13.0381 14.0771 14.0782C13.037 15.1183 12.4526 16.529 12.4526 18C12.4526 19.471 13.037 20.8817 14.0771 21.9218C15.1172 22.9619 16.5279 23.5462 17.9989 23.5462C19.4698 23.5462 20.8805 22.9619 21.9207 21.9218C22.9608 20.8817 23.5451 19.471 23.5451 18C23.5451 16.529 22.9608 15.1183 21.9207 14.0782C20.8805 13.0381 19.4698 12.4537 17.9989 12.4537ZM17.9989 21.6C17.0441 21.6 16.1284 21.2207 15.4533 20.5456C14.7782 19.8705 14.3989 18.9548 14.3989 18C14.3989 17.0452 14.7782 16.1295 15.4533 15.4544C16.1284 14.7793 17.0441 14.4 17.9989 14.4C18.9537 14.4 19.8693 14.7793 20.5445 15.4544C21.2196 16.1295 21.5989 17.0452 21.5989 18C21.5989 18.9548 21.2196 19.8705 20.5445 20.5456C19.8693 21.2207 18.9537 21.6 17.9989 21.6ZM25.0616 12.2332C25.0616 12.577 24.9251 12.9066 24.682 13.1497C24.439 13.3927 24.1093 13.5293 23.7656 13.5293C23.4219 13.5293 23.0923 13.3927 22.8492 13.1497C22.6062 12.9066 22.4696 12.577 22.4696 12.2332C22.4696 11.8895 22.6062 11.5599 22.8492 11.3168C23.0923 11.0738 23.4219 10.9373 23.7656 10.9373C24.1093 10.9373 24.439 11.0738 24.682 11.3168C24.9251 11.5599 25.0616 11.8895 25.0616 12.2332Z" fill="#606F7F"/>
</g>
<defs>
<clipPath id="clip0_600_8866">
<rect width="36" height="36" fill="white"/>
</clipPath>
</defs>
</svg>
