<svg width="36" height="36" viewBox="0 0 36 36" fill="none" xmlns="http://www.w3.org/2000/svg">
<g clip-path="url(#clip0_600_8862)">
<path fill-rule="evenodd" clip-rule="evenodd" d="M36 18C36 27.9411 27.9411 36 18 36C8.05887 36 0 27.9411 0 18C0 8.05887 8.05887 0 18 0C27.9411 0 36 8.05887 36 18ZM9.32445 13.7755H13.3621V27.0021H9.32445V13.7755ZM11.3433 7.2C12.6368 7.2 13.6844 8.26788 13.6844 9.58386C13.6844 10.8998 12.6347 11.9655 11.3412 11.9655C10.0476 11.9655 9 10.8998 9 9.58386C9 8.26788 10.0476 7.2 11.3412 7.2H11.3433ZM19.4757 13.7755H15.6034V26.9979H19.6411V20.4569C19.6411 18.7331 19.9888 17.0611 22.0629 17.0611C24.1368 17.0611 24.1644 19.0352 24.1644 20.569V27H28.2021V19.747C28.2021 16.1874 27.4471 13.4476 23.3544 13.4476C21.7893 13.3872 20.3197 14.2092 19.5309 15.5833H19.4757V13.7755Z" fill="#606F7F"/>
</g>
<defs>
<clipPath id="clip0_600_8862">
<rect width="36" height="36" fill="white"/>
</clipPath>
</defs>
</svg>
