<svg width="36" height="36" viewBox="0 0 36 36" fill="none" xmlns="http://www.w3.org/2000/svg">
<g clip-path="url(#clip0_600_8864)">
<path fill-rule="evenodd" clip-rule="evenodd" d="M18 36C27.9414 36 36 27.9414 36 18C36 8.0586 27.9414 0 18 0C8.0586 0 0 8.0586 0 18C0 27.9414 8.0586 36 18 36ZM27.045 15.966C27.2292 15.9648 27.4134 15.9558 27.597 15.939H27.6V12.345C24.7098 12.141 22.386 9.9744 22.083 7.2H18.87L18.8364 22.2798C18.8364 24.1302 17.139 25.5876 15.2172 25.5876C13.296 25.5876 11.7384 24.0882 11.7384 22.2384C11.7384 20.3886 13.296 18.8892 15.2172 18.8892C15.324 18.8892 15.4272 18.9024 15.531 18.9162C15.567 18.921 15.603 18.9258 15.639 18.9294V15.6954L15.5412 15.6894C15.4334 15.6809 15.3253 15.6761 15.2172 15.675C11.4522 15.675 8.4 18.6132 8.4 22.2372C8.4 25.8618 11.4522 28.8 15.2166 28.8C18.9816 28.8 22.0338 25.8618 22.0338 22.2372V13.3584C23.1402 14.9856 25.0248 15.966 27.045 15.966Z" fill="#606F7F"/>
</g>
<defs>
<clipPath id="clip0_600_8864">
<rect width="36" height="36" fill="white"/>
</clipPath>
</defs>
</svg>
