<svg width="36" height="36" viewBox="0 0 36 36" fill="none" xmlns="http://www.w3.org/2000/svg">
<g clip-path="url(#clip0_600_8872)">
<path fill-rule="evenodd" clip-rule="evenodd" d="M18 36C27.9412 36 36 27.9412 36 18C36 8.05887 27.9412 0 18 0C8.05887 0 0 8.05887 0 18C0 27.9412 8.05887 36 18 36ZM12.6975 28.6602L20.0666 7.57894H25.386L18.0143 28.6602H12.6975ZM25.3782 28.9102C27.7581 28.9102 29.6842 26.961 29.6842 24.5528C29.6842 22.1445 27.7504 20.1952 25.3782 20.1952C22.9984 20.1952 21.0723 22.1445 21.0723 24.5528C21.0723 26.961 22.9984 28.9102 25.3782 28.9102ZM7.32925 11.8978C10.6967 12.4007 13.3602 10.16 14.0667 7.57894H19.2493C17.2639 13.6125 13.6773 17.5858 5.68421 16.6008L7.32925 11.8978Z" fill="#606F7F"/>
</g>
<defs>
<clipPath id="clip0_600_8872">
<rect width="36" height="36" fill="white"/>
</clipPath>
</defs>
</svg>
