<svg width="36" height="36" viewBox="0 0 36 36" fill="none" xmlns="http://www.w3.org/2000/svg">
<g clip-path="url(#clip0_600_8868)">
<path fill-rule="evenodd" clip-rule="evenodd" d="M18 36C27.9412 36 36 27.9412 36 18C36 8.05887 27.9412 0 18 0C8.05887 0 0 8.05887 0 18C0 27.9412 8.05887 36 18 36ZM27.465 7.875L19.9265 16.638L28.125 28.5699H22.0951L16.5739 20.535L9.66149 28.5699H7.875L15.7808 19.3807L7.875 7.875H13.9049L19.133 15.4837L25.6787 7.875H27.465ZM16.6787 18.3364L17.4797 19.4821L22.9355 27.2863H25.6795L18.9936 17.7229L18.1926 16.5772L13.0491 9.21985H10.3052L16.6787 18.3364Z" fill="#606F7F"/>
</g>
<defs>
<clipPath id="clip0_600_8868">
<rect width="36" height="36" fill="white"/>
</clipPath>
</defs>
</svg>
