<svg width="36" height="36" viewBox="0 0 36 36" fill="none" xmlns="http://www.w3.org/2000/svg">
<g clip-path="url(#clip0_600_8870)">
<path fill-rule="evenodd" clip-rule="evenodd" d="M18 36C27.9416 36 36 27.9416 36 18C36 8.05838 27.9416 0 18 0C8.05838 0 0 8.05838 0 18C0 27.9416 8.05838 36 18 36ZM17.1056 25.3867H19.0462L19.1419 25.3822L19.3477 25.3721L20.3524 25.3519C21.0892 25.3372 21.8261 25.3226 22.5608 25.2956C23.4175 25.2622 24.2734 25.2108 25.128 25.1415C25.5851 25.1133 26.0392 25.0482 26.4859 24.9469C27.54 24.687 28.2071 24.0041 28.4884 22.959C28.6189 22.4798 28.6751 21.9881 28.7325 21.4954C28.7381 21.4403 28.7437 21.3851 28.7516 21.3311C28.7989 20.9272 28.7978 20.5245 28.7966 20.1206V20.0171L28.7989 18.6829C28.8 17.3914 28.8022 16.0988 28.7921 14.8061C28.78 14.3905 28.7387 13.9762 28.6684 13.5664C28.6121 13.1906 28.5525 12.807 28.4321 12.4481C28.1003 11.4502 27.3994 10.8394 26.3722 10.6132C25.8352 10.5019 25.2901 10.4338 24.7421 10.4096L24.1763 10.3759C23.2733 10.3185 22.3694 10.2758 21.465 10.2476C20.0291 10.211 18.5927 10.1953 17.1562 10.2004C15.9469 10.2049 14.7375 10.2409 13.5293 10.2814C12.7519 10.3073 11.9734 10.3601 11.1971 10.4141C10.6706 10.4513 10.1408 10.4884 9.63 10.6279C8.59275 10.9069 7.93125 11.5808 7.64325 12.609C7.48575 13.1704 7.42613 13.7498 7.36875 14.3291C7.2765 15.2629 7.2315 16.2011 7.21237 17.1394C7.21237 17.1664 7.209 17.1934 7.2045 17.2192L7.2 17.2564V18.3184L7.20563 18.3814C7.209 18.4253 7.2135 18.468 7.21463 18.5119C7.22587 18.747 7.23712 18.9821 7.24613 19.2173C7.26862 19.728 7.29113 20.2399 7.32488 20.7506C7.3755 21.4931 7.44412 22.2356 7.63987 22.9556C7.938 24.0435 8.65238 24.7118 9.75037 24.9615C10.2839 25.0738 10.8257 25.1419 11.3704 25.1651C12.4223 25.227 13.4741 25.2855 14.5271 25.326C15.0964 25.3485 15.6656 25.3564 16.2349 25.3643L17.0145 25.3778C17.0347 25.3778 17.055 25.3811 17.0764 25.3834L17.1056 25.3867ZM15.8996 14.5305L21.5584 17.7874L15.8996 21.0442V14.5305Z" fill="#606F7F"/>
</g>
<defs>
<clipPath id="clip0_600_8870">
<rect width="36" height="36" fill="white"/>
</clipPath>
</defs>
</svg>
