<svg width="620" height="299" viewBox="0 0 620 299" fill="none" xmlns="http://www.w3.org/2000/svg">
<g clip-path="url(#clip0_830_3025)">
<mask id="mask0_830_3025" style="mask-type:luminance" maskUnits="userSpaceOnUse" x="0" y="0" width="620" height="299">
<path d="M607.651 0.671875H12C5.37258 0.671875 0 6.04446 0 12.6719V286.832C0 293.459 5.37261 298.832 12 298.832H607.651C614.278 298.832 619.651 293.459 619.651 286.832V12.6719C619.651 6.04446 614.278 0.671875 607.651 0.671875Z" fill="white"/>
</mask>
<g mask="url(#mask0_830_3025)">
<path d="M0 12.6719C0 6.04447 5.37258 0.671875 12 0.671875H607.651C614.278 0.671875 619.651 6.04446 619.651 12.6719V286.832C619.651 293.46 614.278 298.832 607.651 298.832H12C5.37261 298.832 0 293.46 0 286.832V12.6719Z" fill="white"/>
<path d="M331.223 134.148C327.745 134.148 325.117 130.967 325.946 127.59C329.935 111.355 335.968 101.84 346.172 90.8434C346.435 90.5797 346.547 90.3529 346.547 90.1647C346.547 89.8254 346.284 89.5617 345.608 89.5995L329.065 90.2403C322.282 90.4643 320.708 91.1331 317.165 95.2201C317.106 95.2877 317.02 95.3284 316.93 95.3284C316.733 95.3284 316.587 95.1421 316.631 94.9496C317.314 91.927 317.805 89.6119 318.141 87.7072C318.746 84.2697 321.599 81.3833 325.089 81.3833H354.118C354.277 81.3833 354.405 81.5121 354.405 81.671C354.405 81.7291 354.388 81.7859 354.355 81.8338C344.987 95.5084 338.542 110.101 336.883 128.833C336.621 131.794 334.196 134.148 331.223 134.148Z" fill="#B79D37"/>
<path d="M287.739 134.901C285.636 134.901 283.167 134.684 280.242 133.994C277.334 133.308 275.574 130.573 275.274 127.6C275.066 125.538 274.637 123.127 273.729 119.154C273.684 118.96 273.831 118.77 274.03 118.77C274.138 118.77 274.24 118.829 274.297 118.921C280.394 128.817 286.517 130.907 290.07 130.907C298.868 130.907 301.049 122.879 300.86 109.914C300.86 109.349 300.635 109.047 300.296 109.047C300.108 109.047 299.845 109.197 299.582 109.462C296.537 112.703 292.288 115.002 287.25 115.002C278.302 115.002 271.459 108.745 271.459 99.0213C271.459 87.7903 280.595 80.6294 290.22 80.6294C303.304 80.6294 311.35 91.8234 311.35 107.124C311.35 123.784 301.989 134.901 287.739 134.901ZM292.063 110.403C294.018 110.403 295.654 109.904 297.084 109.059C299.745 107.488 300.618 104.15 300.195 101.088C298.831 91.2183 295.262 84.1342 289.243 84.1342C284.355 84.1342 281.385 87.7147 281.385 95.6298C281.385 102.715 284.957 110.403 292.063 110.403Z" fill="#B79D37"/>
<path d="M132.781 159.197H486.866" stroke="#B79D37" stroke-width="0.595"/>
<path d="M527.256 85.3981C527.256 85.3982 527.256 85.3982 527.256 85.3981C527.464 84.5862 527.751 83.8016 528.114 83.0514C528.245 82.7648 528.619 82.2894 528.526 82.1933C528.432 82.0973 528.022 82.2877 527.854 82.3838C526.511 83.2403 525.428 84.4489 524.722 85.8793C524.01 87.3188 523.698 88.9247 523.82 90.5272V90.8514C523.82 93.4072 524.643 94.7804 524.81 97.3169C524.839 97.5884 524.846 97.8629 524.829 98.1365C524.82 98.2825 524.94 98.5014 524.997 98.3667C525.221 97.9283 525.444 97.7376 525.687 97.2984C525.938 96.8625 526.145 96.4039 526.304 95.9235C526.467 95.4481 526.586 94.9559 526.659 94.4562C526.722 94.1269 526.77 93.7951 526.802 93.462C526.884 92.6049 526.942 91.7381 526.913 90.8776C526.895 90.3336 526.846 89.755 526.846 89.154C526.846 87.8903 526.984 86.6316 527.255 85.3981C527.255 85.3979 527.256 85.398 527.256 85.3981ZM534.447 101.814C534.541 102.233 534.597 102.462 534.707 102.863C534.847 103.52 535.053 104.159 535.324 104.771C535.385 104.909 535.433 105.167 535.556 105.08C535.609 105.042 535.602 104.947 535.597 104.882C535.498 103.528 535.537 102.168 535.716 100.822C535.883 99.8883 536.142 98.9745 536.485 98.0921C536.554 97.9171 536.779 97.878 536.836 98.0568C537.373 99.4317 537.725 100.876 537.882 102.347C538.185 104.496 538.061 106.681 537.519 108.778C537.431 109.119 537.468 109.637 537.713 109.385C538.953 107.903 539.783 106.121 540.122 104.217C540.533 102.423 540.533 100.558 540.122 98.7632C539.506 96.8927 539.026 94.9811 538.685 93.0418C538.526 91.6604 538.617 90.2621 538.954 88.9144C538.985 88.7916 539.002 88.6658 539.002 88.5392C539.002 88.4829 538.442 88.7693 538.368 88.8256C537.119 89.8763 536.108 91.1806 535.4 92.6521C534.688 94.1329 534.294 95.7471 534.241 97.3899C534.054 98.8648 534.122 100.362 534.447 101.814Z" fill="#B79D37"/>
<path d="M536.251 112.879C535.411 110.974 534.496 109.066 533.638 107.158C531.733 103.415 530.698 99.2874 530.613 95.0863C530.613 94.9347 530.456 94.8368 530.332 94.9238C529.886 95.2359 529.591 95.7178 529.139 96.2109C524.752 101.018 524.919 105.747 524.061 112.232C524.044 112.37 524.029 112.504 524.016 112.635C523.92 113.596 522.757 114.008 521.867 113.635C521.259 113.381 520.61 113.241 519.954 113.222C519.745 113.216 519.571 113.404 519.689 113.576C519.702 113.596 519.716 113.616 519.726 113.637C520.426 114.993 520.848 116.476 520.965 117.998C521.084 119.532 520.892 121.074 520.401 122.531C519.992 124.151 519.356 125.679 518.797 127.241C518.403 128.31 517.937 129.302 517.62 130.37C516.838 132.838 516.422 135.408 516.387 137.998C516.255 141.556 517.227 145.068 519.17 148.05C519.52 148.592 519.914 149.107 520.316 149.627C520.672 150.087 521.049 150.533 521.496 150.904C522.117 151.421 522.796 151.864 523.519 152.226C524.071 152.598 524.547 151.951 524.273 151.344C523.592 149.83 523.094 148.237 522.791 146.6C522.091 142.265 523.097 137.821 525.591 134.241C526.981 132.522 530.774 132.887 531.87 134.806C532.07 135.157 532.279 135.503 532.498 135.843C532.76 136.388 533.111 136.863 533.426 137.357C533.832 137.995 534.166 138.678 534.532 139.34C535.523 141.134 536.247 143.066 536.68 145.074C537.138 147.55 536.728 150.107 535.522 152.313C535.498 152.357 535.454 152.403 535.491 152.435C535.562 152.496 535.691 152.5 535.781 152.477C538.082 151.904 540.101 150.515 541.461 148.564C544.057 144.841 545.223 140.303 544.746 135.786C544.746 133.992 544.633 132.219 544.746 130.446C544.855 128.187 545.323 125.959 546.131 123.848C546.164 123.763 546.163 123.672 546.104 123.602C546.069 123.56 546.007 123.549 545.954 123.563C544.758 123.876 543.645 124.448 542.692 125.238C541.697 125.985 539.818 125.373 539.653 124.14C539.13 120.237 537.983 116.434 536.251 112.879ZM539.816 133.383C540.477 132.491 541.755 132.913 541.92 134.011C542.257 136.242 542.305 138.514 542.058 140.763C541.892 142.304 541.528 143.817 540.975 145.265C540.498 146.536 539.804 147.715 538.924 148.748C538.911 148.764 538.891 148.773 538.871 148.773C538.829 148.773 538.796 148.735 538.802 148.693C539.401 144.364 538.709 139.952 536.811 136.015C535.546 133.564 534.484 131.012 533.638 128.385C533.208 126.707 532.761 125.048 532.424 123.369C531.977 121.269 531.004 119.318 529.595 117.701C529.566 117.667 529.523 117.648 529.479 117.648C529.394 117.648 529.325 117.716 529.323 117.801C529.272 119.653 528.848 121.476 528.075 123.161C527.783 123.95 527.434 124.715 527.029 125.449C526.617 126.211 526.32 126.591 525.852 127.356L525.499 127.891C524.75 129.01 524.082 130.183 523.501 131.399C522.845 132.621 522.295 133.897 521.857 135.214C520.491 138.921 520.257 142.951 521.186 146.792C521.322 147.157 520.944 147.305 520.765 146.96C520.557 146.556 520.367 146.143 520.196 145.722C518.816 142.053 518.691 138.027 519.841 134.279C520.849 131.248 522.194 128.557 523.35 125.735C524.281 123.675 525.067 121.554 525.704 119.384C526.192 117.774 526.639 116.152 527.046 114.52C527.469 112.821 530.927 112.663 531.658 114.254C532.443 115.912 533.283 117.438 534.03 119.194C534.777 120.948 535.394 122.378 536.046 123.903C537.475 127.311 538.401 130.91 538.795 134.585C538.803 134.661 538.866 134.718 538.942 134.718C538.987 134.718 539.03 134.698 539.057 134.661C539.349 134.271 539.515 133.801 539.816 133.383Z" fill="#B79D37"/>
<path d="M531.738 151.774C531.611 152.22 532.034 152.544 532.347 152.201C532.451 152.088 532.555 151.962 532.677 151.843C532.98 151.539 533.232 151.184 533.424 150.797C534.156 149.456 534.401 147.897 534.114 146.391C534.071 145.829 533.972 145.273 533.817 144.731C533.35 143.159 532.624 141.676 531.669 140.344C530.72 138.721 529.841 138.066 529.403 136.343C529.383 136.265 529.375 136.184 529.37 136.104C529.357 135.907 529.319 135.679 529.288 135.514C529.263 135.383 529.152 135.275 529.058 135.37C529.038 135.39 529.008 135.433 528.988 135.453C527.519 136.874 526.417 138.632 525.775 140.574C525.123 142.54 524.956 144.633 525.284 146.677C525.544 147.948 525.93 149.188 526.442 150.376C526.781 151.171 527.311 151.867 527.981 152.403C528.117 152.511 528.535 152.453 528.448 152.303C528.437 152.283 528.416 152.253 528.407 152.232C527.914 151.061 527.622 149.814 527.543 148.546C527.495 146.752 527.983 144.986 528.944 143.472C529.084 143.245 529.39 143.352 529.469 143.607C529.827 144.757 530.308 145.863 530.904 146.906C531.224 147.598 531.482 148.319 531.669 149.059C531.836 149.9 531.87 150.759 531.773 151.609C531.767 151.665 531.754 151.72 531.738 151.774ZM524.4 154.005C522.763 154.305 522.894 155.79 524.071 156.967C525.516 158.41 527.336 159.672 529.379 159.664C530.015 159.662 530.651 159.672 531.286 159.695C532.446 159.736 533.526 159.14 534.266 158.245C534.72 157.696 535.223 157.19 535.768 156.734C536.877 155.806 536.922 154.016 535.478 153.945C531.92 153.259 528.264 153.259 524.706 153.945C524.605 153.966 524.503 153.986 524.4 154.005ZM523.728 169.907C525.066 170.148 526.229 171.188 526.285 172.546C526.325 173.53 527.053 174.344 528.027 174.489C528.987 174.632 529.953 174.726 530.922 174.772C532.166 174.83 533.156 173.799 533.156 172.554C533.156 171.181 534.366 170.164 535.721 169.941C537.547 169.639 538.926 168.663 538.421 166.587C538.113 165.284 536.584 164.863 534.924 164.847C534.009 164.839 533.174 164.208 533.141 163.293C533.108 162.347 532.362 161.552 531.415 161.552H527.925C527.019 161.552 526.285 162.286 526.285 163.192C526.285 164.067 525.597 164.773 524.723 164.824C522.828 164.933 521.184 165.254 521.021 167.103C520.88 168.719 522.033 169.602 523.728 169.907ZM92.3959 85.3981C92.3959 85.3982 92.3958 85.3982 92.3957 85.3981C92.188 84.5887 91.9007 83.8028 91.5363 83.0514C91.4064 82.7648 91.0328 82.2894 91.1266 82.1933C91.2196 82.0973 91.631 82.2877 91.7994 82.3838C93.1416 83.2403 94.2249 84.4489 94.9304 85.8793C95.6409 87.3155 95.9534 88.9239 95.8311 90.5272V90.8514C95.8311 93.4072 95.01 94.7804 94.8416 97.3169C94.8128 97.5883 94.8065 97.8629 94.8226 98.1365C94.8313 98.2825 94.7117 98.5014 94.6547 98.3667C94.4319 97.9283 94.2082 97.7376 93.9644 97.2984C93.713 96.8616 93.5069 96.4014 93.3477 95.9235C93.1843 95.4464 93.0654 94.9551 92.9941 94.4562C92.9316 94.1329 92.8843 93.8071 92.8524 93.4797C92.7678 92.6111 92.7093 91.7321 92.7398 90.8599C92.7587 90.3211 92.8073 89.7485 92.8073 89.154C92.8073 87.8903 92.6683 86.6316 92.3961 85.3981C92.3961 85.3979 92.3959 85.398 92.3959 85.3981ZM85.2048 101.814C85.1118 102.233 85.0556 102.462 84.9434 102.863C84.8056 103.521 84.5994 104.16 84.3273 104.773C84.2667 104.91 84.2204 105.165 84.0974 105.081C84.0433 105.044 84.0504 104.946 84.0552 104.881C84.1548 103.529 84.1146 102.167 83.9354 100.822C83.7681 99.8882 83.5102 98.9742 83.1658 98.0917C83.0977 97.917 82.8735 97.8786 82.8153 98.0568C82.2799 99.4317 81.9279 100.876 81.7693 102.347C81.4672 104.495 81.5917 106.68 82.1336 108.777C82.2219 109.118 82.1836 109.638 81.9379 109.385C80.699 107.903 79.869 106.121 79.5303 104.217C79.1196 102.423 79.1196 100.558 79.5303 98.7632C80.1467 96.8944 80.6258 94.9811 80.9679 93.0418C81.1259 91.6605 81.0346 90.2607 80.6969 88.9144C80.6661 88.7916 80.6489 88.6658 80.6489 88.5392C80.6489 88.4829 81.2108 88.7693 81.2851 88.8256C82.5327 89.8763 83.5437 91.1806 84.2513 92.6521C84.9618 94.1295 85.3581 95.7446 85.4109 97.3899C85.5994 98.8639 85.5298 100.363 85.2048 101.814Z" fill="#B79D37"/>
<path d="M83.4 112.879C84.2412 110.974 85.1553 109.066 86.0141 107.158C87.9193 103.415 88.9532 99.2874 89.0379 95.0863C89.0379 94.9347 89.1947 94.8368 89.3189 94.9238C89.7644 95.2358 90.0606 95.7178 90.5133 96.2109C94.901 101.018 94.7326 105.747 95.5914 112.232C95.6084 112.37 95.6231 112.505 95.6363 112.636C95.7326 113.597 96.8935 114.008 97.784 113.635C98.3953 113.38 99.0427 113.241 99.6978 113.222C99.9065 113.216 100.081 113.404 99.9621 113.576C99.9485 113.595 99.935 113.616 99.9241 113.637C99.2268 114.994 98.8069 116.476 98.6889 117.998C98.5708 119.531 98.761 121.073 99.2503 122.531C99.6616 124.151 100.296 125.679 100.856 127.241C101.248 128.31 101.715 129.302 102.033 130.37C102.814 132.838 103.229 135.408 103.264 137.998C103.398 141.556 102.426 145.068 100.483 148.05C100.132 148.593 99.7358 149.109 99.3326 149.63C98.9781 150.088 98.6025 150.532 98.1576 150.903C97.5367 151.42 96.8576 151.864 96.1335 152.226C95.5812 152.598 95.1053 151.951 95.3787 151.344C96.059 149.832 96.5574 148.24 96.8607 146.6C97.5595 142.265 96.5533 137.821 94.0599 134.241C92.6705 132.523 88.8762 132.887 87.7813 134.806C87.5813 135.157 87.3717 135.502 87.1527 135.843C86.8912 136.388 86.5403 136.863 86.2257 137.357C85.8199 137.995 85.486 138.678 85.1205 139.34C84.1294 141.134 83.4043 143.066 82.9705 145.074C82.5136 147.55 82.9236 150.108 84.1294 152.315C84.1526 152.357 84.1954 152.402 84.1595 152.435C84.0907 152.497 83.9627 152.5 83.8726 152.477C81.5708 151.905 79.5519 150.516 78.1917 148.564C75.5955 144.841 74.4284 140.304 74.9051 135.786C74.9051 133.992 75.0175 132.219 74.9051 130.446C74.7954 128.187 74.3278 125.959 73.5199 123.849C73.4872 123.763 73.4882 123.672 73.5472 123.602C73.5823 123.56 73.6443 123.549 73.6971 123.563C74.8909 123.874 76.0039 124.446 76.959 125.238C77.9551 125.986 79.8349 125.373 80.0002 124.139C80.5235 120.23 81.6691 116.427 83.4 112.879ZM79.8342 133.383C79.1757 132.491 77.8975 132.913 77.7317 134.009C77.3942 136.241 77.3469 138.511 77.5936 140.763C77.7588 142.306 78.1239 143.82 78.6775 145.265C79.1543 146.537 79.8485 147.715 80.7288 148.748C80.742 148.764 80.7613 148.773 80.7817 148.773C80.8241 148.773 80.8566 148.735 80.8508 148.693C80.2512 144.364 80.9429 139.952 82.8399 136.015C84.1055 133.564 85.1662 131.012 86.0124 128.385C86.4422 126.707 86.8913 125.048 87.2273 123.369C87.674 121.27 88.6477 119.32 90.0552 117.702C90.0848 117.668 90.1278 117.648 90.1728 117.648C90.2585 117.648 90.3283 117.717 90.3306 117.803C90.3808 119.654 90.8054 121.477 91.5782 123.161C91.8689 123.95 92.2191 124.715 92.6238 125.449C93.0335 126.211 93.3326 126.591 93.7984 127.356L94.1537 127.891C94.9027 129.008 95.5696 130.181 96.1519 131.399C96.8063 132.619 97.3559 133.897 97.7941 135.214C99.1606 138.914 99.3952 142.951 98.4669 146.792C98.3308 147.157 98.7089 147.305 98.8874 146.96C99.0957 146.556 99.2856 146.143 99.4564 145.722C100.836 142.058 100.96 138.025 99.8099 134.279C98.802 131.248 97.459 128.557 96.3002 125.735C95.3711 123.675 94.5852 121.554 93.9493 119.384C93.4613 117.774 93.0137 116.152 92.6069 114.52C92.183 112.82 88.7244 112.662 87.9922 114.254C87.2089 115.912 86.3693 117.438 85.6228 119.194C84.8755 120.948 84.2597 122.378 83.6066 123.903C82.1774 127.311 81.2509 130.91 80.8561 134.585C80.848 134.661 80.7846 134.718 80.7088 134.718C80.6636 134.718 80.6207 134.698 80.5937 134.661C80.3039 134.271 80.1367 133.801 79.8342 133.383Z" fill="#B79D37"/>
<path d="M87.9146 151.773C88.0423 152.219 87.6181 152.544 87.3053 152.202C87.2015 152.088 87.0968 151.963 86.9743 151.844C86.6718 151.537 86.4196 151.183 86.2269 150.797C85.4946 149.453 85.2508 147.895 85.5365 146.391C85.5793 145.827 85.6806 145.273 85.8356 144.731C86.3023 143.159 87.0287 141.677 87.9839 140.345C88.9328 138.721 89.8121 138.066 90.25 136.342C90.2696 136.265 90.2778 136.185 90.2827 136.105C90.2948 135.908 90.3321 135.681 90.3632 135.517C90.3881 135.384 90.5005 135.275 90.5947 135.371C90.6141 135.391 90.6442 135.434 90.6641 135.453C92.1329 136.875 93.2356 138.632 93.878 140.575C94.529 142.54 94.6966 144.634 94.3674 146.677C94.1093 147.947 93.7214 149.186 93.2103 150.376C92.8718 151.171 92.3423 151.867 91.6719 152.403C91.5361 152.512 91.1177 152.453 91.2036 152.302C91.2145 152.283 91.2349 152.254 91.2435 152.233C91.7375 151.062 92.0296 149.816 92.1085 148.546C92.1571 146.753 91.6695 144.986 90.7085 143.472C90.5684 143.245 90.2626 143.353 90.1832 143.608C89.8261 144.755 89.3452 145.861 88.7488 146.906C88.4271 147.599 88.1707 148.319 87.9822 149.059C87.8167 149.899 87.7824 150.76 87.88 151.61C87.8864 151.665 87.8992 151.72 87.9146 151.773ZM95.2521 154.005C96.8886 154.306 96.7584 155.792 95.5814 156.968C94.1365 158.41 92.3166 159.672 90.275 159.664C89.6384 159.662 89.0018 159.672 88.3654 159.694C87.2048 159.736 86.1245 159.14 85.3845 158.245C84.9041 157.663 84.3691 157.131 83.7875 156.655C82.7104 155.773 82.6594 154.05 84.0481 153.953C84.1321 153.947 84.2166 153.938 84.2993 153.922C87.8184 153.26 91.4303 153.268 94.9471 153.946C95.0481 153.966 95.1499 153.986 95.2521 154.005ZM95.9236 169.908C94.5862 170.148 93.4226 171.19 93.3662 172.547C93.3253 173.53 92.5978 174.344 91.6246 174.489C90.6649 174.632 89.6988 174.727 88.7297 174.772C87.4855 174.83 86.495 173.8 86.495 172.554C86.495 171.181 85.285 170.165 83.9305 169.941C82.105 169.639 80.7266 168.663 81.2305 166.588C81.5393 165.285 83.0673 164.864 84.7264 164.848C85.6429 164.839 86.4785 164.207 86.5106 163.292C86.5437 162.346 87.2901 161.553 88.236 161.553H91.726C92.6314 161.553 93.3653 162.287 93.3653 163.192C93.3653 164.067 94.054 164.774 94.928 164.824C96.8242 164.934 98.4685 165.254 98.6303 167.103C98.7729 168.72 97.6202 169.603 95.9236 169.908Z" fill="#B79D37"/>
<path d="M221.679 198.571C221.679 198.516 221.713 198.466 221.763 198.443C222.166 198.266 222.46 198.013 222.644 197.686C222.849 197.337 222.979 196.849 223.032 196.222C223.086 195.586 223.113 194.605 223.113 193.279V183.482C223.113 182.989 223.068 182.626 222.979 182.394C222.898 182.152 222.728 181.95 222.469 181.789C222.225 181.636 221.815 181.452 221.242 181.235C221.182 181.212 221.142 181.155 221.142 181.091C221.142 181.02 221.191 180.958 221.261 180.942L223.37 180.45C225.178 180.028 226.907 181.401 226.907 183.257V193.279C226.907 194.605 226.933 195.586 226.987 196.222C227.041 196.849 227.165 197.337 227.362 197.686C227.554 198.013 227.853 198.266 228.256 198.443C228.307 198.466 228.341 198.516 228.341 198.571C228.341 198.647 228.28 198.708 228.205 198.708H221.815C221.74 198.708 221.679 198.647 221.679 198.571ZM235.591 198.976C234.758 198.976 233.929 198.902 233.104 198.754C231.821 198.524 231.038 197.326 230.872 196.033C230.803 195.418 230.629 194.432 230.35 193.077C230.336 193.008 230.389 192.943 230.46 192.943C230.499 192.943 230.536 192.963 230.556 192.997C231.277 194.198 231.959 195.143 232.601 195.832C233.254 196.531 233.867 197.014 234.438 197.283C235.019 197.552 235.613 197.686 236.221 197.686C236.874 197.686 237.454 197.552 237.964 197.283C238.482 197.014 238.884 196.634 239.17 196.141C239.465 195.639 239.612 195.052 239.612 194.381C239.612 193.35 239.323 192.53 238.741 191.921C238.16 191.312 237.28 190.837 236.1 190.497C233.508 189.729 231.593 187.382 231.996 184.708L232.055 184.319C232.438 181.775 234.624 179.894 237.197 179.894H238.875C239.599 179.894 240.158 179.858 240.551 179.787C241.293 179.655 241.977 180.303 241.857 181.047C241.822 181.266 241.792 181.482 241.769 181.694C241.685 182.46 241.047 183.086 240.277 183.074C239.914 183.068 239.523 183.066 239.103 183.066H234.746C233.776 183.066 232.99 183.852 232.99 184.821C232.99 185.689 233.625 186.427 234.483 186.557L235.564 186.721C238.129 187.088 239.997 187.792 241.167 188.831C242.347 189.861 242.937 191.186 242.937 192.808C242.937 194.008 242.624 195.079 241.999 196.02C241.374 196.951 240.502 197.677 239.385 198.197C238.268 198.717 237.003 198.976 235.591 198.976ZM249.853 198.976C248.628 198.976 247.708 198.627 247.092 197.928C246.484 197.22 246.18 196.239 246.18 194.985L246.194 187.003C246.194 186.869 246.158 186.774 246.086 186.721C246.014 186.658 245.903 186.613 245.751 186.586L244.555 186.342C244.487 186.328 244.438 186.267 244.438 186.198C244.438 186.154 244.457 186.113 244.49 186.085L249.512 181.844C249.533 181.826 249.56 181.816 249.588 181.816C249.653 181.816 249.706 181.869 249.706 181.934V183.644C249.706 184.738 250.66 185.588 251.747 185.46L253.607 185.243C253.794 185.216 253.929 185.296 254.009 185.484C254.098 185.663 254.143 185.888 254.143 186.156C254.143 186.425 254.098 186.644 254.009 186.815C253.929 186.985 253.794 187.061 253.607 187.043C251.532 186.793 249.706 188.413 249.706 190.502V194.165C249.706 195.026 249.88 195.661 250.229 196.074C250.577 196.477 251.14 196.678 251.918 196.678C252.364 196.678 252.789 196.607 253.191 196.463C253.567 196.321 253.876 196.151 254.12 195.954C254.149 195.931 254.191 195.931 254.219 195.955C254.246 195.977 254.253 196.015 254.238 196.046C253.811 196.917 253.225 197.621 252.481 198.157C251.721 198.703 250.845 198.976 249.853 198.976ZM255.168 198.566C255.168 198.513 255.198 198.464 255.245 198.438C255.562 198.262 255.796 198.021 255.945 197.713C256.106 197.381 256.208 196.925 256.254 196.342C256.298 195.76 256.321 194.874 256.321 193.682V183.845C256.321 183.092 256.294 182.551 256.24 182.219C256.195 181.887 256.083 181.462 255.905 180.942L255.507 179.838C255.504 179.831 255.503 179.823 255.503 179.816C255.503 179.784 255.526 179.756 255.558 179.752C256.288 179.645 256.981 179.5 257.634 179.316C258.306 179.121 259.036 178.868 259.823 178.559C259.838 178.553 259.855 178.55 259.871 178.55C259.945 178.55 260.004 178.612 260 178.686L259.846 181.668V187.366C259.846 187.456 259.864 187.523 259.9 187.567C259.935 187.612 259.98 187.635 260.034 187.635C260.114 187.635 260.23 187.572 260.382 187.446C261.276 186.73 262.071 186.183 262.769 185.807C263.466 185.421 264.171 185.229 264.887 185.229C265.512 185.229 266.057 185.39 266.522 185.713C266.995 186.026 267.362 186.488 267.621 187.097C267.88 187.698 268.01 188.418 268.01 189.261V193.682C268.01 194.874 268.032 195.76 268.077 196.342C268.122 196.925 268.225 197.381 268.385 197.713C268.534 198.021 268.768 198.262 269.086 198.438C269.132 198.464 269.163 198.513 269.163 198.566C269.163 198.644 269.1 198.708 269.022 198.708H263.473C263.395 198.708 263.332 198.644 263.332 198.566C263.332 198.513 263.362 198.464 263.409 198.438C263.726 198.262 263.96 198.021 264.109 197.713C264.27 197.381 264.372 196.925 264.417 196.342C264.462 195.76 264.484 194.874 264.484 193.682V190.161C264.484 189.247 264.314 188.606 263.975 188.239C263.635 187.872 263.171 187.688 262.581 187.688C262.133 187.688 261.696 187.751 261.267 187.876C260.364 188.127 259.846 189.035 259.846 189.972V193.682C259.846 194.874 259.868 195.76 259.913 196.342C259.958 196.925 260.061 197.381 260.222 197.713C260.371 198.021 260.604 198.262 260.922 198.438C260.969 198.464 260.999 198.513 260.999 198.566C260.999 198.644 260.936 198.708 260.858 198.708H255.309C255.231 198.708 255.168 198.644 255.168 198.566ZM274.498 198.569C274.498 198.514 274.53 198.465 274.579 198.441C274.94 198.261 275.262 197.996 275.544 197.646C275.848 197.27 276.166 196.741 276.496 196.06C276.827 195.371 277.292 194.327 277.89 192.929L282.139 182.958C282.265 182.68 282.327 182.443 282.327 182.246C282.327 182.129 282.296 181.986 282.233 181.816C281.862 180.897 282.538 179.894 283.529 179.894H284.235C285.048 179.894 285.768 180.417 286.061 181.175C286.234 181.626 286.442 182.144 286.684 182.73L291.054 192.929C291.671 194.363 292.14 195.415 292.462 196.087C292.792 196.759 293.105 197.283 293.4 197.659C293.683 198.001 294.005 198.262 294.365 198.441C294.414 198.465 294.446 198.514 294.446 198.569C294.446 198.645 294.383 198.708 294.307 198.708H287.636C287.562 198.708 287.502 198.648 287.502 198.573C287.502 198.517 287.537 198.467 287.59 198.446C287.893 198.325 288.119 198.17 288.266 197.982C288.436 197.776 288.52 197.507 288.52 197.176C288.52 196.79 288.422 196.293 288.225 195.684C288.029 195.075 287.712 194.246 287.274 193.198C286.933 192.384 286.136 191.854 285.254 191.854H281.337C280.418 191.854 279.598 192.429 279.284 193.292C278.793 194.663 278.547 195.693 278.547 196.383C278.547 196.974 278.717 197.431 279.056 197.753C279.389 198.053 279.915 198.287 280.633 198.456C280.69 198.47 280.732 198.521 280.732 198.581C280.732 198.651 280.675 198.708 280.605 198.708H274.637C274.561 198.708 274.498 198.645 274.498 198.569ZM283.16 190.685C284.621 190.685 285.614 189.2 285.055 187.85L283.359 183.751C283.288 183.58 283.19 183.496 283.064 183.496C282.922 183.496 282.815 183.585 282.743 183.764L281.232 187.936C280.747 189.273 281.738 190.685 283.16 190.685ZM295.024 203.78C295.024 203.727 295.055 203.678 295.102 203.653C295.42 203.476 295.653 203.235 295.802 202.927C295.963 202.595 296.066 202.139 296.11 201.556C296.156 200.974 296.177 200.088 296.177 198.896V190.672C296.177 189.937 296.151 189.404 296.097 189.072C296.053 188.741 295.936 188.32 295.748 187.809L295.35 186.705C295.348 186.698 295.346 186.69 295.346 186.682C295.346 186.65 295.369 186.623 295.401 186.617C296.123 186.494 296.792 186.335 297.411 186.143C298.047 185.948 298.727 185.696 299.45 185.388C299.466 185.381 299.484 185.377 299.502 185.377C299.576 185.377 299.636 185.437 299.636 185.51V186.989C299.636 187.151 299.69 187.231 299.797 187.231C299.896 187.231 300.025 187.151 300.186 186.989C301.357 185.816 302.581 185.229 303.859 185.229C304.717 185.229 305.499 185.48 306.205 185.982C306.911 186.475 307.47 187.187 307.88 188.118C308.292 189.05 308.497 190.138 308.497 191.384C308.497 192.96 308.189 194.323 307.572 195.469C306.955 196.615 306.151 197.489 305.159 198.089C304.176 198.681 303.144 198.976 302.062 198.976C301.66 198.976 301.271 198.945 300.896 198.882C300.609 198.833 300.302 198.767 299.976 198.685C299.838 198.65 299.703 198.754 299.703 198.896C299.703 200.096 299.73 200.983 299.783 201.556C299.837 202.139 299.958 202.595 300.145 202.927C300.321 203.237 300.601 203.48 300.987 203.657C301.037 203.68 301.07 203.729 301.07 203.785C301.07 203.86 301.009 203.922 300.933 203.922H295.166C295.088 203.922 295.024 203.858 295.024 203.78ZM301.968 197.928C302.925 197.928 303.649 197.502 304.14 196.652C304.641 195.801 304.891 194.636 304.891 193.158C304.891 192.002 304.753 191.003 304.475 190.161C304.199 189.318 303.787 188.673 303.242 188.226C302.706 187.769 302.062 187.54 301.312 187.54C301.026 187.54 300.767 187.581 300.534 187.661C300.012 187.85 299.703 188.376 299.703 188.932V195.187C299.703 196.101 299.922 196.786 300.36 197.243C300.798 197.7 301.334 197.928 301.968 197.928ZM310.308 198.566C310.308 198.513 310.339 198.464 310.385 198.438C310.703 198.262 310.937 198.021 311.086 197.713C311.255 197.373 311.362 196.911 311.408 196.329C311.452 195.747 311.475 194.86 311.475 193.668V190.672C311.475 189.946 311.448 189.422 311.394 189.099C311.341 188.768 311.224 188.338 311.046 187.809L310.634 186.705C310.631 186.698 310.63 186.69 310.63 186.682C310.63 186.65 310.653 186.623 310.685 186.617C311.405 186.494 312.075 186.335 312.694 186.143C313.331 185.948 314.01 185.696 314.734 185.388C314.75 185.381 314.768 185.377 314.786 185.377C314.86 185.377 314.92 185.437 314.92 185.51V188.481C314.92 188.633 314.973 188.71 315.081 188.71C315.179 188.71 315.273 188.638 315.362 188.495C315.979 187.545 316.626 186.765 317.306 186.156C317.994 185.538 318.597 185.229 319.116 185.229C319.473 185.229 319.737 185.39 319.907 185.713C320.076 186.035 320.161 186.492 320.161 187.084C320.161 187.775 320.047 188.629 319.82 189.646C319.816 189.664 319.8 189.677 319.781 189.677C319.767 189.677 319.755 189.67 319.747 189.659C319.509 189.283 319.235 189.02 318.928 188.871C318.615 188.719 318.266 188.642 317.882 188.642C317.408 188.642 316.944 188.71 316.488 188.844C315.521 189.129 314.987 190.117 314.987 191.126V193.668C314.987 194.851 315.014 195.738 315.067 196.329C315.129 196.911 315.263 197.373 315.469 197.713C315.661 198.024 315.959 198.267 316.363 198.444C316.414 198.466 316.448 198.516 316.448 198.571C316.448 198.647 316.387 198.708 316.312 198.708H310.45C310.372 198.708 310.308 198.644 310.308 198.566ZM321.436 198.566C321.436 198.513 321.466 198.464 321.513 198.438C321.831 198.262 322.064 198.021 322.213 197.713C322.383 197.381 322.49 196.925 322.535 196.342C322.579 195.76 322.602 194.874 322.602 193.682V190.658C322.602 189.906 322.575 189.364 322.521 189.032C322.477 188.7 322.365 188.28 322.186 187.769L321.788 186.664C321.785 186.657 321.784 186.65 321.784 186.642C321.784 186.61 321.808 186.583 321.839 186.578C322.552 186.471 323.217 186.326 323.835 186.143C324.472 185.948 325.17 185.696 325.929 185.387C325.945 185.38 325.962 185.377 325.98 185.377C326.054 185.377 326.114 185.437 326.114 185.511V193.682C326.114 194.874 326.137 195.76 326.181 196.342C326.226 196.925 326.329 197.381 326.489 197.713C326.647 198.021 326.885 198.262 327.203 198.439C327.25 198.464 327.28 198.513 327.28 198.566C327.28 198.644 327.217 198.708 327.139 198.708H321.577C321.499 198.708 321.436 198.644 321.436 198.566ZM324.144 183.643C323.688 183.643 323.286 183.554 322.937 183.375C322.589 183.196 322.32 182.954 322.133 182.649C321.945 182.336 321.851 181.99 321.851 181.614C321.851 181.238 321.945 180.898 322.133 180.593C322.32 180.288 322.589 180.051 322.937 179.881C323.286 179.702 323.688 179.612 324.144 179.612C324.599 179.612 325.001 179.702 325.35 179.881C325.699 180.051 325.967 180.288 326.154 180.593C326.342 180.898 326.436 181.238 326.436 181.614C326.436 182 326.342 182.344 326.154 182.649C325.967 182.954 325.699 183.196 325.35 183.375C325.001 183.554 324.599 183.643 324.144 183.643ZM328.923 198.566C328.923 198.513 328.954 198.464 329.001 198.438C329.318 198.262 329.552 198.021 329.701 197.713C329.862 197.381 329.964 196.925 330.009 196.342C330.054 195.76 330.076 194.874 330.076 193.682V183.845C330.076 183.092 330.049 182.551 329.996 182.219C329.951 181.887 329.839 181.462 329.661 180.942L329.262 179.838C329.26 179.831 329.259 179.823 329.259 179.816C329.259 179.784 329.282 179.756 329.314 179.752C330.044 179.645 330.736 179.5 331.39 179.316C332.062 179.121 332.792 178.868 333.579 178.559C333.594 178.553 333.61 178.55 333.626 178.55C333.701 178.55 333.76 178.612 333.756 178.686L333.602 181.668V193.682C333.602 194.874 333.624 195.76 333.669 196.342C333.713 196.925 333.816 197.381 333.977 197.713C334.126 198.021 334.359 198.262 334.678 198.438C334.724 198.464 334.755 198.513 334.755 198.566C334.755 198.644 334.692 198.708 334.614 198.708H329.065C328.987 198.708 328.923 198.644 328.923 198.566ZM342.432 198.571C342.432 198.516 342.466 198.466 342.517 198.443C342.919 198.266 343.213 198.013 343.397 197.686C343.602 197.337 343.732 196.849 343.786 196.222C343.839 195.586 343.866 194.605 343.866 193.279V183.482C343.866 182.989 343.822 182.626 343.732 182.394C343.652 182.152 343.482 181.95 343.223 181.789C342.978 181.636 342.569 181.452 341.996 181.235C341.936 181.212 341.896 181.155 341.896 181.091C341.896 181.02 341.945 180.958 342.014 180.942L344.123 180.45C345.931 180.028 347.66 181.401 347.66 183.257V193.279C347.66 194.605 347.687 195.586 347.74 196.222C347.794 196.849 347.919 197.337 348.116 197.686C348.308 198.013 348.606 198.266 349.009 198.443C349.06 198.466 349.094 198.516 349.094 198.571C349.094 198.647 349.033 198.708 348.958 198.708H342.568C342.493 198.708 342.432 198.647 342.432 198.571ZM357.122 198.976C356.379 198.976 355.612 198.895 354.822 198.733C353.553 198.473 352.788 197.279 352.631 195.993C352.562 195.415 352.394 194.538 352.126 193.361C352.11 193.291 352.163 193.225 352.234 193.225C352.272 193.225 352.308 193.245 352.328 193.278C353.301 194.853 354.273 195.96 355.245 196.598C356.237 197.234 357.14 197.552 357.953 197.552C358.927 197.552 359.696 197.279 360.259 196.732C360.822 196.185 361.22 195.406 361.452 194.394C361.685 193.382 361.8 192.114 361.8 190.591V190.067C361.8 189.969 361.783 189.892 361.747 189.838C361.711 189.785 361.662 189.758 361.599 189.758C361.528 189.758 361.443 189.807 361.344 189.906C360.773 190.514 360.111 190.998 359.36 191.357C358.61 191.706 357.805 191.881 356.947 191.881C355.884 191.881 354.923 191.648 354.065 191.182C353.217 190.708 352.546 190.04 352.054 189.18C351.563 188.311 351.317 187.312 351.317 186.183C351.317 184.893 351.63 183.751 352.256 182.756C352.881 181.762 353.708 180.992 354.736 180.445C355.764 179.898 356.854 179.625 358.006 179.625C359.535 179.625 360.867 180.033 362.001 180.848C363.137 181.655 364.008 182.774 364.615 184.208C365.232 185.632 365.54 187.254 365.54 189.072C365.54 191.034 365.192 192.764 364.495 194.26C363.798 195.755 362.811 196.916 361.532 197.74C360.264 198.564 358.793 198.976 357.122 198.976ZM358.663 190.242C359.298 190.242 359.856 190.103 360.339 189.825C361.371 189.242 361.714 187.965 361.544 186.792C361.43 186.014 361.279 185.291 361.09 184.624C360.76 183.459 360.304 182.546 359.722 181.883C359.142 181.211 358.454 180.875 357.658 180.875C356.765 180.875 356.072 181.215 355.58 181.896C355.097 182.568 354.856 183.594 354.856 184.974C354.856 185.851 354.999 186.694 355.285 187.5C355.58 188.306 356.014 188.965 356.585 189.476C357.167 189.986 357.859 190.242 358.663 190.242ZM374.819 198.976C373.47 198.976 372.277 198.788 371.24 198.412C370.204 198.036 369.399 197.507 368.827 196.826C368.264 196.145 367.983 195.361 367.983 194.475C367.983 193.525 368.336 192.678 369.042 191.935C369.757 191.191 370.717 190.555 371.924 190.027C371.996 190 372.044 189.973 372.071 189.946C372.107 189.91 372.125 189.865 372.125 189.812C372.125 189.72 372.042 189.653 371.965 189.604C371.942 189.589 371.914 189.573 371.884 189.556C370.722 188.884 369.891 188.149 369.39 187.352C368.899 186.546 368.653 185.65 368.653 184.665C368.653 183.742 368.939 182.895 369.511 182.125C370.092 181.355 370.91 180.745 371.964 180.297C373.019 179.85 374.234 179.625 375.61 179.625C376.745 179.625 377.764 179.8 378.667 180.149C379.578 180.49 380.294 180.965 380.812 181.574C381.33 182.183 381.589 182.873 381.589 183.643C381.589 184.521 381.263 185.31 380.61 186.008C379.959 186.698 379.136 187.299 378.144 187.809C377.992 187.881 377.916 187.966 377.916 188.065C377.916 188.16 377.989 188.235 378.07 188.285C378.089 188.296 378.109 188.308 378.13 188.32C379.597 189.117 380.677 189.919 381.375 190.725C382.072 191.532 382.42 192.476 382.42 193.561C382.42 194.645 382.081 195.599 381.401 196.423C380.723 197.239 379.802 197.87 378.64 198.318C377.487 198.757 376.213 198.976 374.819 198.976ZM375.423 198.049C376.477 198.049 377.309 197.776 377.916 197.229C378.524 196.674 378.828 195.917 378.828 194.958C378.828 194.438 378.72 193.987 378.506 193.601C378.301 193.216 377.988 192.862 377.567 192.539C377.148 192.217 376.58 191.872 375.865 191.505L375.195 191.162C373.894 190.498 372.139 190.66 371.629 192.029C371.388 192.691 371.267 193.382 371.267 194.098C371.267 194.895 371.446 195.594 371.803 196.195C372.161 196.786 372.653 197.243 373.278 197.565C373.904 197.888 374.618 198.049 375.423 198.049ZM375.365 186.959C376.396 187.484 377.788 187.252 378.117 186.143C378.27 185.632 378.345 185.041 378.345 184.369C378.345 183.518 378.184 182.81 377.862 182.246C377.541 181.672 377.112 181.251 376.575 180.983C376.048 180.705 375.463 180.566 374.819 180.566C373.926 180.566 373.211 180.794 372.674 181.251C372.138 181.708 371.87 182.353 371.87 183.186C371.87 183.895 372.111 184.526 372.594 185.081C373.077 185.628 373.801 186.152 374.766 186.654L375.365 186.959ZM390.583 198.976C389.84 198.976 389.073 198.895 388.283 198.733C387.014 198.473 386.247 197.279 386.092 195.993C386.023 195.415 385.855 194.538 385.587 193.361C385.571 193.291 385.624 193.225 385.695 193.225C385.734 193.225 385.77 193.245 385.79 193.278C386.762 194.853 387.734 195.96 388.706 196.598C389.698 197.234 390.601 197.552 391.414 197.552C392.388 197.552 393.157 197.279 393.72 196.732C394.283 196.185 394.68 195.406 394.913 194.394C395.145 193.382 395.262 192.114 395.262 190.591V190.067C395.262 189.969 395.243 189.892 395.208 189.838C395.172 189.785 395.123 189.758 395.061 189.758C394.989 189.758 394.904 189.807 394.806 189.906C394.234 190.514 393.573 190.998 392.822 191.357C392.071 191.706 391.267 191.881 390.409 191.881C389.345 191.881 388.385 191.648 387.527 191.182C386.677 190.708 386.007 190.04 385.516 189.18C385.024 188.311 384.779 187.312 384.779 186.183C384.779 184.893 385.091 183.751 385.717 182.756C386.342 181.762 387.169 180.992 388.197 180.445C389.224 179.898 390.315 179.625 391.468 179.625C392.996 179.625 394.328 180.033 395.463 180.848C396.597 181.655 397.469 182.774 398.077 184.208C398.694 185.632 399.002 187.254 399.002 189.072C399.002 191.034 398.653 192.764 397.956 194.26C397.259 195.755 396.271 196.916 394.994 197.74C393.724 198.564 392.254 198.976 390.583 198.976ZM392.125 190.242C392.759 190.242 393.318 190.103 393.801 189.825C394.832 189.241 395.175 187.965 395.005 186.793C394.891 186.014 394.74 185.291 394.551 184.624C394.22 183.459 393.765 182.546 393.184 181.883C392.602 181.211 391.915 180.875 391.119 180.875C390.225 180.875 389.533 181.215 389.042 181.896C388.559 182.568 388.318 183.594 388.318 184.974C388.318 185.851 388.46 186.694 388.747 187.5C389.042 188.306 389.475 188.965 390.047 189.476C390.628 189.986 391.321 190.242 392.125 190.242Z" fill="#B79D37"/>
<path d="M243.719 229.32C243.669 229.256 243.626 229.242 243.59 229.242C243.519 229.242 243.505 229.285 243.505 229.377L243.647 234.346C243.711 236.182 243.879 236.587 245.304 236.968C245.331 236.975 245.35 237 245.35 237.027C245.35 237.06 245.323 237.087 245.29 237.087H242.323C242.288 237.087 242.259 237.059 242.259 237.023C242.259 236.997 242.275 236.974 242.299 236.964C242.855 236.719 242.964 236.299 242.986 234.346L243.057 228.956C243.057 228.742 243.006 228.606 242.829 228.349C242.532 227.917 242.179 227.513 241.819 227.144C241.813 227.139 241.81 227.131 241.81 227.123C241.81 227.106 241.824 227.092 241.84 227.092H243.004C243.394 227.092 243.758 227.284 243.985 227.602C244.262 227.989 244.425 228.199 244.723 228.571L249.58 234.667C249.651 234.753 249.694 234.774 249.737 234.774C249.78 234.774 249.843 234.739 249.837 234.639L249.666 229.834C249.602 227.997 249.441 227.594 248.017 227.212C247.99 227.205 247.971 227.181 247.971 227.153C247.971 227.12 247.998 227.092 248.031 227.092H250.99C251.025 227.092 251.054 227.121 251.054 227.157C251.054 227.183 251.038 227.206 251.014 227.217C250.458 227.462 250.349 227.881 250.328 229.834L250.278 234.268C250.278 235.143 250.29 236.031 250.336 236.914C250.343 237.047 250.237 237.159 250.104 237.159C250.034 237.159 249.968 237.127 249.924 237.072L243.719 229.32ZM252.597 237.023C252.597 236.997 252.613 236.974 252.637 236.963C253.184 236.718 253.252 236.27 253.252 234.317V229.862C253.252 227.91 253.184 227.463 252.637 227.217C252.613 227.206 252.597 227.183 252.597 227.157C252.597 227.121 252.626 227.092 252.662 227.092H257.774L257.91 227.085C258.546 227.05 259.067 227.55 259.172 228.178C259.229 228.519 259.319 228.929 259.466 229.521C259.475 229.556 259.448 229.591 259.412 229.591C259.39 229.591 259.371 229.579 259.361 229.56C258.487 227.818 257.919 227.621 255.916 227.621C255.121 227.621 254.541 228.306 254.541 229.101V229.452C254.541 230.334 255.269 231.042 256.15 231.019C257.338 230.984 257.562 230.865 257.889 230.062C257.897 230.041 257.917 230.027 257.939 230.027C257.97 230.027 257.994 230.053 257.993 230.083C257.962 230.963 258.002 231.819 258.109 232.699C258.112 232.732 258.087 232.761 258.054 232.761C258.031 232.761 258.011 232.747 258.002 232.726C257.591 231.702 257.341 231.583 256.165 231.547C255.275 231.524 254.541 232.239 254.541 233.129V235.674C254.541 236.324 254.669 236.559 255.987 236.559C258.093 236.559 258.667 236.035 259.902 233.783C259.912 233.765 259.931 233.754 259.951 233.754C259.988 233.754 260.014 233.79 260.003 233.826C259.75 234.661 259.586 235.233 259.479 235.663C259.286 236.441 258.636 237.087 257.834 237.087H252.661C252.626 237.087 252.597 237.059 252.597 237.023ZM262.015 229.862C261.146 227.876 260.914 227.462 260.387 227.217C260.364 227.207 260.348 227.183 260.348 227.157C260.348 227.122 260.377 227.092 260.413 227.092H263.305C263.34 227.092 263.368 227.12 263.368 227.155C263.368 227.182 263.349 227.206 263.324 227.215C262.323 227.577 262.889 228.785 263.296 229.762L265.504 235.031C265.54 235.117 265.59 235.145 265.647 235.145C265.697 235.145 265.754 235.117 265.782 235.024L267.455 230.384C268.042 228.735 268.473 227.62 266.784 227.211C266.757 227.205 266.737 227.18 266.737 227.152C266.737 227.119 266.763 227.092 266.796 227.092H270.154C270.19 227.092 270.219 227.122 270.219 227.157C270.219 227.183 270.203 227.207 270.18 227.217C269.646 227.462 269.414 227.876 268.545 229.862L265.373 237.136C265.357 237.172 265.322 237.195 265.283 237.195C265.244 237.195 265.209 237.172 265.194 237.136L262.015 229.862ZM271.124 237.023C271.124 236.997 271.14 236.974 271.164 236.963C271.712 236.718 271.78 236.27 271.78 234.317V229.862C271.78 227.91 271.712 227.463 271.164 227.217C271.14 227.206 271.124 227.183 271.124 227.157C271.124 227.121 271.153 227.092 271.189 227.092H276.302L276.437 227.085C277.073 227.05 277.594 227.55 277.699 228.178C277.756 228.52 277.847 228.929 277.994 229.52C278.003 229.556 277.976 229.591 277.939 229.591C277.918 229.591 277.898 229.578 277.888 229.559C277.014 227.818 276.447 227.621 274.443 227.621C273.649 227.621 273.069 228.305 273.069 229.1V229.452C273.069 230.334 273.797 231.042 274.678 231.019C275.865 230.984 276.089 230.865 276.417 230.061C276.425 230.041 276.445 230.027 276.467 230.027C276.497 230.027 276.522 230.052 276.52 230.083C276.49 230.963 276.53 231.819 276.636 232.699C276.64 232.732 276.615 232.761 276.582 232.761C276.559 232.761 276.539 232.747 276.53 232.726C276.118 231.702 275.868 231.583 274.693 231.547C273.803 231.524 273.069 232.239 273.069 233.129V235.674C273.069 236.324 273.197 236.559 274.514 236.559C276.621 236.559 277.195 236.035 278.429 233.783C278.439 233.765 278.458 233.754 278.478 233.754C278.515 233.754 278.541 233.791 278.531 233.826C278.278 234.661 278.114 235.234 278.007 235.663C277.814 236.441 277.163 237.087 276.361 237.087H271.188C271.153 237.087 271.124 237.059 271.124 237.023ZM279.79 237.023C279.79 236.997 279.806 236.974 279.829 236.963C280.377 236.718 280.445 236.27 280.445 234.317V229.862C280.445 227.91 280.377 227.463 279.83 227.217C279.806 227.206 279.79 227.183 279.79 227.157C279.79 227.121 279.819 227.092 279.855 227.092H283.123C285.416 227.092 286.954 228.057 286.954 229.956C286.954 231.298 286.008 232.275 284.875 232.754C284.804 232.783 284.775 232.811 284.775 232.854C284.775 232.897 284.804 232.926 284.889 232.961C285.53 233.289 285.879 233.911 286.313 235.082C286.907 236.552 287.158 236.751 287.893 236.968C287.919 236.975 287.937 236.999 287.937 237.026C287.937 237.06 287.91 237.087 287.876 237.087H286.62C285.9 237.087 285.637 237.038 285.345 236.216L284.726 234.503C284.348 233.44 284.035 233.246 282.781 233.197C282.209 233.177 281.735 233.635 281.735 234.208V234.246C281.735 236.248 281.809 236.716 282.351 236.963C282.374 236.974 282.39 236.997 282.39 237.023C282.39 237.058 282.361 237.087 282.326 237.087H279.854C279.819 237.087 279.79 237.059 279.79 237.023ZM281.735 230.995C281.735 231.935 282.511 232.689 283.451 232.661C284.049 232.647 284.384 232.575 284.732 232.297C285.274 231.897 285.701 231.162 285.701 230.277C285.701 228.278 284.455 227.621 282.824 227.621C282.191 227.621 281.735 228.176 281.735 228.808V230.995ZM291.975 237.023C291.975 236.997 291.991 236.974 292.014 236.963C292.562 236.718 292.63 236.27 292.63 234.317V229.862C292.63 227.91 292.562 227.463 292.014 227.217C291.991 227.206 291.975 227.183 291.975 227.157C291.975 227.121 292.004 227.092 292.039 227.092H297.01L297.174 227.083C297.794 227.049 298.301 227.537 298.403 228.15C298.459 228.488 298.548 228.888 298.695 229.468C298.703 229.501 298.678 229.534 298.644 229.534C298.624 229.534 298.606 229.522 298.597 229.505C297.723 227.818 297.156 227.621 295.293 227.621C294.499 227.621 293.919 228.305 293.919 229.1V230.773C293.919 231.655 294.647 232.364 295.529 232.34C296.575 232.312 296.797 232.187 297.125 231.382C297.133 231.361 297.153 231.347 297.175 231.347C297.205 231.347 297.23 231.373 297.228 231.403C297.198 232.284 297.238 233.134 297.345 234.014C297.348 234.046 297.323 234.074 297.291 234.074C297.268 234.074 297.247 234.059 297.239 234.037C296.882 233.015 296.577 232.897 295.543 232.868L295.411 232.865C294.593 232.843 293.919 233.5 293.919 234.317C293.919 236.276 294.015 236.72 294.689 236.966C294.714 236.975 294.731 236.998 294.731 237.025C294.731 237.059 294.703 237.087 294.669 237.087H292.039C292.003 237.087 291.975 237.059 291.975 237.023ZM304.312 237.23C301.62 237.23 299.463 235.088 299.463 232.09C299.463 229.091 301.62 226.95 304.312 226.95C307.004 226.95 309.155 229.091 309.155 232.09C309.155 235.088 307.004 237.23 304.312 237.23ZM304.604 236.552C306.334 236.552 307.887 235.431 307.887 232.618C307.887 229.834 306.334 227.628 304.02 227.628C302.283 227.628 300.73 228.749 300.73 231.562C300.73 234.346 302.289 236.552 304.604 236.552ZM310.683 237.023C310.683 236.997 310.699 236.974 310.722 236.963C311.27 236.718 311.338 236.27 311.338 234.317V229.862C311.338 227.91 311.27 227.463 310.723 227.217C310.699 227.206 310.683 227.183 310.683 227.157C310.683 227.121 310.712 227.092 310.747 227.092H314.016C316.309 227.092 317.847 228.057 317.847 229.956C317.847 231.298 316.9 232.275 315.768 232.754C315.696 232.783 315.668 232.811 315.668 232.854C315.668 232.897 315.696 232.926 315.782 232.961C316.423 233.289 316.772 233.911 317.206 235.082C317.8 236.552 318.051 236.751 318.786 236.968C318.812 236.975 318.83 236.999 318.83 237.026C318.83 237.06 318.803 237.087 318.769 237.087H317.513C316.793 237.087 316.53 237.038 316.238 236.216L315.619 234.503C315.241 233.44 314.927 233.246 313.674 233.197C313.102 233.177 312.627 233.635 312.627 234.208V234.246C312.627 236.248 312.702 236.716 313.243 236.963C313.267 236.974 313.283 236.997 313.283 237.023C313.283 237.058 313.254 237.087 313.219 237.087H310.747C310.711 237.087 310.683 237.059 310.683 237.023ZM312.627 230.995C312.627 231.935 313.404 232.689 314.343 232.661C314.942 232.647 315.277 232.575 315.625 232.297C316.166 231.897 316.594 231.162 316.594 230.277C316.594 228.278 315.348 227.621 313.717 227.621C313.084 227.621 312.627 228.176 312.627 228.808V230.995ZM323.979 237.23C321.515 237.23 319.436 235.302 319.436 232.297C319.436 229.27 321.729 226.95 324.827 226.95C325.27 226.95 325.803 226.998 326.35 227.113C326.946 227.239 327.309 227.796 327.399 228.398C327.455 228.773 327.55 229.276 327.712 230.094C327.719 230.129 327.692 230.162 327.657 230.162C327.634 230.162 327.613 230.147 327.605 230.126C326.701 227.826 325.44 227.6 324.257 227.6C322.413 227.6 320.604 228.956 320.604 231.676C320.604 234.667 322.498 236.338 324.599 236.338C325.946 236.338 326.714 234.997 326.714 233.651V233.411C326.714 233.275 326.629 233.218 326.494 233.232L323.991 233.425C323.759 233.442 323.575 233.23 323.627 233.003C323.662 232.845 323.803 232.732 323.965 232.732H326.668C327.381 232.732 327.91 233.369 327.91 234.082V237.163C327.91 237.196 327.884 237.223 327.851 237.223C327.834 237.223 327.819 237.217 327.807 237.205L326.935 236.288C326.885 236.23 326.836 236.209 326.771 236.209C326.722 236.209 326.665 236.238 326.608 236.281C325.895 236.895 324.97 237.23 323.979 237.23ZM334.356 237.23C331.664 237.23 329.507 235.088 329.507 232.09C329.507 229.091 331.664 226.95 334.356 226.95C337.048 226.95 339.199 229.091 339.199 232.09C339.199 235.088 337.048 237.23 334.356 237.23ZM334.648 236.552C336.378 236.552 337.931 235.431 337.931 232.618C337.931 229.834 336.378 227.628 334.064 227.628C332.327 227.628 330.774 228.749 330.774 231.562C330.774 234.346 332.333 236.552 334.648 236.552ZM343.057 237.023C343.057 236.997 343.073 236.974 343.096 236.963C343.644 236.718 343.712 236.27 343.712 234.317V227.977C343.712 227.78 343.553 227.621 343.356 227.621C341.367 227.621 340.834 227.988 339.974 229.803C339.965 229.821 339.946 229.834 339.926 229.834C339.892 229.834 339.867 229.802 339.874 229.769C340.014 229.127 340.105 228.674 340.164 228.305C340.277 227.607 340.87 227.054 341.576 227.092H347.138L347.153 227.092C347.857 227.053 348.441 227.602 348.551 228.298C348.609 228.668 348.698 229.123 348.84 229.769C348.847 229.802 348.822 229.834 348.788 229.834C348.767 229.834 348.748 229.821 348.74 229.803C347.879 227.988 347.347 227.621 345.358 227.621C345.161 227.621 345.002 227.78 345.002 227.977V234.317C345.002 236.27 345.07 236.718 345.617 236.963C345.641 236.974 345.657 236.997 345.657 237.023C345.657 237.059 345.628 237.087 345.593 237.087H343.121C343.086 237.087 343.057 237.059 343.057 237.023ZM352.641 237.023C352.641 236.997 352.657 236.974 352.68 236.963C353.228 236.718 353.296 236.27 353.296 234.317V227.977C353.296 227.78 353.137 227.621 352.94 227.621C350.95 227.621 350.417 227.988 349.557 229.803C349.548 229.821 349.529 229.834 349.509 229.834C349.475 229.834 349.45 229.802 349.457 229.769C349.598 229.127 349.688 228.673 349.748 228.304C349.86 227.607 350.454 227.054 351.16 227.092H356.721L356.736 227.092C357.44 227.053 358.024 227.602 358.134 228.298C358.193 228.668 358.282 229.123 358.424 229.769C358.431 229.802 358.406 229.834 358.372 229.834C358.351 229.834 358.332 229.821 358.324 229.803C357.463 227.988 356.931 227.621 354.941 227.621C354.744 227.621 354.585 227.78 354.585 227.977V234.317C354.585 236.27 354.653 236.718 355.201 236.963C355.224 236.974 355.24 236.997 355.24 237.023C355.24 237.059 355.211 237.087 355.176 237.087H352.705C352.67 237.087 352.641 237.059 352.641 237.023ZM359.561 237.023C359.561 236.997 359.576 236.974 359.6 236.963C360.148 236.718 360.216 236.27 360.216 234.317V229.862C360.216 227.91 360.148 227.463 359.6 227.217C359.577 227.206 359.561 227.183 359.561 227.157C359.561 227.121 359.59 227.092 359.625 227.092H364.738L364.873 227.085C365.509 227.05 366.03 227.55 366.135 228.178C366.192 228.519 366.282 228.929 366.429 229.521C366.438 229.556 366.412 229.591 366.375 229.591C366.354 229.591 366.334 229.579 366.325 229.56C365.451 227.818 364.882 227.621 362.879 227.621C362.085 227.621 361.504 228.306 361.504 229.101V229.452C361.504 230.334 362.232 231.042 363.114 231.019C364.301 230.984 364.525 230.865 364.852 230.062C364.86 230.041 364.88 230.027 364.902 230.027C364.933 230.027 364.958 230.053 364.957 230.083C364.925 230.963 364.966 231.819 365.072 232.699C365.076 232.732 365.05 232.761 365.017 232.761C364.995 232.761 364.974 232.747 364.966 232.726C364.554 231.702 364.304 231.583 363.128 231.547C362.238 231.524 361.504 232.239 361.504 233.129V235.674C361.504 236.324 361.633 236.559 362.951 236.559C365.056 236.559 365.63 236.035 366.866 233.783C366.875 233.765 366.894 233.754 366.914 233.754C366.951 233.754 366.977 233.79 366.966 233.826C366.713 234.661 366.549 235.233 366.443 235.663C366.25 236.441 365.599 237.087 364.798 237.087H359.625C359.589 237.087 359.561 237.059 359.561 237.023ZM369.822 229.32C369.771 229.256 369.729 229.242 369.693 229.242C369.622 229.242 369.608 229.285 369.608 229.377L369.75 234.346C369.813 236.182 369.981 236.587 371.406 236.968C371.433 236.975 371.452 237 371.452 237.027C371.452 237.06 371.425 237.087 371.392 237.087H368.425C368.39 237.087 368.361 237.059 368.361 237.023C368.361 236.997 368.377 236.974 368.401 236.964C368.958 236.719 369.067 236.299 369.088 234.346L369.159 228.956C369.159 228.742 369.109 228.606 368.931 228.349C368.634 227.917 368.281 227.513 367.922 227.144C367.916 227.139 367.913 227.131 367.913 227.123C367.913 227.106 367.927 227.092 367.943 227.092H369.107C369.496 227.092 369.861 227.284 370.087 227.601C370.364 227.988 370.528 228.199 370.825 228.571L375.682 234.667C375.754 234.753 375.796 234.774 375.839 234.774C375.882 234.774 375.946 234.739 375.939 234.639L375.768 229.834C375.705 227.997 375.543 227.594 374.119 227.212C374.092 227.205 374.073 227.181 374.073 227.153C374.073 227.12 374.1 227.092 374.133 227.092H377.093C377.128 227.092 377.157 227.121 377.157 227.157C377.157 227.183 377.141 227.206 377.117 227.217C376.56 227.462 376.451 227.881 376.43 229.834L376.38 234.268C376.38 235.143 376.392 236.031 376.438 236.914C376.445 237.047 376.339 237.159 376.206 237.159C376.136 237.159 376.07 237.127 376.026 237.072L369.822 229.32Z" fill="#0C0C0C"/>
</g>
</g>
<defs>
<clipPath id="clip0_830_3025">
<rect width="620" height="299" fill="white"/>
</clipPath>
</defs>
</svg>
