<svg width="160" height="170" viewBox="0 0 160 170" fill="none" xmlns="http://www.w3.org/2000/svg">
<path d="M49.566 108.328C49.566 108.328 31.258 76.699 31.258 39.039C31.258 18.887 38.207 13.73 45.313 13.73C52.379 13.73 52.871 18.781 52.871 20.848C52.871 28.539 44.93 31.348 44.93 42.109C44.93 52.855 53.844 53.223 53.844 53.223L44.086 61.523C44.086 61.523 42.606 90.367 49.566 108.328ZM114.57 42.109C114.57 31.348 106.637 28.539 106.637 20.848C106.637 18.781 107.129 13.731 114.207 13.731C121.301 13.731 128.254 18.887 128.254 39.039C128.254 76.699 109.934 108.328 109.934 108.328C116.902 90.368 115.43 61.523 115.43 61.523L105.66 53.223C105.66 53.223 114.57 52.856 114.57 42.109ZM96.242 138.031C96.242 138.031 133.516 102.227 133.516 36.121C133.516 21.461 127.289 8 114.707 8C103.949 8 101.508 17.047 101.508 20.227C101.508 29.883 108.586 34.418 108.586 42.84C108.586 42.84 103.949 36.602 79.754 36.602C55.554 36.602 50.93 42.84 50.93 42.84C50.93 34.418 58 29.883 58 20.227C58 17.047 55.555 8 44.805 8C32.219 8 26 21.46 26 36.121C26 102.227 63.25 138.031 63.25 138.031C63.25 144.871 68.879 144.871 68.879 144.871V152.449C68.879 157.586 54.339 160.75 52.984 160.75C51.652 160.75 49.809 161.723 49.809 164.43C49.809 167.102 69.121 167.852 79.754 167.852C90.387 167.852 109.695 167.102 109.695 164.43C109.695 161.723 107.863 160.75 106.512 160.75C105.164 160.75 90.632 157.586 90.632 152.449V144.871C90.632 144.871 96.242 144.871 96.242 138.031Z" fill="#606F7F"/>
</svg>
