<svg width="160" height="170" viewBox="0 0 160 170" fill="none" xmlns="http://www.w3.org/2000/svg">
<path d="M110.042 90.133C106.944 93.969 106.273 93.903 105.566 93.801C105.062 92.859 104.319 92.727 103.312 93.231C102.3 93.734 102.64 95.25 102.64 95.25C102.64 95.25 98.6001 95.887 96.6161 101.203C96.0891 102.617 95.8741 103.801 95.8461 104.785C94.3361 100.898 93.5151 94.738 97.0381 84.165C97.0381 84.165 98.7681 83.235 98.8701 81.707C99.7601 80.926 100.273 80.082 100.546 79.262C100.984 79.457 100.901 79.953 101.058 80.547C101.663 82.227 102.64 82.699 103.401 82.699C104.163 82.699 105.413 82.059 105.413 80.762C105.413 78.492 103.401 78.75 103.401 78.75C102.21 76.953 106.101 70.832 110.577 73.816C115.839 77.32 113.136 86.296 110.042 90.133ZM63.5111 104.785C63.4831 103.801 63.2731 102.617 62.7411 101.203C60.7571 95.887 56.7181 95.25 56.7181 95.25C56.7181 95.25 57.0581 93.734 56.0461 93.23C55.0381 92.727 54.2961 92.86 53.7921 93.8C53.0851 93.902 52.4131 93.969 49.3191 90.133C46.2221 86.297 43.5191 77.32 48.7801 73.816C53.2571 70.832 57.1481 76.953 55.9601 78.75C55.9601 78.75 53.9441 78.492 53.9441 80.762C53.9441 82.059 55.1981 82.699 55.9601 82.699C56.7181 82.699 57.6941 82.227 58.3001 80.547C58.4561 79.953 58.3741 79.457 58.8161 79.262C59.0861 80.082 59.5961 80.926 60.4871 81.707C60.5891 83.234 62.3231 84.164 62.3231 84.164C65.8431 94.738 65.0231 100.898 63.5111 104.785ZM116.265 77.785C115.862 73.175 112.632 71.563 111.589 70.957C110.546 70.352 110.241 69.394 109.132 69.227C108.023 69.059 109.03 70.148 109.03 70.453C109.03 70.753 108.222 70.352 106.609 70.687C102.269 71.832 101.292 74.285 100.956 75.297C100.819 75.703 100.636 75.691 100.464 75.539C100.425 75.4235 100.383 75.3088 100.339 75.195C100.31 75.1294 100.305 75.0559 100.324 74.9869C100.344 74.9179 100.386 74.8575 100.444 74.816C100.804 74.551 101.495 73.937 101.394 73.176C101.257 72.148 98.8741 72.488 97.9951 72.117C96.4481 71.461 96.3121 69.644 95.7061 69.695C95.6751 69.02 94.7341 68.684 94.7341 68.684C94.4951 65.774 91.1161 66.633 90.4241 66.328C90.0581 66.168 90.0141 65.82 89.5341 65.672C88.3591 65.312 86.6241 65.192 86.1361 65C85.4441 64.73 84.4681 63.3 84.4681 63.3C84.4681 63.3 85.0581 62.781 85.0581 62.41C85.0581 62.41 86.2681 61.938 86.2681 61.2C86.2681 61.2 88.6241 60.39 88.1711 58.355C87.8861 57.078 85.3431 56.492 84.1981 56.293C83.8374 56.229 83.4957 56.0848 83.1981 55.871C82.7881 55.574 82.1831 55.176 81.7841 55.078C81.6591 55.047 81.6981 54.641 81.6981 54.555C81.6981 54.199 81.1361 54.094 81.1361 53.941V53.406C81.1361 53.406 81.4331 53.375 81.4331 53.207V52.852C81.4331 52.758 81.0971 52.742 81.0971 52.66V52.441C81.0971 52.441 81.3471 52.355 81.3471 52.105C81.3471 51.781 81.3471 51.492 82.2341 51.262H82.2301C82.9131 51.07 84.1321 50.484 84.1321 48.715C84.1321 47 81.7761 46.965 81.7761 44.141V41.648L82.1321 41.5C82.4921 41.344 82.3781 40.809 81.9921 40.809H80.5071V40.781C80.5071 40.5739 80.4248 40.3752 80.2784 40.2287C80.1319 40.0823 79.9333 40 79.7261 40H79.6321C79.425 40 79.2263 40.0823 79.0799 40.2287C78.9334 40.3752 78.8511 40.5739 78.8511 40.781V40.809H77.3711C76.9801 40.809 76.8711 41.344 77.2261 41.5L77.5811 41.648V44.141C77.5811 46.965 75.2261 47 75.2261 48.715C75.2261 50.485 76.4441 51.07 77.1281 51.262C78.0111 51.492 78.0111 51.782 78.0111 52.105C78.0111 52.355 78.2611 52.441 78.2611 52.441V52.661C78.2611 52.742 77.9251 52.758 77.9251 52.851V53.207C77.9251 53.375 78.2221 53.407 78.2221 53.407V53.941C78.2221 54.094 77.6591 54.199 77.6591 54.555C77.6591 54.641 77.6991 55.047 77.5731 55.078C77.1751 55.176 76.5691 55.574 76.1591 55.871C75.8616 56.0848 75.5199 56.229 75.1591 56.293C74.0151 56.493 71.4721 57.078 71.1871 58.356C70.7341 60.391 73.0891 61.199 73.0891 61.199C73.0891 61.938 74.2991 62.41 74.2991 62.41C74.2991 62.781 74.8891 63.3 74.8891 63.3C74.8891 63.3 73.9131 64.73 73.2221 65C72.7341 65.191 71.0031 65.313 69.8271 65.672C69.3431 65.82 69.3001 66.168 68.9331 66.328C68.2451 66.633 64.8631 65.773 64.6281 68.684C64.6281 68.684 63.6831 69.019 63.6511 69.695C63.0461 69.645 62.9091 71.461 61.3621 72.117C60.4871 72.488 58.1011 72.148 57.9641 73.176C57.8661 73.937 58.5541 74.551 58.9141 74.816C58.9722 74.858 59.0146 74.9182 59.0343 74.9872C59.0541 75.0561 59.0501 75.1296 59.0231 75.196C58.9831 75.286 58.9401 75.402 58.8931 75.539C58.7221 75.691 58.5381 75.703 58.4011 75.297C58.0651 74.285 57.0891 71.832 52.7491 70.687C51.1361 70.352 50.3271 70.754 50.3271 70.453C50.3271 70.148 51.3391 69.059 50.2261 69.227C49.1161 69.394 48.8121 70.352 47.7691 70.957C46.7261 71.563 43.4951 73.176 43.0931 77.785C42.6901 82.395 43.5301 86.129 46.8931 90.977C50.2611 95.82 54.2301 96.223 54.9011 96.223C54.9011 96.223 54.4991 98.074 55.6751 98.445C56.8551 98.816 56.7881 97.703 57.3941 97.875C57.9991 98.043 59.1741 98.547 60.2531 101.07C61.3311 103.594 61.1941 105.141 60.7221 105.375C60.2531 105.609 58.5031 106.285 59.1751 107.934C59.5811 108.922 60.6121 108.977 61.3751 108.863C60.5581 110.199 60.0771 111.078 60.6911 111.938C60.1401 112 59.8551 112.48 59.7141 112.855C59.5894 113.189 59.4199 113.505 59.2101 113.793C58.1281 115.285 55.3231 119.922 58.5701 124.203C62.1871 128.965 68.3661 130.746 72.7411 130.773C72.7411 130.773 72.5261 131.75 73.4481 131.969C72.6081 132.484 73.0381 133.566 73.0381 133.566C73.0381 133.566 66.8471 134.59 66.1241 134.707C65.4051 134.824 65.9721 135.66 65.9721 136.367C64.8741 136.633 64.7141 137.066 64.7611 137.379C64.7752 137.472 64.7574 137.567 64.7105 137.649C64.6637 137.73 64.5906 137.793 64.5031 137.828C63.6431 138.176 63.4091 139.523 63.4091 139.523L62.7761 140.078C62.5731 140.254 62.3271 140.363 62.0661 140.43C60.9011 140.727 59.4521 142.035 61.2611 143.328L61.1831 143.707C61.1241 144.367 61.5971 144.391 61.3471 146.762C61.1441 148.664 60.5541 150.664 60.5541 150.664C60.5541 150.664 58.3941 152.492 58.3001 153.859C56.2221 153.953 56.3501 156.215 56.3501 156.215C54.3821 157.242 54.6671 158.941 54.6671 158.941C52.5851 159.574 51.9641 161.387 51.7841 162.469C51.726 162.799 51.7607 163.138 51.8843 163.449C52.0079 163.76 52.2156 164.03 52.4841 164.23C54.2731 165.531 60.1871 167.758 79.6791 167.758C99.1711 167.758 105.085 165.531 106.874 164.23C107.143 164.031 107.351 163.76 107.476 163.449C107.6 163.138 107.635 162.799 107.577 162.469C107.394 161.387 106.773 159.574 104.691 158.941C104.691 158.941 104.976 157.242 103.007 156.215C103.007 156.215 103.136 153.953 101.058 153.859C100.964 152.492 98.8041 150.664 98.8041 150.664C98.8041 150.664 98.2141 148.664 98.0111 146.762C97.7611 144.391 98.2371 144.367 98.1751 143.707L98.0971 143.328C99.9051 142.035 98.4571 140.727 97.2921 140.43C97.0313 140.37 96.7882 140.249 96.5821 140.078L95.9481 139.523C95.9481 139.523 95.7141 138.176 94.8551 137.828C94.7677 137.793 94.6946 137.73 94.6478 137.649C94.6009 137.567 94.583 137.472 94.5971 137.379C94.6471 137.066 94.4841 136.633 93.3861 136.367C93.3861 135.66 93.9561 134.824 93.2341 134.707C92.5111 134.59 86.3191 133.566 86.3191 133.566C86.3191 133.566 86.7531 132.484 85.9131 131.969C86.8351 131.75 86.6161 130.773 86.6161 130.773C90.9911 130.746 97.1711 128.965 100.788 124.203C104.034 119.922 101.23 115.285 100.148 113.793C99.9397 113.504 99.7702 113.188 99.6441 112.855C99.5031 112.48 99.2141 112 98.6671 111.938C99.2801 111.078 98.8001 110.199 97.9841 108.863C98.7451 108.977 99.7801 108.922 100.183 107.934C100.855 106.285 99.1051 105.609 98.6361 105.375C98.1631 105.141 98.0301 103.594 99.1051 101.07C100.183 98.547 101.359 98.043 101.964 97.875C102.569 97.703 102.503 98.816 103.683 98.445C104.859 98.075 104.456 96.223 104.456 96.223C105.128 96.223 109.097 95.82 112.464 90.977C115.827 86.129 116.667 82.394 116.265 77.785Z" fill="#606F7F"/>
</svg>
