<svg width="160" height="170" viewBox="0 0 160 170" fill="none" xmlns="http://www.w3.org/2000/svg">
<path d="M101.643 163.082C101.467 162.152 99.8458 159.289 98.9278 157.707C98.8928 157.641 98.8538 157.578 98.8148 157.512L98.8068 157.496C92.9988 147.512 89.4518 134.035 89.4518 134.035C80.2598 93.613 99.0768 67.769 99.0768 67.769C99.0768 67.769 97.8538 67.676 96.4358 68.168C96.7558 67.184 96.9358 66.118 97.0338 65.305C97.0876 64.8732 97.1253 64.4396 97.1468 64.005H97.1428C97.1548 63.703 97.1698 63.398 97.1698 63.094C97.1698 53.117 89.0498 45 79.0728 45C69.0928 45 60.9748 53.117 60.9748 63.094C60.9748 65.16 61.3418 67.137 61.9828 68.984H61.9788C61.5918 68.621 60.8808 68.269 60.2208 68C60.1818 67.98 60.1428 67.96 60.0998 67.945L60.0498 67.93C59.3268 67.64 58.7098 67.453 58.7098 67.453C59.5608 68.879 60.9628 71.187 62.5528 74.285C66.1308 81.457 71.0928 93.746 72.2948 108.633C72.8378 116.32 72.3848 124.844 70.2948 134.035C70.2948 134.035 68.1658 142.012 64.2648 151.051L64.1858 151.227C61.7868 156.953 59.4708 160.871 58.2408 162.777C57.7408 163.555 58.0488 164.59 58.8928 164.969C61.4908 166.137 67.6658 168.086 79.8928 168.086C91.7798 168.086 97.9478 166.242 100.67 165.07C101.041 164.908 101.343 164.619 101.522 164.255C101.7 163.891 101.743 163.475 101.643 163.082Z" fill="#606F7F"/>
</svg>
