<svg width="160" height="170" viewBox="0 0 160 170" fill="none" xmlns="http://www.w3.org/2000/svg">
<path d="M120.111 113.113C118.673 114.355 115.017 116.816 113.244 118.613C110.966 120.93 112.017 121.699 111.212 122.051C110.212 122.484 109.275 122.156 108.372 121.523C107.911 121.199 108.396 119.727 107.951 119.457C107.599 119.242 106.954 119.379 106.349 119.582C106.533 117.336 106.677 115.398 106.677 114.961C106.687 114.643 106.592 114.331 106.406 114.073C106.22 113.815 105.955 113.626 105.65 113.535V110.824C105.65 109.496 105.724 108.25 105.849 107.07C106.283 107.066 106.794 106.727 107.228 105.09C107.845 102.758 108.814 103.113 109.56 103.277C110.267 103.43 111.087 104.402 111.833 102.281C111.874 102.169 111.939 102.068 112.023 101.984C112.108 101.901 112.21 101.837 112.322 101.797C112.798 101.617 113.63 101.234 114.052 100.625C114.173 100.449 114.415 100.41 114.564 100.559C115.111 101.102 116.193 102.07 116.357 101.367C116.646 100.105 117.165 99.039 117.454 99.168C117.747 99.297 118.232 100.719 120.372 99.402C120.99 98.918 123.853 100.039 124.306 102.723C124.759 105.41 124.9 108.973 120.111 113.113ZM55.2309 113.535C55.2309 113.535 54.2009 113.797 54.2009 114.961C54.2009 115.398 54.3489 117.336 54.5289 119.582C53.9229 119.379 53.2789 119.242 52.9269 119.457C52.4859 119.727 52.9699 121.199 52.5089 121.523C51.6069 122.156 50.6649 122.484 49.6689 122.051C48.8609 121.699 49.9149 120.93 47.6339 118.613C45.8639 116.816 42.2039 114.355 40.7709 113.113C35.9809 108.973 36.1219 105.41 36.5749 102.723C37.0289 100.039 39.8919 98.918 40.5049 99.403C42.6499 100.719 43.1349 99.297 43.4229 99.168C43.7159 99.039 44.2359 100.105 44.5249 101.367C44.6889 102.07 45.7709 101.102 46.3179 100.559C46.4659 100.41 46.7049 100.449 46.8259 100.625C47.2509 101.234 48.0799 101.617 48.5599 101.797C48.6713 101.837 48.7724 101.901 48.856 101.985C48.9397 102.069 49.0038 102.17 49.0439 102.281C49.7899 104.402 50.6139 103.43 51.3219 103.277C52.0679 103.113 53.0359 102.758 53.6539 105.09C54.0839 106.727 54.5989 107.066 55.0329 107.07C55.1579 108.25 55.2319 109.496 55.2319 110.824L55.2309 113.535ZM131.826 95.575C131.337 94.925 128.751 97.094 128.134 96.805C127.521 96.512 122.017 90.675 114.9 94.246C114.9 94.246 113.411 94.238 113.669 93.094C113.927 91.949 112.244 93.114 111.79 93.602C111.357 94.066 109.044 96.41 111.001 97.285C111.158 97.352 111.212 97.547 111.134 97.695C110.564 98.738 109.396 98.898 109.576 99.52C109.747 100.129 108.904 100.652 107.544 99.566C107.56 99.527 107.572 99.484 107.587 99.446C107.587 99.446 108.419 97.602 107.31 97.602C107.548 97.336 107.587 97.098 107.587 97.098V96.41C108.896 96.2 110.29 94.313 110.29 94.313H110.283C110.462 94.144 110.564 93.973 110.564 93.801C110.564 91.699 97.0759 90 80.4389 90C63.8059 90 50.3179 91.7 50.3179 93.8C50.3179 93.973 50.4189 94.144 50.5989 94.313H50.5909C50.5909 94.313 51.9859 96.199 53.2939 96.41V97.098C53.2939 97.098 53.3299 97.336 53.5679 97.602C52.4619 97.602 53.2939 99.445 53.2939 99.445C53.3059 99.485 53.3219 99.527 53.3339 99.566C51.9779 100.652 51.1299 100.129 51.3059 99.519C51.4819 98.899 50.3179 98.739 49.7469 97.695C49.6649 97.547 49.7239 97.352 49.8769 97.285C51.8369 96.41 49.5249 94.066 49.0869 93.602C48.6379 93.113 46.9539 91.949 47.2119 93.094C47.4699 94.238 45.9819 94.246 45.9819 94.246C38.8649 90.676 33.3609 96.512 32.7429 96.805C32.1299 97.094 29.5399 94.925 29.0559 95.575C28.5719 96.223 31.3879 99.488 31.3879 99.488C31.3879 99.488 29.5249 101.809 30.8999 107.254C32.8329 114.906 42.9039 118.402 44.3959 120.332C44.8719 120.949 43.5679 122.281 44.1999 123.523C44.7549 124.617 46.4269 124.949 47.3569 125.273C49.4579 126.012 49.3529 127.301 50.1569 127.133C50.7049 127.02 50.1459 126.266 50.7549 125.941C51.7349 125.414 52.7119 124.305 53.2319 124.152C54.6539 123.73 54.6219 124.992 54.6219 125.512C54.6219 126.027 54.8179 127.254 52.6149 127.422C49.9149 127.625 49.9499 129.34 51.2549 131.984C51.6849 132.848 50.0289 133.246 49.8999 133.895C49.8329 134.219 51.5439 134.684 52.6149 133.98C53.6649 133.289 54.0719 131.434 54.0719 131.434C54.5519 131.234 54.9899 130.984 55.3919 130.695C56.3099 138.879 61.1299 145.879 67.9539 149.789C68.3059 149.988 68.5839 150.293 68.7399 150.668L68.7469 150.684C68.9229 151.121 68.8099 151.621 68.4539 151.93L64.0049 155.82C63.2869 156.445 62.8759 157.352 62.8759 158.426V159.211C62.8759 159.844 62.4899 160.395 61.9109 160.648C61.1649 160.98 60.5359 161.617 60.1259 162.105C59.6299 162.703 59.6149 163.586 60.1109 164.184C61.3809 165.719 65.7009 167.938 80.4389 167.938C95.1809 167.938 99.5009 165.719 100.771 164.184C101.267 163.586 101.251 162.703 100.751 162.105C100.345 161.617 99.7119 160.98 98.9709 160.648C98.3919 160.395 98.0049 159.844 98.0049 159.211V158.426C98.0049 157.352 97.5949 156.445 96.8759 155.82L92.4269 151.93C92.2537 151.779 92.1322 151.578 92.0797 151.354C92.0271 151.131 92.0461 150.896 92.1339 150.684L92.1419 150.668C92.2939 150.293 92.5759 149.988 92.9229 149.789C99.7469 145.879 104.572 138.879 105.486 130.695C105.888 130.984 106.329 131.234 106.806 131.434C106.806 131.434 107.216 133.289 108.267 133.98C109.337 134.684 111.048 134.219 110.982 133.895C110.853 133.246 109.197 132.848 109.622 131.984C110.931 129.34 110.966 127.625 108.263 127.422C106.06 127.254 106.255 126.027 106.255 125.512C106.255 124.992 106.224 123.73 107.65 124.152C108.169 124.305 109.146 125.414 110.126 125.941C110.736 126.266 110.177 127.02 110.72 127.133C111.529 127.301 111.423 126.012 113.525 125.273C114.454 124.949 116.122 124.617 116.681 123.523C117.314 122.281 116.005 120.949 116.486 120.332C117.978 118.402 128.044 114.906 129.982 107.254C131.357 101.809 129.494 99.488 129.494 99.488C129.494 99.488 132.31 96.224 131.826 95.575Z" fill="#606F7F"/>
</svg>
