<svg width="160" height="163" viewBox="0 0 160 163" fill="none" xmlns="http://www.w3.org/2000/svg">
<g clip-path="url(#clip0_645_10272)">
<path d="M153.527 81.8664L153.684 82.0534L153.332 82.5464C150.975 80.4209 147.913 79.2461 144.738 79.2494H142.609V78.3744L143.891 76.8854C143.984 76.7766 144.053 76.6492 144.092 76.5118C144.131 76.3743 144.141 76.23 144.12 76.0886C144.098 75.9472 144.047 75.812 143.969 75.6921C143.892 75.5721 143.789 75.4703 143.668 75.3934C141.875 74.2484 140.4 72.6703 139.378 70.8046C138.356 68.9389 137.82 66.8457 137.82 64.7184V60.4084C137.938 60.3084 138.086 60.1984 138.273 60.1824C139.188 60.8704 141.938 61.1524 143.156 58.3544C143.68 57.1554 143.543 56.2064 143.137 55.5034C143.641 56.1434 144.312 56.7104 145.176 57.1554C146.367 57.7604 146.84 58.7494 147.352 59.2374C147.395 59.2724 147.461 59.2414 147.453 59.1824C147.418 58.8034 147.379 57.8704 147.895 58.0104C148.676 58.2304 148.969 59.1514 148.535 59.5894C148.254 59.8694 147.93 59.7764 147.738 59.6744C147.719 59.6636 147.697 59.6582 147.675 59.6587C147.653 59.6592 147.632 59.6656 147.613 59.6773C147.594 59.6889 147.579 59.7054 147.569 59.7249C147.559 59.7445 147.554 59.7664 147.555 59.7884C147.582 60.9244 149.844 60.7604 149.41 58.7994C149.391 58.7064 149.504 58.6474 149.562 58.7184C150.305 59.6124 152.195 62.2724 149.672 63.5854C148.332 62.8974 146.766 63.3434 146.238 64.7724C145.926 65.6164 146.105 66.8004 146.582 67.6124C147.195 68.6594 148.32 69.2844 148.504 69.4254C148.621 69.5154 149.078 73.2954 150.266 73.2954C151.016 73.2954 151.734 71.6634 152.203 71.2954C152.234 72.8584 153.793 73.4214 153.793 73.4214C153.793 77.5114 153.141 78.1474 153.141 78.8744C153.141 79.6004 154.074 80.0104 154.074 80.0104L153.598 80.4674C153.412 80.6483 153.301 80.8933 153.287 81.1529C153.274 81.4126 153.36 81.6675 153.527 81.8664ZM140.66 55.8314C140.708 55.8664 140.759 55.8965 140.812 55.9214C141.422 56.1514 141.516 56.5304 141.395 57.2334C141.27 57.9334 142.406 57.6514 142.406 57.6514C141.984 59.1984 140.578 59.4794 139.828 59.4794C139.43 58.6124 138.793 58.4594 138.402 58.4564L140.66 55.8314ZM142.719 51.3514C142.718 51.3102 142.728 51.2694 142.746 51.2329C142.765 51.1963 142.793 51.1652 142.828 51.1425C142.862 51.1197 142.902 51.1062 142.943 51.103C142.984 51.0998 143.025 51.1072 143.062 51.1244C143.418 51.2924 143.992 51.5074 144.582 51.5104C144.61 51.511 144.637 51.5172 144.662 51.5288C144.687 51.5404 144.71 51.557 144.728 51.5777C144.746 51.5984 144.76 51.6226 144.769 51.6489C144.777 51.6752 144.78 51.7029 144.777 51.7304C144.715 52.4404 144.848 54.5464 146.77 54.4364C149.285 54.2924 148.488 51.5034 146.957 51.7214C146.957 51.7214 146.863 50.6914 147.957 50.3464C148.883 50.0534 150.25 50.6824 150.324 53.1244C150.326 53.1435 150.321 53.1625 150.312 53.1792C150.303 53.1959 150.289 53.2096 150.272 53.2186C150.255 53.2277 150.236 53.2317 150.217 53.2303C150.198 53.2288 150.18 53.2219 150.164 53.2104C149.996 53.0894 149.734 52.9284 149.516 52.9684C149.516 52.9684 150.461 54.2884 149.422 55.3274C149.217 55.5328 148.989 55.7137 148.742 55.8664L148.73 55.6004C148.729 55.5488 148.714 55.4986 148.686 55.4549C148.659 55.4112 148.62 55.3755 148.575 55.3517C148.529 55.3278 148.478 55.3166 148.426 55.3192C148.374 55.3218 148.325 55.3381 148.281 55.3664C147.453 55.9054 146.297 56.1244 145.52 55.9364C144.184 55.6084 142.848 53.9574 142.719 51.3514ZM143.773 48.6914C144.148 46.8704 146.141 46.4994 146.77 46.4284C146.793 46.4258 146.816 46.4287 146.837 46.4367C146.858 46.4447 146.877 46.4576 146.893 46.4744C146.908 46.4912 146.919 46.5114 146.925 46.5333C146.931 46.5552 146.931 46.5782 146.926 46.6004C146.82 47.1084 146.539 48.4134 147.52 49.1284C147.52 49.1284 145.691 49.2454 145.055 50.7924C145.036 50.8429 144.998 50.8838 144.949 50.9062C144.9 50.9287 144.844 50.9309 144.793 50.9124C144.375 50.7524 143.453 50.2264 143.773 48.6914ZM151.578 56.1554C152.562 55.8744 152.672 57.0774 151.359 57.4644C150.047 57.8544 149.004 56.7184 149.004 56.7184C150.047 56.3744 150.938 54.9684 150.797 55.2334C150.656 55.4994 150.594 56.4364 151.578 56.1554ZM149.953 66.2724C151.297 65.4054 150.324 64.0224 150.324 64.0224C150.758 63.8354 151.453 63.0224 151.453 63.0224C151.453 63.0224 151.391 64.2104 151.391 64.9794C151.391 65.7494 151.984 66.0494 151.984 66.0494C151.953 66.4254 151.219 67.3034 150.809 67.3034C149.969 67.3034 149.953 66.2724 149.953 66.2724ZM150.324 68.2684C149.855 68.4564 149.266 68.3934 149.266 68.3934C147.988 68.3934 147.02 67.3624 147.238 66.2414C147.383 65.5034 147.895 65.4054 147.895 65.4054C148.102 66.4254 149.332 66.4284 149.332 66.4284C148.871 67.6484 150.324 68.2684 150.324 68.2684ZM153.793 64.7484V69.2454C152.699 69.6054 152.461 70.4874 152.461 70.4874V66.1084C152.461 66.1084 152.93 65.8194 152.93 64.9794C152.93 64.9794 153.793 64.1624 153.793 64.7484ZM152.953 63.5774C152.953 63.5774 153.129 62.4054 152.461 61.9404V61.2374C152.461 61.2374 153.164 62.2174 153.793 62.2174V63.2724L152.953 63.5774ZM153.793 59.9174V61.0574C153.793 61.0574 152.449 60.9324 150.473 58.4374C150.473 58.4374 153.281 58.9874 153.793 56.3744V57.5464C153.793 57.5464 153.188 58.2454 153.266 58.8864C153.321 59.2793 153.507 59.6433 153.793 59.9174ZM149.613 46.7874C151.609 46.7874 153.793 48.7534 153.793 52.3434V55.7494C153.793 55.7494 153.25 54.0104 151.359 54.3594C151.359 54.3594 151.719 49.2764 148.398 49.0734C148.334 49.0708 148.273 49.0461 148.224 49.0035C148.176 48.9609 148.144 48.9029 148.133 48.8394C148.051 48.2644 148.004 46.7874 149.613 46.7874ZM131.895 18.4754C132.145 18.0964 133.25 17.9954 133.918 17.4834C134.758 16.8464 135.629 15.5074 134.254 14.0304C134.254 14.0304 136.211 13.9714 136.828 13.8624C136.87 13.8553 136.913 13.8636 136.949 13.8859C136.985 13.9082 137.011 13.9429 137.023 13.9834C137.297 14.8974 136.84 15.3504 136.543 16.3354C136.441 16.6784 136.527 17.0224 136.402 17.1514C135.918 17.6314 133.914 18.9244 132.105 18.8424C131.926 18.8354 131.797 18.6284 131.895 18.4754ZM130.867 16.2454C130.82 17.0224 129.523 18.6944 129.121 18.3234C128.559 17.8074 127.613 18.1554 127.445 18.0894C127.277 18.0224 126.168 15.8274 126.348 15.6324C127.227 14.6784 127.578 13.0894 128.383 13.0894C129.188 13.0894 129.758 12.5854 129.758 12.5854C129.758 12.5854 130.867 13.5934 131.891 13.7254C130.633 14.5344 130.887 15.9094 130.867 16.2454ZM109.984 64.7494C109.984 64.1634 110.852 64.9794 110.852 64.9794C110.852 65.8194 111.32 66.1094 111.32 66.1094V70.4874C111.32 70.4874 111.082 69.6044 109.984 69.2454V64.7494ZM109.984 62.2184C110.617 62.2184 111.32 61.2374 111.32 61.2374V61.9404C110.652 62.4054 110.828 63.5774 110.828 63.5774L109.984 63.2724V62.2184ZM109.984 59.9174C109.984 59.9174 110.438 59.5274 110.516 58.8854C110.594 58.2454 109.984 57.5454 109.984 57.5454V56.3744C110.5 58.9874 113.309 58.4364 113.309 58.4364C111.332 60.9324 109.984 61.0574 109.984 61.0574V59.9174ZM109.984 52.3424C109.984 48.7524 112.168 46.7884 114.168 46.7884C115.777 46.7884 115.727 48.2644 115.645 48.8384C115.636 48.902 115.605 48.9602 115.557 49.0031C115.509 49.046 115.448 49.0709 115.383 49.0734C112.059 49.2764 112.418 54.3584 112.418 54.3584C110.531 54.0104 109.984 55.7484 109.984 55.7484V52.3424ZM115.824 50.3464C116.914 50.6904 116.824 51.7214 116.824 51.7214C115.293 51.5034 114.492 54.2914 117.008 54.4364C118.934 54.5464 119.062 52.4404 119.004 51.7294C119.001 51.7022 119.004 51.6747 119.012 51.6485C119.02 51.6224 119.033 51.5982 119.051 51.5775C119.069 51.5569 119.091 51.5403 119.116 51.5287C119.141 51.5172 119.168 51.5109 119.195 51.5104C119.785 51.5064 120.359 51.2924 120.715 51.1244C120.753 51.107 120.794 51.0995 120.835 51.1025C120.876 51.1055 120.916 51.1189 120.95 51.1416C120.985 51.1642 121.013 51.1953 121.032 51.2318C121.051 51.2684 121.061 51.3092 121.059 51.3504C120.93 53.9564 119.594 55.6084 118.258 55.9364C117.484 56.1244 116.328 55.9054 115.496 55.3664C115.309 55.2414 115.059 55.3744 115.047 55.6004L115.035 55.8664C114.789 55.7123 114.561 55.5312 114.355 55.3264C113.316 54.2884 114.262 52.9684 114.262 52.9684C114.047 52.9284 113.781 53.0884 113.613 53.2104C113.547 53.2604 113.449 53.2064 113.453 53.1244C113.531 50.6824 114.895 50.0544 115.824 50.3464ZM116.855 46.6004C116.851 46.5781 116.851 46.555 116.857 46.533C116.863 46.5111 116.874 46.4908 116.89 46.474C116.905 46.4571 116.924 46.4442 116.945 46.4363C116.967 46.4284 116.99 46.4257 117.012 46.4284C117.637 46.4984 119.629 46.8704 120.008 48.6904C120.324 50.2254 119.402 50.7534 118.984 50.9134C118.934 50.9315 118.878 50.929 118.829 50.9064C118.78 50.8837 118.742 50.8428 118.723 50.7924C118.086 49.2454 116.258 49.1284 116.258 49.1284C117.242 48.4134 116.961 47.1084 116.855 46.6004ZM112.418 57.4644C111.109 57.0774 111.219 55.8744 112.199 56.1554C113.184 56.4364 113.121 55.4994 112.98 55.2334C112.84 54.9684 113.73 56.3734 114.777 56.7184C114.777 56.7184 113.73 57.8544 112.418 57.4644ZM113.453 64.0224C113.453 64.0224 112.48 65.4054 113.824 66.2724C113.824 66.2724 113.809 67.3034 112.969 67.3034C112.559 67.3034 111.828 66.4244 111.797 66.0494C111.797 66.0494 112.387 65.7494 112.387 64.9794C112.387 64.2094 112.324 63.0224 112.324 63.0224C112.324 63.0224 113.02 63.8354 113.453 64.0224ZM114.449 66.4284C114.449 66.4284 115.676 66.4244 115.887 65.4054C115.887 65.4054 116.398 65.5034 116.539 66.2414C116.758 67.3624 115.793 68.3934 114.512 68.3934C114.512 68.3934 113.926 68.4564 113.453 68.2684C113.453 68.2684 114.906 67.6484 114.449 66.4284ZM124.082 59.4794C123.332 59.4794 121.926 59.1984 121.504 57.6514C121.504 57.6514 122.641 57.9324 122.52 57.2334C122.395 56.5304 122.488 56.1514 123.098 55.9214C123.129 55.9094 123.16 55.8894 123.188 55.8744L125.418 58.4604C125.02 58.4874 124.449 58.6774 124.082 59.4794ZM157.59 92.1004C157.59 89.9954 157.082 88.0144 156.184 86.2604C156.695 85.0804 157.297 83.1784 156.543 81.9754L156.562 81.9554C156.667 81.8531 156.749 81.7295 156.801 81.593C156.854 81.4565 156.877 81.3103 156.869 81.1641C156.86 81.018 156.821 80.8754 156.753 80.7459C156.684 80.6164 156.589 80.503 156.473 80.4134L155.949 80.0104C155.949 80.0104 156.512 79.5854 156.512 78.8744C156.512 78.1674 154.664 74.6634 155.824 72.8894C155.824 72.8894 156.449 72.1244 156.449 71.0774C156.449 69.7684 155.199 69.1434 155.199 69.1434L155.098 62.1324C155.098 62.1324 156.59 61.7454 156.59 59.4954C156.59 58.0574 155.031 57.3274 155.031 57.3274L154.949 51.8774C154.949 51.8774 155.137 48.0974 152.016 46.5374C148.891 44.9754 150.359 43.0424 150.203 42.7294C150.051 42.4244 148.715 42.8664 148.531 45.1634C148.528 45.2109 148.506 45.2552 148.47 45.2866C148.435 45.3181 148.388 45.3342 148.34 45.3314C147.66 45.2764 145.156 45.2374 143.367 47.4444C141.805 49.3704 141.258 52.6394 142.82 55.0654C142.094 54.2334 140.988 53.8974 140.598 54.0454C140.554 54.0621 140.512 54.0846 140.473 54.1124L136.352 51.5024C136.352 44.4754 145.219 47.0694 144.219 45.0074C143.922 44.3934 142.711 43.9674 141.16 43.6714C140.504 42.7254 139.418 41.6984 137.773 41.6984H136.367C136.367 41.6984 135.805 40.4174 133.465 40.4174H132.727V37.5494C132.914 36.2414 134.961 35.7724 135.059 33.5894C135.227 29.9484 133.734 26.2764 133.32 25.3354C133.273 25.2254 133.348 25.1124 133.461 25.0964C135.113 24.9014 133.152 21.2844 133.281 20.6714C133.414 20.0344 137.609 18.1554 137.91 17.3854C138.215 16.6124 138.047 13.5574 137.273 13.0894C136.504 12.6194 132.039 11.7064 131.051 11.7804C130.363 10.7064 128.852 12.0504 128.852 12.0504C128.852 12.0504 125.355 13.7144 125.129 15.5074C124.859 17.8544 127.109 19.6674 127.277 20.1714C127.445 20.6714 127.02 21.9484 126.84 24.2294C126.738 25.5144 127.602 25.7564 128.008 25.7994C128.031 25.8007 128.054 25.8072 128.074 25.8184C128.094 25.8296 128.111 25.8452 128.125 25.8641C128.138 25.883 128.147 25.9046 128.15 25.9274C128.154 25.9501 128.152 25.9734 128.145 25.9954C128.012 26.4794 127.777 27.9684 128.484 31.5104C128.973 33.9564 130.086 36.1314 131.051 37.2884V40.4174H130.348C128.008 40.4174 127.445 41.6974 127.445 41.6974H126.039C124.395 41.6974 123.309 42.7254 122.656 43.6714C121.102 43.9684 119.891 44.3934 119.594 45.0064C118.594 47.0694 127.461 44.4764 127.461 51.5034L123.387 54.0854C123.363 54.0734 123.34 54.0574 123.312 54.0454C122.582 53.7654 119.371 55.1784 120.758 58.3554C121.973 61.1514 124.723 60.8704 125.637 60.1824C125.777 60.1944 125.895 60.2574 125.992 60.3314V64.6944C125.992 69.0304 123.777 73.0654 120.117 75.3894L120.113 75.3934C119.992 75.4697 119.889 75.5713 119.811 75.6913C119.732 75.8112 119.681 75.9467 119.66 76.0884C119.639 76.2301 119.648 76.3747 119.688 76.5123C119.728 76.6498 119.798 76.7771 119.891 76.8854L121.168 78.3744V79.2494H119.039C115.738 79.2494 112.723 80.4994 110.449 82.5464L110.094 82.0534L110.254 81.8664C110.42 81.6668 110.505 81.4121 110.491 81.1529C110.477 80.8938 110.366 80.6494 110.18 80.4684L109.703 80.0104C109.703 80.0104 110.641 79.6004 110.641 78.8744C110.641 78.1474 109.984 77.5104 109.984 73.4214C109.984 73.4214 111.547 72.8584 111.578 71.2964C112.043 71.6634 112.762 73.2964 113.512 73.2964C114.699 73.2964 115.156 69.5144 115.273 69.4254C115.457 69.2844 116.582 68.6594 117.195 67.6124C117.672 66.7994 117.852 65.6164 117.539 64.7724C117.012 63.3424 115.449 62.8974 114.105 63.5854C111.582 62.2724 113.473 59.6124 114.215 58.7184C114.277 58.6484 114.387 58.7064 114.367 58.7994C113.934 60.7604 116.199 60.9254 116.223 59.7884C116.225 59.7663 116.22 59.7442 116.21 59.7245C116.2 59.7048 116.184 59.6882 116.165 59.6765C116.147 59.6649 116.125 59.6585 116.103 59.6581C116.081 59.6577 116.059 59.6634 116.039 59.6744C115.848 59.7764 115.527 59.8704 115.246 59.5894C114.809 59.1514 115.102 58.2294 115.887 58.0104C116.402 57.8704 116.359 58.8034 116.324 59.1824C116.32 59.2414 116.387 59.2724 116.426 59.2374C116.937 58.7494 117.414 57.7604 118.602 57.1554C122.777 55.0104 122.504 50.0224 120.414 47.4444C118.625 45.2374 116.121 45.2764 115.438 45.3314C115.391 45.3339 115.345 45.3176 115.31 45.2861C115.275 45.2547 115.253 45.2105 115.25 45.1634C115.062 42.8664 113.727 42.4244 113.574 42.7294C113.418 43.0424 114.887 44.9754 111.762 46.5384C108.641 48.0964 108.828 51.8784 108.828 51.8784L108.75 57.3274C108.75 57.3274 107.188 58.0574 107.188 59.4954C107.188 61.7454 108.68 62.1314 108.68 62.1314L108.578 69.1434C108.578 69.1434 107.332 69.7684 107.332 71.0774C107.332 72.1244 107.953 72.8894 107.953 72.8894C109.117 74.6634 107.266 78.1674 107.266 78.8744C107.266 79.5844 107.828 80.0104 107.828 80.0104L107.305 80.4134C107.189 80.5029 107.094 80.6163 107.026 80.7458C106.957 80.8754 106.917 81.0181 106.909 81.1644C106.9 81.3107 106.923 81.4571 106.976 81.5937C107.029 81.7303 107.111 81.854 107.215 81.9564L107.238 81.9764C106.484 83.1784 107.086 85.0814 107.594 86.2604C106.67 88.0682 106.189 90.07 106.191 92.1004V94.9674C106.191 98.3974 107.309 105.612 110.258 112.62C109.77 113.339 109.73 114.464 110.238 115.499C110.746 116.538 111.656 117.198 112.527 117.257C115.852 123.128 120.699 128.155 127.543 129.667C126.984 129.995 126.637 130.495 126.637 130.495C124.805 130.495 124.113 131.819 122.484 132.803C122.195 132.975 122.281 133.417 122.617 133.46C124.477 133.702 127.781 134.385 127.781 136.178C127.781 138.003 126.625 138.917 125.797 139.339C125.777 139.347 125.759 139.361 125.746 139.378C125.692 139.418 125.65 139.472 125.625 139.535C125.6 139.597 125.593 139.665 125.605 139.732C125.617 139.798 125.647 139.859 125.692 139.909C125.737 139.959 125.795 139.996 125.859 140.014C125.867 140.014 125.867 140.022 125.875 140.022C126.703 140.296 128.207 140.714 128.207 141.893C128.207 142.776 127.02 143.76 127.02 143.76V144.135C124.23 144.135 124.762 150.425 123.555 154.089C123.234 155.065 122.547 155.526 121.984 155.831C120.91 156.061 119.945 156.339 119.141 156.663C117.387 157.366 116.859 158.26 116.172 158.753C115.676 159.112 114.203 159.276 113.547 159.675C113.299 159.827 113.094 160.041 112.952 160.296C112.81 160.55 112.737 160.837 112.738 161.128V161.862C112.738 161.862 117.422 162.983 131.891 162.983C146.355 162.983 151.043 161.862 151.043 161.862V161.128C151.044 160.837 150.97 160.551 150.829 160.296C150.687 160.042 150.482 159.828 150.234 159.675C149.574 159.276 148.105 159.112 147.605 158.753C146.918 158.26 146.395 157.366 144.641 156.663C143.832 156.339 142.867 156.061 141.797 155.831C141.23 155.526 140.547 155.065 140.223 154.089C139.016 150.425 139.551 144.135 136.762 144.135V143.76C136.762 143.76 135.57 142.776 135.57 141.893C135.57 140.714 137.078 140.296 137.906 140.022C137.91 140.022 137.914 140.014 137.922 140.014C137.997 139.991 138.062 139.945 138.108 139.883C138.155 139.821 138.18 139.745 138.18 139.667C138.18 139.611 138.166 139.556 138.141 139.506C138.116 139.456 138.08 139.412 138.035 139.378C138.021 139.361 138.002 139.347 137.98 139.339C137.156 138.917 135.996 138.003 135.996 136.178C135.996 134.385 139.301 133.702 141.164 133.46C141.5 133.417 141.586 132.975 141.293 132.803C139.668 131.819 138.973 130.495 137.145 130.495C137.145 130.495 136.797 129.995 136.238 129.667C143.082 128.155 147.93 123.12 151.258 117.249C152.102 117.155 152.977 116.507 153.469 115.499C153.957 114.495 153.934 113.413 153.492 112.69C156.461 105.663 157.59 98.4094 157.59 94.9674V92.1004Z" fill="#606F7F"/>
<path d="M52.227 133.526L51.875 133.214C55.207 126.432 71.82 90.858 71.82 55.284H82.871C78.898 93.819 64.184 122.362 52.227 133.526ZM51.809 25.866C55.246 22.666 56.844 20.272 56.844 20.272C57.559 23.085 57.774 25.546 57.836 26.706C56.668 26.382 54.836 26.066 51.809 25.866ZM59.707 37.921C62.055 37.331 61.859 36.655 61.859 36.655H64.91C64.7918 36.6856 64.6888 36.7582 64.6202 36.8593C64.5517 36.9603 64.5224 37.0829 64.5377 37.204C64.553 37.3252 64.612 37.4366 64.7035 37.5174C64.7951 37.5982 64.9129 37.6428 65.035 37.643C65.085 37.643 65.129 37.632 65.175 37.62C65.441 37.96 65.977 38.608 65.977 38.608C65.977 38.608 65.711 38.979 65.856 39.3C66 39.62 64.684 40.194 64.508 40.69C64.328 41.182 63.453 41.296 63.508 41.675C63.566 42.054 64.348 42.843 64.348 42.843C64.348 42.843 64.496 42.202 64.758 42.147C65.023 42.089 65.953 42.182 65.981 42.534C66.008 42.882 64.926 43.749 64.633 43.514C64.633 43.514 64.398 44.097 65.008 44.624C65.008 44.624 65.941 44.05 66.028 44.456C66.113 44.866 65.176 45.761 64.242 46.018C63.305 46.276 62.461 46.475 61.617 46.093C60.773 45.706 59.641 45.44 59.34 46.803L59.512 46.89C58.8642 46.9597 58.2646 47.2652 57.8273 47.7483C57.3901 48.2314 57.1459 48.8585 57.141 49.51C57.141 49.768 57.176 50.018 57.246 50.253C55.984 48.901 55.348 47.163 55.386 44.878C55.465 40.108 57.363 38.511 59.707 37.921ZM61.625 47.608C62.293 47.507 63.575 47.393 64.582 47.768C64.918 47.898 66.328 48.928 66.449 49.37C66.606 49.936 66.531 52.628 65.523 53.085C65.3841 53.1469 65.2614 53.2402 65.1646 53.3575C65.0678 53.4747 64.9994 53.6129 64.965 53.761C64.0158 53.6103 63.0804 53.3829 62.168 53.081C61.397 52.8325 60.645 52.5284 59.918 52.171C60.4368 52.1481 60.9374 51.9732 61.3575 51.6679C61.7776 51.3626 62.0986 50.9404 62.2806 50.4541C62.4625 49.9677 62.4974 49.4385 62.3808 48.9324C62.2642 48.4264 62.0014 47.9658 61.625 47.608ZM66.68 36.655C66.5951 36.6968 66.5237 36.7617 66.474 36.8422C66.4244 36.9227 66.3984 37.0156 66.3991 37.1102C66.3998 37.2048 66.4272 37.2973 66.4782 37.3771C66.5291 37.4568 66.6015 37.5206 66.687 37.561L66.387 38.339L65.422 37.464C65.4992 37.3752 65.5422 37.2617 65.543 37.144C65.5436 37.033 65.5076 36.9249 65.4405 36.8365C65.3734 36.7481 65.279 36.6843 65.172 36.655H66.68ZM67.531 52.733C67.559 52.475 67.984 49.847 68.617 49.702C69.039 49.604 71.262 50.046 73.559 48.866C74.656 48.304 74.816 49.042 75.332 49.835C75.836 50.612 76.402 51.831 76.305 52.605C76.242 53.12 74.629 53.229 74.543 53.89C74.305 53.89 74.063 53.89 73.813 53.893C71.16 53.901 69.082 54.065 67.043 53.968C67.441 53.718 67.465 53.3 67.531 52.733ZM68.539 36.655C68.4797 36.7016 68.4314 36.7607 68.3977 36.8281C68.364 36.8956 68.3457 36.9696 68.344 37.045C68.344 37.249 68.461 37.417 68.629 37.499L67.695 38.378L67.137 37.546C67.2171 37.5039 67.2845 37.441 67.332 37.364C67.3795 37.2869 67.4054 37.1985 67.407 37.108C67.407 36.909 67.289 36.738 67.121 36.655H68.539ZM69.352 37.054C69.3513 36.9771 69.3334 36.9013 69.2995 36.8322C69.2655 36.7631 69.2165 36.7026 69.156 36.655H69.894C69.8003 36.7503 69.746 36.8774 69.742 37.011C69.742 37.101 69.769 37.186 69.809 37.257L69.156 37.948L69.019 37.522C69.1151 37.4865 69.1982 37.4228 69.2576 37.3394C69.317 37.2559 69.3499 37.1565 69.352 37.054ZM70.242 37.518C70.3756 37.5188 70.5041 37.4667 70.5993 37.3729C70.6945 37.2792 70.7487 37.1516 70.75 37.018C70.75 36.878 70.691 36.748 70.598 36.655H83.672C83.676 36.807 83.676 36.968 83.68 37.135C83.68 37.132 83.68 37.128 83.676 37.124C83.676 37.124 82.574 38.124 81.773 38.417L81.805 37.823C81.805 37.823 80.613 37.764 79.641 38.315C79.348 38.479 77.562 38.034 76.231 38.265C74.254 38.608 72.227 39.069 72.449 41.445C72.672 43.815 77.399 42.143 78.164 42.011C79.383 41.8 81.066 42.237 80.496 43.565C79.926 44.897 78.894 43.882 78.422 43.733C77.949 43.581 76.852 43.515 75.394 43.979C73.941 44.444 72.609 44.346 72.316 43.843C72.019 43.339 72.793 43.433 72.793 43.433L71.348 42.03L71.766 41.557L70.559 40.097L70.769 39.687C70.769 39.687 70.004 39.057 69.437 39.027C69.437 39.027 69.207 38.764 69.621 38.3C69.894 37.991 70.078 37.683 70.168 37.51C70.1924 37.5146 70.2172 37.5173 70.242 37.518ZM78.523 52.19C78.027 49.964 78.519 48.929 78.519 48.929C78.519 48.929 79.457 49.991 80.035 50.554C81.355 51.843 81.762 52.741 81.703 53.065C81.644 53.39 80.922 53.397 80.84 53.89C79.918 53.886 78.637 53.882 76.86 53.886C77.02 53.843 77.172 53.768 77.297 53.656C77.766 53.237 78.586 52.464 78.523 52.19ZM83.153 52.136C83.144 52.12 83.141 52.1 83.129 52.089C82.922 51.815 81.32 50.046 81.187 47.522C81.164 47.026 81.078 46.152 80.547 45.405C80.547 45.405 82.602 43.846 81.867 42.565C81.133 41.288 79.625 40.835 77.637 41.205C75.648 41.581 73.41 42.132 73.34 41.093C73.258 39.921 75.606 38.499 79.277 39.35C79.277 39.35 79.832 40.718 81.137 40.577C82.441 40.437 81.91 40.257 81.559 39.807C81.559 39.807 83.481 38.495 83.684 37.472C83.711 41.429 83.341 48.764 83.153 52.136ZM44.034 25.647C42.101 25.647 40.414 25.679 38.937 25.729L44.034 18.799L49.128 25.729C47.4306 25.6726 45.7323 25.6452 44.034 25.647ZM30.23 26.706C30.292 25.546 30.507 23.085 31.222 20.272C31.222 20.272 32.819 22.667 36.257 25.866C33.229 26.066 31.398 26.382 30.23 26.706ZM35.839 133.526C23.883 122.362 9.168 93.819 5.195 55.284H16.246C16.246 90.858 32.859 126.432 36.191 133.214L35.839 133.526ZM4.879 52.143C4.695 48.773 4.32 41.409 4.348 37.456C4.531 38.479 6.48 39.808 6.48 39.808C6.125 40.257 5.594 40.436 6.898 40.577C8.203 40.717 8.758 39.35 8.758 39.35C12.43 38.499 14.778 39.92 14.699 41.093C14.625 42.132 12.387 41.581 10.399 41.206C8.414 40.835 6.902 41.288 6.168 42.566C5.438 43.846 7.492 45.406 7.492 45.406C6.957 46.151 6.872 47.026 6.848 47.522C6.715 50.046 5.113 51.815 4.906 52.089C4.895 52.104 4.886 52.124 4.879 52.143ZM10.739 53.655C10.867 53.768 11.016 53.843 11.176 53.885C9.402 53.882 8.117 53.885 7.199 53.89C7.117 53.397 6.391 53.39 6.332 53.065C6.273 52.741 6.68 51.843 8 50.554C8.578 49.991 9.516 48.929 9.516 48.929C9.516 48.929 10.012 49.964 9.512 52.19C9.449 52.464 10.27 53.237 10.738 53.655H10.739ZM4.363 36.655H17.441C17.3917 36.7015 17.3526 36.7578 17.3264 36.8204C17.3003 36.8829 17.2875 36.9502 17.289 37.018C17.2891 37.0902 17.3049 37.1615 17.3352 37.227C17.3655 37.2925 17.4096 37.3507 17.4645 37.3976C17.5194 37.4444 17.5839 37.4788 17.6533 37.4984C17.7228 37.518 17.7957 37.5223 17.867 37.511C17.961 37.683 18.141 37.991 18.418 38.3C18.828 38.765 18.598 39.026 18.598 39.026C18.035 39.058 17.266 39.686 17.266 39.686L17.476 40.096L16.27 41.558L16.688 42.03L15.246 43.432C15.246 43.432 16.016 43.339 15.723 43.842C15.43 44.347 14.093 44.444 12.641 43.979C11.184 43.514 10.09 43.581 9.617 43.733C9.141 43.882 8.109 44.897 7.539 43.565C6.969 42.237 8.652 41.8 9.871 42.011C10.637 42.143 15.367 43.815 15.59 41.444C15.813 39.069 13.781 38.608 11.805 38.264C10.473 38.034 8.688 38.479 8.395 38.315C7.422 37.765 6.23 37.823 6.23 37.823L6.262 38.417C5.461 38.124 4.359 37.124 4.359 37.124C4.355 37.136 4.355 37.147 4.352 37.159C4.355 36.983 4.355 36.815 4.363 36.655ZM18.883 36.655C18.8118 36.7095 18.7565 36.7822 18.723 36.8654C18.6895 36.9486 18.679 37.0393 18.6926 37.1279C18.7062 37.2166 18.7434 37.2999 18.8003 37.3693C18.8572 37.4386 18.9317 37.4914 19.016 37.522L18.883 37.948L18.227 37.257C18.2815 37.1614 18.3026 37.0503 18.2871 36.9413C18.2715 36.8323 18.2201 36.7316 18.141 36.655H18.883ZM19.418 49.702C20.051 49.847 20.477 52.475 20.508 52.733C20.574 53.3 20.594 53.718 20.992 53.968C18.953 54.065 16.875 53.901 14.219 53.893C13.969 53.889 13.73 53.889 13.492 53.889C13.406 53.229 11.793 53.12 11.73 52.604C11.637 51.831 12.2 50.612 12.703 49.834C13.219 49.042 13.379 48.304 14.477 48.866C16.777 50.046 19 49.604 19.418 49.702ZM19.496 36.655H20.914C20.8288 36.6959 20.7571 36.7602 20.7073 36.8405C20.6575 36.9207 20.6317 37.0136 20.633 37.108C20.633 37.3 20.743 37.464 20.898 37.546L20.34 38.378L19.41 37.498C19.4864 37.461 19.552 37.405 19.6007 37.3354C19.6494 37.2658 19.6795 37.185 19.6881 37.1005C19.6967 37.016 19.6836 36.9308 19.6499 36.8528C19.6163 36.7748 19.5633 36.7067 19.496 36.655ZM21.356 36.655H22.867C22.7853 36.6769 22.7104 36.7191 22.6495 36.7778C22.5885 36.8364 22.5434 36.9096 22.5184 36.9904C22.4935 37.0713 22.4894 37.1571 22.5066 37.2399C22.5239 37.3228 22.5618 37.3999 22.617 37.464L21.652 38.339L21.348 37.561C21.4336 37.5207 21.506 37.457 21.557 37.3773C21.6081 37.2976 21.6356 37.2051 21.6364 37.1105C21.6372 37.0159 21.6114 36.923 21.5618 36.8424C21.5122 36.7618 21.4408 36.6969 21.356 36.655ZM28.117 52.171C27.437 52.507 26.687 52.811 25.863 53.081C24.9521 53.3833 24.0179 53.6107 23.07 53.761C23.0356 53.6129 22.9672 53.4747 22.8704 53.3575C22.7736 53.2402 22.6509 53.1469 22.512 53.085C21.504 52.628 21.434 49.936 21.586 49.37C21.707 48.929 23.117 47.897 23.457 47.768C24.461 47.393 25.747 47.507 26.414 47.608C26.1515 47.8568 25.9429 48.1568 25.8012 48.4895C25.6595 48.8222 25.5876 49.1804 25.59 49.542C25.5951 50.2203 25.8599 50.8708 26.33 51.3598C26.8 51.8488 27.4395 52.1391 28.117 52.171ZM23.125 36.655H26.172C26.172 36.655 25.977 37.331 28.324 37.921C30.672 38.511 32.566 40.108 32.644 44.878C32.684 47.159 32.051 48.898 30.793 50.248C30.859 50.011 30.895 49.765 30.895 49.511C30.8904 48.8591 30.646 48.2317 30.2086 47.7484C29.7712 47.265 29.1712 46.9595 28.523 46.89L28.695 46.804C28.395 45.44 27.262 45.706 26.418 46.093C25.574 46.475 24.73 46.276 23.797 46.018C22.863 45.761 21.926 44.866 22.007 44.456C22.094 44.05 23.031 44.624 23.031 44.624C23.637 44.097 23.402 43.514 23.402 43.514C23.113 43.749 22.027 42.882 22.055 42.534C22.082 42.182 23.015 42.089 23.277 42.147C23.539 42.202 23.687 42.843 23.687 42.843C23.687 42.843 24.473 42.053 24.527 41.675C24.582 41.295 23.707 41.183 23.531 40.69C23.351 40.194 22.039 39.62 22.18 39.3C22.324 38.98 22.063 38.608 22.063 38.608C22.063 38.608 22.593 37.96 22.863 37.62C22.906 37.632 22.953 37.643 23 37.643C23.1221 37.6428 23.24 37.5982 23.3315 37.5174C23.423 37.4366 23.482 37.3252 23.4973 37.204C23.5126 37.0829 23.4833 36.9603 23.4147 36.8593C23.3462 36.7582 23.2432 36.6856 23.125 36.655ZM55.27 136.222C64.055 126.077 86.066 94.632 86.066 34.206H60.418C60.02 33.89 59.488 33.671 58.77 33.671C58.77 33.671 59.266 33.093 57.828 32.499H57.832L59 29.19C59.875 29.354 60.656 28.077 59.617 27.436C59.582 27.416 59.543 27.393 59.507 27.374C60.145 26.206 61.594 23.304 62.328 19.815H61.715C61.715 19.815 65.085 13.69 65.925 9.28802V9.28402H65.93C66.5023 9.28323 67.0508 9.05527 67.4551 8.65025C67.8593 8.24523 68.0863 7.69628 68.086 7.12402C68.0865 6.72969 67.979 6.34276 67.7751 6.00521C67.5713 5.66766 67.2789 5.39238 66.9296 5.20926C66.5804 5.02614 66.1877 4.94216 65.7941 4.96643C65.4005 4.99071 65.0211 5.12232 64.697 5.34697C64.3729 5.57163 64.1166 5.88075 63.9557 6.24079C63.7949 6.60084 63.7358 6.99805 63.7847 7.38933C63.8336 7.78062 63.9888 8.15102 64.2334 8.46035C64.478 8.76968 64.8026 9.00612 65.172 9.14402L65.16 9.17102C65.16 9.17102 63.094 14.8 61.715 16.905C61.715 16.905 61.66 9.84302 60.812 5.99502C61.254 5.96232 61.6769 5.80133 62.0287 5.53179C62.3806 5.26225 62.6461 4.89588 62.7928 4.47762C62.9394 4.05936 62.9608 3.60739 62.8543 3.17715C62.7478 2.74691 62.5181 2.3571 62.1933 2.05554C61.8684 1.75397 61.4627 1.55376 61.0257 1.47945C60.5888 1.40515 60.1396 1.45999 59.7334 1.63724C59.3272 1.81449 58.9815 2.10645 58.7388 2.47731C58.496 2.84817 58.3668 3.2818 58.367 3.72502C58.367 4.57302 58.832 5.31102 59.52 5.70202C58.453 7.57702 56.082 11.198 51.496 16.002L44.434 4.70202C44.9812 4.59754 45.4749 4.30548 45.8299 3.87615C46.1849 3.44683 46.3791 2.90713 46.379 2.35002C46.3662 1.72238 46.1079 1.12477 45.6594 0.685422C45.211 0.246075 44.6083 0 43.9805 0C43.3527 0 42.75 0.246075 42.3016 0.685422C41.8531 1.12477 41.5948 1.72238 41.582 2.35002C41.582 3.55002 42.469 4.54602 43.625 4.71802L36.57 16.002C31.988 11.197 29.617 7.57602 28.547 5.70102C28.8968 5.50294 29.1878 5.21555 29.3902 4.86821C29.5926 4.52087 29.6991 4.12603 29.699 3.72402C29.6992 3.2808 29.57 2.84717 29.3272 2.47631C29.0845 2.10545 28.7388 1.81349 28.3326 1.63624C27.9264 1.45899 27.4772 1.40415 27.0403 1.47845C26.6033 1.55276 26.1976 1.75297 25.8727 2.05454C25.5479 2.3561 25.3182 2.74591 25.2117 3.17615C25.1052 3.60639 25.1266 4.05836 25.2732 4.47662C25.4199 4.89488 25.6854 5.26125 26.0373 5.53079C26.3891 5.80033 26.812 5.96132 27.254 5.99402C26.406 9.84202 26.352 16.904 26.352 16.904C24.972 14.799 22.906 9.17002 22.906 9.17002L22.895 9.14202C23.3067 8.98833 23.6616 8.7125 23.9122 8.35148C24.1628 7.99046 24.297 7.56148 24.297 7.12202C24.3058 6.8331 24.2565 6.54536 24.152 6.27585C24.0475 6.00634 23.89 5.76056 23.6887 5.55308C23.4874 5.34561 23.2466 5.18065 22.9804 5.06801C22.7142 4.95536 22.4281 4.89732 22.139 4.89732C21.8499 4.89732 21.5638 4.95536 21.2976 5.06801C21.0314 5.18065 20.7906 5.34561 20.5893 5.55308C20.388 5.76056 20.2305 6.00634 20.126 6.27585C20.0215 6.54536 19.9722 6.8331 19.981 7.12202C19.981 8.31402 20.945 9.28302 22.137 9.28302H22.141V9.28702C22.981 13.689 26.351 19.814 26.351 19.814H25.738C26.473 23.303 27.922 26.204 28.558 27.373L28.453 27.435C27.41 28.076 28.191 29.353 29.066 29.189L30.234 32.498H30.238C28.801 33.092 29.297 33.67 29.297 33.67C28.582 33.67 28.047 33.888 27.648 34.205H2C2 94.631 24.012 126.076 32.797 136.221L32.809 136.256L17.602 152.846C15.48 154.724 17.891 158.4 19.766 160.67C20.2693 161.281 20.9014 161.773 21.6172 162.11C22.333 162.448 23.1146 162.623 23.906 162.623H64.16C64.9514 162.623 65.733 162.448 66.4488 162.11C67.1646 161.773 67.7967 161.281 68.3 160.67C70.172 158.4 72.586 154.724 70.465 152.846L55.258 136.256L55.269 136.221L55.27 136.222Z" fill="#606F7F"/>
</g>
<defs>
<clipPath id="clip0_645_10272">
<rect width="159.59" height="162.983" fill="white"/>
</clipPath>
</defs>
</svg>
