<svg width="160" height="170" viewBox="0 0 160 170" fill="none" xmlns="http://www.w3.org/2000/svg">
<path d="M98.7533 105.004C93.5033 118.34 86.8933 122.453 86.8933 122.453C85.9133 122.996 86.4523 122.113 86.4523 122.113C100.909 102.555 100.276 87.805 100.327 87.262C100.374 86.727 100.815 87.215 100.815 87.215C100.815 87.215 102.679 95.062 98.7533 105.004ZM80.1983 141.078C79.5073 141.095 78.8201 140.973 78.1769 140.72C77.5337 140.467 76.9476 140.088 76.453 139.605C75.9585 139.122 75.5655 138.546 75.2971 137.909C75.0288 137.272 74.8906 136.588 74.8906 135.896C74.8906 135.205 75.0288 134.521 75.2971 133.884C75.5655 133.247 75.9585 132.671 76.453 132.188C76.9476 131.705 77.5337 131.326 78.1769 131.073C78.8201 130.82 79.5073 130.698 80.1983 130.715C80.8848 130.705 81.5663 130.832 82.2033 131.089C82.8403 131.345 83.4201 131.725 83.9089 132.207C84.3978 132.689 84.7859 133.263 85.0509 133.897C85.3158 134.53 85.4523 135.21 85.4523 135.896C85.4523 136.583 85.3158 137.263 85.0509 137.896C84.7859 138.53 84.3978 139.104 83.9089 139.586C83.4201 140.068 82.8403 140.448 82.2033 140.704C81.5663 140.961 80.8848 141.088 80.1983 141.078ZM73.1983 122.453C73.1983 122.453 66.5933 118.34 61.3383 105.004C57.4173 95.062 59.2803 87.214 59.2803 87.214C59.2803 87.214 59.7213 86.727 59.7683 87.262C59.8193 87.805 59.1823 102.555 73.6353 122.113C73.6353 122.113 74.1783 122.996 73.1983 122.453ZM106.647 74.719C106.647 74.719 106.55 74.129 105.518 73.051C105.518 73.051 104.096 67.758 102.284 66.09C102.284 66.09 102.038 65.5 100.764 65.7C100.764 65.7 100.327 59.426 98.8073 54.234C98.8073 54.234 97.9253 51.004 80.0613 51H80.0343C62.1673 51.004 61.2883 54.234 61.2883 54.234C59.7683 59.426 59.3273 65.699 59.3273 65.699C58.0543 65.5 57.8073 66.089 57.8073 66.089C55.9913 67.758 54.5733 73.051 54.5733 73.051C53.5423 74.129 53.4443 74.719 53.4443 74.719C52.7603 77.121 52.9093 81.629 53.5963 90.449C54.2803 99.273 56.4363 104.371 58.5463 109.668C60.9213 115.637 60.5143 114.727 68.5893 128.488C71.7763 136.82 70.6983 139.609 69.6753 143.23C68.6393 146.863 65.4553 155.445 65.4553 155.445H62.7573C62.0273 156.078 61.3393 157.055 61.0933 158.035C60.8433 159.016 61.5813 159.262 61.5813 159.262H62.6433V163.188H61.6833C60.9443 163.188 60.9753 163.938 60.9753 163.938C60.9753 167.367 64.6713 168.086 64.6713 168.086H95.4213C95.4213 168.086 99.1203 167.367 99.1203 163.938C99.1203 163.938 99.1473 163.188 98.4133 163.188H97.4523V159.262H98.5103C98.5103 159.262 99.2453 159.016 99.0033 158.035C98.7533 157.055 98.0653 156.078 97.3353 155.445H94.6393C94.6393 155.445 91.4523 146.863 90.4213 143.23C89.3973 139.609 88.3153 136.82 91.5033 128.488C91.5033 128.488 99.4403 114.957 101.55 109.668C103.655 104.371 105.811 99.273 106.499 90.449C107.186 81.629 107.335 77.121 106.647 74.719Z" fill="#606F7F"/>
</svg>
