<svg width="160" height="170" viewBox="0 0 160 170" fill="none" xmlns="http://www.w3.org/2000/svg">
<path d="M111.428 29.4541C111.409 29.3223 111.341 29.2025 111.237 29.1185C111.134 29.0346 111.003 28.9926 110.87 29.0011L94.5916 30.2601H65.8536L49.5806 29.0021C49.4469 28.9926 49.3146 29.034 49.2102 29.118C49.1058 29.202 49.037 29.3224 49.0176 29.4551L49.0026 29.5801C48.9981 29.627 48.9994 29.6744 49.0066 29.7211L49.5176 32.2051C49.5412 32.321 49.5884 32.4309 49.6564 32.5278C49.7244 32.6246 49.8116 32.7064 49.9126 32.7681L50.4206 33.0801C50.4206 33.0801 53.9986 41.2251 56.5376 54.1591C59.4676 69.0691 63.7956 94.1391 63.7956 94.1391C63.5096 94.4201 63.4006 94.8391 63.5176 95.2251L68.1816 111.112C68.4206 111.928 68.4476 112.791 68.2636 113.623L68.1706 114.03C68.1046 114.344 67.9562 114.635 67.7406 114.873C67.5176 115.116 67.2326 115.51 67.1236 116.014C67.0216 116.475 67.1856 117.053 67.3696 117.502C67.5796 118.026 67.6306 118.6 67.5136 119.155L66.4126 124.287C66.1426 125.339 65.9521 126.41 65.8426 127.491L65.1826 133.952C65.1426 134.362 65.0606 134.764 64.9476 135.159L63.5876 139.768C63.5136 140.014 63.3976 140.248 63.2286 140.448C62.9236 140.807 62.4196 141.495 62.2836 142.264C62.2216 142.576 62.2081 142.897 62.2436 143.213C62.3036 143.705 62.0536 144.182 61.5996 144.381L61.4476 144.448C60.8776 144.698 60.4556 145.202 60.3076 145.807L56.2986 162.483C56.1896 162.932 56.3106 163.412 56.6346 163.741C57.9866 165.104 62.9396 168.131 80.2246 168.131C97.5066 168.131 102.46 165.104 103.811 163.741C104.139 163.412 104.256 162.932 104.147 162.483L100.139 145.807C100.066 145.508 99.9248 145.23 99.7271 144.995C99.5294 144.759 99.2802 144.572 98.9986 144.448L98.8456 144.381C98.6269 144.282 98.4462 144.114 98.3302 143.904C98.2142 143.693 98.1691 143.451 98.2016 143.213C98.237 142.897 98.2252 142.577 98.1666 142.264C98.0256 141.495 97.5216 140.807 97.2206 140.448C97.0549 140.248 96.9314 140.017 96.8576 139.768L95.5026 135.159C95.3841 134.765 95.304 134.361 95.2636 133.952L94.6036 127.491C94.4936 126.409 94.3036 125.338 94.0336 124.287L92.9316 119.155C92.8161 118.601 92.868 118.026 93.0806 117.502C93.2606 117.053 93.4236 116.475 93.3266 116.014C93.2227 115.586 93.0086 115.193 92.7056 114.873C92.4901 114.635 92.3417 114.344 92.2756 114.03L92.1856 113.623C91.9983 112.793 92.0251 111.929 92.2636 111.112L96.9276 95.2251C96.9847 95.036 96.989 94.8349 96.9402 94.6435C96.8914 94.4521 96.7913 94.2777 96.6506 94.1391C96.6506 94.1391 100.979 69.0691 103.909 54.1591C106.452 41.2251 110.026 33.0801 110.026 33.0801L110.534 32.7681C110.634 32.7063 110.722 32.6245 110.789 32.5276C110.857 32.4308 110.904 32.3209 110.928 32.2051L111.44 29.7211C111.449 29.675 111.45 29.6276 111.444 29.5811L111.428 29.4541Z" fill="#606F7F"/>
</svg>
